<?xml version="1.0" encoding="UTF-8"?>
<!-- Generated by Pixelmator Pro 3.5.7 -->
<svg class="svg-inline-icon" viewBox="0 0 501 500" xmlns="http://www.w3.org/2000/svg">
    <path id="Path-copy" fill="#44bf00" stroke="none" d="M 250.5 500 C 388.570801 500 500.5 388.070801 500.5 250 C 500.5 111.929199 388.570801 0 250.5 0 C 112.429199 0 0.5 111.929199 0.5 250 C 0.5 388.070801 112.429199 500 250.5 500"/>
    <clipPath id="clipPath-iYZ79-1">
        <path d="M 0.5 250 C 0.5 388.070801 112.428955 500 250.5 500 L 250.5 500 C 388.571045 500 500.5 388.070801 500.5 250 L 500.5 250 C 500.5 111.929199 388.571045 0 250.5 0 L 250.5 0 C 112.428955 0 0.5 111.929199 0.5 250"/>
    </clipPath>
    <g id="Group-copy-3" clip-path="url(#clipPath-iYZ79-1)">
        <path id="Path" fill="#286fb7" stroke="none" d="M 505.905029 355.731445 L 505.905029 621.060547 L -16.324219 621.060547 L -16.324219 347.177246 C -9.053223 354.743652 1.16333 359.447754 12.484131 359.447754 C 22.650879 359.447754 31.896729 355.647949 38.950928 349.414551 C 46.009277 355.647949 55.259277 359.447754 65.425781 359.447754 C 75.592529 359.447754 84.871582 355.647949 91.91333 349.414551 C 98.950928 355.664551 108.234131 359.447754 118.384277 359.447754 C 128.53418 359.447754 137.825928 355.647949 144.871582 349.397949 C 151.925781 355.647949 161.175781 359.447754 171.338379 359.447754 C 181.509033 359.447754 190.754883 355.647949 197.813232 349.397949 C 204.85083 355.647949 214.150879 359.447754 224.300781 359.447754 C 234.450928 359.447754 243.746582 355.647949 250.78833 349.414551 C 257.825928 355.664551 267.088379 359.447754 277.259277 359.447754 C 287.425781 359.447754 296.671631 355.647949 303.72998 349.414551 C 310.78833 355.647949 320.050781 359.447754 330.213379 359.447754 C 340.367432 359.447754 349.646729 355.664551 356.688232 349.414551 C 363.72583 355.664551 373.009277 359.447754 383.15918 359.447754 C 393.309082 359.447754 402.60498 355.647949 409.646729 349.397949 C 416.700928 355.647949 425.950928 359.447754 436.117432 359.447754 C 446.28418 359.447754 455.530029 355.647949 462.588379 349.397949 C 469.629883 355.647949 478.925781 359.447754 489.075928 359.447754 C 495.080078 359.447754 500.78833 358.114746 505.905029 355.731445"/>
        <path id="path1" fill="none" stroke="#663816" stroke-width="9.295834" stroke-linecap="round" d="M 250.5 265.364746 L 250.5 366.022949"/>
        <path id="path2" fill="none" stroke="#663816" stroke-width="2.5" stroke-linecap="round" d="M 297.970459 349.795898 C 306.932861 349.795898 314.195313 357.0625 314.195313 366.020996"/>
        <path id="path3" fill="none" stroke="#663816" stroke-width="2.5" stroke-linecap="round" d="M 178.674072 355.818848 C 184.307617 355.818848 188.878418 360.385254 188.878418 366.022949"/>
        <path id="path4" fill="none" stroke="#663816" stroke-width="2.5" stroke-linecap="round" d="M 174.290527 366.021973 C 176.13623 352.326172 187.869629 341.101074 202.06958 341.101074"/>
        <path id="path5" fill="none" stroke="#663816" stroke-width="5" stroke-linecap="round" d="M 297.970459 366.021973 L 297.970459 354.917969 C 297.970459 328.230469 276.337158 306.601074 249.653809 306.601074 C 222.966309 306.601074 201.333008 328.230469 201.333008 354.917969 L 201.333008 366.021973"/>
        <path id="path6" fill="none" stroke="#663816" stroke-width="5" stroke-linecap="round" d="M 278.477051 366.021973 L 278.477051 359.396973 C 278.477051 343.476074 265.572998 330.572266 249.6521 330.572266 C 233.731201 330.572266 220.827148 343.476074 220.827148 359.396973 L 220.827148 366.021973"/>
        <path id="path7" fill="#368900" stroke="none" d="M 151.114258 259.847168 C 146.82251 257.292969 144.430908 252.226074 145.601563 247.097168 C 146.768311 241.98877 151.084961 238.472168 156.030762 238.005371 C 152.418213 234.55957 151.209961 229.088867 153.493408 224.347168 C 155.768311 219.626465 160.76001 217.159668 165.685059 217.805176 C 162.926758 213.643066 162.968262 208.038574 166.247559 203.92627 C 169.518311 199.830566 174.930908 198.530273 179.589111 200.255371 C 177.82666 195.584473 179.118408 190.130371 183.230713 186.851074 C 187.32251 183.588867 192.893311 183.526367 197.051758 186.242676 C 196.372559 181.30127 198.843262 176.268066 203.584961 173.98877 C 208.305908 171.713867 213.747559 172.896973 217.193359 176.472168 C 217.630859 171.49707 221.159912 167.143066 226.289063 165.972168 C 231.397461 164.805176 236.439209 167.171875 239.005859 171.42627 C 240.543213 166.671875 244.94751 163.213867 250.209961 163.213867 C 255.44751 163.213867 259.839111 166.638672 261.393311 171.355469 C 263.94751 167.063965 269.01416 164.671875 274.143311 165.842773 C 279.251709 167.009766 282.768311 171.326172 283.235107 176.271973 C 286.680908 172.655273 292.155762 171.451172 296.893311 173.734375 C 301.614258 176.005371 304.080811 181.001465 303.435059 185.92627 C 307.597412 183.167969 313.205811 183.209473 317.318359 186.492676 C 321.409912 189.755371 322.709961 195.17627 320.985107 199.830566 C 325.655762 198.067871 331.110107 199.355469 334.38916 203.472168 C 337.655762 207.567871 337.714111 213.138672 334.993408 217.292969 C 339.943359 216.61377 344.972412 219.084473 347.255859 223.826172 C 349.526611 228.542969 348.343262 233.98877 344.772461 237.43457 C 349.743408 237.876465 354.097412 241.401367 355.268311 246.530273 C 356.435059 251.638672 354.068359 256.680176 349.818359 259.24707 C 354.568359 260.780273 358.030762 265.188965 358.030762 270.451172 C 358.030762 270.713867 357.968262 270.959473 357.95166 271.213867 C 357.980713 271.467773 358.030762 271.713867 358.030762 271.976074 L 358.030762 271.980469 C 358.030762 277.98877 353.159912 282.859375 347.147461 282.859375 L 156.926758 282.859375 L 156.926758 282.546875 C 156.222412 282.67627 155.539063 282.859375 154.797607 282.859375 C 148.268311 282.859375 142.972412 277.563965 142.972412 271.030273 C 142.972412 265.792969 146.397461 261.401367 151.114258 259.847168"/>
        <path id="path8" fill="#368900" stroke="none" d="M 306.980713 29.978516 L 219.789063 26.528809 L 206.005859 25.98291 L 205.459961 39.770508 L 204.401611 66.449707 L 203.860107 80.237305 L 217.643311 80.782715 L 304.834961 84.23291 L 318.622559 84.778809 L 319.164063 70.991211 L 320.222412 44.312012 L 320.76416 30.524414 Z"/>
        <path id="path9" fill="#4cb648" stroke="none" d="M 311.225098 38.848145 L 311.233398 96.806152 L 188.62915 96.827148 L 188.62085 38.864746 Z"/>
        <path id="path10" fill="#aded83" stroke="none" d="M 311.225098 38.848145 L 311.233398 96.806152 L 188.62915 96.827148 L 188.62085 38.864746 Z"/>
        <path id="path11" fill="#f7f5ba" stroke="none" d="M 304.687988 59.19043 L 305.129639 76.473633 C 296.979492 76.461426 290.383789 83.048828 290.39624 91.19873 L 210.808838 91.215332 C 210.825439 83.086426 204.217041 76.494629 196.092041 76.498535 L 195.650391 59.240234 C 203.775391 59.231934 210.371338 52.644531 210.358643 44.494629 L 289.942139 44.481934 C 289.95459 52.606934 296.541992 59.203125 304.687988 59.19043"/>
        <path id="path12" fill="#86e0ce" stroke="none" d="M 267.703369 67.833008 C 267.70752 77.649414 259.749268 85.612305 249.932617 85.612305 C 240.111572 85.612305 232.15332 77.653809 232.15332 67.836914 C 232.14917 58.020508 240.107422 50.062012 249.924072 50.062012 C 259.745117 50.058105 267.699219 58.016113 267.703369 67.833008"/>
        <path id="path13" fill="#86e0ce" stroke="none" d="M 221.719971 79.762695 L 219.34082 79.762695 C 218.678223 79.762695 218.140869 79.225586 218.140869 78.562988 L 218.140869 56.837891 C 218.140869 56.175293 218.678223 55.637695 219.34082 55.637695 L 221.71582 55.637695 C 222.378418 55.637695 222.915771 56.175293 222.915771 56.837891 L 222.919922 78.562988 C 222.919922 79.225586 222.382568 79.762695 221.719971 79.762695"/>
        <path id="path14" fill="#86e0ce" stroke="none" d="M 280.238037 79.755859 L 277.858643 79.755859 C 277.196289 79.755859 276.658691 79.218262 276.658691 78.555664 L 276.658691 56.831055 C 276.658691 56.168457 277.196289 55.630859 277.858643 55.630859 L 280.233643 55.630859 C 280.89624 55.630859 281.433838 56.168457 281.433838 56.831055 L 281.437988 78.555664 C 281.437988 79.218262 280.900391 79.755859 280.238037 79.755859"/>
        <path id="path15" fill="#0b4268" stroke="none" d="M 363.244141 496.160645 C 363.290039 495.515137 363.335938 494.890137 363.377441 494.285645 L 363.160889 493.668945 C 362.665039 492.293945 362.094238 490.731445 362.55249 488.015137 C 363.889893 480.052734 360.465088 474.902344 356.652588 473.394043 C 353.898438 472.314941 352.294189 472.256836 350.660889 472.256836 C 351.056641 473.777344 351.573242 474.844238 352.102539 475.956543 C 353.010742 477.865234 353.956787 479.831543 354.439941 483.869141 C 354.560791 484.869141 354.54834 485.927734 354.535889 486.956543 C 354.502441 489.023438 354.498291 490.977539 355.535889 492.056641 C 356.848389 493.418945 357.810791 493.67334 359.023438 493.994141 C 360.248291 494.319336 361.619141 494.702637 363.244141 496.160645 M 388.260742 420.365234 C 387.898438 425.356445 387.044189 427.877441 386.215088 430.323242 C 385.419189 432.714844 384.648438 434.981445 384.42749 439.702637 C 384.385742 440.477539 384.469238 441.356445 384.564941 442.281738 C 384.794189 444.564941 385.064941 447.152344 383.444092 449.127441 C 380.665039 452.506836 378.723389 453.802734 376.835938 455.056641 C 375.044189 456.248535 373.348389 457.373535 370.869141 460.490234 C 370.189941 461.339844 370.377441 462.852539 370.573242 464.456543 C 370.702393 465.515137 370.835938 466.61084 370.73999 467.656738 C 370.04834 475.115234 369.085938 478.877441 368.131592 482.519043 C 367.327393 485.665039 366.564941 488.67334 366.085938 494.015137 C 366.410889 495.127441 366.61499 496.464844 366.314941 498.406738 C 366.215088 499.04834 365.827393 499.552734 365.269287 499.781738 L 365.148438 499.823242 C 363.648438 500.314941 361.944092 498.615234 361.873291 498.540039 C 360.54834 497.198242 359.585938 496.952637 358.377441 496.627441 C 357.023438 496.269043 355.48999 495.86084 353.639893 493.952637 C 351.810791 492.04834 351.819092 489.302734 351.856689 486.877441 C 351.869141 485.898438 351.881592 484.973145 351.781738 484.160645 C 351.356689 480.577637 350.540039 478.902344 349.694092 477.115234 C 349.040039 475.744141 348.36499 474.339844 347.889893 472.156738 C 346.61084 472.019043 345.11499 471.686035 343.135742 470.877441 C 340.665039 469.856445 339.55249 467.240234 338.602539 464.927734 C 338.227539 464.019043 337.873291 463.165039 337.465088 462.444336 C 333.348389 455.156738 330.852539 451.881836 328.202393 448.410645 C 325.602539 444.998535 322.92334 441.456543 318.948242 433.73584 C 318.594238 433.052734 318.835938 432.219238 319.48999 431.869141 C 320.139893 431.527344 320.952393 431.79834 321.306641 432.481445 C 325.165039 439.977539 327.656738 443.269043 330.29834 446.740234 C 332.889893 450.140137 335.569092 453.644043 339.777588 461.102539 C 340.264893 461.977539 340.67749 462.952637 341.064941 463.894043 C 341.885742 465.881836 342.67334 467.752441 344.102539 468.339844 C 345.439941 468.890137 346.506592 469.189941 347.439941 469.348145 L 347.419189 469.165039 C 347.310791 468.069336 347.402588 467.081543 347.498291 466.131836 C 347.681641 464.168945 347.848389 462.619141 346.185791 460.556641 C 343.560791 457.877441 337.944092 450.869141 341.081787 444.119141 C 342.948242 440.11084 344.55249 438.410645 346.106689 436.765137 C 347.585938 435.206543 348.969238 433.73584 350.719238 430.168945 C 351.044189 429.506836 351.848389 429.23584 352.506592 429.564941 C 353.169189 429.890137 353.439941 430.694336 353.11499 431.356445 C 351.198242 435.290039 349.598389 436.990234 348.04834 438.635742 C 346.577393 440.198242 345.185791 441.677734 343.502441 445.302734 C 341.064941 450.556641 345.919189 456.456543 348.123291 458.702637 L 348.202393 458.79834 C 350.623291 461.765137 350.36499 464.240234 350.160889 466.431641 C 350.077393 467.285645 349.998291 468.098145 350.081787 468.918945 C 350.106689 469.135742 350.127441 469.339844 350.152588 469.535645 L 350.356689 469.540039 C 352.260742 469.540039 354.23584 469.543945 357.602539 470.877441 C 361.415039 472.381836 364.760742 476.335938 365.415039 482.352539 L 365.54834 481.835938 C 366.510742 478.140137 367.415039 474.648438 368.081787 467.410645 C 368.152588 466.656738 368.040039 465.744141 367.92334 464.781738 C 367.67749 462.802734 367.415039 460.556641 368.781738 458.844238 C 371.519287 455.410645 373.481689 454.123535 375.36499 452.873535 C 377.165039 451.686035 378.86499 450.561035 381.377441 447.506836 C 382.30249 446.385742 382.11499 444.535645 381.915039 442.581543 C 381.814941 441.602539 381.723389 440.589844 381.764893 439.627441 C 382.010742 434.556641 382.86499 432.019043 383.689941 429.564941 C 384.498291 427.17334 385.264893 424.915039 385.61084 420.240234 C 385.660889 419.531738 386.29834 418.981445 387.035889 419.019043 C 387.764893 419.052734 388.314941 419.652344 388.260742 420.365234"/>
        <path id="path16" fill="#0a3d60" stroke="none" d="M 152.942871 480.358887 C 153.392822 479.800293 153.822021 479.221191 154.226318 478.625488 C 157.513672 473.941895 159.034668 468.212891 158.99292 462.800293 C 160.413818 462.275391 161.822021 461.700195 163.222168 461.087891 C 168.938721 458.575195 173.17627 452.729492 173.93457 445.600586 C 174.226318 442.867188 174.438721 440.108887 174.513672 437.342285 C 172.484619 439.538086 170.334473 441.625488 168.188721 443.587891 C 163.922119 447.504395 161.026367 452.600586 159.847168 458.154785 C 159.584473 459.354492 159.297119 460.550293 158.984619 461.737793 C 158.951172 461.07959 158.922119 460.425293 158.859619 459.775391 C 157.901367 450.379395 157.588867 441.200195 158.034668 431.771484 L 158.05127 431.383789 C 159.05957 430.121094 160.026367 428.825195 161.001221 427.487793 C 164.68457 422.441895 165.351318 415.20459 162.642822 408.916992 C 161.605469 406.500488 160.476318 404.129395 159.30127 401.791992 C 158.55957 404.700195 157.726318 407.525391 156.792969 410.279785 C 154.959473 415.737793 154.909668 421.441895 156.634521 426.779785 C 156.884521 427.521484 157.12207 428.26709 157.334473 429.025391 C 157.30542 429.933594 157.30957 430.82959 157.251221 431.729492 C 157.05127 436.062988 157.013672 440.342285 157.11377 444.608887 C 156.98877 443.854492 156.80957 443.112793 156.651367 442.362793 C 155.396973 436.425293 150.834473 431.867188 145.11377 430.404785 C 142.87207 429.825195 140.688721 429.312988 138.459473 428.879395 C 139.74292 430.867188 140.972168 432.925293 142.088867 435.058594 C 144.322021 439.242188 148.222168 442.804688 153.251221 445.075195 C 154.563721 445.663086 155.876221 446.275391 157.192871 446.913086 C 157.343018 451.217285 157.646973 455.504395 158.084473 459.854492 C 158.43457 463.64209 158.134521 467.604492 156.913818 471.387695 C 157.05127 470.800293 157.159668 470.20459 157.259521 469.612793 C 158.351318 463.229492 155.155518 457.429688 150.088867 454.32959 C 148.146973 453.112793 146.151367 451.971191 144.142822 450.904785 C 144.838867 453.225586 145.396973 455.663086 145.876221 457.987793 C 146.830322 462.554688 149.36792 466.729492 153.05127 470.900391 C 154.009521 471.95459 154.93457 473.071289 155.822021 474.242188 C 155.18042 475.604492 154.463867 476.937988 153.588867 478.171387 C 151.901367 480.612793 149.86377 482.850586 147.755371 484.779785 C 145.672119 486.721191 143.567871 488.529785 141.826172 490.625488 C 142.263672 489.775391 142.74292 488.921387 143.276367 488.092285 C 144.884521 485.562988 146.24292 482.700195 146.401367 479.862793 C 146.576172 477.041992 145.692871 474.308594 143.972168 472.012695 C 142.646973 470.233887 141.188721 468.604492 139.630371 467.125488 C 139.634521 468.89209 139.463867 470.666992 139.021973 472.479492 C 138.788818 473.39209 138.697021 474.275391 138.42627 475.500488 C 138.146973 476.725586 137.922119 478.041992 137.759521 479.479492 C 137.459473 482.300293 137.642822 485.39209 138.797119 488.038086 C 139.396973 489.400391 140.05957 490.725586 140.884521 491.904785 C 139.726318 493.604492 139.001221 495.746094 139.759521 497.804688 C 139.822021 498.004395 140.034668 498.104492 140.230469 498.021484 L 140.259521 498.008789 C 140.438721 497.916992 140.542969 497.712891 140.49707 497.546387 C 139.713867 495.346191 140.776367 493.150391 142.338867 491.237793 C 143.909668 489.304688 145.884521 487.571289 147.880371 485.729492 C 149.284668 486.075195 150.705322 486.387695 152.163818 486.646484 C 155.259521 487.14209 158.751221 486.512695 161.955322 484.621094 C 165.163818 482.754395 168.042969 479.625488 169.905518 475.850586 C 171.347168 472.946289 172.513672 469.983887 173.472168 467.062988 C 170.838867 468.775391 168.093018 470.333984 165.334473 471.633789 C 160.688721 473.850586 156.593018 476.987793 152.942871 480.358887"/>
        <path id="path17" fill="#0a3d60" stroke="none" d="M 256.74585 478.421875 L 257.145752 476.526367 C 258.170898 471.538574 258.508301 466.451172 258.154053 461.401367 L 262.125 459.697266 C 267.516602 457.380371 271.554199 452.663574 273.06665 447.001465 L 274.81665 440.463867 L 267.833252 444.580566 C 263.233398 447.30127 259.987549 451.822266 258.829102 457.046875 L 258.079102 460.413574 C 258.016602 459.805176 257.958252 459.197266 257.895752 458.572266 C 256.837402 449.709473 257.733398 440.555176 260.666748 432.126465 L 260.787598 431.780273 L 264.604248 429.17627 C 269.449951 425.888672 272.533447 420.671875 273.074951 414.976074 L 273.74585 408.388672 L 267.512451 413.455566 C 263.44165 416.847168 260.99585 421.876465 260.862549 427.217773 L 260.804199 429.442871 L 259.954102 431.876465 C 258.600098 435.780273 257.675049 439.842773 257.175049 443.955566 L 257.079102 441.730469 C 256.837402 435.867676 253.949951 430.43457 249.25 426.901367 L 243.80835 422.792969 L 245.074951 430.930176 C 245.925049 436.268066 248.975098 440.938965 253.4375 443.876465 L 256.94165 446.180176 C 256.591553 450.338867 256.654053 454.526367 257.149902 458.663574 C 257.579102 462.271973 257.658447 465.913574 257.375 469.530273 L 257.329102 467.867676 C 257.179199 461.98877 254.283447 456.542969 249.550049 453.101074 L 244.06665 449.105469 L 245.399902 457.063965 C 246.266602 462.292969 249.24585 466.930176 253.654053 469.951172 L 257.087402 472.30957 C 256.904053 473.667969 256.68335 475.026367 256.408447 476.376465 C 255.283447 481.701172 254.12915 487.013672 252.800049 492.284668 L 252.866699 489.417969 C 252.962402 483.538574 250.25 478.005371 245.595947 474.480469 L 240.199951 470.417969 L 241.333252 478.255371 C 242.050049 483.413574 244.837402 488.101074 249.091553 491.313965 L 252.416748 493.838867 L 250.804199 499.967773 C 250.75 500.167969 250.87085 500.376465 251.070801 500.430176 L 251.100098 500.438965 C 251.287598 500.476074 251.479248 500.359375 251.529053 500.167969 C 252.87085 495.155273 254.166748 490.109375 255.291748 485.030273 L 259.19165 483.530273 C 264.662598 481.396973 268.87915 476.701172 270.49585 470.930176 L 272.350098 464.263672 L 265.30835 468.388672 C 261.37915 470.67627 258.37915 474.234375 256.74585 478.421875"/>
        <path id="path18" fill="#389d00" stroke="none" d="M 318.07666 501.193359 L 320.38501 499.060059 C 320.935059 498.551758 321.251709 497.914063 321.172607 497.501465 C 320.880859 495.897461 320.289063 494.589355 319.668213 493.334961 C 319.334961 492.722656 318.935059 492.160156 318.472412 491.634766 C 318.060059 491.084961 317.580811 490.57666 317.026611 490.101563 C 315.789063 489.114258 314.810059 487.947266 313.664063 486.793457 C 311.605713 484.401855 310.872559 481.101563 311.88916 478.01416 C 312.518311 476.297363 313.118408 474.693359 313.989258 473.206055 C 315.459961 470.45166 316.01001 468.035156 315.69751 465.147461 C 315.176758 460.813965 315.659912 456.001465 317.176758 451.214355 C 317.297607 450.789063 316.909912 450.122559 316.26001 449.630859 L 314.055908 447.980957 C 313.355713 447.45166 312.547607 447.343262 312.20166 447.730957 C 309.485107 450.539063 307.20166 453.839355 305.235107 457.410156 C 304.584961 458.726563 304.030762 460.109863 303.905762 461.597656 C 303.593262 463.634766 303.555908 465.697266 303.530762 467.722656 C 303.63501 469.797363 303.360107 471.805664 302.985107 473.872559 C 302.122559 478.143555 301.905762 482.70166 302.409912 487.297363 C 302.922607 491.060059 304.82666 494.618164 307.980713 496.810059 C 310.693359 498.822266 313.560059 500.414063 316.405762 501.739258 C 316.82666 501.943359 317.51416 501.714355 318.07666 501.193359"/>
    </g>
    <clipPath id="clipPath-iYZ79-2">
        <path d="M 0.5 250 C 0.5 388.070801 112.428955 500 250.5 500 L 250.5 500 C 388.571045 500 500.5 388.070801 500.5 250 L 500.5 250 C 500.5 111.929199 388.571045 0 250.5 0 L 250.5 0 C 112.428955 0 0.5 111.929199 0.5 250"/>
    </clipPath>
    <g id="Group-copy-2" clip-path="url(#clipPath-iYZ79-2)">
        <path id="path19" fill="#54c415" stroke="none" d="M 313.371582 462.394043 C 313.671631 465.714844 312.813232 468.311035 310.85083 471.331543 C 309.72583 473.11084 308.655029 475.073242 307.84668 477.198242 C 306.179932 481.402344 307.10498 486.040039 310.109131 489.223145 L 312.205078 491.319336 L 314.438232 493.198242 C 316.446777 494.802734 317.804932 496.773438 318.650879 499.293945 C 316.04248 498.344238 313.450928 497.127441 310.905029 495.606445 C 307.613281 493.67334 305.629883 490.335938 305.317383 486.635742 C 304.984131 481.723145 305.525879 476.936035 306.838379 472.619141 C 307.525879 470.339844 307.875732 468.152344 307.892578 465.852539 C 307.925781 463.790039 308.063232 461.668945 308.47168 459.589844 C 308.66333 458.214844 309.238281 456.936035 310.013428 455.79834 C 311.405029 453.752441 312.963379 451.865234 314.65918 450.156738 C 313.513428 454.327637 313.050781 458.498535 313.371582 462.394043"/>
        <path id="path20" fill="#389d00" stroke="none" d="M 409.712402 499.20752 L 412.37915 497.536621 C 413.008301 497.140625 413.4375 496.578125 413.429199 496.15332 C 413.345947 492.928223 412.333252 490.336426 410.366699 488.111816 C 409.279053 486.940918 408.291748 485.686523 407.262451 484.424316 C 405.274902 481.870117 404.56665 478.64502 405.25 475.336426 C 405.658447 473.486816 406.05835 471.686523 406.554199 469.882324 C 407.425049 466.565918 407.162598 463.419922 405.658447 460.424316 C 403.408447 455.928223 401.3125 451.211426 399.229248 446.449219 C 399.050049 446.036621 398.320801 445.791016 397.512451 445.878418 L 394.770752 446.157715 C 393.904053 446.249023 393.216553 446.682617 393.195801 447.15332 C 393.054199 450.70752 392.929199 454.286621 392.875 457.90332 C 392.854248 459.211426 393.029053 460.503418 393.420898 461.761719 C 393.9375 463.52002 394.516602 465.27832 395.091553 467.023926 C 395.704102 468.803223 395.9375 470.648926 395.866699 472.569824 C 395.704102 476.541016 395.716553 480.599121 396.045898 484.736816 C 396.354248 488.161621 397.883301 491.370117 400.604248 493.724121 C 402.966553 495.836426 405.466553 497.740723 407.979248 499.461426 C 408.345947 499.724121 409.0625 499.615723 409.712402 499.20752"/>
        <path id="path21" fill="#54c415" stroke="none" d="M 402.381348 458.615234 C 404.077148 461.748535 404.2771 464.994141 403.072998 468.535645 C 402.381348 470.623535 401.706299 472.756836 401.127197 474.927734 C 399.956299 479.214844 400.814697 483.385742 403.552002 486.644043 C 404.822998 488.119141 406.0896 489.54834 407.439697 490.898438 C 409.2229 492.710938 410.264648 494.873535 410.622803 497.469238 C 408.252197 496.106445 405.914551 494.561035 403.643799 492.848145 C 400.685303 490.668945 399.114502 487.531738 398.943848 484.081543 C 398.7854 479.502441 398.993652 475.040039 399.427002 470.67334 C 399.6521 468.373535 399.40625 466.165039 398.664551 464.043945 C 397.985352 462.131836 397.3479 460.202637 396.735352 458.265137 C 396.335449 457.006836 396.1604 455.698242 396.227051 454.385742 L 396.631348 447.327637 C 398.510498 451.135742 400.397949 454.936035 402.381348 458.615234"/>
        <path id="path22" fill="#389d00" stroke="none" d="M 115.90332 494.950195 L 117.936768 497.346191 C 118.419922 497.916992 119.040771 498.246094 119.46167 498.146484 C 122.71167 497.429688 125.344971 495.521484 126.799072 492.666992 C 127.611572 491.179688 128.311768 489.617188 129.02832 488.108887 C 130.374268 485.025391 132.58667 482.733887 135.599121 480.904785 C 137.315918 479.916992 138.949219 478.800293 140.620117 477.637695 C 143.686768 475.471191 145.561768 472.154785 145.915771 468.471191 C 146.40332 462.933594 146.199219 457.467285 145.294922 452.308594 C 145.219971 451.858887 144.574219 451.462891 143.761719 451.367188 L 141.032471 451.046387 C 140.161621 450.941895 139.390869 451.179688 139.261719 451.583984 C 138.365723 454.663086 137.140869 457.604492 135.70752 460.396484 C 135.219971 461.416992 134.815918 462.458984 134.607422 463.583984 C 134.294922 465.14209 133.932617 466.717285 133.469971 468.26709 C 133.02832 469.867188 132.120117 471.271484 130.911621 472.433594 C 128.34082 474.808594 125.632568 476.933594 122.844971 478.850586 C 120.507568 480.421387 118.995117 482.621094 118.107422 485.521484 C 117.33667 488.112793 116.39502 490.696289 115.328369 493.291992 C 115.169922 493.679688 115.407471 494.367188 115.90332 494.950195"/>
        <path id="path23" fill="#54c415" stroke="none" d="M 143.970947 465.144043 C 144 468.877441 142.149902 472.123535 138.93335 474.219238 C 137.029053 475.452637 135.079102 476.552734 133.145752 477.561035 C 129.274902 479.523438 126.783447 482.102539 125.329102 485.848145 C 124.675049 487.564941 123.93335 489.256836 123.137451 490.948242 C 122.070801 493.214844 120.158447 494.844238 117.708252 495.585938 C 118.612549 493.064941 119.37915 490.535645 120.024902 488.031738 C 120.837402 484.79834 122.4375 482.515137 125 480.890137 C 128.387451 478.752441 131.666748 476.29834 134.766602 473.477539 C 136.408447 471.998535 137.529053 470.102539 138.012451 467.994141 C 138.470947 466.106445 138.800049 464.198242 139.070801 462.306641 C 139.204102 461.073242 139.608398 459.915039 140.091553 458.785645 C 141.037598 456.777344 141.87915 454.689941 142.55835 452.535645 C 143.479248 456.527344 143.954102 460.777344 143.970947 465.144043"/>
        <path id="path24" fill="#389d00" stroke="none" d="M 191.227539 498.120605 L 194.29834 497.4375 C 195.023438 497.274902 195.585938 496.770996 195.681641 496.208496 C 196.36499 491.879395 195.898438 487.662598 194.30249 483.700195 L 191.819092 477.299805 C 190.210938 473.024902 189.960938 468.399902 191.010742 463.904297 C 191.631592 461.404297 192.23584 458.929199 192.919189 456.470703 C 194.139893 451.916504 194.185791 447.337402 193.035889 442.837402 C 191.310791 436.095703 189.831787 429.225098 188.619141 422.25 C 188.510742 421.645996 187.835938 421.166504 187.023438 421.116699 L 184.273438 420.962402 C 183.398438 420.908203 182.648438 421.379395 182.54834 422.041504 C 181.760742 427.012695 181.156738 432.016602 180.639893 437.049805 C 180.460938 438.866699 180.473389 440.695801 180.723389 442.504395 C 181.035889 445.037598 181.42334 447.554199 181.79834 450.070801 C 182.223389 452.629395 182.248291 455.216797 181.969238 457.804199 C 181.369141 463.162598 180.877441 468.5625 180.594238 474 C 180.348389 478.512695 181.323242 482.987305 183.498291 487.008301 C 185.398438 490.583496 187.406738 494.087402 189.439941 497.533203 C 189.744141 498.045898 190.477539 498.287598 191.227539 498.120605"/>
        <path id="path25" fill="#54c415" stroke="none" d="M 189.989502 439.710938 C 191.310303 444.394043 191.15625 449.052734 189.59375 453.790039 C 188.677002 456.581543 187.772949 459.406738 186.947998 462.260742 C 185.2854 467.902344 185.564697 473.627441 187.752197 478.960938 C 188.7771 481.394043 189.7854 483.811035 190.864502 486.198242 C 192.28125 489.406738 192.860352 492.852539 192.568848 496.390137 C 190.560303 493.36084 188.59375 490.277344 186.693848 487.131836 C 184.227051 483.102539 183.206299 478.619141 183.581299 474.019043 C 184.0896 467.944336 184.818848 461.927734 185.727051 455.981445 C 186.206299 452.848145 186.185303 449.714844 185.681152 446.619141 C 185.2229 443.835938 184.7854 441.035645 184.427002 438.227539 C 184.172852 436.406738 184.172852 434.552734 184.422852 432.731445 C 184.856201 429.456543 185.352051 426.198242 185.90625 422.956543 C 187.0979 428.627441 188.447998 434.214844 189.989502 439.710938"/>
        <path id="path26" fill="#389d00" stroke="none" d="M 210.188721 498.789063 L 213.326172 499.018555 C 214.067871 499.072266 214.74292 498.851563 214.976318 498.476563 C 216.776367 495.614258 217.330322 492.472656 216.584473 489.359863 L 215.36377 484.384766 C 214.538818 481.089355 214.901367 477.789063 216.468018 474.605957 L 219.030518 469.272461 C 220.597168 465.956055 220.817871 462.459961 219.68457 459.097656 C 217.98877 454.060059 216.201172 449.084961 214.330322 444.168457 C 214.167969 443.739258 213.455322 443.459961 212.638672 443.509766 L 209.892822 443.680664 C 209.017822 443.730957 208.30957 444.134766 208.271973 444.605957 C 207.980469 448.13916 207.62207 451.660156 207.23877 455.172363 C 207.097168 456.438965 207.146973 457.706055 207.37207 458.959961 L 208.297119 464.234863 C 208.597168 466.030762 208.509521 467.847656 208.013672 469.634766 C 206.99707 473.322266 205.938721 476.984863 204.817871 480.618164 C 203.892822 483.634766 204.072021 486.726563 205.330322 489.780762 C 206.459473 492.497559 207.542969 495.234863 208.61792 497.993164 C 208.776367 498.405762 209.422119 498.734863 210.188721 498.789063"/>
        <path id="path27" fill="#54c415" stroke="none" d="M 216.63501 456.821289 C 217.985107 460.237793 217.743408 463.746094 215.893311 467.137695 L 212.580811 473.092285 C 210.368408 476.987793 209.868408 480.929688 211.07666 484.967285 L 212.693359 490.51709 C 213.405762 493.012695 213.130859 495.550293 211.922607 497.908691 L 208.426758 490.421387 C 206.905762 487.246094 206.672607 484.104492 207.768311 480.987793 C 209.209961 476.883789 210.580811 472.733887 211.893311 468.541992 C 212.589111 466.337891 212.714111 464.07959 212.276611 461.858887 L 211.043213 455.883789 C 210.772461 454.596191 210.714111 453.288086 210.876709 451.979492 L 211.693359 444.929688 C 213.393311 448.850586 215.051758 452.812988 216.63501 456.821289"/>
        <path id="path28" fill="#389d00" stroke="none" d="M 345.950439 497.304199 L 348.992188 498.112305 C 349.70874 498.308105 350.404541 498.237305 350.692139 497.9375 C 352.929688 495.662598 353.942139 492.791504 353.567139 489.799805 C 353.363037 488.200195 353.129639 486.620605 352.858643 485.054199 C 352.33374 481.933105 352.863037 478.975098 354.550537 476.066895 C 355.446289 474.454102 356.367188 472.799805 357.196289 471.100098 C 358.775391 467.962402 358.900391 464.537598 357.562988 461.416504 C 355.575439 456.733398 353.291992 452.283203 350.758789 448.104004 C 350.541992 447.737305 349.800537 447.604004 349.004639 447.783203 L 346.321289 448.387695 C 345.467041 448.583496 344.821289 449.054199 344.842041 449.470703 C 345.029541 452.600098 345.008789 455.725098 344.89624 458.8125 C 344.842041 459.929199 344.992188 461.020996 345.26709 462.100098 C 345.696289 463.604004 346.046143 465.125 346.412842 466.662598 C 346.738037 468.229004 346.692139 469.837402 346.179688 471.395996 C 345.14209 474.620605 343.983643 477.75 342.633789 480.762695 C 341.52124 483.258301 341.467041 485.858398 342.367188 488.649902 C 343.200439 491.133301 343.89624 493.683105 344.529541 496.299805 C 344.621338 496.691895 345.20874 497.108398 345.950439 497.304199"/>
        <path id="path29" fill="#54c415" stroke="none" d="M 354.378418 459.489746 C 355.949219 462.564453 355.874268 465.943848 354.053223 469.114746 C 352.974121 470.985352 351.878418 472.797852 350.699219 474.552246 C 348.39917 478.018555 347.695068 481.40625 348.549072 485.143555 C 348.911621 486.848145 349.286621 488.581055 349.570068 490.331055 C 349.986572 492.685547 349.344971 494.964355 347.786621 496.848145 C 347.061768 494.381348 346.257568 491.977051 345.357422 489.639648 C 344.236572 486.643555 344.245117 483.943848 345.557617 481.318848 C 347.261719 477.848145 348.761719 474.214355 350.061768 470.431152 C 350.749268 468.439453 350.83252 466.373047 350.299072 464.385254 C 349.820068 462.602051 349.320068 460.835449 348.736572 459.098145 C 348.382568 457.96875 348.21167 456.810547 348.245117 455.626953 C 348.324219 453.501953 348.324219 451.360352 348.257568 449.214355 C 350.45752 452.456055 352.52417 455.881348 354.378418 459.489746"/>
    </g>
    <clipPath id="clipPath-iYZ79-3">
        <path d="M 0.5 250 C 0.5 388.070801 112.428955 500 250.5 500 L 250.5 500 C 388.571045 500 500.5 388.070801 500.5 250 L 500.5 250 C 500.5 111.929199 388.571045 0 250.5 0 L 250.5 0 C 112.428955 0 0.5 111.929199 0.5 250"/>
    </clipPath>
    <g id="Group-copy" clip-path="url(#clipPath-iYZ79-3)">
        <path id="path30" fill="#389d00" stroke="none" d="M 221.260498 498.799316 L 224.168701 499.995117 C 224.856201 500.282715 225.556152 500.294922 225.889648 500.02832 C 228.439697 497.995117 229.881348 495.273926 230.0354 492.199219 L 230.227051 487.286621 C 230.314697 484.032715 231.506348 481.120117 233.814697 478.59082 C 235.072998 477.178223 236.352051 475.753418 237.585449 474.286621 C 239.9021 471.58252 240.918701 468.319824 240.539551 464.907715 C 239.977051 459.786621 239.2146 454.740723 238.256348 449.791016 C 238.177002 449.361816 237.5271 448.974121 236.7146 448.874023 L 233.981201 448.532715 C 233.114502 448.424316 232.3479 448.669922 232.2229 449.095215 C 231.314697 452.291016 230.289551 455.449219 229.210449 458.565918 C 228.818848 459.690918 228.614502 460.853516 228.564697 462.044922 L 228.335449 467.057617 C 228.21875 468.757324 227.731201 470.390625 226.831299 471.882324 C 224.985352 474.970215 223.081299 477.990723 221.085449 480.928223 C 219.427002 483.361816 218.806152 486.148926 219.172852 489.245117 C 219.514648 492.003418 219.7771 494.77832 219.997803 497.59082 C 220.03125 498.007324 220.552002 498.507324 221.260498 498.799316"/>
        <path id="path31" fill="#54c415" stroke="none" d="M 238.054688 462.098633 C 238.650391 465.582031 237.633789 468.836426 235.050537 471.532227 C 233.52124 473.119629 231.996338 474.677734 230.425537 476.19043 C 227.346191 479.186035 225.871338 482.594727 225.962891 486.594727 C 225.988037 488.419434 226.01709 490.265625 225.996338 492.103027 C 225.983643 494.578125 224.996338 496.802734 223.162842 498.552734 C 222.808838 495.919434 222.408691 493.319824 221.950439 490.740234 C 221.383789 487.44043 221.967041 484.569824 223.825439 482.078125 C 226.262939 478.777832 228.596191 475.369629 230.846191 471.853027 C 232.029541 469.998535 232.671143 467.944824 232.721191 465.802734 C 232.775391 463.869629 232.800537 461.944824 232.787842 460.027832 C 232.783691 458.782227 232.996338 457.56543 233.400391 456.394531 C 234.150391 454.290527 234.858643 452.165527 235.529541 450.023926 C 236.496338 453.978027 237.346191 458.007324 238.054688 462.098633"/>
        <path id="path32" fill="#389d00" stroke="none" d="M 298.903809 495.330566 L 301.928711 494.472168 C 302.645508 494.268066 303.174561 493.722168 303.22876 493.138672 C 303.628662 488.659668 302.874512 484.351074 301.007813 480.367676 L 298.083008 473.947266 C 296.174561 469.646973 295.595459 464.921875 296.320313 460.23877 C 296.757813 457.630371 297.174561 455.046875 297.67041 452.472168 C 298.553711 447.709473 298.253662 442.98877 296.761963 438.447266 C 294.520508 431.638672 292.511963 424.697266 290.749512 417.638672 C 290.595459 417.026367 289.882813 416.588867 289.070313 416.605469 L 286.316162 416.663574 C 285.441162 416.68457 284.72876 417.226074 284.682861 417.913574 C 284.29126 423.063965 284.078857 428.23877 283.953857 433.42627 C 283.91626 435.30127 284.070313 437.171875 284.453857 439.009766 C 284.958008 441.576172 285.537109 444.126465 286.099609 446.671875 C 286.716309 449.263672 286.937012 451.913574 286.845459 454.584473 C 286.636963 460.109375 286.54541 465.667969 286.636963 471.24707 C 286.712158 475.876465 287.995361 480.388672 290.441162 484.376465 C 292.583008 487.92627 294.816162 491.401367 297.078857 494.822266 C 297.412109 495.334473 298.16626 495.538574 298.903809 495.330566"/>
        <path id="path33" fill="#54c415" stroke="none" d="M 293.482422 435.458984 C 295.161621 440.171387 295.361572 444.975586 294.15332 449.941895 C 293.449219 452.875488 292.757568 455.837891 292.140869 458.816895 C 290.89502 464.712891 291.58252 470.554688 294.136719 475.887695 C 295.328369 478.321289 296.503418 480.742188 297.740723 483.129395 C 299.378418 486.337891 300.190918 489.842285 300.128418 493.487793 C 297.924072 490.487793 295.753418 487.433594 293.640869 484.321289 C 290.90332 480.333984 289.574219 475.812988 289.620117 471.07959 C 289.703369 464.833984 289.999268 458.621094 290.46167 452.462891 C 290.70752 449.212891 290.453369 446.000488 289.71167 442.862793 C 289.040771 440.041992 288.39917 437.20459 287.820068 434.350586 C 287.428223 432.504395 287.286621 430.604492 287.390869 428.712891 C 287.565918 425.32959 287.803223 421.950195 288.103271 418.57959 C 289.740723 424.300293 291.52417 429.929688 293.482422 435.458984"/>
        <path id="path34" fill="#389d00" stroke="none" d="M 107.920898 503.410156 L 110.341553 501.401855 C 110.912598 500.926758 111.241699 500.289063 111.145752 499.843262 C 110.408447 496.422363 108.858398 493.697266 106.399902 491.539063 C 105.087402 490.38916 103.80835 489.185059 102.5625 487.926758 C 101.320801 486.676758 100.37085 485.180664 99.783447 483.593262 C 99.512451 482.847656 99.31665 481.956055 99.37915 481.38916 C 99.429199 480.818359 99.641602 480.280762 100.024902 479.868164 C 100.487549 479.364258 101.100098 479.047363 101.708252 478.964355 C 102.179199 478.893555 102.641602 478.959961 103.012451 479.105957 C 103.12915 479.130859 103.166748 479.239258 103.287598 479.234863 C 103.43335 479.218262 103.595947 479.185059 103.779053 479.143555 C 104.104248 479.068359 104.449951 478.968262 104.829102 478.831055 C 105.545898 478.57666 106.350098 478.193359 107.179199 477.676758 C 107.604248 477.405762 108.012451 477.130859 108.466553 476.772461 C 108.94165 476.405762 109.241699 476.126465 109.929199 475.501465 C 111.225098 474.230957 112.366699 472.810059 113.041748 471.230957 C 113.529053 470.122559 113.824951 468.964355 114.0625 467.82666 C 114.354248 465.643555 113.975098 463.459961 113.149902 461.518555 C 112.949951 461.030762 112.725098 460.555664 112.487549 460.097656 C 112.262451 459.672363 111.962402 459.093262 111.800049 458.901855 C 111.416748 458.364258 111.06665 457.918457 110.766602 457.543457 C 110.204102 456.95166 109.81665 456.501465 109.537598 456.051758 C 109.274902 455.626465 109.045898 455.188965 109.366699 454.518555 C 109.466553 454.268555 109.358398 453.543457 108.987549 452.810059 L 107.708252 450.372559 C 107.324951 449.605957 106.44165 449.197266 105.69165 449.680664 C 104.320801 450.501465 103.037598 452.001465 102.425049 453.643555 C 101.774902 455.293457 101.679199 456.935059 101.800049 458.401855 C 101.949951 459.956055 102.291748 461.101563 102.483398 462.035156 C 102.616699 462.601563 102.579102 462.676758 102.583252 462.893555 C 102.579102 463.089355 102.5625 463.276855 102.533447 463.456055 C 102.479248 463.785156 102.429199 464.101563 102.375 464.418457 L 102.279053 464.947266 C 102.208252 465.313965 102.054199 465.685059 101.833252 466.055664 C 101.758301 466.20166 101.487549 466.530762 101.175049 466.847656 C 100.883301 467.155762 100.5625 467.480957 100.220947 467.810059 C 99.529053 468.484863 98.716553 469.101563 97.804199 469.726563 C 96.904053 470.355957 95.916748 470.901855 94.587402 471.968262 C 93.679199 472.651855 92.912598 473.493164 92.166748 474.401855 C 90.491699 476.618164 89.779053 479.547363 90.008301 482.543457 C 90.06665 483.289063 90.179199 484.068359 90.31665 484.797363 L 90.649902 486.522461 L 91.329102 489.464355 C 92.225098 493.176758 94.449951 496.401855 97.612549 498.597656 C 100.425049 500.547363 103.283447 502.293457 106.18335 503.851563 C 106.616699 504.081055 107.329102 503.901855 107.920898 503.410156"/>
        <path id="path35" fill="#54c415" stroke="none" d="M 111.944092 466.238281 C 111.952393 466.559082 111.935791 466.879883 111.906738 467.200684 C 111.698242 468.555176 111.181641 469.884277 110.356689 471.046875 C 109.92749 471.609375 109.473389 472.16748 108.935791 472.654785 C 108.444092 473.134277 107.760742 473.65918 107.377441 473.904785 C 105.602539 475.067383 103.881592 475.54248 102.106689 475.796875 C 100.394287 476.101074 99.127441 476.055176 97.564941 476.984375 C 97.060791 477.271484 96.598389 477.654785 96.198242 478.109375 C 95.410889 479.000977 95.019287 480.196777 94.960938 481.455078 C 94.902588 482.754883 95.17334 484.025879 95.540039 485.083984 C 96.30249 487.242676 97.544189 489.121582 99.23999 490.717285 C 100.785889 492.16748 102.36499 493.538574 103.98999 494.833984 C 106.160889 496.571777 107.652588 498.78418 108.514893 501.496582 C 105.827393 500.271484 103.160889 498.888184 100.523438 497.330078 C 97.139893 495.330078 94.885742 492.196777 94.131592 488.450684 C 93.773438 486.555176 93.373291 484.79248 93.219238 482.200684 C 93.131592 479.78418 93.794189 477.484375 95.285889 475.892578 C 96.223389 474.879883 97.352539 474.134277 98.460938 473.609375 C 100.769287 472.521484 102.948242 471.40918 104.585938 469.525879 C 105.61499 468.34668 106.42749 467.071777 106.623291 465.65918 C 106.689941 465.121582 106.635742 464.571777 106.506592 464.055176 C 106.356689 463.446777 106.152588 462.879883 105.981689 462.317383 C 105.814941 461.771484 105.652588 461.200684 105.494141 460.442383 C 105.231689 459.180176 104.960938 457.680176 105.206787 456.271484 C 105.415039 454.85498 106.17334 453.517578 107.277588 452.779785 C 106.11499 454.963379 107.127441 456.930176 108.340088 458.342285 C 109.473389 459.601074 111.944092 462.84668 111.944092 466.238281"/>
        <path id="path36" fill="#389d00" stroke="none" d="M 151.104248 497.251953 L 154.045898 498.360352 C 154.74585 498.623047 155.420898 498.685547 155.708252 498.506348 C 157.920898 497.143555 159.00415 495.193848 158.837402 492.893555 L 158.537598 489.231445 C 158.31665 486.806152 159.241699 484.727051 161.30835 483.018555 L 164.716553 480.118652 C 166.81665 478.289551 167.654053 475.96875 167.145752 473.443848 C 166.383301 469.647949 165.508301 465.918945 164.529053 462.256348 C 164.445801 461.935547 163.795898 461.606445 162.987549 461.46875 L 160.274902 461.014648 C 159.412598 460.868652 158.649902 460.989746 158.533447 461.289551 C 157.641602 463.535645 156.695801 465.756348 155.720947 467.952148 C 155.366699 468.743652 155.199951 469.577148 155.199951 470.447754 L 155.204102 474.102051 C 155.18335 475.348145 154.787598 476.510254 154.00415 477.547852 C 152.387451 479.689453 150.75 481.785645 149.05835 483.822754 C 147.658447 485.518555 147.320801 487.552246 148.00415 489.90625 C 148.625 491.998047 149.195801 494.110352 149.74585 496.248047 C 149.824951 496.568848 150.387451 496.981445 151.104248 497.251953"/>
        <path id="path37" fill="#54c415" stroke="none" d="M 164.578857 471.199219 C 165.29541 473.794922 164.441162 476.103516 162.057861 477.89502 C 160.649658 478.953125 159.245361 479.990723 157.820313 480.995117 C 155.011963 482.982422 153.85791 485.407715 154.324463 488.407715 L 154.91626 492.536621 C 155.162109 494.39502 154.462158 496.003418 152.907959 497.199219 C 152.249512 495.182617 151.570313 493.194824 150.85376 491.224121 C 149.945313 488.703125 150.245361 486.603516 151.833008 484.878418 C 153.91626 482.599121 155.949463 480.249023 157.945313 477.819824 C 158.995361 476.541016 159.511963 475.078125 159.470459 473.511719 L 159.303711 469.291016 C 159.257813 468.378418 159.428711 467.507324 159.807861 466.686523 L 161.820313 462.21582 C 162.807861 465.157715 163.73291 468.15332 164.578857 471.199219"/>
        <path id="path38" fill="#389d00" stroke="none" d="M 283.607178 500.737305 L 286.465332 499.42041 C 287.140381 499.10791 287.669678 498.674805 287.765381 498.366211 C 288.478027 495.987305 288.26123 494.228516 286.94043 492.54541 C 286.228027 491.653809 285.561279 490.695313 284.902832 489.695313 C 283.603027 487.691406 283.677979 485.29541 285.015381 483.003906 L 287.302979 479.132813 C 288.728027 476.741211 288.853027 474.166016 287.552979 471.683105 C 285.615479 467.991211 283.419678 464.270508 280.765381 461.095215 C 280.540527 460.816406 279.811279 460.803711 279.036133 461.058105 L 276.423828 461.916016 C 275.590332 462.191406 274.965332 462.645508 274.986328 462.958008 C 275.215332 465.282715 275.115479 467.657715 274.952881 470.020508 C 274.87793 470.882813 275.00293 471.711914 275.273682 472.562012 C 275.673828 473.724609 276.036133 474.941406 276.398682 476.157715 C 276.76123 477.424805 276.736328 478.716309 276.32373 480.04541 C 275.486328 482.79541 274.623779 485.603516 273.994629 488.678711 C 273.473633 491.220215 274.19873 493.862305 276.240479 495.970215 C 277.990479 497.833008 279.94873 499.516113 281.927979 500.928711 C 282.219482 501.141113 282.911133 501.058105 283.607178 500.737305"/>
        <path id="path39" fill="#54c415" stroke="none" d="M 284.39502 470.225098 C 285.928223 472.662598 285.811768 475.304199 284.09082 477.804199 L 281.061768 482.241699 C 279.078369 485.158203 278.940918 488.245605 280.77832 490.916504 C 281.65332 492.125 282.503418 493.283203 283.45752 494.358398 C 284.695068 495.808105 285.128418 497.395996 284.853271 499.383301 C 282.96582 498.341797 281.111572 497.037598 279.357422 495.549805 C 277.053223 493.633301 276.294922 491.070801 276.95752 488.541504 C 277.861572 485.191895 279.015869 482.108398 280.15332 479.033203 C 280.753418 477.416504 280.807617 475.791504 280.282471 474.233398 C 279.803223 472.833496 279.328369 471.441895 278.77417 470.095703 C 278.440918 469.216797 278.290771 468.316895 278.33667 467.387695 C 278.440918 465.708496 278.453369 464.016602 278.33667 462.3125 C 280.578369 464.625 282.599121 467.375 284.39502 470.225098"/>
        <path id="path40" fill="#389d00" stroke="none" d="M 378.792969 498.88916 L 381.913818 498.484863 C 382.651367 498.38916 383.259521 498.022461 383.409668 497.584961 C 384.547119 494.185059 384.159668 490.730957 382.509521 487.872559 L 379.834473 483.372559 C 378.047119 480.447266 377.43042 477.118164 378.205322 473.734863 C 378.634521 471.864258 379.134521 470.043457 379.705322 468.331055 C 380.771973 465.130859 380.843018 462.405762 379.93042 459.634766 C 378.588867 455.489258 378.088867 450.943359 379.172119 446.143555 C 379.259521 445.730957 378.826172 445.097656 378.146973 444.647461 L 375.834473 443.151855 C 375.101318 442.672363 374.276367 442.626465 373.938721 443.055664 C 371.396973 446.222656 369.43457 450.018555 368.209473 454.018555 C 367.74292 455.459961 367.588867 456.972656 367.68042 458.456055 C 367.826172 460.526855 368.101318 462.543457 368.505371 464.493164 C 368.922119 466.480957 369.05542 468.45166 368.892822 470.472656 C 368.576172 474.643555 368.588867 478.797363 368.626221 482.789063 C 368.659668 486.122559 369.788818 489.043457 371.86377 491.547363 C 373.709473 493.785156 375.472168 496.030762 377.088867 498.443359 C 377.326172 498.801758 378.034668 498.984863 378.792969 498.88916"/>
        <path id="path41" fill="#54c415" stroke="none" d="M 377.135498 457.399414 C 378.014648 460.549805 377.789551 463.391113 376.331299 466.816406 C 375.46875 468.828613 374.731201 470.961914 374.081299 473.162109 C 372.802002 477.537109 373.547852 481.695313 375.918701 485.220215 C 377.006348 486.849609 378.081299 488.478516 379.131348 490.145508 C 380.53125 492.378906 380.96875 495.028809 380.302002 497.657715 C 378.639648 495.382813 376.852051 493.29541 375.014648 491.270508 C 372.6521 488.683105 371.456299 485.73291 371.560303 482.303711 C 371.706299 477.803711 371.877197 473.187012 372.552002 468.720215 C 372.90625 466.370605 372.852051 464.128906 372.427002 461.862305 C 372.043701 459.820313 371.806152 457.720215 371.768799 455.570313 C 371.768799 454.187012 372.039551 452.787109 372.643799 451.520508 C 373.706299 449.249512 375.03125 447.145508 376.568848 445.282715 C 375.7771 449.578613 376.081299 453.687012 377.135498 457.399414"/>
        <path id="path42" fill="none" stroke="#002f54" stroke-width="2.5" stroke-linecap="round" d="M 353.842529 86.21582 C 393.955078 110.995117 423.871582 150.970215 435.709229 196.861816 C 449.434082 250.061523 438.296631 307.870117 405.65918 352.069824 C 388.067383 375.882324 364.742432 395.345215 338.129883 408.324219"/>
        <path id="path43" fill="#002f54" stroke="none" d="M 350.839111 98.999023 L 338.130859 77.553223 L 363.055908 77.265625 Z"/>
        <path id="path44" fill="none" stroke="#002f54" stroke-width="2.5" stroke-linecap="round" d="M 151.453369 86.21582 C 111.34082 110.995117 81.424072 150.970215 69.58667 196.861816 C 55.861572 250.061523 66.999268 307.870117 99.636719 352.069824 C 117.228271 375.882324 140.553223 395.345215 167.165771 408.324219"/>
        <path id="path45" fill="#002f54" stroke="none" d="M 142.238281 77.266113 L 167.16748 77.553711 L 154.455078 98.999512 Z"/>
    </g>
</svg>
