<?xml version="1.0" encoding="UTF-8"?>
<!-- Generated by Pixelmator Pro 3.5.7 -->
<svg class="svg-inline-icon" viewBox="0 0 500 501" xmlns="http://www.w3.org/2000/svg">
    <path id="Path-copy" fill="#44bf00" stroke="none" d="M 249.791748 500.249512 C 387.862549 500.249512 499.791748 388.320313 499.791748 250.249512 C 499.791748 112.178711 387.862549 0.249512 249.791748 0.249512 C 111.720947 0.249512 -0.208252 112.178711 -0.208252 250.249512 C -0.208252 388.320313 111.720947 500.249512 249.791748 500.249512"/>
    <clipPath id="clipPath-D7AyM-1">
        <path d="M -0.208252 250.25 C -0.208252 388.320801 111.716553 500.25 249.791748 500.25 L 249.791748 500.25 C 387.862549 500.25 499.791748 388.320801 499.791748 250.25 L 499.791748 250.25 C 499.791748 112.179199 387.862549 0.25 249.791748 0.25 L 249.791748 0.25 C 111.716553 0.25 -0.208252 112.179199 -0.208252 250.25"/>
    </clipPath>
    <g id="Group-copy-2" clip-path="url(#clipPath-D7AyM-1)">
        <path id="Path" fill="#d18a22" stroke="none" d="M 258.796143 412.998779 L 258.967041 412.482178 L 262.400391 400.248779 C 264.950439 391.469482 272.01709 384.82373 280.817139 382.81958 L 282.212891 382.544678 C 286.541992 381.515381 290.404541 384.902832 290.350342 389.036133 C 290.304688 389.673828 290.258789 390.311279 290.067139 390.902832 L 285.95459 405.44043 L 281.89209 419.586182 L 268.700439 415.836182 Z"/>
        <path id="path1" fill="#368900" stroke="none" d="M 374.206787 255.674072 L 174.281738 247.765869 L 142.669189 246.515869 L 141.419189 278.128418 L 138.998291 339.303223 L 137.748291 370.915771 L 169.36084 372.165771 L 369.285889 380.078369 L 400.894287 381.328369 L 402.148438 349.71582 L 404.564941 288.540771 L 405.814941 256.924072 Z"/>
        <path id="path2" fill="#4cb648" stroke="none" d="M 391.12915 267.727051 L 391.145752 400.631348 L 110.016602 400.668701 L 110 267.764648 Z"/>
        <path id="path3" fill="#aded83" stroke="none" d="M 391.12915 267.727051 L 391.145752 400.631348 L 110.016602 400.668701 L 110 267.764648 Z"/>
        <path id="path4" fill="#f7f5ba" stroke="none" d="M 376.139648 314.37207 L 377.15625 354.005371 C 358.4646 353.976318 343.335449 369.084473 343.364502 387.767822 L 160.881348 387.80542 C 160.914551 369.167969 145.756348 354.047119 127.127197 354.067871 L 126.118652 314.48877 C 144.747803 314.468018 159.877197 299.36377 159.8479 280.67627 L 342.331299 280.638672 C 342.3479 299.267822 357.456299 314.401367 376.139648 314.37207"/>
        <path id="path5" fill="#86e0ce" stroke="none" d="M 291.33374 334.189697 C 291.337891 356.697998 273.092041 374.952148 250.57959 374.956299 C 228.067139 374.956299 209.817139 356.710449 209.817139 334.197998 C 209.812988 311.689697 228.058838 293.439697 250.567139 293.435303 C 273.07959 293.431152 291.32959 311.681152 291.33374 334.189697"/>
        <path id="path6" fill="#86e0ce" stroke="none" d="M 187.445801 361.544922 L 178.891602 361.544922 C 178.229248 361.544922 177.69165 361.011719 177.69165 360.349121 L 177.6875 307.428223 C 177.6875 306.765869 178.220947 306.228271 178.883301 306.228271 L 187.4375 306.228271 C 188.100098 306.228271 188.637451 306.765869 188.637451 307.428223 L 188.645752 360.344971 C 188.645752 361.007568 188.108398 361.544922 187.445801 361.544922"/>
        <path id="path7" fill="#86e0ce" stroke="none" d="M 321.626709 361.527588 L 313.07251 361.527588 C 312.409912 361.527588 311.872559 360.994141 311.872559 360.331787 L 311.868408 307.410889 C 311.868408 306.748291 312.401611 306.210938 313.064209 306.210938 L 321.618408 306.210938 C 322.280762 306.210938 322.818359 306.748291 322.818359 307.410889 L 322.82666 360.327393 C 322.82666 360.98999 322.289063 361.527588 321.626709 361.527588"/>
        <path id="path8" fill="#d18a22" stroke="none" d="M 212.158691 396.456299 C 212.32959 389.797852 207.071289 384.260498 200.412842 384.0896 C 193.754639 383.914551 188.217041 389.172852 188.041992 395.835449 C 187.871338 402.493652 193.129639 408.03125 199.791992 408.202148 C 206.450439 408.372803 211.988037 403.114502 212.158691 396.456299"/>
        <path id="path9" fill="#d18a22" stroke="none" d="M 213.459473 346.05542 C 213.630371 339.396973 208.37207 333.859619 201.713867 333.688721 C 195.05542 333.513672 189.517822 338.771973 189.343018 345.43457 C 189.172119 352.093018 194.43042 357.630371 201.093018 357.80127 C 207.751221 357.972168 213.288818 352.713867 213.459473 346.05542"/>
        <path id="path10" fill="#d18a22" stroke="none" d="M 213.459473 346.05542 L 189.343018 345.43457 L 188.042969 395.834473 L 212.159668 396.455322 Z"/>
        <path id="path11" fill="#d18a22" stroke="none" d="M 213.566162 304.511963 C 213.724609 298.382813 208.886963 293.29126 202.757813 293.132813 C 196.632813 292.974609 191.537109 297.812012 191.382813 303.941162 C 191.220459 310.066162 196.062012 315.157959 202.187012 315.320313 C 208.312012 315.47876 213.407959 310.641357 213.566162 304.511963"/>
        <path id="path12" fill="#d18a22" stroke="none" d="M 213.566162 304.511963 L 191.382813 303.941162 L 189.345459 345.432861 L 213.458008 346.053711 Z"/>
        <path id="path13" fill="#d18a22" stroke="none" d="M 183.56543 316.520508 C 183.723633 310.391357 178.88623 305.299561 172.75708 305.141357 C 166.63208 304.98291 161.536133 309.820313 161.38208 315.949463 C 161.219482 322.074463 166.061279 327.16626 172.186279 327.328857 C 178.311279 327.487061 183.406982 322.649658 183.56543 316.520508"/>
    </g>
    <clipPath id="clipPath-D7AyM-2">
        <path d="M -0.208252 250.25 C -0.208252 388.320801 111.716553 500.25 249.791748 500.25 L 249.791748 500.25 C 387.862549 500.25 499.791748 388.320801 499.791748 250.25 L 499.791748 250.25 C 499.791748 112.179199 387.862549 0.25 249.791748 0.25 L 249.791748 0.25 C 111.716553 0.25 -0.208252 112.179199 -0.208252 250.25"/>
    </clipPath>
    <g id="Group-copy" clip-path="url(#clipPath-D7AyM-2)">
        <path id="path14" fill="#d18a22" stroke="none" d="M 183.56543 316.520508 L 161.38208 315.949463 L 159.344482 357.441162 L 183.457031 358.062012 Z"/>
        <path id="path15" fill="#d18a22" stroke="none" d="M 182.412109 398.598633 C 182.583008 391.94043 177.324463 386.402832 170.66626 386.232178 C 164.007813 386.057129 158.470459 391.31543 158.29541 397.978027 C 158.124512 404.63623 163.382813 410.173828 170.04541 410.344482 C 176.703857 410.515381 182.241211 405.25708 182.412109 398.598633"/>
        <path id="path16" fill="#d18a22" stroke="none" d="M 183.458252 358.063721 C 183.62915 351.405518 178.37085 345.86792 171.712402 345.697021 C 165.054199 345.521973 159.516602 350.780518 159.341553 357.442871 C 159.170898 364.101318 164.429199 369.638672 171.091553 369.80957 C 177.75 369.980469 183.287598 364.722168 183.458252 358.063721"/>
        <path id="path17" fill="#d18a22" stroke="none" d="M 183.45874 358.04541 L 159.342041 357.424561 L 158.296143 397.974609 L 182.412842 398.599609 Z"/>
        <path id="path18" fill="#d18a22" stroke="none" d="M 153.359619 336.443359 C 153.517822 330.314209 148.68042 325.222412 142.55127 325.064209 C 136.42627 324.905762 131.330322 329.743408 131.17627 335.872559 C 131.013672 341.997559 135.855469 347.089111 141.980469 347.251709 C 148.105469 347.409912 153.201172 342.57251 153.359619 336.443359"/>
        <path id="path19" fill="#d18a22" stroke="none" d="M 153.359619 336.443359 L 131.17627 335.872559 L 129.36377 368.676758 L 153.476318 369.297607 Z"/>
        <path id="path20" fill="#d18a22" stroke="none" d="M 152.655518 401.137939 C 152.826172 394.479492 147.567871 388.942139 140.909668 388.77124 C 134.251221 388.596191 128.713867 393.854492 128.538818 400.51709 C 128.36792 407.175537 133.626221 412.712891 140.288818 412.883789 C 146.947021 413.054688 152.484619 407.796143 152.655518 401.137939"/>
        <path id="path21" fill="#d18a22" stroke="none" d="M 153.477051 369.297852 C 153.647949 362.639648 148.389648 357.102051 141.731201 356.931152 C 135.072998 356.756348 129.5354 362.014648 129.360352 368.677002 C 129.189697 375.335449 134.447998 380.872803 141.110352 381.043701 C 147.768799 381.2146 153.306152 375.956299 153.477051 369.297852"/>
        <path id="path22" fill="#d18a22" stroke="none" d="M 153.477539 369.272461 L 129.36084 368.651611 L 128.540039 400.51416 L 152.656738 401.13916 Z"/>
        <path id="path23" fill="#d18a22" stroke="none" d="M 243.681641 314.136719 C 243.840088 308.007568 239.002441 302.915771 232.873291 302.757568 C 226.748291 302.599121 221.652588 307.436768 221.498291 313.565918 C 221.335938 319.690918 226.17749 324.782471 232.30249 324.945068 C 238.42749 325.103271 243.523438 320.265869 243.681641 314.136719"/>
        <path id="path24" fill="#d18a22" stroke="none" d="M 243.681641 314.136719 L 221.498291 313.565918 L 219.460938 355.057617 L 243.573242 355.678223 Z"/>
        <path id="path25" fill="#d18a22" stroke="none" d="M 242.52832 396.215332 C 242.699219 389.557129 237.440918 384.019531 230.782471 383.848633 C 224.124268 383.673828 218.58667 388.932129 218.411621 395.594482 C 218.240723 402.25293 223.499268 407.790527 230.161621 407.961182 C 236.820068 408.13208 242.357422 402.873779 242.52832 396.215332"/>
        <path id="path26" fill="#d18a22" stroke="none" d="M 243.574463 355.679932 C 243.745361 349.021729 238.487061 343.484131 231.828857 343.313232 C 225.17041 343.138428 219.632813 348.396729 219.458008 355.059082 C 219.287109 361.717529 224.54541 367.254883 231.208008 367.425781 C 237.866211 367.59668 243.403809 362.338379 243.574463 355.679932"/>
        <path id="path27" fill="#d18a22" stroke="none" d="M 243.574951 355.661621 L 219.458252 355.040771 L 218.412598 395.59082 L 242.529053 396.21582 Z"/>
        <path id="path28" fill="#d18a22" stroke="none" d="M 273.08667 448.130371 C 275.357422 440.813721 271.27002 433.042969 263.953369 430.771973 C 256.636719 428.501221 248.865723 432.588867 246.59082 439.905518 C 244.320068 447.222168 248.411621 454.99292 255.728271 457.263672 C 263.040771 459.534668 270.815918 455.447021 273.08667 448.130371"/>
        <path id="path29" fill="#d18a22" stroke="none" d="M 247.85498 437.062988 L 273.088379 448.129639 L 274.367432 442.666992 C 276.28418 434.492188 278.905029 426.496338 282.200928 418.775391 L 259.16333 411.621338 L 257.04248 419.33374 C 256.209229 422.375488 254.959229 425.283691 253.325928 427.983643 Z"/>
        <path id="path30" fill="#d18a22" stroke="none" d="M 282.224609 418.50293 C 284.049561 412.12793 280.362061 405.482178 273.987061 403.656982 C 267.612061 401.832031 260.966309 405.519531 259.141357 411.894531 C 257.316162 418.269531 261.003662 424.915527 267.378662 426.740479 C 273.753662 428.56543 280.399658 424.87793 282.224609 418.50293"/>
        <path id="path31" fill="#d18a22" stroke="none" d="M 227.976563 518.70752 C 228.626709 493.565918 208.768311 472.657471 183.626709 472.011719 C 158.485107 471.361572 137.57666 491.21582 136.926758 516.357422 C 136.280762 541.499268 156.13501 562.407471 181.276611 563.053223 C 206.418213 563.703369 227.32666 543.849121 227.976563 518.70752"/>
        <path id="path32" fill="#d18a22" stroke="none" d="M 247.85498 437.062988 C 248.16333 436.541992 248.513428 436.025391 248.91333 435.51709 C 252.03418 431.525391 257.175781 429.467041 262.16748 430.342041 C 270.584229 431.817139 275.53833 440.242188 273.088379 448.129639 C 272.950928 448.558838 272.796631 448.975342 272.625732 449.379639 L 272.629883 449.383789 L 260.996582 478.125488 C 257.588379 486.554688 251.963379 493.904541 244.72583 499.404541 C 240.500732 502.613037 236.746582 506.404541 233.580078 510.666992 L 228.021729 518.150391 L 227.775879 518.712891 L 136.934082 516.371338 L 128.571777 401.750488 L 128.567383 401.696289 L 128.571777 401.696289 C 128.54248 401.308838 128.530029 400.912842 128.53833 400.51709 C 128.713379 393.858643 134.250732 388.596191 140.90918 388.77124 C 145.684082 388.89209 149.72583 391.775391 151.575928 395.850342 C 152.134277 397.07959 153.384277 397.850342 154.734131 397.883789 L 155.09668 397.89209 C 156.817383 397.937988 158.267578 396.746338 158.72168 395.087891 C 160.155029 389.863037 165.004883 386.08374 170.66333 386.229492 C 175.525879 386.354492 179.634277 389.346191 181.429932 393.541992 C 181.988281 394.846191 183.246582 395.70874 184.66333 395.746338 L 184.84668 395.750488 C 186.563232 395.796143 188.013428 394.604492 188.467529 392.946289 C 189.900879 387.721191 194.750732 383.942139 200.41333 384.087891 C 205.859131 384.229492 210.359131 387.95874 211.72583 392.95459 C 212.125732 394.412842 213.396729 395.462891 214.90918 395.504639 L 215.41333 395.51709 C 217.021729 395.558838 218.388428 394.45459 218.78833 392.89624 C 220.150879 387.571289 225.050781 383.696289 230.78418 383.846191 C 237.429932 384.01709 242.684082 389.541992 242.525879 396.183838 L 242.54248 396.225342 L 241.634277 430.508789 C 241.54248 434.037842 244.325928 436.971191 247.85498 437.062988"/>
        <path id="path33" fill="#ffc776" stroke="none" d="M 238.776367 312.735352 L 238.534668 318.65625 C 238.396973 322.15625 235.442871 324.881348 231.942871 324.739502 C 228.442871 324.5979 225.722168 321.643799 225.859619 318.143799 L 226.101318 312.210449 C 226.163818 310.6521 227.480469 309.443848 229.034668 309.506348 L 236.080322 309.806152 C 237.634521 309.872803 238.838867 311.181152 238.776367 312.735352"/>
        <path id="path34" fill="#ffc776" stroke="none" d="M 208.984131 303.450439 L 208.742432 309.371338 C 208.60498 312.871338 205.650879 315.596191 202.150879 315.45459 C 198.650879 315.312988 195.929932 312.358643 196.067383 308.858643 L 196.309082 302.925537 C 196.371582 301.367188 197.688232 300.158691 199.242432 300.221191 L 206.28833 300.52124 C 207.842529 300.587891 209.046631 301.89624 208.984131 303.450439"/>
        <path id="path35" fill="#ffc776" stroke="none" d="M 178.98291 315.45874 L 178.741211 321.379639 C 178.60376 324.879639 175.649658 327.604492 172.149658 327.462891 C 168.649658 327.321289 165.928711 324.367188 166.066162 320.867188 L 166.307861 314.933838 C 166.370361 313.375488 167.687012 312.166992 169.241211 312.229492 L 176.287109 312.529541 C 177.841309 312.596191 179.04541 313.904541 178.98291 315.45874"/>
        <path id="path36" fill="#ffc776" stroke="none" d="M 148.790527 335.884521 L 148.548828 341.80542 C 148.411133 345.30542 145.457031 348.030518 141.957031 347.888672 C 138.457031 347.74707 135.736328 344.792969 135.873779 341.292969 L 136.115479 335.359619 C 136.177979 333.80127 137.494629 332.593018 139.048828 332.655518 L 146.094482 332.955322 C 147.648682 333.021973 148.853027 334.330322 148.790527 335.884521"/>
        <path id="path37" fill="#ff8d8d" stroke="none" d="M 226.780029 196.570068 L 210.938232 196.603271 L 210.896729 139.390869 L 226.738281 139.361572 Z"/>
        <path id="path38" fill="#002f54" stroke="none" d="M 253.45166 196.514648 L 237.610107 196.547852 L 237.589111 168.572998 L 253.430908 168.539551 Z"/>
        <path id="path39" fill="#ccf4ff" stroke="none" d="M 280.17041 196.459473 L 264.328857 196.49292 L 264.274658 121.313721 L 280.116211 121.280518 Z"/>
        <path id="path40" fill="none" stroke="#ffff52" stroke-width="5" stroke-linecap="round" stroke-linejoin="round" d="M 285.713867 58.021729 L 265.209473 91.504883 L 242.009521 68.500732 L 212.62207 111.609131"/>
        <path id="path41" fill="#ffff52" stroke="none" d="M 273.283447 62.087402 L 284.94165 59.283447 L 287.741699 70.94165 L 291.5 64.804199 L 288.699951 53.145752 L 277.041748 55.949951 Z"/>
        <path id="path42" fill="#ccf4ff" stroke="none" d="M 170 130.05249 C 170.145752 129.473389 170.262451 128.885742 170.354248 128.285889 C 170.37915 128.119141 170.408447 127.956787 170.429199 127.785889 C 170.529053 127.010742 170.591553 126.231689 170.591553 125.431641 L 170.591553 125.410889 C 170.591553 114.523438 161.762451 105.694092 150.87085 105.694092 C 149.366699 105.694092 147.904053 105.877441 146.491699 106.198242 C 144.037598 92.394287 132.008301 81.906738 117.5 81.906738 C 104.229248 81.906738 93.012451 90.67749 89.320801 102.73584 C 87.895752 102.465088 86.43335 102.310791 84.93335 102.310791 C 72.170898 102.310791 61.829102 112.652588 61.829102 125.410889 L 61.829102 125.410889 C 61.829102 126.119141 61.87085 126.819092 61.945801 127.506592 C 62.041748 128.494141 62.179199 129.469238 62.387451 130.419189 L 62.516602 130.419189 C 64.716553 138.502441 72.091553 144.456787 80.87085 144.456787 L 151.554199 144.456787 C 160.333252 144.456787 167.704102 138.502441 169.904053 130.419189 L 169.929199 130.419189 C 169.958252 130.29834 169.970947 130.17334 170 130.05249"/>
        <path id="path43" fill="#002f54" stroke="none" d="M 119.087402 186.283447 C 119.391602 185.762451 119.55835 185.162598 119.55835 184.524902 L 119.270752 134.75 C 119.258301 132.829102 117.699951 131.279053 115.779053 131.291748 C 113.841553 131.304199 112.320801 132.895752 112.320801 134.787598 L 112.604248 184.55835 C 112.62085 186.479248 114.179199 188.029053 116.095947 188.016602 C 117.383301 188.008301 118.491699 187.3125 119.087402 186.283447"/>
        <path id="path44" fill="#002f54" stroke="none" d="M 135.38623 167.960449 L 97.00708 168.177002 C 94.952881 168.189697 93.902832 170.643799 95.307129 172.143799 L 114.615479 192.668701 C 115.552979 193.664551 117.140381 193.65625 118.061279 192.6521 L 137.13208 171.90625 C 138.519531 170.393799 137.44043 167.947998 135.38623 167.960449"/>
        <path id="path45" fill="none" stroke="#aded83" stroke-width="1.875" d="M 327.399658 153.81665 L 425.583008 153.81665"/>
        <path id="path46" fill="none" stroke="#aded83" stroke-width="1.875" d="M 327.399658 134.131348 L 425.583008 134.131348"/>
        <path id="path47" fill="none" stroke="#aded83" stroke-width="1.875" d="M 327.399658 114.446777 L 425.583008 114.446777"/>
        <path id="path48" fill="none" stroke="#aded83" stroke-width="1.875" d="M 327.399658 94.761719 L 425.583008 94.761719"/>
        <path id="path49" fill="none" stroke="#aded83" stroke-width="1.875" d="M 327.399658 173.502197 L 425.583008 173.502197"/>
        <path id="path50" fill="none" stroke="#aded83" stroke-width="1.875" d="M 327.399658 193.186768 L 392.203857 193.186768"/>
    </g>
</svg>
