<?xml version="1.0" encoding="UTF-8"?>
<!-- Generated by Pixelmator Pro 3.5.7 -->
<svg class="svg-inline-icon" viewBox="0 0 501 500" xmlns="http://www.w3.org/2000/svg">
    <path id="Path-copy" fill="#44bf00" stroke="none" d="M 250.5 500 C 388.570801 500 500.5 388.070801 500.5 250 C 500.5 111.929199 388.570801 0 250.5 0 C 112.429199 0 0.5 111.929199 0.5 250 C 0.5 388.070801 112.429199 500 250.5 500"/>
    <clipPath id="clipPath-SHTTQ-1">
        <path d="M 0.5 250 C 0.5 388.070801 112.428955 500 250.5 500 L 250.5 500 C 388.571045 500 500.5 388.070801 500.5 250 L 500.5 250 C 500.5 111.929199 388.571045 0 250.5 0 L 250.5 0 C 112.428955 0 0.5 111.929199 0.5 250"/>
    </clipPath>
    <g id="Group-copy-2" clip-path="url(#clipPath-SHTTQ-1)">
        <path id="Path" fill="#286fb7" stroke="none" d="M 223.95752 405.134277 C 209.603271 437.271484 171.790771 451.805176 139.59082 437.450684 C 107.453369 423.092285 92.978271 385.226074 107.33667 353.088379 C 114.249268 337.488281 126.890869 325.555176 142.786621 319.47168 C 150.228271 316.634277 157.96582 315.217285 165.64917 315.217285 C 174.507568 315.217285 183.311768 317.050781 191.640869 320.771484 C 223.84082 335.125977 238.311768 372.938477 223.95752 405.134277"/>
        <path id="path1" fill="#286fb7" stroke="none" d="M 235.199463 410.132813 C 228.878662 424.270508 218.749512 435.528809 206.566162 443.291016 C 194.382813 450.999512 180.145508 455.216309 165.54541 455.216309 C 155.157959 455.216309 144.674561 453.10791 134.645508 448.637207 C 96.299561 431.516113 79.028809 386.437012 96.095459 348.086914 C 104.370361 329.528809 119.432861 315.287109 138.403809 307.987305 C 157.370361 300.741211 178.087158 301.303711 196.645508 309.583008 C 234.995361 326.649414 252.266357 371.782715 235.199463 410.132813 M 280.120361 366.728516 C 279.620361 362.291016 275.307861 359.303711 270.958008 360.299805 C 269.79541 360.591309 268.595459 360.716309 267.432861 360.716309 C 261.29541 360.716309 255.532959 356.98291 253.17041 351.053711 L 248.570313 339.487305 C 245.79126 332.562012 248.403809 324.641113 254.745361 320.703613 L 255.328857 320.374512 C 259.057861 318.091309 260.011963 313.037109 257.35791 309.553711 C 251.761963 302.128906 245.253662 295.374512 237.870361 289.441406 C 234.391357 286.624512 229.208008 287.537109 226.841309 291.349609 C 223.941162 295.995605 218.966309 298.603516 213.782959 298.603516 C 211.753662 298.603516 209.678711 298.191406 207.72876 297.362305 L 196.287109 292.470215 C 189.403809 289.524414 185.67041 282.062012 187.370361 274.808105 L 187.537109 274.145508 C 188.532959 269.874512 185.632813 265.645508 181.278809 265.024414 C 171.907959 263.737305 162.495361 263.612305 153.29126 264.649414 C 148.85376 265.103516 145.828857 269.416016 146.866211 273.770508 C 147.153809 274.933105 147.278809 276.137207 147.278809 277.29541 C 147.278809 283.474609 143.549561 289.195313 137.620361 291.558105 L 126.053711 296.162109 C 119.087158 298.937012 111.16626 296.324707 107.270508 289.98291 L 106.937012 289.441406 C 104.616211 285.67041 99.599609 284.716309 96.074707 287.370605 C 88.695313 292.966309 81.937012 299.516113 76.007813 306.899414 C 73.191162 310.378906 74.10376 315.562012 77.874512 317.887207 C 82.516357 320.787109 85.17041 325.803711 85.17041 330.987305 C 85.17041 333.016113 84.757813 335.049805 83.928711 336.999512 L 78.995361 348.48291 C 76.049561 355.324707 68.587158 359.053711 61.333008 357.353516 L 60.708008 357.191406 C 56.441162 356.195313 52.17041 359.099609 51.587158 363.449707 C 50.303711 372.820313 50.178711 382.23291 51.174561 391.478516 C 51.67041 395.916016 55.941162 398.899414 60.29541 397.903809 L 60.337158 397.862305 C 67.716309 396.162109 75.262207 400.062012 78.083008 407.149414 L 82.724609 418.716309 C 85.503662 425.641113 82.849609 433.562012 76.503662 437.458008 L 75.966309 437.833008 C 72.23291 440.112305 71.282959 445.17041 73.932861 448.653809 C 79.532959 456.032715 86.04126 462.833008 93.42041 468.762207 C 96.903809 471.541016 102.087158 470.67041 104.449707 466.853516 C 107.35376 462.211914 112.328857 459.599609 117.511963 459.599609 C 119.54126 459.599609 121.616211 459.974609 123.566162 460.841309 L 135.007813 465.737305 C 141.891357 468.678711 145.620361 476.141113 143.92041 483.399414 L 143.753662 484.062012 C 142.720459 488.328613 145.620361 492.562012 149.974609 493.183105 C 159.386963 494.466309 168.79541 494.549805 178.003662 493.553711 C 182.441162 493.058105 185.466309 488.787109 184.428711 484.437012 C 184.141357 483.274414 184.016357 482.070313 184.016357 480.912109 C 184.016357 474.73291 187.745361 469.012207 193.674561 466.649414 L 205.241211 462.003906 C 212.16626 459.266113 220.083008 461.878906 224.024658 468.224609 L 224.35791 468.762207 C 226.678711 472.491211 231.695313 473.449707 235.216309 470.836914 C 242.599609 465.237305 249.35791 458.687012 255.282959 451.308105 C 258.10376 447.824707 257.191162 442.641113 253.42041 440.278809 L 253.378662 440.278809 C 246.953857 436.299805 244.382813 428.174805 247.366211 421.166016 L 252.299561 409.724609 C 255.245361 402.878906 262.66626 399.10791 269.962158 400.849609 L 270.583008 400.974609 C 274.85376 402.012207 279.124512 399.10791 279.703857 394.753906 C 280.991211 385.387207 281.116211 375.974609 280.120361 366.728516"/>
        <path id="path2" fill="#aded83" stroke="none" d="M 168.639893 382.795898 L 168.639893 398.899902 C 174.044189 398.254395 177.67334 395.350098 177.67334 391.325195 C 177.67334 387.149902 174.660889 385.045898 168.639893 382.795898 M 163.885742 374.674805 L 163.885742 359.329102 C 159.319092 359.766602 155.469238 362.266602 155.469238 366.837402 C 155.469238 370.862305 158.519287 372.716797 163.885742 374.674805 M 151.877441 390.637695 C 154.127441 394.666504 158.010742 398.141602 163.885742 398.899902 L 163.885742 381.129395 C 155.469238 378.191895 149.231689 374.779297 149.231689 366.908203 C 149.231689 358.674805 156.556641 354.320801 163.885742 353.8125 L 163.885742 348.041504 L 168.639893 348.041504 L 168.639893 354 C 176.11084 355.049805 180.469238 359.620605 182.569092 363.170898 L 177.889893 366.583496 C 176.36499 364.149902 173.465088 360.745605 168.639893 359.620605 L 168.639893 376.341797 C 177.23999 379.391602 183.910889 382.766602 183.910889 391.25 C 183.910889 398.362305 177.598389 403.616699 168.639893 404.379395 L 168.639893 410.145996 L 163.885742 410.145996 L 163.885742 404.379395 C 155.723389 403.662598 149.885742 399.191895 147.381592 393.862305 Z"/>
        <path id="path3" fill="#286fb7" stroke="none" d="M 421.115723 278.168945 C 406.761719 310.306641 368.949219 324.839844 336.753418 310.48584 C 304.611572 296.127441 290.136719 258.260742 304.495117 226.123535 C 311.407471 210.523438 324.049072 198.589844 339.945068 192.506836 C 347.386719 189.668945 355.124268 188.252441 362.807617 188.252441 C 371.665771 188.252441 380.469971 190.085938 388.799072 193.806641 C 420.999268 208.160645 435.469971 245.973145 421.115723 278.168945"/>
        <path id="path4" fill="#286fb7" stroke="none" d="M 432.357422 283.167969 C 426.036621 297.305176 415.907471 308.563965 403.724121 316.326172 C 391.540771 324.034668 377.303223 328.251465 362.703369 328.251465 C 352.315918 328.251465 341.83252 326.143066 331.807617 321.671875 C 293.45752 304.55127 276.186768 259.472168 293.253418 221.12207 C 301.52832 202.563965 316.59082 188.322266 335.561768 181.021973 C 354.52832 173.776367 375.245117 174.338867 393.803223 182.617676 C 432.15332 199.68457 449.424072 244.817871 432.357422 283.167969 M 477.27832 239.763672 C 476.77832 235.326172 472.46582 232.338867 468.115723 233.334473 C 466.953369 233.626465 465.753418 233.751465 464.59082 233.751465 C 458.453369 233.751465 452.690918 230.018066 450.328369 224.088867 L 445.728271 212.521973 C 442.949219 205.597168 445.561768 197.67627 451.90332 193.73877 L 452.486572 193.409668 C 456.21582 191.126465 457.169922 186.072266 454.515869 182.588867 C 448.919922 175.163574 442.411621 168.409668 435.02832 162.476074 C 431.549072 159.659668 426.365723 160.572266 423.999268 164.384766 C 421.099121 169.030273 416.124268 171.643066 410.940918 171.643066 C 408.911621 171.643066 406.83667 171.226074 404.886719 170.396973 L 393.445068 165.505371 C 386.561768 162.55957 382.828369 155.097168 384.52832 147.842773 L 384.695068 147.180176 C 385.690918 142.909668 382.790771 138.680664 378.436768 138.05957 C 369.065918 136.771973 359.65332 136.646973 350.449219 137.68457 C 346.011719 138.138672 342.986572 142.451172 344.02417 146.805176 C 344.311768 147.967773 344.436768 149.171875 344.436768 150.330566 C 344.436768 156.509766 340.70752 162.230469 334.77832 164.592773 L 323.21167 169.197266 C 316.245117 171.972168 308.324219 169.359375 304.428223 163.018066 L 304.094971 162.476074 C 301.77417 158.705566 296.757568 157.755371 293.232422 160.405273 C 285.853271 166.001465 279.094971 172.555176 273.165771 179.93457 C 270.349121 183.413574 271.261719 188.597168 275.032471 190.921875 C 279.674072 193.822266 282.328369 198.838867 282.328369 204.021973 C 282.328369 206.05127 281.915771 208.084473 281.08667 210.034668 L 276.15332 221.518066 C 273.20752 228.359375 265.745117 232.088867 258.490723 230.388672 L 257.865723 230.226074 C 253.599121 229.230469 249.328369 232.134766 248.744873 236.484375 C 247.46167 245.855469 247.33667 255.268066 248.33252 264.513672 C 248.828369 268.951172 253.099121 271.93457 257.453369 270.938965 L 257.495117 270.896973 C 264.874268 269.197266 272.419922 273.097168 275.240723 280.18457 L 279.882568 291.751465 C 282.661621 298.67627 280.007568 306.597168 273.661621 310.492676 L 273.124268 310.867676 C 269.390869 313.146973 268.440918 318.205566 271.09082 321.688965 C 276.690918 329.067871 283.199219 335.867676 290.578369 341.796875 C 294.061768 344.576172 299.245117 343.705566 301.607422 339.888672 C 304.511719 335.24707 309.486572 332.634766 314.669922 332.634766 C 316.699219 332.634766 318.77417 333.009766 320.724121 333.876465 L 332.165771 338.771973 C 339.049072 341.713867 342.77832 349.17627 341.078369 356.43457 L 340.911621 357.097168 C 339.878418 361.36377 342.77832 365.597168 347.132568 366.217773 C 356.544922 367.501465 365.953369 367.584473 375.161621 366.588867 C 379.599121 366.092773 382.624268 361.822266 381.58667 357.472168 C 381.299072 356.30957 381.174072 355.105469 381.174072 353.947266 C 381.174072 347.768066 384.90332 342.046875 390.83252 339.68457 L 402.39917 335.038574 C 409.324219 332.30127 417.240723 334.913574 421.182617 341.259766 L 421.515869 341.796875 C 423.83667 345.526367 428.853271 346.484375 432.374268 343.87207 C 439.757568 338.271973 446.515869 331.722168 452.440918 324.342773 C 455.261719 320.859375 454.349121 315.67627 450.578369 313.313965 L 450.536621 313.313965 C 444.111572 309.334473 441.540771 301.209473 444.52417 294.201172 L 449.45752 282.759766 C 452.40332 275.913574 459.824219 272.143066 467.120117 273.884766 L 467.740723 274.009766 C 472.011719 275.046875 476.282471 272.143066 476.861572 267.788574 C 478.14917 258.421875 478.27417 249.009766 477.27832 239.763672"/>
        <path id="path5" fill="none" stroke="#ff8d8d" stroke-width="5" stroke-linecap="round" stroke-linejoin="round" d="M 391.793701 234.612305 L 374.622803 262.649902 L 354.71875 242.908203 L 329.506348 279.899902"/>
        <path id="path6" fill="#ff8d8d" stroke="none" d="M 379.364258 238.678223 L 391.022461 235.870117 L 393.82251 247.532715 L 397.580811 241.39502 L 394.780762 229.736816 L 383.122559 232.541016 Z"/>
        <path id="path7" fill="#286fb7" stroke="none" d="M 233.018311 143.814453 C 218.664063 175.952148 180.851563 190.485352 148.651611 176.131348 C 116.51416 161.772949 102.039063 123.90625 116.397461 91.768555 C 123.310059 76.168945 135.95166 64.235352 151.847412 58.151855 C 159.289063 55.314453 167.026611 53.897949 174.709961 53.897949 C 183.568359 53.897949 192.372559 55.731445 200.70166 59.452148 C 232.901611 73.806152 247.372559 111.618652 233.018311 143.814453"/>
        <path id="path8" fill="#286fb7" stroke="none" d="M 244.260742 148.813477 C 237.939941 162.950684 227.810791 174.208984 215.627441 181.97168 C 203.444092 189.680176 189.206787 193.896484 174.606689 193.896484 C 164.219238 193.896484 153.73584 191.788574 143.706787 187.317383 C 105.36084 170.196777 88.090088 125.117676 105.156738 86.767578 C 113.431641 68.208984 128.494141 53.967285 147.465088 46.66748 C 166.431641 39.421875 187.148438 39.984375 205.706787 48.263184 C 244.056641 65.330078 261.327393 110.463379 244.260742 148.813477 M 289.181641 105.40918 C 288.681641 100.97168 284.369141 97.984375 280.019287 98.97998 C 278.856689 99.271484 277.656738 99.396484 276.494141 99.396484 C 270.356689 99.396484 264.594238 95.663574 262.231689 89.734375 L 257.631592 78.16748 C 254.852539 71.242676 257.465088 63.321777 263.806641 59.384277 L 264.389893 59.055176 C 268.119141 56.771484 269.073242 51.717285 266.419189 48.234375 C 260.823242 40.809082 254.314941 34.055176 246.931641 28.121582 C 243.452393 25.305176 238.269287 26.217285 235.902588 30.029785 C 233.002441 34.675781 228.027588 37.28418 222.844238 37.28418 C 220.814941 37.28418 218.73999 36.871582 216.790039 36.04248 L 205.348389 31.150879 C 198.465088 28.205078 194.731689 20.742676 196.431641 13.488281 L 196.598389 12.825684 C 197.594238 8.555176 194.694092 4.325684 190.340088 3.705078 C 180.969238 2.41748 171.556641 2.29248 162.352539 3.330078 C 157.915039 3.78418 154.889893 8.09668 155.92749 12.450684 C 156.215088 13.613281 156.340088 14.817383 156.340088 15.976074 C 156.340088 22.154785 152.61084 27.875977 146.681641 30.238281 L 135.11499 34.842285 C 128.148438 37.617676 120.227539 35.004883 116.331787 28.663574 L 115.998291 28.121582 C 113.67749 24.351074 108.660889 23.396484 105.135742 26.050781 C 97.756592 31.646484 90.998291 38.196777 85.069092 45.580078 C 82.252441 49.059082 83.165039 54.242676 86.935791 56.567383 C 91.577393 59.467285 94.231689 64.484375 94.231689 69.66748 C 94.231689 71.696777 93.819092 73.72998 92.98999 75.680176 L 88.056641 87.163574 C 85.11084 94.004883 77.648438 97.734375 70.394043 96.03418 L 69.769287 95.871582 C 65.502441 94.875977 61.231689 97.779785 60.648438 102.129883 C 59.36499 111.500977 59.23999 120.913574 60.23584 130.15918 C 60.731689 134.59668 65.002441 137.580078 69.356689 136.583984 L 69.398438 136.54248 C 76.777588 134.842285 84.323242 138.742676 87.144287 145.830078 L 91.785889 157.396484 C 94.564941 164.321777 91.910889 172.242676 85.564941 176.138184 L 85.027588 176.513184 C 81.294189 178.79248 80.344238 183.851074 82.994141 187.333984 C 88.594238 194.713379 95.102539 201.513184 102.481689 207.442383 C 105.965088 210.22168 111.148438 209.34668 113.510742 205.53418 C 116.415039 200.892578 121.389893 198.279785 126.573242 198.279785 C 128.602539 198.279785 130.67749 198.654785 132.627441 199.521484 L 144.069092 204.41748 C 150.952393 207.359375 154.681641 214.821777 152.981689 222.080078 L 152.814941 222.742676 C 151.781738 227.009277 154.681641 231.242676 159.035889 231.863281 C 168.448242 233.146484 177.856689 233.22998 187.064941 232.234375 C 191.502441 231.738281 194.527588 227.467285 193.48999 223.117676 C 193.202393 221.955078 193.077393 220.750977 193.077393 219.592285 C 193.077393 213.413574 196.806641 207.692383 202.73584 205.330078 L 214.30249 200.684082 C 221.227539 197.946777 229.144287 200.559082 233.085938 206.904785 L 233.419189 207.442383 C 235.73999 211.171875 240.756592 212.129883 244.277588 209.517578 C 251.660889 203.91748 258.419189 197.367676 264.344238 189.988281 C 267.165039 186.504883 266.252441 181.321777 262.481689 178.958984 L 262.439941 178.958984 C 256.014893 174.97998 253.444092 166.85498 256.42749 159.84668 L 261.36084 148.404785 C 264.306641 141.559082 271.727539 137.788574 279.023438 139.529785 L 279.644287 139.654785 C 283.915039 140.692383 288.185791 137.788574 288.764893 133.434082 C 290.05249 124.067383 290.17749 114.654785 289.181641 105.40918"/>
    </g>
    <clipPath id="clipPath-SHTTQ-2">
        <path d="M 0.5 250 C 0.5 388.070801 112.428955 500 250.5 500 L 250.5 500 C 388.571045 500 500.5 388.070801 500.5 250 L 500.5 250 C 500.5 111.929199 388.571045 0 250.5 0 L 250.5 0 C 112.428955 0 0.5 111.929199 0.5 250"/>
    </clipPath>
    <g id="Group-copy" clip-path="url(#clipPath-SHTTQ-2)">
        <path id="path9" fill="none" stroke="#faad23" stroke-width="2.5" stroke-linecap="round" stroke-linejoin="round" d="M 174.450928 112.24707 L 174.713379 149.763672"/>
        <path id="path10" fill="none" stroke="#faad23" stroke-width="2.5" stroke-linecap="round" stroke-linejoin="round" d="M 164.245361 149.76416 L 164.049561 134.614258 C 164.011963 129.772461 167.903809 125.818359 172.749512 125.776855 L 173.691162 125.768555"/>
        <path id="path11" fill="none" stroke="#faad23" stroke-width="2.5" stroke-linecap="round" stroke-linejoin="round" d="M 152.708252 149.76416 L 152.616699 144.084961 C 152.579102 139.243164 156.475098 135.289063 161.31665 135.247559 L 163.695801 135.230957"/>
        <path id="path12" fill="none" stroke="#faad23" stroke-width="2.5" stroke-linecap="round" stroke-linejoin="round" d="M 190.077881 149.76416 L 189.998779 139.568359 C 189.957031 134.726563 185.998779 130.834961 181.156982 130.872559 L 175.394531 130.922363"/>
        <path id="path13" fill="#44bf00" stroke="none" d="M 194.919678 97.866211 L 194.894531 94.945313 C 194.853027 89.987305 190.807129 86.007813 185.853027 86.04541 L 184.927979 86.053711 C 184.648682 86.058105 184.38623 86.116211 184.115479 86.145508 C 183.311279 81.711914 179.44043 78.362305 174.781982 78.399414 C 171.036133 78.428711 167.844482 80.657715 166.348633 83.836914 C 165.619629 83.662109 164.869629 83.54541 164.086182 83.549805 C 158.87793 83.595215 154.69043 87.849609 154.732178 93.062012 L 154.75293 95.470215 C 150.31543 96.891113 147.098633 101.020508 147.13623 105.924805 C 147.186279 111.958008 152.115479 116.812012 158.152832 116.762207 L 192.923828 116.478516 C 198.13623 116.437012 202.32373 112.178711 202.277832 106.970215 C 202.244629 102.503906 199.098633 98.808105 194.919678 97.866211"/>
    </g>
</svg>
