<?xml version="1.0" encoding="UTF-8"?>
<!-- Generated by Pixelmator Pro 3.5.7 -->
<svg class="svg-inline-icon" viewBox="0 0 500 501" xmlns="http://www.w3.org/2000/svg">
    <g id="Group-copy">
        <path id="Path" fill="#44bf00" stroke="none" d="M 250 500.5 C 388.070862 500.5 500 388.570801 500 250.5 C 500 112.429199 388.070862 0.5 250 0.5 C 111.929169 0.5 0 112.429199 0 250.5 C 0 388.570801 111.929169 500.5 250 500.5"/>
        <clipPath id="clipPath-f8Xdx-1">
            <path d="M 0 250.5 C 0 388.570801 111.929169 500.5 250 500.5 L 250 500.5 C 388.070801 500.5 500 388.570801 500 250.5 L 500 250.5 C 500 112.429199 388.070801 0.5 250 0.5 L 250 0.5 C 111.929169 0.5 0 112.429199 0 250.5"/>
        </clipPath>
        <g id="Group" clip-path="url(#clipPath-f8Xdx-1)">
            <path id="path1" fill="#66ccff" stroke="none" d="M 0 277 L 500 277 L 500 0.5 L 0 0.5 Z"/>
            <path id="path2" fill="#f7f5ba" stroke="none" d="M 472.327515 195.459961 C 472.873352 203.214355 469.935852 210.301758 464.92334 215.318359 C 460.331665 219.910156 453.956665 222.76416 446.902527 222.76416 L 132.360809 222.76416 C 110.848358 222.76416 93.410828 205.32666 93.410828 183.818359 C 93.410828 162.305664 110.848358 144.872559 132.360809 144.872559 L 181.819153 144.872559 C 188.848328 144.872559 194.544159 139.176758 194.544159 132.151855 C 194.544159 125.122559 188.848328 119.426758 181.819153 119.426758 L 143.948334 119.426758 C 136.310852 119.426758 130.119171 113.234863 130.119171 105.593262 C 130.119171 97.956055 136.310852 91.76416 143.948334 91.76416 L 412.406677 91.76416 C 423.219177 91.76416 432.648315 99.872559 433.460815 110.651855 C 433.935852 116.918457 431.581665 122.688965 427.523315 126.722656 C 423.810852 130.435059 418.710815 132.722656 413.044189 132.722656 L 355.089996 132.722656 C 344.67749 132.722656 335.585815 140.57666 334.906677 150.964355 C 334.160828 162.347656 343.17334 171.810059 354.398346 171.810059 L 446.102478 171.810059 C 459.61084 171.810059 471.377502 181.984863 472.327515 195.459961"/>
            <path id="path3" fill="#286fb7" stroke="none" d="M 594.279602 212.624512 L 594.279602 548.683105 L -67.166222 548.683105 L -67.166222 201.791016 C -57.953728 211.374512 -45.016251 217.333008 -30.678772 217.333008 C -17.799591 217.333008 -6.091263 212.520508 2.850449 204.620605 C 11.787903 212.520508 23.500412 217.333008 36.375397 217.333008 C 49.254578 217.333008 61.008743 212.520508 69.925415 204.620605 C 78.842072 212.541016 90.596237 217.333008 103.450409 217.333008 C 116.308746 217.333008 128.08374 212.520508 137.000397 204.603516 C 145.937927 212.520508 157.650421 217.333008 170.525421 217.333008 C 183.404572 217.333008 195.117065 212.520508 204.054596 204.603516 C 212.975403 212.520508 224.746246 217.333008 237.604584 217.333008 C 250.458771 217.333008 262.233734 212.520508 271.150421 204.620605 C 280.071228 212.541016 291.800415 217.333008 304.679596 217.333008 C 317.558746 217.333008 329.26709 212.520508 338.20874 204.620605 C 347.14624 212.520508 358.875397 217.333008 371.758728 217.333008 C 384.612915 217.333008 396.362915 212.541016 405.283752 204.620605 C 414.200439 212.541016 425.95459 217.333008 438.812927 217.333008 C 451.667053 217.333008 463.442078 212.520508 472.358765 204.603516 C 481.300415 212.520508 493.008728 217.333008 505.887939 217.333008 C 518.762939 217.333008 530.475403 212.520508 539.412903 204.603516 C 548.33374 212.520508 560.108765 217.333008 572.962891 217.333008 C 580.571228 217.333008 587.800415 215.645508 594.279602 212.624512"/>
            <path id="path4" fill="#44bf00" stroke="none" d="M 192.383759 391.480957 C 192.992096 384.172363 196.717072 377.63916 202.342072 372.930664 C 204.83374 370.847656 206.979584 368.26416 208.625427 365.239258 C 210.929596 360.997559 211.95459 356.410156 211.842072 351.910156 C 211.671265 345.234863 214.283752 338.943359 218.754578 333.989258 C 220.57959 331.968262 222.062927 329.539063 223.050415 326.739258 C 226.154572 317.964355 222.917084 307.922363 215.312927 302.568359 C 204.762909 295.13916 190.446259 298.718262 184.471252 309.718262 C 183.621246 311.285156 182.987915 312.910156 182.567078 314.563965 C 180.95874 320.843262 177.283752 326.401855 171.70459 329.70166 C 167.717072 332.063965 164.292084 335.501465 161.921265 339.872559 C 160.279572 342.897461 159.283752 346.097656 158.887909 349.318359 C 158.02124 356.410156 154.929596 363.188965 149.187927 367.447266 C 145.096252 370.480957 141.775421 374.743164 139.837921 380.060059 C 135.70874 391.380859 139.82959 404.393555 149.696259 411.318359 C 163.212921 420.810059 181.542084 416.218262 189.192078 402.134766 C 191.042084 398.730957 192.08374 395.105957 192.383759 391.480957"/>
            <path id="path5" fill="none" stroke="#368900" stroke-width="2.5" stroke-linecap="round" d="M 153.055847 412.629395 L 200.901672 324.538086"/>
            <path id="path6" fill="#44bf00" stroke="none" d="M 128.397919 403.667969 C 123.289581 398.405273 120.818756 391.30127 120.96875 383.967773 C 121.03125 380.722168 120.502075 377.405273 119.302094 374.17627 C 117.618744 369.651367 114.839569 365.86377 111.368744 362.98877 C 106.231262 358.730469 103.206253 352.626465 102.414581 345.99707 C 102.09375 343.292969 101.231247 340.580566 99.777084 337.99707 C 95.206253 329.888672 85.510422 325.726074 76.477081 327.938965 C 63.943756 331.001465 57.227081 344.143066 61.585419 355.876465 C 62.206253 357.546875 63.018753 359.092773 63.985413 360.49707 C 67.660416 365.838867 69.431244 372.259766 68.252075 378.634766 C 67.410416 383.192871 67.747925 388.030273 69.481247 392.692871 C 70.681244 395.917969 72.439575 398.771973 74.606247 401.188965 C 79.381256 406.501465 82.456253 413.292969 81.889587 420.413574 C 81.485413 425.49707 82.514587 430.796875 85.243744 435.751465 C 91.06459 446.30957 103.577087 451.755371 115.28125 448.876465 C 131.318756 444.92627 139.910431 428.101074 134.327087 413.076172 C 132.977081 409.447266 130.931244 406.276367 128.397919 403.667969"/>
        </g>
        <clipPath id="clipPath-f8Xdx-2">
            <path d="M 0 250.5 C 0 388.570801 111.929169 500.5 250 500.5 L 250 500.5 C 388.070801 500.5 500 388.570801 500 250.5 L 500 250.5 C 500 112.429199 388.070801 0.5 250 0.5 L 250 0.5 C 111.929169 0.5 0 112.429199 0 250.5"/>
        </clipPath>
        <g id="g1" clip-path="url(#clipPath-f8Xdx-2)">
            <path id="path7" fill="none" stroke="#368900" stroke-width="2.5" stroke-linecap="round" d="M 118.47876 447.205078 L 83.557922 353.238281"/>
            <path id="path8" fill="#aded83" stroke="none" d="M 159.855835 377.325195 C 156.901672 370.612305 157.059998 363.091797 159.751678 356.270996 C 160.94751 353.25 161.601654 349.958496 161.601654 346.512695 C 161.601654 341.6875 160.314178 337.162598 158.064178 333.266602 C 154.730835 327.479004 154.022491 320.708496 155.589172 314.216797 C 156.226654 311.570801 156.368347 308.725098 155.901672 305.795898 C 154.443329 296.608398 146.805847 289.325195 137.564178 288.25 C 124.751678 286.758301 113.876678 296.733398 113.876678 309.254395 C 113.876678 311.033203 114.097504 312.766602 114.51416 314.420898 C 116.101654 320.708496 115.526672 327.341797 112.19751 332.908203 C 109.82251 336.887695 108.45166 341.537598 108.45166 346.512695 C 108.45166 349.954102 109.109985 353.245605 110.297485 356.262695 C 112.922485 362.908203 113.439178 370.341797 110.426666 376.820801 C 108.276672 381.441895 107.397491 386.770996 108.226654 392.366699 C 110.005829 404.287598 119.839172 413.754395 131.814178 415.133301 C 148.222504 417.020996 162.13501 404.237305 162.13501 388.208496 C 162.13501 384.333496 161.32251 380.654297 159.855835 377.325195"/>
            <path id="path9" fill="none" stroke="#368900" stroke-width="2.5" stroke-linecap="round" d="M 135.391663 414.680176 L 135.391663 314.434082"/>
            <path id="path10" fill="#56531d" stroke="none" d="M 279.796661 536.113281 C 295.079987 533.050781 307.359161 523.438477 314.325836 510.796875 C 320.880005 498.884277 332.238342 490.650879 345.567505 487.97168 C 345.654999 487.955078 345.742493 487.938477 345.829987 487.921875 C 353.613342 486.317383 360.605011 483.009277 366.505005 478.467285 C 378.050842 469.580078 393.550842 467.717285 407.250854 472.684082 C 417.571655 476.430176 429.025818 477.455078 440.571655 475.080078 C 456.85083 471.726074 470.28833 462.22168 478.967468 449.492676 C 486.505005 438.434082 498.434143 430.84668 511.763367 429.634277 C 514.455017 429.388184 517.16748 428.925781 519.880005 428.226074 C 544.880005 421.796875 561.338318 396.896484 557.425842 371.379883 C 552.980042 342.404785 525.280029 323.396484 496.925842 329.234375 C 487.179993 331.242676 478.679993 335.921875 472.017517 342.34668 C 462.384155 351.638184 448.904968 355.396484 435.617493 353.775879 C 429.16748 352.988281 422.47583 353.217285 415.759155 354.60498 C 401.97998 357.442383 390.238342 364.680176 381.696655 374.555176 C 372.16748 385.563477 357.400848 390.009277 343.000824 387.863281 C 337.28418 387.009277 331.321655 387.129883 325.325836 388.363281 C 301.421661 393.28418 284.942505 414.246582 284.763336 437.705078 C 276.855011 435.263184 268.242493 434.713379 259.567505 436.500977 C 231.16333 442.351074 213.213348 470.84668 220.679993 499.271484 C 227.438324 524.992676 253.717499 541.338379 279.796661 536.113281"/>
            <path id="path11" fill="#828829" stroke="none" d="M 557.801697 410.257324 C 552.184998 391.724121 536.101685 377.815918 516.94751 374.986816 C 498.397522 372.249023 481.405823 379.541016 470.559998 392.245117 C 461.730835 402.586426 448.94751 408.365723 435.351685 408.294922 L 435.085022 408.294922 C 427.13501 408.294922 419.622498 410.124023 412.930847 413.382324 C 399.830811 419.761719 384.268311 418.45752 371.855835 410.828125 C 362.497498 405.078125 351.489166 401.761719 339.70166 401.761719 C 322.955841 401.761719 307.776672 408.453125 296.689178 419.311523 C 287.19751 428.607422 274.01001 433.40332 260.809998 431.911621 C 256.484985 431.424316 251.997498 431.478516 247.409973 432.157715 C 226.180847 435.294922 208.95166 451.936523 205.109985 473.049316 C 203.768311 480.424316 204.076691 487.557617 205.655823 494.199219 C 210.864166 551.099121 258.585022 594.649414 315.722504 594.649414 L 449.422485 594.649414 C 510.468323 594.649414 559.95166 545.161621 559.95166 484.120117 L 559.95166 427.982422 C 560.255859 422.286621 559.647522 416.353516 557.801697 410.257324"/>
        </g>
    </g>
</svg>
