<?xml version="1.0" encoding="UTF-8"?>
<!-- Generated by Pixelmator Pro 3.5.7 -->
<svg class="svg-inline-icon" viewBox="0 0 501 501" xmlns="http://www.w3.org/2000/svg">    
    <path id="Path" fill="#44bf00" stroke="none" d="M 250.75 500.5 C 388.820801 500.5 500.75 388.570801 500.75 250.5 C 500.75 112.429199 388.820801 0.5 250.75 0.5 C 112.679199 0.5 0.75 112.429199 0.75 250.5 C 0.75 388.570801 112.679199 500.5 250.75 500.5"/>
    <clipPath id="clipPath-S8rPq-1">
        <path d="M 0.75 250.5 C 0.75 388.570801 112.679199 500.5 250.75 500.5 L 250.75 500.5 C 388.820801 500.5 500.75 388.570801 500.75 250.5 L 500.75 250.5 C 500.75 112.429199 388.820801 0.5 250.75 0.5 L 250.75 0.5 C 112.679199 0.5 0.75 112.429199 0.75 250.5"/>
    </clipPath>
    <g id="Group" clip-path="url(#clipPath-S8rPq-1)">
        <path id="path1" fill="#ceebf7" stroke="none" d="M 180.280884 250.739258 C 180.280884 311.976563 137.001709 363.134766 79.351685 375.230957 C 70.88916 377.026855 62.093384 377.943359 53.114136 377.943359 C 44.026611 377.943359 35.122437 376.989258 26.580811 375.155762 C -30.952515 362.956055 -74.089966 311.905762 -74.089966 250.739258 C -74.089966 189.647461 -30.952515 138.560059 26.547485 126.355957 C 35.122437 124.522461 43.989136 123.572266 53.114136 123.572266 C 62.126709 123.572266 70.922485 124.522461 79.38916 126.322266 C 137.035034 138.414063 180.280884 189.535156 180.280884 250.739258"/>
        <path id="path2" fill="none" stroke="#286fb7" stroke-width="2.5" stroke-linecap="round" d="M 26.581665 375.157227 C -8.380859 345.069824 -30.51416 300.507324 -30.51416 250.740234 C -30.51416 201.006836 -8.380859 156.444336 26.544189 126.356934"/>
        <path id="path3" fill="none" stroke="#286fb7" stroke-width="2.5" stroke-linecap="round" d="M 79.390381 126.320801 C 114.38623 156.408203 136.523804 200.970703 136.523804 250.737305 C 136.523804 300.541504 114.352905 345.141602 79.352905 375.229004"/>
        <path id="path4" fill="none" stroke="#286fb7" stroke-width="2.5" stroke-linecap="round" d="M 53.114136 377.612305 L 53.114136 376.404297 L 53.114136 376.183105 L 53.114136 125.333496 L 53.114136 125.112305 L 53.114136 123.570801"/>
        <path id="path5" fill="none" stroke="#286fb7" stroke-width="2.5" stroke-linecap="round" d="M -65.108765 203.762695 L 171.599609 203.762695"/>
        <path id="path6" fill="none" stroke="#286fb7" stroke-width="2.5" stroke-linecap="round" d="M -65.108765 295.404297 L 171.599609 295.404297"/>
        <path id="path7" fill="#f06463" stroke="none" d="M 109.591309 169.96582 C 109.591309 157.049316 119.924561 146.71582 132.845459 146.71582 C 145.616211 146.71582 155.949585 157.049316 155.949585 169.96582 C 155.949585 182.740723 145.616211 193.074219 132.845459 193.074219 C 119.924561 193.074219 109.591309 182.740723 109.591309 169.96582 M 94.23291 190.632324 L 124.374634 251.057617 C 125.237061 252.924316 126.812134 254.503418 128.682861 255.361816 C 133.274536 257.661621 138.870361 255.794922 141.16626 251.057617 L 171.307861 190.632324 C 174.60791 184.032715 176.04541 177.286621 176.04541 170.541016 C 176.04541 148.294922 159.537109 127.77002 135.570435 126.33252 L 129.974609 126.33252 C 98.824585 128.199219 80.17041 162.503418 94.23291 190.632324"/>
        <path id="path8" fill="#dbd8a7" stroke="none" d="M 416.720825 429.608398 L 287.19165 429.608398 L 287.19165 282.787598 L 416.720825 282.787598 Z"/>
        <path id="path9" fill="#fffde1" stroke="none" d="M 434.579102 414.575195 L 305.050049 414.575195 L 305.050049 267.753906 L 434.579102 267.753906 Z"/>
        <path id="path10" fill="none" stroke="#dbd8a7" stroke-width="2.5" stroke-linecap="round" d="M 324.656616 376.608887 L 414.964966 376.566895"/>
        <path id="path11" fill="none" stroke="#dbd8a7" stroke-width="2.5" stroke-linecap="round" d="M 324.657959 391.146484 L 414.966309 391.109375"/>
        <path id="path12" fill="#ffc776" stroke="none" d="M 269.052856 346.804199 C 269.052856 364.325195 254.848755 378.533203 237.327881 378.533203 C 219.807129 378.533203 205.602905 364.325195 205.602905 346.804199 C 205.602905 329.283203 219.807129 315.075195 237.327881 315.075195 C 254.848755 315.075195 269.052856 329.283203 269.052856 346.804199"/>
        <path id="path13" fill="none" stroke="#c45800" stroke-width="2.5" stroke-linecap="round" stroke-linejoin="round" d="M 228.192505 356.017578 L 246.53418 337.675781"/>
        <path id="path14" fill="none" stroke="#c45800" stroke-width="2.5" stroke-linecap="round" stroke-linejoin="round" d="M 246.5354 356.017578 L 228.193726 337.675781"/>
        <path id="path15" fill="#368900" stroke="none" d="M 397.23291 321.725098 C 398.312134 321.083496 398.912109 319.808105 398.616211 318.520996 C 398.324585 317.237305 397.241211 316.354004 395.999634 316.237305 C 396.903809 315.370605 397.207886 313.995605 396.637085 312.804199 C 396.062134 311.620605 394.812134 310.995605 393.574585 311.158203 C 394.266235 310.116699 394.253784 308.708496 393.428711 307.670898 C 392.60791 306.645996 391.249634 306.316895 390.078735 306.754395 C 390.520386 305.579102 390.195435 304.208496 389.162109 303.383301 C 388.132935 302.5625 386.737061 302.545898 385.691284 303.229004 C 385.862061 301.987305 385.241211 300.725098 384.049561 300.149902 C 382.862061 299.579102 381.495361 299.875 380.628784 300.774902 C 380.516235 299.524902 379.632935 298.429199 378.341309 298.137695 C 377.062134 297.841797 375.79126 298.4375 375.149536 299.504395 C 374.762085 298.3125 373.653809 297.441895 372.332886 297.441895 C 371.016235 297.441895 369.912109 298.304199 369.524536 299.491699 C 368.878784 298.408203 367.60791 297.808105 366.316284 298.104004 C 365.037109 298.395996 364.149536 299.483398 364.032959 300.725098 C 363.16626 299.816895 361.79126 299.512695 360.599609 300.087402 C 359.41626 300.658203 358.79541 301.912598 358.957886 303.149902 C 357.912109 302.458496 356.503784 302.466797 355.470459 303.291504 C 354.441284 304.112305 354.116211 305.475098 354.549561 306.645996 C 353.374634 306.204102 352.003784 306.524902 351.178711 307.558105 C 350.362061 308.587402 350.345459 309.987305 351.028809 311.033203 C 349.787109 310.862305 348.520386 311.483398 347.949585 312.670898 C 347.374634 313.858398 347.674561 315.229004 348.570435 316.091797 C 347.320435 316.204102 346.22876 317.091797 345.932861 318.379395 C 345.641235 319.662598 346.237061 320.929199 347.303711 321.575195 C 346.10791 321.958496 345.241211 323.066895 345.241211 324.391602 C 345.241211 324.454102 345.253784 324.516602 345.257935 324.579102 C 345.249634 324.645996 345.241211 324.708496 345.241211 324.770996 C 345.241211 326.283203 346.462036 327.508301 347.974609 327.508301 L 395.774536 327.508301 L 395.774536 327.429199 C 395.949585 327.462402 396.120361 327.508301 396.307861 327.508301 C 397.949585 327.508301 399.278809 326.179199 399.278809 324.533203 C 399.278809 323.220703 398.41626 322.116699 397.23291 321.725098"/>
        <path id="path16" fill="#44bf00" stroke="none" d="M 376.264526 331.857422 C 377.34375 331.21582 377.943726 329.940918 377.647949 328.65332 C 377.356201 327.370117 376.272949 326.486816 375.03125 326.370117 C 375.935425 325.503418 376.239624 324.128418 375.668701 322.936523 C 375.09375 321.753418 373.84375 321.128418 372.606201 321.291016 C 373.297974 320.249023 373.2854 318.84082 372.460449 317.803223 C 371.639526 316.77832 370.28125 316.449219 369.110474 316.886719 C 369.552124 315.711426 369.227051 314.34082 368.193726 313.515625 C 367.164551 312.694824 365.768799 312.678223 364.7229 313.361816 C 364.893799 312.120117 364.272949 310.857422 363.081299 310.282715 C 361.893799 309.711426 360.5271 310.011719 359.6604 310.907715 C 359.547974 309.657715 358.664551 308.561523 357.372925 308.27002 C 356.09375 307.974121 354.822876 308.569824 354.181274 309.636719 C 353.793701 308.444824 352.685425 307.574219 351.364624 307.574219 C 350.047974 307.574219 348.943726 308.436523 348.556274 309.624023 C 347.9104 308.541016 346.639526 307.940918 345.3479 308.236816 C 344.068726 308.52832 343.181274 309.615723 343.064575 310.857422 C 342.197876 309.949219 340.822876 309.64502 339.631226 310.220215 C 338.447876 310.791016 337.827026 312.044922 337.989624 313.282715 C 336.943726 312.59082 335.5354 312.599121 334.502075 313.424316 C 333.4729 314.245117 333.147949 315.607422 333.581299 316.77832 C 332.40625 316.336426 331.0354 316.657715 330.210449 317.690918 C 329.393799 318.720215 329.377075 320.120117 330.060425 321.166016 C 328.818726 320.995117 327.552124 321.615723 326.981201 322.803223 C 326.40625 323.990723 326.706299 325.361816 327.602051 326.224121 C 326.352051 326.336426 325.260376 327.224121 324.9646 328.511719 C 324.672974 329.794922 325.268799 331.061523 326.335449 331.70752 C 325.139526 332.09082 324.272949 333.199219 324.272949 334.523926 C 324.272949 334.586426 324.2854 334.648926 324.289551 334.711426 C 324.28125 334.77832 324.272949 334.84082 324.272949 334.90332 C 324.272949 336.416016 325.493774 337.640625 327.006226 337.640625 L 374.806274 337.640625 L 374.806274 337.561523 C 374.981201 337.595215 375.1521 337.640625 375.3396 337.640625 C 376.981201 337.640625 378.310425 336.311523 378.310425 334.666016 C 378.310425 333.353516 377.447876 332.249023 376.264526 331.857422"/>
        <path id="path17" fill="#aded83" stroke="none" d="M 414.049561 336.024414 C 415.128784 335.382813 415.72876 334.10791 415.432861 332.820313 C 415.141235 331.537109 414.057861 330.653809 412.816284 330.537109 C 413.720459 329.67041 414.024536 328.29541 413.453735 327.103516 C 412.878784 325.92041 411.628784 325.29541 410.391235 325.458008 C 411.082886 324.416016 411.070435 323.007813 410.245361 321.970215 C 409.424561 320.945313 408.066284 320.616211 406.895386 321.053711 C 407.337036 319.878906 407.012085 318.507813 405.97876 317.683105 C 404.949585 316.862305 403.553711 316.845215 402.507935 317.528809 C 402.678711 316.287109 402.057861 315.024414 400.866211 314.449707 C 399.678711 313.878906 398.312134 314.178711 397.445435 315.074707 C 397.332886 313.824707 396.449585 312.728516 395.157959 312.437012 C 393.878784 312.141113 392.60791 312.737305 391.966309 313.803711 C 391.578735 312.612305 390.470459 311.741211 389.149536 311.741211 C 387.832886 311.741211 386.72876 312.603516 386.341309 313.791016 C 385.695435 312.708008 384.424561 312.10791 383.132935 312.403809 C 381.85376 312.695313 380.966309 313.782715 380.849609 315.024414 C 379.98291 314.116211 378.60791 313.812012 377.41626 314.387207 C 376.23291 314.958008 375.612061 316.211914 375.774536 317.449707 C 374.72876 316.757813 373.320435 316.766113 372.287109 317.591309 C 371.257935 318.412109 370.932861 319.774414 371.366211 320.945313 C 370.191284 320.503906 368.820435 320.824707 367.995361 321.85791 C 367.178711 322.887207 367.162109 324.287109 367.845459 325.333008 C 366.60376 325.162109 365.337036 325.782715 364.766235 326.974609 C 364.191284 328.157715 364.491211 329.528809 365.387085 330.391113 C 364.137085 330.503906 363.04541 331.391113 362.749634 332.678711 C 362.457886 333.961914 363.053711 335.228516 364.120361 335.874512 C 362.924561 336.262207 362.057861 337.366211 362.057861 338.691406 C 362.057861 338.753906 362.070435 338.816406 362.078735 338.878906 C 362.066284 338.945313 362.057861 339.007813 362.057861 339.070313 C 362.057861 340.583008 363.278809 341.808105 364.79126 341.808105 L 412.591309 341.808105 L 412.591309 341.728516 C 412.766235 341.762207 412.937134 341.808105 413.124634 341.808105 C 414.766235 341.808105 416.095459 340.478516 416.095459 338.833008 C 416.095459 337.520508 415.23291 336.416016 414.049561 336.024414"/>
        <path id="path18" fill="#dbd8a7" stroke="none" d="M 414.695801 232.666504 L 285.166748 232.666504 L 285.166748 85.846191 L 414.695801 85.846191 Z"/>
        <path id="path19" fill="#aded83" stroke="none" d="M 267.025879 149.862305 C 267.025879 167.382813 252.821655 181.591309 235.300781 181.591309 C 217.780029 181.591309 203.575806 167.382813 203.575806 149.862305 C 203.575806 132.341309 217.780029 118.132813 235.300781 118.132813 C 252.821655 118.132813 267.025879 132.341309 267.025879 149.862305"/>
    </g>
    <clipPath id="clipPath-S8rPq-2">
        <path d="M 0.75 250.5 C 0.75 388.570801 112.679199 500.5 250.75 500.5 L 250.75 500.5 C 388.820801 500.5 500.75 388.570801 500.75 250.5 L 500.75 250.5 C 500.75 112.429199 388.820801 0.5 250.75 0.5 L 250.75 0.5 C 112.679199 0.5 0.75 112.429199 0.75 250.5"/>
    </clipPath>
    <g id="g1" clip-path="url(#clipPath-S8rPq-2)">
        <path id="path20" fill="none" stroke="#3abca9" stroke-width="2.5" stroke-linecap="round" stroke-linejoin="round" d="M 220.912476 149.069824 L 229.979126 158.13623 L 248.320801 139.790527"/>
        <path id="path21" fill="#fffde1" stroke="none" d="M 432.549927 217.633789 L 303.020874 217.633789 L 303.020874 70.8125 L 432.549927 70.8125 Z"/>
        <path id="path22" fill="#d18a22" stroke="none" d="M 391.020386 155.650391 C 391.020386 156.125488 344.549561 155.650391 344.549561 155.650391 C 344.549561 146.729492 354.953735 136.64209 367.787109 136.64209 C 380.616211 136.64209 391.020386 146.729492 391.020386 155.650391"/>
        <path id="path23" fill="#44bf00" stroke="none" d="M 377.342529 112.09375 C 377.342529 119.227051 373.53418 125.477051 367.829956 128.90625 C 362.125854 125.477051 358.321655 119.227051 358.321655 112.09375 C 358.321655 104.960449 362.125854 98.710449 367.829956 95.276855 C 373.53418 98.710449 377.342529 104.960449 377.342529 112.09375"/>
        <path id="path24" fill="none" stroke="#368900" stroke-width="2.5" stroke-linecap="round" stroke-linejoin="round" d="M 368.222534 141.403809 L 367.82666 96.445313"/>
        <path id="path25" fill="none" stroke="#dbd8a7" stroke-width="2.5" stroke-linecap="round" d="M 322.630005 179.666504 L 412.938354 179.625"/>
        <path id="path26" fill="none" stroke="#dbd8a7" stroke-width="2.5" stroke-linecap="round" d="M 322.631226 194.204102 L 412.939575 194.166504"/>
    </g>
</svg>
