<?xml version="1.0" encoding="UTF-8"?>
<!-- Generated by Pixelmator Pro 3.5.7 -->
<svg class="svg-inline-icon" viewBox="0 0 500 501" xmlns="http://www.w3.org/2000/svg">
    <path id="Path-copy" fill="#368900" stroke="none" d="M 250 500.666748 C 388.070862 500.666748 500 388.737549 500 250.666748 C 500 112.595947 388.070862 0.666748 250 0.666748 C 111.929169 0.666748 0 112.595947 0 250.666748 C 0 388.737549 111.929169 500.666748 250 500.666748"/>
    <clipPath id="clipPath-Mae9M-1">
        <path d="M 0 250.666748 C 0 388.737549 111.929169 500.666748 250 500.666748 L 250 500.666748 C 388.070801 500.666748 500 388.737549 500 250.666748 L 500 250.666748 C 500 112.595703 388.070801 0.666748 250 0.666748 L 250 0.666748 C 111.929169 0.666748 0 112.595703 0 250.666748"/>
    </clipPath>
    <g id="Group-copy-2" clip-path="url(#clipPath-Mae9M-1)">
        <path id="Path" fill="#605384" stroke="none" d="M 404.33667 405.794922 C 404.33667 405.886719 404.244995 405.978271 404.15332 405.978271 L 77.899155 406.536621 C 77.80751 406.536621 77.715836 406.445068 77.715836 406.261719 L 77.065842 114.136719 C 77.065842 113.949219 179.611664 113.857422 179.703339 113.857422 L 368.365845 113.486572 L 368.45752 113.486572 L 403.686646 147.790771 L 403.686646 147.974121 Z"/>
        <path id="path1" fill="#fff9f0" stroke="none" d="M 422.934143 387.19751 C 422.934143 387.289063 422.842529 387.380859 422.750854 387.380859 L 96.496658 387.939209 C 96.405014 387.939209 96.313339 387.847412 96.313339 387.664063 L 95.663345 95.539063 C 95.663345 95.351563 198.209167 95.26001 198.300842 95.26001 L 386.963318 94.88916 L 387.054993 94.88916 L 422.28418 129.193359 L 422.28418 129.376709 Z"/>
        <path id="path2" fill="none" stroke="#002f54" stroke-width="2.5" stroke-linecap="round" d="M 169.306671 204.754639 L 169.306671 333.950439"/>
        <path id="path3" fill="#286fb7" stroke="none" d="M 203 204.75415 L 135.616638 204.75415 L 135.616638 182.137451 L 203 182.137451 Z"/>
        <path id="path4" fill="#286fb7" stroke="none" d="M 203 356.570801 L 135.616638 356.570801 L 135.616638 333.954102 L 203 333.954102 Z"/>
        <path id="path5" fill="none" stroke="#002f54" stroke-width="2.5" stroke-linecap="round" d="M 169.306671 243.250488 L 220.260834 243.250488"/>
        <path id="path6" fill="none" stroke="#002f54" stroke-width="2.5" stroke-linecap="round" d="M 169.307495 296.557617 L 321.511658 296.557617"/>
        <path id="path7" fill="#ffa14d" stroke="none" d="M 276.095825 252.80835 L 208.712524 252.80835 L 208.712524 230.19165 L 276.095825 230.19165 Z"/>
        <path id="path8" fill="#44bf00" stroke="none" d="M 276.095825 307.866699 L 208.712524 307.866699 L 208.712524 285.25 L 276.095825 285.25 Z"/>
        <path id="path9" fill="#44bf00" stroke="none" d="M 382.883301 307.866699 L 315.5 307.866699 L 315.5 285.25 L 382.883301 285.25 Z"/>
        <path id="path10" fill="none" stroke="#002f54" stroke-width="2.5" stroke-linecap="round" d="M 366.224609 296.557129 L 332.457916 296.557129"/>
        <path id="path11" fill="none" stroke="#002f54" stroke-width="2.5" stroke-linecap="round" d="M 259.434998 241.500732 L 225.668335 241.500732"/>
        <path id="path12" fill="none" stroke="#002f54" stroke-width="2.5" stroke-linecap="round" d="M 185.157501 193.794189 L 151.390839 193.794189"/>
        <path id="path13" fill="none" stroke="#002f54" stroke-width="2.5" stroke-linecap="round" d="M 186.19043 345.261719 L 152.423737 345.261719"/>
        <path id="path14" fill="none" stroke="#002f54" stroke-width="2.5" stroke-linecap="round" d="M 259.434998 296.557617 L 225.668335 296.557617"/>
    </g>
    <clipPath id="clipPath-Mae9M-2">
        <path d="M 0 250.666748 C 0 388.737549 111.929169 500.666748 250 500.666748 L 250 500.666748 C 388.070801 500.666748 500 388.737549 500 250.666748 L 500 250.666748 C 500 112.595703 388.070801 0.666748 250 0.666748 L 250 0.666748 C 111.929169 0.666748 0 112.595703 0 250.666748"/>
    </clipPath>
    <g id="Group-copy" clip-path="url(#clipPath-Mae9M-2)">
        <path id="path15" fill="#a8a49e" stroke="none" d="M 422.469971 129.375732 L 422.286682 129.375732 L 387.424194 129.842529 L 386.96167 94.888428 L 386.96167 94.796631 L 387.053345 94.888428 L 422.286682 129.192383 Z"/>
        <path id="path16" fill="#00bdf2" stroke="none" d="M 305.137909 171.884277 C 305.02124 171.41748 304.925415 170.942383 304.854584 170.463379 C 304.83374 170.325928 304.808746 170.192383 304.792084 170.054932 C 304.712921 169.429932 304.658752 168.800781 304.658752 168.15918 L 304.658752 168.142578 C 304.658752 159.363281 311.779572 152.242432 320.558746 152.242432 C 321.775421 152.242432 322.95459 152.392578 324.092072 152.650879 C 326.071259 141.521729 335.77124 133.063232 347.467072 133.063232 C 358.167084 133.063232 367.20874 140.138428 370.192078 149.863281 C 371.33374 149.638428 372.51709 149.513428 373.729553 149.513428 C 384.01709 149.513428 392.354553 157.85498 392.354553 168.142578 C 392.354553 168.713379 392.317078 169.275879 392.258728 169.830078 C 392.183777 170.625732 392.071228 171.41333 391.904602 172.179932 L 391.800415 172.179932 C 390.025391 178.696777 384.08374 183.496582 377.004578 183.496582 L 320.012909 183.496582 C 312.933746 183.496582 306.987915 178.696777 305.212921 172.179932 L 305.196259 172.179932 C 305.171265 172.084229 305.162903 171.97998 305.137909 171.884277"/>
        <path id="path17" fill="#002f54" stroke="none" d="M 346.187927 216.019531 C 345.942078 215.598633 345.808746 215.115479 345.808746 214.603027 L 346.037903 174.469482 C 346.050415 172.919678 347.308746 171.673828 348.854584 171.677979 C 350.417084 171.69043 351.64209 172.973633 351.64624 174.498779 L 351.417084 214.62793 C 351.404572 216.177979 350.14624 217.427979 348.596252 217.415527 C 347.562927 217.411133 346.667084 216.848633 346.187927 216.019531"/>
        <path id="path18" fill="#002f54" stroke="none" d="M 333.046661 201.246338 L 363.988342 201.421143 C 365.646667 201.429688 366.496643 203.412842 365.363342 204.617188 L 349.792511 221.166992 C 349.03833 221.971191 347.759155 221.962891 347.013336 221.154541 L 331.638336 204.425537 C 330.517487 203.20459 331.388336 201.238037 333.046661 201.246338"/>
    </g>
</svg>
