<?xml version="1.0" encoding="UTF-8"?>
<!-- Generated by Pixelmator Pro 3.5.7 -->
<svg class="svg-inline-icon" viewBox="0 0 875 875" xmlns="http://www.w3.org/2000/svg">
    <path id="Path-copy-2" fill="#002f54" stroke="none" d="M 765.625 443.75 C 770.229187 443.75 773.958313 440.016602 773.958313 435.416504 C 773.958313 430.816895 770.229187 427.083496 765.625 427.083496 C 761.020813 427.083496 757.291687 430.816895 757.291687 435.416504 C 757.291687 440.016602 761.020813 443.75 765.625 443.75"/>
    <path id="Path-copy" fill="#368900" stroke="none" d="M 437.5 875 C 679.125 875 875 679.125 875 437.5 C 875 195.875 679.125 0 437.5 0 C 195.875 0 0 195.875 0 437.5 C 0 679.125 195.875 875 437.5 875"/>
    <clipPath id="clipPath-a4LCn-1">
        <path d="M 0 437.5 C 0 679.125 195.875 875 437.5 875 L 437.5 875 C 679.125 875 875 679.125 875 437.5 L 875 437.5 C 875 195.875 679.125 0 437.5 0 L 437.5 0 C 195.875 0 0 195.875 0 437.5"/>
    </clipPath>
    <g id="Group-copy-3" clip-path="url(#clipPath-a4LCn-1)">
        <path id="Path" fill="#ccf4ff" stroke="none" d="M 198.864594 764.859375 L 198.193756 195.092285 L 638.46875 194.575684 L 639.139587 764.342285 Z"/>
        <path id="path1" fill="none" stroke="#3399ff" stroke-width="4.375" stroke-linecap="round" d="M 256.971252 350.61084 L 585.600403 350.473145"/>
        <path id="path2" fill="none" stroke="#3399ff" stroke-width="4.375" stroke-linecap="round" d="M 256.971252 437.963379 L 585.600403 437.825684"/>
        <path id="path3" fill="none" stroke="#3399ff" stroke-width="4.375" stroke-linecap="round" d="M 256.971252 525.316406 L 585.600403 525.178711"/>
        <path id="path4" fill="none" stroke="#3399ff" stroke-width="4.375" stroke-linecap="round" d="M 256.971252 612.668945 L 585.600403 612.53125"/>
        <path id="path5" fill="none" stroke="#3399ff" stroke-width="4.375" stroke-linecap="round" d="M 256.971252 700.021484 L 585.600403 699.884277"/>
        <path id="path6" fill="none" stroke="#3399ff" stroke-width="4.375" stroke-linecap="round" d="M 256.971252 306.659668 L 585.600403 306.521973"/>
        <path id="path7" fill="none" stroke="#3399ff" stroke-width="4.375" stroke-linecap="round" d="M 256.971252 394.012695 L 585.600403 393.879395"/>
        <path id="path8" fill="none" stroke="#3399ff" stroke-width="4.375" stroke-linecap="round" d="M 256.971252 481.365234 L 585.600403 481.231445"/>
        <path id="path9" fill="none" stroke="#3399ff" stroke-width="4.375" stroke-linecap="round" d="M 256.971252 568.717285 L 585.600403 568.583984"/>
        <path id="path10" fill="none" stroke="#3399ff" stroke-width="4.375" stroke-linecap="round" d="M 256.971252 656.070313 L 585.600403 655.937012"/>
        <path id="path11" fill="none" stroke="#3399ff" stroke-width="4.375" stroke-linecap="round" d="M 256.971252 329.170898 L 585.600403 329.033203"/>
        <path id="path12" fill="none" stroke="#3399ff" stroke-width="4.375" stroke-linecap="round" d="M 256.971252 416.523926 L 585.600403 416.38623"/>
        <path id="path13" fill="none" stroke="#3399ff" stroke-width="4.375" stroke-linecap="round" d="M 256.971252 503.876465 L 585.600403 503.73877"/>
        <path id="path14" fill="none" stroke="#3399ff" stroke-width="4.375" stroke-linecap="round" d="M 256.971252 591.228516 L 585.600403 591.091309"/>
        <path id="path15" fill="none" stroke="#3399ff" stroke-width="4.375" stroke-linecap="round" d="M 256.971252 678.581543 L 585.600403 678.444336"/>
        <path id="path16" fill="#fffde1" stroke="none" d="M 245.370819 723.939941 L 244.691681 145.102539 L 691.974976 144.577637 L 692.658325 723.415039 Z"/>
        <path id="path17" fill="none" stroke="#dbd8a7" stroke-width="4.375" stroke-linecap="round" d="M 488.530823 438.011719 L 654.272522 437.944824"/>
        <path id="path18" fill="none" stroke="#dbd8a7" stroke-width="4.375" stroke-linecap="round" d="M 488.535828 459.541016 L 654.277527 459.474121"/>
        <path id="path19" fill="none" stroke="#dbd8a7" stroke-width="4.375" stroke-linecap="round" d="M 504.037476 394.958984 L 654.266663 394.884277"/>
        <path id="path20" fill="none" stroke="#dbd8a7" stroke-width="4.375" stroke-linecap="round" d="M 488.540405 483.695801 L 623.25293 483.616699"/>
        <path id="path21" fill="none" stroke="#dbd8a7" stroke-width="4.375" stroke-linecap="round" d="M 488.526672 416.481445 L 654.268311 416.415039"/>
        <path id="path22" fill="none" stroke="#dbd8a7" stroke-width="4.375" stroke-linecap="round" d="M 504.06543 549.226074 L 654.294556 549.150879"/>
        <path id="path23" fill="none" stroke="#dbd8a7" stroke-width="4.375" stroke-linecap="round" d="M 488.568359 637.963379 L 654.309998 637.896484"/>
        <path id="path24" fill="none" stroke="#dbd8a7" stroke-width="4.375" stroke-linecap="round" d="M 488.554565 570.748535 L 654.296265 570.682129"/>
        <path id="path25" fill="none" stroke="#dbd8a7" stroke-width="4.375" stroke-linecap="round" d="M 488.573303 659.492676 L 601.11499 659.401367"/>
        <path id="path26" fill="none" stroke="#dbd8a7" stroke-width="4.375" stroke-linecap="round" d="M 488.559143 594.904297 L 654.300842 594.837402"/>
        <path id="path27" fill="none" stroke="#dbd8a7" stroke-width="4.375" stroke-linecap="round" d="M 488.564148 616.433594 L 654.305847 616.367188"/>
        <path id="path28" fill="none" stroke="#dbd8a7" stroke-width="4.375" stroke-linecap="round" d="M 488.568359 309.720703 L 654.309998 309.654297"/>
        <path id="path29" fill="none" stroke="#dbd8a7" stroke-width="4.375" stroke-linecap="round" d="M 508.735413 242.506348 L 654.297913 242.439453"/>
        <path id="path30" fill="none" stroke="#dbd8a7" stroke-width="4.375" stroke-linecap="round" d="M 488.573303 331.25 L 601.11499 331.158203"/>
        <path id="path31" fill="none" stroke="#dbd8a7" stroke-width="4.375" stroke-linecap="round" d="M 488.559143 266.661621 L 654.300842 266.595215"/>
        <path id="path32" fill="none" stroke="#dbd8a7" stroke-width="4.375" stroke-linecap="round" d="M 488.564148 288.190918 L 654.305847 288.124023"/>
        <path id="path33" fill="#286fb7" stroke="none" d="M 378.122925 243.609375 C 371.46875 240.338867 363.943726 238.480469 355.877075 238.480469 C 343.877075 238.480469 332.752075 242.521973 324.135406 249.49707 C 313.885406 257.680176 306.90625 269.567871 305.268738 282.980469 C 304.943756 285.163574 304.831238 287.342773 304.831238 289.526367 C 304.831238 299.667969 307.668762 309.155273 312.793762 317.009766 C 318.685425 326.05957 327.40625 333.259766 337.664612 337.18457 C 343.331238 339.36377 349.439575 340.563965 355.877075 340.563965 C 360.127075 340.563965 364.272888 340.130371 368.202087 339.038574 C 368.202087 339.038574 359.393738 318.367676 378.139587 303.521973 Z"/>
        <path id="path34" fill="#4cb648" stroke="none" d="M 372.45166 308.937988 L 366.01416 308.937988 C 364.380859 308.937988 362.964172 308.608887 361.655823 307.958984 C 358.164185 306.321289 355.876648 302.937988 355.876648 298.904785 C 355.876648 294.867188 358.164185 291.379395 361.655823 289.854492 C 362.964172 289.087891 364.380859 288.871094 366.01416 288.871094 L 377.468323 288.871094 L 378.122498 288.871094 L 378.13916 303.51709 C 378.13916 303.51709 374.726685 305.413086 372.45166 308.937988"/>
        <path id="path35" fill="#4cb648" stroke="none" d="M 343.096252 273.031738 C 343.096252 278.431641 338.700439 282.927734 333.200409 283.027344 L 333.000427 283.027344 L 305.312927 283.027344 C 306.908752 269.531738 313.908752 257.640137 324.104584 249.543945 C 323.70459 250.540039 323.504578 251.640137 323.504578 252.839844 C 323.504578 258.335938 327.800415 262.73584 333.200409 262.936035 C 338.700439 263.035645 343.096252 267.531738 343.096252 273.031738"/>
        <path id="path36" fill="#4cb648" stroke="none" d="M 351.49292 327.109375 C 351.49292 332.609375 346.99707 337.200684 341.397095 337.200684 L 337.697083 337.200684 C 327.405426 333.309082 318.705414 326.109375 312.80957 317.013184 L 341.397095 317.013184 C 346.99707 317.013184 351.49292 321.513184 351.49292 327.109375"/>
        <path id="path37" fill="none" stroke="#002f54" stroke-width="4.375" d="M 377.494995 286.47998 L 377.494995 306.075684 C 375.603333 307.367676 373.974182 308.996582 372.594971 310.717285 C 368.986694 315.013184 366.83667 320.517578 366.83667 326.53418 C 366.83667 329.196777 367.265808 331.863281 368.040833 334.267578 C 371.303345 344.325684 380.761658 351.546875 391.849182 351.546875 C 405.599182 351.546875 416.861694 340.371582 416.861694 326.53418 C 416.861694 318.113281 412.565857 310.634277 406.203308 306.075684 L 406.203308 246.113281 C 406.203308 238.200684 399.753357 231.759277 391.849182 231.759277 C 383.940857 231.759277 377.494995 238.200684 377.494995 246.113281 L 377.494995 246.642578 L 377.494995 247.330078 L 377.494995 283.04248 L 377.494995 286.47998 Z"/>
        <path id="path38" fill="none" stroke="#cc5454" stroke-width="13.125" stroke-linecap="round" stroke-linejoin="round" d="M 391.825012 261.285645 L 391.825012 326.831055"/>
        <path id="path39" fill="#cc5454" stroke="none" d="M 399.743347 326.82959 C 399.743347 331.20459 396.20166 334.750488 391.82666 334.750488 C 387.455811 334.750488 383.905823 331.20459 383.905823 326.82959 C 383.905823 322.45459 387.455811 318.908691 391.82666 318.908691 C 396.20166 318.908691 399.743347 322.45459 399.743347 326.82959"/>
    </g>
    <clipPath id="clipPath-a4LCn-2">
        <path d="M 290.708313 485.283203 L 430.983337 485.283203 L 430.983337 377.375 L 290.708313 377.375 Z"/>
    </clipPath>
    <g id="Group-copy-2" clip-path="url(#clipPath-a4LCn-2)">
        <path id="path40" fill="#3e953b" stroke="none" d="M 334.077911 422.25 C 333.640411 430.458496 334.986237 438.712402 336.50708 447.083496 C 336.748749 448.450195 336.990417 449.929199 337.19043 451.462402 C 337.38208 452.962402 337.51123 454.475098 337.594604 455.975098 C 337.75708 459 337.727905 461.995605 337.561279 464.945801 C 337.548767 465.174805 337.527893 465.399902 337.51123 465.629395 C 336.94458 465.875 336.340424 466.083496 335.707092 466.279297 C 334.973755 466.495605 334.207092 466.658203 333.361237 466.783203 C 332.69458 466.899902 331.977905 466.962402 331.211243 467 C 331.244598 466.100098 331.277924 465.220703 331.294586 464.341797 C 331.344574 461.333496 331.307098 458.333496 331.098755 455.370605 C 330.890411 452.408203 330.427917 449.541504 329.957092 446.466797 C 329.290405 442.100098 328.782074 437.654297 328.669586 433.145996 C 328.50708 426.920898 328.915405 420.558105 330.561249 414.399902 C 330.965424 412.870605 331.457092 411.354004 332.027924 409.858398 C 332.611237 408.295898 333.182098 407.075195 333.586243 405.720703 C 334.436249 403.054199 334.69458 400.200195 334.890411 397.191895 C 335.00708 395.575195 335.448761 394.325195 335.902924 394.354004 L 337.332092 394.4375 C 337.75708 394.454102 338.06958 395.545898 338.06958 397.041504 C 338.06958 399.195801 338.086243 401.391602 337.807068 403.637695 C 337.561279 405.870605 336.961243 408.195801 336.227905 410.233398 C 334.957092 414.108398 334.286255 418.162598 334.077911 422.25"/>
        <path id="path41" fill="#5bbc57" stroke="none" d="M 335.396667 448.059082 C 335.85083 450.988281 336.125824 454.083984 336.16333 457.080078 C 336.209167 460.192383 336.013336 463.267578 335.709167 466.279785 C 334.97168 466.492676 334.204987 466.65918 333.363342 466.78418 C 333.588348 463.333984 333.654999 459.879883 333.442505 456.430176 C 333.263336 452.992676 332.72583 449.609375 332.171661 446.205078 C 331.650848 442.800781 331.16333 439.396484 330.800842 435.946777 C 330.363342 431.500977 330.267487 426.904785 330.800842 422.413574 C 331.292511 418.375977 332.209167 414.400879 333.621674 410.60498 C 334.371674 408.717285 335.188324 406.925781 335.65918 404.988281 C 336.16333 403.055176 336.40918 401.063477 336.567505 399.063477 C 336.60083 402.496582 336.209167 405.996582 335.03833 409.317383 C 333.980011 412.54248 333.313324 415.879883 332.984161 419.254883 C 332.321655 425.97998 332.954987 432.72168 334.025848 439.425781 C 334.488342 442.330078 334.942505 445.192383 335.396667 448.059082"/>
        <path id="path42" fill="#3e953b" stroke="none" d="M 315.327515 451.733398 C 315.260834 452.545898 315.194153 453.362305 315.131653 454.174805 C 314.627502 453.804199 314.123322 453.445801 313.61499 453.066895 C 313.210846 452.791504 312.80249 452.516602 312.394165 452.237305 C 311.665009 451.762695 310.898346 451.325195 310.069153 450.9375 C 310.11499 448.395996 310.098328 445.854004 310.019165 443.333496 L 309.710846 431.558105 C 309.560822 424.195801 310.148346 416.708496 311.419159 409.641602 C 311.581665 408.712402 311.956665 408.091797 312.348328 408.129395 L 313.994171 408.225098 C 314.381653 408.254395 314.694153 408.954102 314.723328 409.916504 C 315.002502 416.433105 315.277496 422.929199 315.669159 429.424805 C 316.056671 436.754395 315.960846 444.308105 315.327515 451.733398"/>
        <path id="path43" fill="#5bbc57" stroke="none" d="M 313.8125 451.001465 C 313.745819 451.685059 313.683319 452.384766 313.616669 453.072266 C 313.208344 452.789063 312.799988 452.51416 312.395844 452.239258 C 312.462494 448.706055 312.429169 445.155762 312.299988 441.605957 L 311.858337 428.401855 C 311.679169 422.489258 312.070831 416.401855 312.966675 410.584961 C 313.291656 416.464355 313.666656 422.339355 314.087494 428.20166 C 314.608337 435.726563 314.545837 443.380859 313.8125 451.001465"/>
        <path id="path44" fill="#3e953b" stroke="none" d="M 369.557495 461.169434 C 369.007507 460.76123 368.432495 460.373535 367.83252 459.998535 C 367.015808 459.457031 366.169983 458.973633 365.224182 458.548828 C 364.494995 458.207031 363.695007 457.898926 362.83252 457.652832 C 362.636658 456.186035 362.407471 454.703125 362.21167 453.207031 C 362.02002 451.694824 361.84082 450.144531 361.724182 448.548828 C 361.594971 446.957031 361.594971 445.356934 361.594971 443.828125 C 361.594971 439.398926 361.953308 434.936035 362.65332 430.557129 C 363.14502 427.478027 363.728333 424.648926 364.136658 421.715332 C 364.557495 418.798828 364.865845 415.882324 364.999146 412.986328 C 365.244995 407.173828 364.686646 401.37793 362.945007 395.873535 C 362.474182 394.423828 362.378357 393.169434 362.799194 392.990234 L 364.119995 392.453125 C 364.507507 392.273926 365.257507 393.169434 365.844971 394.569824 C 369.169983 402.694824 369.849182 411.731934 369.311646 420.365234 C 369.103333 424.711426 368.469971 429.027832 368.186646 433.06543 C 367.882507 437.169434 367.815857 441.290527 367.978333 445.37793 C 368.107483 450.244629 369.244995 455.373535 369.557495 461.169434"/>
        <path id="path45" fill="#5bbc57" stroke="none" d="M 366.772888 437.640137 C 366.706238 440.490234 366.706238 443.339844 366.756226 446.156738 C 366.802063 448.856445 367.114563 451.660645 367.40625 454.527344 C 367.585388 456.29834 367.747925 458.123535 367.831238 459.994141 C 367.018738 459.456543 366.168762 458.973145 365.2229 458.54834 C 365.043762 457.064941 364.852112 455.585938 364.639587 454.119141 C 363.518738 447.377441 363.727112 440.473145 364.247925 433.686035 C 364.5896 429.23584 365.502075 424.856445 366.043762 420.494141 C 367.147888 412.710938 367.227112 404.681641 365.177063 396.994141 C 367.4729 403.410645 368.256226 410.398438 368.106262 417.285645 C 368.043762 420.740234 367.7854 424.17334 367.443726 427.594238 C 367.085388 430.964844 366.8396 434.285645 366.772888 437.640137"/>
        <path id="path46" fill="#3e953b" stroke="none" d="M 400.181641 447.103516 C 399.61084 447.282715 399.073303 447.511719 398.573303 447.753418 C 397.752502 448.115723 397.006653 448.536621 396.306641 448.990723 C 395.606689 449.416016 394.952515 449.886719 394.319153 450.345215 C 394.23999 449.807617 394.156677 449.253418 394.060852 448.711426 C 393.373352 444.690918 392.219177 440.765625 391.244141 436.549316 C 390.556641 433.541016 390.135803 430.39502 390.006653 427.319824 C 389.61084 418.736816 390.431641 410.319824 391.323303 402.032715 C 391.452515 400.936523 391.894165 400.107422 392.348328 400.140625 L 393.781677 400.257324 C 394.206665 400.286621 394.498352 401.053223 394.498352 402.078125 C 394.402527 413.819824 394.581665 425.523926 397.723328 436.273926 C 398.669189 439.611816 399.67749 443.328125 400.181641 447.103516"/>
        <path id="path47" fill="#5bbc57" stroke="none" d="M 398.570007 447.754395 C 397.757507 448.112793 397.007507 448.538086 396.307495 448.992188 C 396.044983 446.971191 395.669983 444.971191 395.182495 443.01709 C 394.02832 438.458984 392.740845 433.883789 392.136658 429.14209 C 391.71582 426.096191 391.570007 422.971191 391.665833 419.875488 C 391.844971 414.354492 392.382507 408.871094 392.999146 403.396484 C 393.049194 412.858887 393.328308 422.367188 395.315857 431.358887 C 396.111694 435.150391 397.199158 438.913086 397.936646 442.967285 C 398.21167 444.546387 398.419983 446.146484 398.570007 447.754395"/>
        <path id="path48" fill="#66ccff" stroke="none" d="M 463 438.944336 L 463 498.848145 L 248.9375 498.848145 L 248.9375 438.944336 C 261.449982 439.398438 261.783325 448.748535 274.9375 448.748535 C 277.12915 448.748535 278.954163 448.473145 280.537506 448.043945 C 281.329163 447.835938 282.05835 447.589844 282.729156 447.281738 C 283.612488 446.918945 284.43335 446.494141 285.191681 446.035645 C 285.804169 445.67334 286.383331 445.273438 286.929169 444.881836 C 290.06665 442.689941 292.833344 440.189941 297.733337 439.252441 C 298.041656 439.219238 298.341675 439.160645 298.649994 439.127441 C 299.287506 439.035645 299.958344 438.973145 300.6875 438.944336 L 300.779175 438.944336 C 301.112488 438.915039 301.508331 438.915039 301.904175 438.915039 L 302.787506 438.915039 C 303.458344 438.944336 304.095825 438.973145 304.704163 439.064941 C 305.041656 439.098145 305.345825 439.160645 305.649994 439.189941 C 307.537506 439.490234 309.116669 440.040039 310.516663 440.740234 C 311.37085 441.135742 312.133331 441.561035 312.862488 442.052734 C 313.291656 442.323242 313.6875 442.598145 314.112488 442.902344 C 314.600006 443.265137 315.116669 443.635742 315.633331 443.998535 C 318.920837 446.402344 322.270813 448.748535 328.875 448.748535 C 329.366669 448.748535 329.820831 448.719238 330.245819 448.686035 C 331.037506 448.656738 331.737488 448.594238 332.408325 448.473145 C 333.258331 448.352539 334.049988 448.198242 334.783325 447.98584 C 335.420837 447.773438 336.029175 447.561035 336.604156 447.314941 C 343.12085 444.606445 345.587524 438.915039 355.845825 438.915039 C 358.162476 438.915039 360.045837 439.189941 361.724976 439.67334 C 362.575012 439.918945 363.366638 440.223145 364.125 440.589844 C 365.070862 441.015137 365.924988 441.498535 366.74585 442.052734 C 367.354187 442.415039 367.93335 442.811035 368.479187 443.206543 C 371.283325 445.244141 373.866638 447.373535 378.158325 448.290039 C 378.766663 448.410645 379.408325 448.502441 380.075012 448.564941 C 380.62915 448.656738 381.204163 448.686035 381.783325 448.719238 C 382.12085 448.748535 382.483337 448.748535 382.820862 448.748535 C 383.275024 448.748535 383.729187 448.719238 384.1875 448.686035 C 390.520813 448.352539 393.6875 445.702637 397.125 443.23584 C 397.762512 442.781738 398.404175 442.290039 399.104187 441.865234 C 399.833313 441.410645 400.5625 440.981445 401.387512 440.619141 C 401.904175 440.373535 402.454163 440.160645 403.033325 439.981445 C 404.858337 439.306641 407.049988 438.915039 409.787476 438.915039 C 410.366638 438.915039 410.916687 438.915039 411.43335 438.973145 C 412.283325 439.006836 413.045837 439.098145 413.80835 439.252441 C 414.325012 439.339844 414.80835 439.431641 415.299988 439.552734 C 415.81665 439.706543 416.333313 439.856445 416.791687 440.040039 C 423.854187 442.598145 426.104187 448.686035 436.604187 448.748535 L 436.758362 448.748535 C 437.549988 448.748535 438.25 448.719238 438.950012 448.656738 C 439.924988 448.564941 440.80835 448.410645 441.658325 448.227539 C 442.270813 448.073242 442.87915 447.927734 443.458313 447.710938 C 450.608337 445.273438 452.833313 439.219238 463 438.944336"/>
        <path id="path49" fill="#3e953b" stroke="none" d="M 387.001648 460.695801 C 386.95166 461.866699 386.839172 463.070801 386.659973 464.262695 C 386.57666 464.866699 386.464172 465.450195 386.330811 466.054199 C 386.205811 466.670898 386.01001 467.404297 385.780823 468.054199 C 384.868347 470.679199 383.51416 472.666504 382.589172 474.274902 C 382.114197 475.108398 381.743347 475.741699 381.430847 476.570801 C 381.368347 476.716797 381.301697 476.883301 381.251648 477.029297 C 380.814148 477.0625 380.372498 477.075195 379.901672 477.075195 C 379.559998 477.075195 379.218323 477.075195 378.88916 477.045898 C 378.289185 477.029297 377.718323 476.995605 377.184998 476.912598 C 376.51416 476.850098 375.880859 476.754395 375.293335 476.620605 C 375.730835 475.024902 376.305847 473.412598 377.085022 471.899902 C 378.205811 469.670898 379.380859 467.779297 379.868347 465.887695 C 380.114197 465.008301 380.26001 463.904297 380.38916 462.862305 C 380.489197 461.804199 380.551697 460.725098 380.568359 459.670898 C 380.601685 457.520996 380.455811 455.337402 380.193359 453.170898 C 379.835022 450.0625 379.314148 446.870605 378.955811 443.579102 C 378.710022 441.299805 378.501648 438.975098 378.434998 436.595703 C 378.368347 434.200195 378.534973 431.854004 378.710022 429.575195 C 379.105835 424.987305 379.755859 420.495605 380.26001 416.033203 C 380.38916 414.841797 380.82666 413.962402 381.289185 413.979004 L 382.718323 414.091797 C 383.143311 414.125 383.45166 414.954102 383.418335 416.079102 C 383.305847 422.479004 382.897522 428.912598 383.368347 434.983398 C 383.909973 440.979004 385.797485 447.020996 386.676697 453.774902 C 386.972473 456.004395 387.097473 458.333496 387.001648 460.695801"/>
        <path id="path50" fill="#5bbc57" stroke="none" d="M 385.471252 461.412109 C 385.358765 462.566406 385.179565 463.724609 384.917053 464.882813 C 384.687927 465.970215 384.300415 467.324707 383.779602 468.412109 C 382.737915 470.678711 381.350403 472.403809 380.325439 474.095215 C 379.77124 475.007813 379.296265 476.003906 378.89209 477.04541 C 378.292053 477.024414 377.717102 476.995605 377.179565 476.912109 C 377.196228 476.816406 377.233765 476.73291 377.262939 476.637207 C 378.029602 473.853516 379.70459 471.474609 380.992065 468.937012 C 382.342102 466.395508 382.700439 463.461914 382.83374 460.645508 C 383.012939 455.520508 382.133728 450.470215 381.20459 445.437012 C 380.621277 442.178711 380.129578 438.79541 380.14624 435.407715 C 380.242065 429.349609 381.187927 423.453613 381.904602 417.512207 C 381.837891 422.657715 381.64209 427.803711 381.904602 432.866211 C 382.133728 437.882813 383.387939 442.737305 384.45874 447.833008 C 385.404602 452.145508 385.942078 456.770508 385.471252 461.412109"/>
        <path id="path51" fill="#3e953b" stroke="none" d="M 415.205017 454.947266 C 415.175842 457.70166 414.996643 460.468262 414.60083 463.239258 C 414.371643 465.009766 414.013306 466.768555 413.625854 468.447266 C 413.171692 468.268555 412.679993 468.101563 412.15918 467.959961 C 411.688354 467.843262 411.184143 467.730957 410.66333 467.647461 C 409.929993 467.505859 409.16333 467.401855 408.317505 467.372559 L 408.41333 466.918457 C 408.905029 464.259766 409.16333 461.605957 409.246643 458.918457 C 409.375854 453.547363 408.955017 448.155762 408.255005 442.797363 C 406.967529 432.772461 405.35083 422.297363 405.59668 412.105957 C 405.630005 410.785156 405.938354 409.859863 406.334167 409.843262 L 407.959167 409.776855 C 408.367493 409.76416 408.755005 410.688965 408.91748 412.022461 C 410.109192 420.980957 412.192505 429.793457 413.771667 438.926758 C 414.66748 444.051758 415.255005 449.443359 415.205017 454.947266"/>
        <path id="path52" fill="#5bbc57" stroke="none" d="M 413.7229 453.563477 C 413.739563 456.313477 413.610413 459.09668 413.268738 461.851074 C 413.022888 463.900879 412.614563 465.97168 412.1604 467.955078 C 411.689575 467.842285 411.181274 467.72998 410.6604 467.646484 C 410.727112 467.35498 410.772888 467.046875 410.822937 466.754883 C 411.414612 463.379883 411.639587 459.946777 411.606262 456.54248 C 411.539612 450.321777 410.793762 444.184082 409.814575 438.109375 C 408.53125 429.967285 407.289612 421.467285 407.272888 413.196777 C 408.510437 421.35498 410.431274 429.317383 411.981262 437.458984 C 412.993774 442.66748 413.672913 448.059082 413.7229 453.563477"/>
        <path id="path53" fill="#3e953b" stroke="none" d="M 355.398743 461.9375 C 355.369568 464.6875 355.19043 467.458496 354.794556 470.229004 C 354.56543 472 354.207092 473.758301 353.81958 475.4375 C 353.365417 475.258301 352.873779 475.091797 352.352905 474.950195 C 351.88208 474.833496 351.37793 474.720703 350.857056 474.637695 C 350.123779 474.495605 349.357056 474.391602 348.51123 474.362305 L 348.607056 473.908203 C 349.098755 471.25 349.357056 468.595703 349.44043 465.908203 C 349.56958 460.537598 349.148743 455.145996 348.44873 449.787598 C 347.161255 439.758301 345.544556 429.287598 345.790405 419.095703 C 345.82373 417.774902 346.13208 416.850098 346.527893 416.833496 L 348.152893 416.766602 C 348.561279 416.754395 348.94873 417.679199 349.111267 419.012695 C 350.302917 427.970703 352.38623 436.783203 353.965393 445.916504 C 354.861267 451.041504 355.44873 456.433105 355.398743 461.9375"/>
        <path id="path54" fill="#5bbc57" stroke="none" d="M 353.916687 460.553223 C 353.93335 463.307617 353.804138 466.086426 353.462524 468.84082 C 353.216675 470.890625 352.80835 472.961426 352.354187 474.949219 C 351.883362 474.83252 351.375 474.720215 350.854187 474.640625 C 350.920837 474.345215 350.966675 474.036621 351.016663 473.745117 C 351.608337 470.370117 351.833313 466.936523 351.799988 463.532715 C 351.733337 457.311523 350.987488 451.174316 350.008362 445.099121 C 348.724976 436.95752 347.487488 428.45752 347.466675 420.186523 C 348.704163 428.345215 350.625 436.307617 352.174988 444.449219 C 353.1875 449.657715 353.866638 455.049316 353.916687 460.553223"/>
        <path id="path55" fill="#3e953b" stroke="none" d="M 308.170013 470.746094 C 308.140839 473.500488 307.96167 476.26709 307.565826 479.038086 C 307.34082 480.808594 306.978333 482.566895 306.59082 484.246094 C 306.136658 484.066895 305.644989 483.900391 305.124176 483.758789 C 304.65332 483.64209 304.14917 483.529785 303.628326 483.446289 C 302.894989 483.304688 302.128326 483.200195 301.282501 483.171387 L 301.378326 482.717285 C 301.869995 480.058594 302.128326 477.404785 302.21167 474.717285 C 302.34082 469.346191 301.920013 463.95459 301.220001 458.596191 C 299.932495 448.571289 298.315826 438.096191 298.561676 427.904785 C 298.595001 426.583984 298.90332 425.658691 299.299164 425.64209 L 300.924164 425.575195 C 301.332489 425.562988 301.720001 426.487793 301.882507 427.821289 C 303.074158 436.779785 305.157501 445.592285 306.736664 454.725586 C 307.632507 459.850586 308.220001 465.242188 308.170013 470.746094"/>
        <path id="path56" fill="#5bbc57" stroke="none" d="M 306.688324 469.362793 C 306.704987 472.112793 306.575836 474.896484 306.234161 477.650391 C 305.988342 479.700195 305.579987 481.771484 305.125824 483.754395 C 304.654999 483.64209 304.146667 483.529785 303.625824 483.446289 C 303.692505 483.154785 303.738342 482.846191 303.78833 482.554688 C 304.380005 479.179688 304.605011 475.746094 304.571655 472.342285 C 304.505005 466.121094 303.755005 459.983887 302.779999 453.908691 C 301.496674 445.76709 300.255005 437.26709 300.238342 428.996094 C 301.47583 437.154785 303.396667 445.117188 304.946655 453.258789 C 305.959167 458.467285 306.638336 463.858887 306.688324 469.362793"/>
        <path id="path57" fill="#0099cc" stroke="none" d="M 248.723328 457.199219 C 262.106659 457.199219 262.106659 466.970215 275.510834 466.970215 C 277.67749 466.970215 279.48584 466.711426 281.065002 466.286621 C 281.844177 466.069824 282.577515 465.815918 283.248322 465.52002 C 284.127502 465.161621 284.940002 464.736816 285.685822 464.282715 C 286.290009 463.924316 286.877502 463.536621 287.42749 463.14502 C 290.540009 460.944824 293.273346 458.486816 298.144165 457.557617 C 298.435822 457.511719 298.748322 457.461426 299.056671 457.407715 C 299.690002 457.328125 300.356659 457.265625 301.073334 457.228516 L 301.156677 457.228516 C 301.515015 457.21582 301.906677 457.199219 302.281677 457.199219 C 302.556671 457.199219 302.815002 457.199219 303.077515 457.21582 L 303.156677 457.21582 C 303.827515 457.228516 304.477509 457.282715 305.065002 457.361816 C 305.390015 457.39502 305.698334 457.444824 305.994171 457.490723 C 307.881653 457.786621 309.460846 458.34082 310.844177 459.023926 C 311.67334 459.411621 312.440002 459.853516 313.17334 460.328125 C 313.581665 460.603516 313.98999 460.878418 314.398346 461.15332 C 314.898346 461.532715 315.402496 461.890625 315.910828 462.265625 C 319.181671 464.640625 322.519165 466.970215 329.065002 466.970215 C 329.540009 466.970215 329.994171 466.949219 330.435822 466.919922 C 331.202515 466.890625 331.915009 466.824219 332.581665 466.711426 C 333.431671 466.578125 334.198334 466.416016 334.92749 466.203125 C 335.560822 466.011719 336.165009 465.794922 336.73584 465.553223 C 338.219177 464.932617 339.48584 464.169922 340.694153 463.319824 C 342.631653 462.003418 344.373352 460.553223 346.539978 459.382324 C 348.48999 458.34082 350.756653 457.541016 353.785828 457.282715 C 354.027527 457.265625 354.273315 457.249023 354.531677 457.228516 C 354.956665 457.21582 355.381653 457.199219 355.835815 457.199219 L 356.04834 457.199219 C 358.248352 457.21582 360.073364 457.511719 361.664978 457.96582 C 362.531677 458.211426 363.327515 458.515625 364.060852 458.861816 C 364.469177 459.041016 364.873352 459.253418 365.248352 459.461426 C 365.73584 459.724121 366.210815 459.999023 366.664978 460.311523 C 367.269165 460.682617 367.835815 461.074219 368.394165 461.482422 C 371.17334 463.486816 373.748352 465.603516 378.015015 466.511719 C 378.598328 466.64502 379.23584 466.740723 379.902527 466.807617 C 380.440002 466.890625 381.010864 466.919922 381.61499 466.936523 C 381.935852 466.970215 382.277527 466.970215 382.623352 466.970215 C 383.098328 466.970215 383.535828 466.949219 383.977478 466.919922 C 390.277527 466.595215 393.419189 463.95752 396.823303 461.499023 C 397.456665 461.041016 398.106689 460.569824 398.806641 460.148926 C 399.506653 459.690918 400.260803 459.27002 401.073303 458.911621 C 401.577515 458.666016 402.11499 458.436523 402.685852 458.257324 C 404.527527 457.607422 406.690002 457.199219 409.406677 457.199219 C 409.981689 457.199219 410.515015 457.21582 411.035828 457.265625 C 411.885864 457.294922 412.648315 457.39502 413.381653 457.541016 C 413.902527 457.624023 414.410828 457.736816 414.881653 457.849121 C 415.402466 457.995117 415.890015 458.161621 416.348328 458.34082 C 423.36499 460.878418 425.594177 466.90332 436.04834 466.970215 L 436.198303 466.970215 C 436.960815 466.970215 437.681641 466.936523 438.36084 466.874023 C 439.335815 466.791016 440.219177 466.64502 441.04834 466.449219 C 441.664978 466.315918 442.269165 466.15332 442.823303 465.95752 C 450.119141 463.449219 452.252502 457.199219 462.981689 457.199219 L 462.981689 490.686523 L 248.935822 490.686523 C 248.935822 490.686523 250.394165 457.199219 248.723328 457.199219"/>
    </g>
    <clipPath id="clipPath-a4LCn-3">
        <path d="M 0 437.5 C 0 679.125 195.875 875 437.5 875 L 437.5 875 C 679.125 875 875 679.125 875 437.5 L 875 437.5 C 875 195.875 679.125 0 437.5 0 L 437.5 0 C 195.875 0 0 195.875 0 437.5"/>
    </clipPath>
    <g id="Group-copy" clip-path="url(#clipPath-a4LCn-3)">
        <path id="path58" fill="none" stroke="#8c5819" stroke-width="4.375" stroke-linecap="round" stroke-linejoin="round" d="M 365.510803 588.456055 L 365.898315 636.581055"/>
        <path id="path59" fill="none" stroke="#8c5819" stroke-width="4.375" stroke-linecap="round" stroke-linejoin="round" d="M 350.25415 657.518555 L 349.966675 621.897461 C 349.904175 614.655762 355.729187 608.739258 362.962524 608.680664 L 364.375 608.672363"/>
        <path id="path60" fill="none" stroke="#8c5819" stroke-width="4.375" stroke-linecap="round" stroke-linejoin="round" d="M 333.007507 652.473633 L 332.869995 636.052734 C 332.815826 628.819824 338.632507 622.898926 345.874146 622.840332 L 349.432495 622.811035"/>
        <path id="path61" fill="none" stroke="#8c5819" stroke-width="4.375" stroke-linecap="round" stroke-linejoin="round" d="M 388.872925 644.075195 L 388.756226 629.299805 C 388.693726 622.0625 382.7771 616.245605 375.539612 616.304199 L 366.922913 616.370605"/>
        <path id="path62" fill="#368900" stroke="none" d="M 396.111267 566.95752 L 396.077942 562.59082 C 396.015442 555.182617 389.965393 549.228516 382.557068 549.286621 L 381.173767 549.299316 C 380.76123 549.303223 380.365417 549.390625 379.957092 549.432617 C 378.76123 542.807617 372.973755 537.799316 366.00708 537.853516 C 360.407104 537.898926 355.63208 541.232422 353.398743 545.982422 C 352.307068 545.724121 351.19043 545.549316 350.015442 545.561523 C 342.227905 545.620117 335.969574 551.986816 336.032074 559.773926 L 336.061249 563.378418 C 329.427917 565.499023 324.615417 571.669922 324.677917 579.003418 C 324.748749 588.023926 332.123749 595.282715 341.148743 595.20752 L 393.12793 594.782715 C 400.919556 594.720215 407.177917 588.353516 407.115417 580.569824 C 407.061279 573.890625 402.357056 568.361816 396.111267 566.95752"/>
    </g>
</svg>
