<?xml version="1.0" encoding="UTF-8"?>
<!-- Generated by Pixelmator Pro 3.5.7 -->
<svg class="svg-inline-icon" viewBox="0 0 878 875" xmlns="http://www.w3.org/2000/svg">
    <path id="Path-copy" fill="#368900" stroke="none" d="M 437.708313 875 C 679.333313 875 875.208374 679.125 875.208374 437.5 C 875.208374 195.875 679.333313 0 437.708313 0 C 196.083313 0 0.208328 195.875 0.208328 437.5 C 0.208328 679.125 196.083313 875 437.708313 875"/>
    <clipPath id="clipPath-GwRmf-1">
        <path d="M 303.920822 20.833496 C 169.899994 63.833008 64.037506 169.704102 21.041672 303.725098 L 21.041672 303.725098 L 21.041672 571.279297 C 64.037506 705.299805 169.908325 811.170898 303.929184 854.166504 L 303.929184 854.166504 L 571.483322 854.166504 C 705.504135 811.170898 811.374985 705.308594 854.374985 571.291504 L 854.374985 571.291504 L 854.374985 303.712402 C 811.374985 169.691406 705.516647 63.833008 571.495773 20.833496 L 571.495773 20.833496 Z"/>
    </clipPath>
    <g id="Group-copy-2" clip-path="url(#clipPath-GwRmf-1)">
        <path id="Path" fill="#8c5819" stroke="none" d="M 682.271667 179.477051 C 682.271667 168.71875 673.696655 160.001953 663.121643 160.001953 L 225.338318 160.001953 C 214.792511 160.001953 206.16333 168.776855 206.16333 179.501953 L 206.16333 754.493652 C 206.16333 765.251953 214.738342 773.96875 225.313354 773.96875 L 663.09668 773.96875 C 673.642517 773.96875 682.271667 765.193848 682.271667 754.46875 Z"/>
        <path id="path1" fill="#fff9f0" stroke="none" d="M 666.82251 175.827148 C 666.82251 175.602051 666.63501 175.418945 666.401672 175.418945 L 222.035004 175.418945 C 221.801666 175.418945 221.614166 175.602051 221.614166 175.827148 L 221.614166 756.15625 C 221.614166 756.385254 221.801666 756.564453 222.035004 756.564453 L 666.401672 756.564453 C 666.63501 756.564453 666.82251 756.385254 666.82251 756.15625 Z"/>
    </g>
    <clipPath id="clipPath-GwRmf-2">
        <path d="M 303.920822 20.833496 C 169.899994 63.833008 64.037506 169.704102 21.041672 303.725098 L 21.041672 303.725098 L 21.041672 571.279297 C 64.037506 705.299805 169.908325 811.170898 303.929184 854.166504 L 303.929184 854.166504 L 571.483322 854.166504 C 705.504135 811.170898 811.374985 705.308594 854.374985 571.291504 L 854.374985 571.291504 L 854.374985 303.712402 C 811.374985 169.691406 705.516647 63.833008 571.495773 20.833496 L 571.495773 20.833496 Z"/>
    </clipPath>
    <g id="Group-copy" clip-path="url(#clipPath-GwRmf-2)">
        <path id="path2" fill="none" stroke="#286fb7" stroke-width="4.166667" stroke-linecap="round" stroke-linejoin="round" d="M 311.187073 691.254883 L 624.253784 691.254883"/>
        <path id="path3" fill="none" stroke="#286fb7" stroke-width="4.166667" stroke-linecap="round" stroke-linejoin="round" d="M 311.187073 710.979004 L 373.220398 710.979004"/>
        <path id="path4" fill="none" stroke="#286fb7" stroke-width="4.166667" stroke-linecap="round" stroke-linejoin="round" d="M 311.187073 636.339844 L 624.253784 636.339844"/>
        <path id="path5" fill="none" stroke="#286fb7" stroke-width="4.166667" stroke-linecap="round" stroke-linejoin="round" d="M 311.187073 655.16748 L 589.287109 655.16748"/>
        <path id="path6" fill="none" stroke="#286fb7" stroke-width="4.166667" stroke-linecap="round" stroke-linejoin="round" d="M 311.187073 589.262207 L 580.324585 589.262207"/>
        <path id="path7" fill="none" stroke="#286fb7" stroke-width="4.166667" stroke-linecap="round" stroke-linejoin="round" d="M 311.187073 529.595215 L 624.253784 529.595215"/>
        <path id="path8" fill="none" stroke="#286fb7" stroke-width="4.166667" stroke-linecap="round" stroke-linejoin="round" d="M 311.187073 547.525879 L 479.012085 547.525879"/>
        <path id="path9" fill="#cc5454" stroke="none" d="M 286.97583 593.28125 C 286.97583 602.852051 279.217499 610.614746 269.642487 610.614746 C 260.071655 610.614746 252.309174 602.852051 252.309174 593.28125 C 252.309174 583.710449 260.071655 575.947754 269.642487 575.947754 C 279.217499 575.947754 286.97583 583.710449 286.97583 593.28125"/>
        <path id="path10" fill="#002f54" stroke="none" d="M 286.97583 540.808594 C 286.97583 550.379395 279.217499 558.14209 269.642487 558.14209 C 260.071655 558.14209 252.309174 550.379395 252.309174 540.808594 C 252.309174 531.237793 260.071655 523.475586 269.642487 523.475586 C 279.217499 523.475586 286.97583 531.237793 286.97583 540.808594"/>
        <path id="path11" fill="#fff8f0" stroke="none" d="M 279.37793 534.845215 L 277.494598 532.961914 C 276.911255 532.382813 275.969574 532.382813 275.390411 532.961914 L 267.486237 540.870605 C 267.157074 541.199707 266.619598 541.199707 266.290405 540.870605 L 263.894592 538.474609 C 263.31543 537.895508 262.373749 537.895508 261.794586 538.474609 L 259.907074 540.362305 C 259.327911 540.941406 259.327911 541.882813 259.907074 542.461914 L 266.302917 548.841309 C 266.63208 549.174805 267.169586 549.174805 267.498749 548.841309 L 279.37793 536.949707 C 279.961243 536.366211 279.957092 535.424805 279.37793 534.845215"/>
        <path id="path12" fill="#002f54" stroke="none" d="M 286.97583 645.754395 C 286.97583 655.325195 279.217499 663.087402 269.642487 663.087402 C 260.071655 663.087402 252.309174 655.325195 252.309174 645.754395 C 252.309174 636.183105 260.071655 628.420898 269.642487 628.420898 C 279.217499 628.420898 286.97583 636.183105 286.97583 645.754395"/>
        <path id="path13" fill="#fff8f0" stroke="none" d="M 279.37793 639.790039 L 277.494598 637.906738 C 276.911255 637.327637 275.969574 637.327637 275.390411 637.906738 L 267.486237 645.814941 C 267.157074 646.144043 266.619598 646.144043 266.290405 645.814941 L 263.894592 643.418945 C 263.31543 642.839844 262.373749 642.839844 261.794586 643.418945 L 259.907074 645.306641 C 259.327911 645.885742 259.327911 646.827637 259.907074 647.406738 L 266.302917 653.785645 C 266.63208 654.119141 267.169586 654.119141 267.498749 653.785645 L 279.37793 641.894043 C 279.961243 641.311035 279.957092 640.369141 279.37793 639.790039"/>
        <path id="path14" fill="#002f54" stroke="none" d="M 286.97583 698.226074 C 286.97583 707.796875 279.217499 715.55957 269.642487 715.55957 C 260.071655 715.55957 252.309174 707.796875 252.309174 698.226074 C 252.309174 688.655273 260.071655 680.893066 269.642487 680.893066 C 279.217499 680.893066 286.97583 688.655273 286.97583 698.226074"/>
        <path id="path15" fill="#fff8f0" stroke="none" d="M 279.37793 692.262207 L 277.494598 690.378906 C 276.911255 689.799805 275.969574 689.799805 275.390411 690.378906 L 267.486237 698.287109 C 267.157074 698.616211 266.619598 698.616211 266.290405 698.287109 L 263.894592 695.891113 C 263.31543 695.312012 262.373749 695.312012 261.794586 695.891113 L 259.907074 697.778809 C 259.327911 698.35791 259.327911 699.299805 259.907074 699.878906 L 266.302917 706.257813 C 266.63208 706.591309 267.169586 706.591309 267.498749 706.257813 L 279.37793 694.366211 C 279.961243 693.782715 279.957092 692.841309 279.37793 692.262207"/>
        <path id="path16" fill="#8c5819" stroke="none" d="M 551.411255 213.320801 L 337.023743 213.320801 C 334.13623 213.320801 331.794586 210.979004 331.794586 208.091797 L 331.794586 149.254395 C 331.794586 148.170898 332.673767 147.295898 333.75293 147.295898 L 554.682068 147.295898 C 555.765442 147.295898 556.640442 148.170898 556.640442 149.254395 L 556.640442 208.091797 C 556.640442 210.979004 554.298767 213.320801 551.411255 213.320801"/>
        <path id="path17" fill="#dcd7ce" stroke="none" d="M 540.655823 188.912598 C 540.655823 193.666504 536.801697 197.516602 532.051697 197.516602 C 527.297485 197.516602 523.44751 193.666504 523.44751 188.912598 C 523.44751 184.158203 527.297485 180.308105 532.051697 180.308105 C 536.801697 180.308105 540.655823 184.158203 540.655823 188.912598"/>
        <path id="path18" fill="#dcd7ce" stroke="none" d="M 364.98999 188.912598 C 364.98999 193.666504 361.135803 197.516602 356.385803 197.516602 C 351.631653 197.516602 347.781677 193.666504 347.781677 188.912598 C 347.781677 184.158203 351.631653 180.308105 356.385803 180.308105 C 361.135803 180.308105 364.98999 184.158203 364.98999 188.912598"/>
        <path id="path19" fill="#0099cc" stroke="none" d="M 444.071655 123.322266 C 439.296692 123.322266 435.342529 111.459961 435.342529 106.551758 C 435.342529 101.63916 439.296692 97.822266 444.071655 97.822266 C 448.97998 97.822266 452.934143 101.63916 452.934143 106.551758 C 452.934143 111.459961 448.97998 123.322266 444.071655 123.322266 M 519.888306 135.597656 L 491.117493 135.597656 C 477.47998 135.597656 466.296692 128.093262 466.296692 118.822266 L 466.296692 102.051758 C 466.296692 93.730957 456.205017 86.914063 443.796692 86.914063 C 431.250854 86.914063 421.15918 93.730957 421.15918 102.051758 L 421.15918 118.822266 C 421.15918 128.093262 409.97998 135.597656 396.342529 135.597656 L 368.388306 135.597656 C 361.709167 135.597656 356.250854 141.051758 356.250854 147.730957 L 356.250854 170.776855 L 532.025818 170.776855 L 532.025818 147.730957 C 532.025818 141.051758 526.567505 135.597656 519.888306 135.597656"/>
        <path id="path20" fill="#286fb7" stroke="none" d="M 467.961243 272.021484 C 456.94043 266.601074 444.473755 263.529785 431.102905 263.529785 C 411.227905 263.529785 392.798767 270.213379 378.523743 281.779785 C 361.540405 295.330078 349.977905 315.021484 347.269592 337.246582 C 346.727905 340.859375 346.544556 344.47168 346.544556 348.088379 C 346.544556 364.888184 351.244568 380.609375 359.736267 393.617676 C 369.490417 408.613281 383.94458 420.538574 400.927917 427.04248 C 410.32373 430.654785 420.44458 432.642578 431.102905 432.642578 C 438.148743 432.642578 445.015442 431.921875 451.519592 430.113281 C 451.519592 430.113281 436.932068 395.871582 467.990417 371.271484 Z"/>
        <path id="path21" fill="#4cb648" stroke="none" d="M 458.566223 380.247559 L 447.907898 380.247559 C 445.195435 380.247559 442.845398 379.706055 440.678772 378.622559 C 434.895386 375.910156 431.10376 370.310059 431.10376 363.626465 C 431.10376 356.938965 434.895386 351.160156 440.678772 348.630859 C 442.845398 347.364258 445.195435 347.001465 447.907898 347.001465 L 466.878723 347.001465 L 467.962097 347.001465 L 467.991272 371.268555 C 467.991272 371.268555 462.337097 374.410156 458.566223 380.247559"/>
        <path id="path22" fill="#4cb648" stroke="none" d="M 409.934143 320.763184 C 409.934143 329.705078 402.646667 337.15918 393.53833 337.321777 L 393.209167 337.321777 L 347.338318 337.321777 C 349.988342 314.967285 361.580017 295.263184 378.47168 281.851074 C 377.809143 283.504883 377.47583 285.325684 377.47583 287.313477 C 377.47583 296.421875 384.59668 303.708984 393.53833 304.038574 C 402.646667 304.205078 409.934143 311.654785 409.934143 320.763184"/>
        <path id="path23" fill="#4cb648" stroke="none" d="M 423.844971 410.351074 C 423.844971 419.459473 416.39502 427.076172 407.119995 427.076172 L 400.990845 427.076172 C 383.936646 420.617676 369.52832 408.692871 359.761658 393.626465 L 407.119995 393.626465 C 416.39502 393.626465 423.844971 401.076172 423.844971 410.351074"/>
        <path id="path24" fill="#ffffff" stroke="none" d="M 466.921692 343.043457 L 466.921692 375.509766 C 463.78833 377.643555 461.084167 380.351563 458.804993 383.197266 C 452.825806 390.318359 449.263306 399.430664 449.263306 409.397461 C 449.263306 413.810059 449.97583 418.226563 451.259155 422.214355 C 456.66748 438.872559 472.334167 450.834961 490.700806 450.834961 C 513.484192 450.834961 532.138306 432.322266 532.138306 409.397461 C 532.138306 395.443359 525.017517 383.055664 514.47998 375.509766 L 514.47998 276.164063 C 514.47998 263.063965 503.800842 252.384766 490.700806 252.384766 C 477.60083 252.384766 466.921692 263.063965 466.921692 276.164063 L 466.921692 277.043457 L 466.921692 278.180664 L 466.921692 337.347656 Z"/>
        <path id="path25" fill="none" stroke="#002f54" stroke-width="4.166667" d="M 466.921692 343.043457 L 466.921692 375.509766 C 463.78833 377.643555 461.084167 380.351563 458.804993 383.197266 C 452.825806 390.318359 449.263306 399.430664 449.263306 409.397461 C 449.263306 413.810059 449.97583 418.226563 451.259155 422.214355 C 456.66748 438.872559 472.334167 450.834961 490.700806 450.834961 C 513.484192 450.834961 532.138306 432.322266 532.138306 409.397461 C 532.138306 395.443359 525.017517 383.055664 514.47998 375.509766 L 514.47998 276.164063 C 514.47998 263.063965 503.800842 252.384766 490.700806 252.384766 C 477.60083 252.384766 466.921692 263.063965 466.921692 276.164063 L 466.921692 277.043457 L 466.921692 278.180664 L 466.921692 337.347656 L 466.921692 343.043457 Z"/>
        <path id="path26" fill="none" stroke="#cc5454" stroke-width="12.5" stroke-linecap="round" stroke-linejoin="round" d="M 490.661255 301.303711 L 490.661255 409.887207"/>
        <path id="path27" fill="#cc5454" stroke="none" d="M 503.779175 409.887695 C 503.779175 417.133301 497.904175 423.004395 490.662476 423.004395 C 483.416687 423.004395 477.541687 417.133301 477.541687 409.887695 C 477.541687 402.641602 483.416687 396.770996 490.662476 396.770996 C 497.904175 396.770996 503.779175 402.641602 503.779175 409.887695"/>
        <path id="path28" fill="#ffc776" stroke="none" d="M 578.998779 592.393555 L 584.00708 596.905762 L 562.852905 620.468262 L 557.844604 615.980957 L 519.286255 560.118164 Z"/>
        <path id="path29" fill="#faad23" stroke="none" d="M 810.361267 796.103027 L 789.207092 819.69043 L 557.844604 615.978027 L 578.998718 592.394531 Z"/>
        <path id="path30" fill="#002f54" stroke="none" d="M 519.284973 560.119141 L 535.909973 584.202637 L 545.030823 574.035645 Z"/>
        <path id="path31" fill="none" stroke="#d18a22" stroke-width="4.166667" stroke-linecap="round" stroke-linejoin="round" d="M 568.81543 605.114746 L 800.177917 808.822754"/>
        <path id="path32" fill="#ff6462" stroke="none" d="M 789.209167 819.688965 L 810.363342 796.101074 L 824.067505 808.396973 C 826.267517 810.367676 826.450806 813.751465 824.47998 815.951172 L 810.47168 831.572266 C 808.496643 833.771973 805.117493 833.955566 802.91748 831.980469 Z"/>
        <path id="path33" fill="#fffde1" stroke="none" d="M 765.623352 798.536621 L 786.777527 774.949219 L 810.36084 796.103516 L 789.210815 819.690918 Z"/>
        <path id="path34" fill="#a8a49e" stroke="none" d="M 771.519592 803.825195 L 792.673767 780.237305 L 804.465393 790.816895 L 783.311279 814.399902 Z"/>
    </g>
</svg>
