<?xml version="1.0" encoding="UTF-8"?>
<!-- Generated by Pixelmator Pro 3.5.7 -->
<svg class="svg-inline-icon" viewBox="0 0 501 501" xmlns="http://www.w3.org/2000/svg">
    <path id="Path-copy" fill="#368900" stroke="none" d="M 250.416748 500.5 C 388.487549 500.5 500.416748 388.570801 500.416748 250.5 C 500.416748 112.429199 388.487549 0.5 250.416748 0.5 C 112.345947 0.5 0.416748 112.429199 0.416748 250.5 C 0.416748 388.570801 112.345947 500.5 250.416748 500.5"/>
    <clipPath id="clipPath-ebUCB-1">
        <path d="M 0.416748 250.5 C 0.416748 388.570801 112.341553 500.5 250.416748 500.5 L 250.416748 500.5 C 388.487549 500.5 500.416748 388.570801 500.416748 250.5 L 500.416748 250.5 C 500.416748 112.429199 388.487549 0.5 250.416748 0.5 L 250.416748 0.5 C 112.341553 0.5 0.416748 112.429199 0.416748 250.5"/>
    </clipPath>
    <g id="Group-copy-2" clip-path="url(#clipPath-ebUCB-1)">
        <path id="Path" fill="#ccf4ff" stroke="none" d="M 93.670654 500.5 L 406.50415 500.5 L 406.50415 112.254395 L 93.670654 112.254395 Z"/>
        <path id="path1" fill="#dcd7ce" stroke="none" d="M 406.5 147.804199 L 93.666748 147.804199 L 93.666748 112.254395 L 406.5 112.254395 Z"/>
        <path id="path2" fill="#c45800" stroke="none" d="M 395.79541 131.458984 C 395.79541 135.408691 392.591309 138.612793 388.641357 138.612793 C 384.691162 138.612793 381.491211 135.408691 381.491211 131.458984 C 381.491211 127.508789 384.691162 124.304688 388.641357 124.304688 C 392.591309 124.304688 395.79541 127.508789 395.79541 131.458984"/>
    </g>
    <clipPath id="clipPath-ebUCB-2">
        <path d="M 0.416748 250.5 C 0.416748 388.570801 112.341553 500.5 250.416748 500.5 L 250.416748 500.5 C 388.487549 500.5 500.416748 388.570801 500.416748 250.5 L 500.416748 250.5 C 500.416748 112.429199 388.487549 0.5 250.416748 0.5 L 250.416748 0.5 C 112.341553 0.5 0.416748 112.429199 0.416748 250.5"/>
    </clipPath>
    <g id="Group-copy" clip-path="url(#clipPath-ebUCB-2)">
        <path id="path3" fill="#ff8000" stroke="none" d="M 374.754883 131.458984 C 374.754883 135.408691 371.550781 138.612793 367.60083 138.612793 C 363.650879 138.612793 360.450928 135.408691 360.450928 131.458984 C 360.450928 127.508789 363.650879 124.304688 367.60083 124.304688 C 371.550781 124.304688 374.754883 127.508789 374.754883 131.458984"/>
        <path id="path4" fill="#44bf00" stroke="none" d="M 353.7146 131.458984 C 353.7146 135.408691 350.510498 138.612793 346.560303 138.612793 C 342.610352 138.612793 339.4104 135.408691 339.4104 131.458984 C 339.4104 127.508789 342.610352 124.304688 346.560303 124.304688 C 350.510498 124.304688 353.7146 127.508789 353.7146 131.458984"/>
        <path id="path5" fill="#fffde1" stroke="none" d="M 295.66626 138.119141 L 119.511963 138.119141 C 115.270508 138.119141 111.833008 134.681641 111.833008 130.439941 C 111.833008 126.198242 115.270508 122.760742 119.511963 122.760742 L 295.66626 122.760742 C 299.907959 122.760742 303.345459 126.198242 303.345459 130.439941 C 303.345459 134.681641 299.907959 138.119141 295.66626 138.119141"/>
        <path id="path6" fill="none" stroke="#3399ff" stroke-width="2.5" stroke-linecap="round" stroke-linejoin="round" d="M 261.470947 296.01123 L 369.574951 296.01123"/>
        <path id="path7" fill="none" stroke="#3399ff" stroke-width="2.5" stroke-linecap="round" stroke-linejoin="round" d="M 261.470947 266.641602 L 369.574951 266.641602"/>
        <path id="path8" fill="none" stroke="#3399ff" stroke-width="2.5" stroke-linecap="round" stroke-linejoin="round" d="M 261.470947 281.326172 L 287.679199 281.326172"/>
        <path id="path9" fill="none" stroke="#3399ff" stroke-width="2.5" stroke-linecap="round" stroke-linejoin="round" d="M 261.470947 237.272461 L 369.574951 237.272461"/>
        <path id="path10" fill="none" stroke="#3399ff" stroke-width="2.5" stroke-linecap="round" stroke-linejoin="round" d="M 261.470947 251.957031 L 358.166748 251.957031"/>
        <path id="path11" fill="none" stroke="#3399ff" stroke-width="2.5" stroke-linecap="round" stroke-linejoin="round" d="M 261.470947 207.902832 L 355.241699 207.902832"/>
        <path id="path12" fill="none" stroke="#3399ff" stroke-width="2.5" stroke-linecap="round" stroke-linejoin="round" d="M 261.470947 178.533203 L 369.574951 178.533203"/>
        <path id="path13" fill="none" stroke="#3399ff" stroke-width="2.5" stroke-linecap="round" stroke-linejoin="round" d="M 261.470947 193.218262 L 322.19165 193.218262"/>
        <path id="path14" fill="#ffc776" stroke="none" d="M 373.200195 472.583496 L 258.054199 472.583496 L 258.054199 323.291504 L 373.200195 323.291504 Z"/>
        <path id="path15" fill="none" stroke="#ffa14d" stroke-width="2.5" stroke-linecap="round" d="M 274.073242 375.596191 L 358.352539 375.404785"/>
        <path id="path16" fill="none" stroke="#ffa14d" stroke-width="2.5" stroke-linecap="round" d="M 274.056152 357.429688 L 358.335449 357.237793"/>
        <path id="path17" fill="none" stroke="#ffa14d" stroke-width="2.5" stroke-linecap="round" d="M 274.090088 393.557129 L 358.369141 393.365234"/>
        <path id="path18" fill="none" stroke="#ffa14d" stroke-width="2.5" stroke-linecap="round" d="M 274.106201 411.518555 L 358.385498 411.327148"/>
        <path id="path19" fill="none" stroke="#ffa14d" stroke-width="2.5" stroke-linecap="round" d="M 274.123291 429.47998 L 358.402588 429.288574"/>
        <path id="path20" fill="#ff6462" stroke="none" d="M 299.635498 446.450195 L 286.114502 446.479004 L 286.056152 380.287598 L 299.572998 380.258301 Z"/>
        <path id="path21" fill="#44bf00" stroke="none" d="M 322.415527 446.398438 L 308.894531 446.427734 L 308.865479 414.064941 L 322.38623 414.031738 Z"/>
        <path id="path22" fill="#00bdf2" stroke="none" d="M 345.195068 446.346191 L 331.674072 446.375488 L 331.594971 359.396484 L 345.115723 359.367188 Z"/>
        <path id="path23" fill="none" stroke="#fffde1" stroke-width="2.5" stroke-linecap="round" d="M 274.139648 447.441895 L 359.71875 447.245605"/>
        <path id="path24" fill="none" stroke="#fffde1" stroke-width="2.5" stroke-linecap="round" d="M 274.027832 339.035156 L 274.140381 447.443359"/>
        <path id="path25" fill="#286fb7" stroke="none" d="M 214.418701 417.782227 L 214.418701 459.94043 C 214.418701 465.606934 209.827148 470.19873 204.1604 470.19873 L 148.756348 470.19873 C 143.0896 470.19873 138.497803 465.606934 138.497803 459.94043 L 138.497803 416.62793 C 141.914551 420.19043 146.710449 422.411133 152.039551 422.411133 C 156.814697 422.411133 161.177002 420.623535 164.489502 417.677734 C 167.802002 420.623535 172.164551 422.411133 176.939697 422.411133 C 181.7146 422.411133 186.077148 420.623535 189.393799 417.677734 C 192.706299 420.623535 197.068848 422.411133 201.84375 422.411133 C 206.602051 422.411133 210.952148 420.63623 214.260498 417.711426 C 214.335449 417.744629 214.3396 417.748535 214.418701 417.782227"/>
        <path id="path26" fill="none" stroke="#8c5819" stroke-width="2.5" stroke-linecap="round" stroke-linejoin="round" d="M 176.109131 354.499023 L 176.463379 398.136719"/>
        <path id="path27" fill="none" stroke="#8c5819" stroke-width="2.5" stroke-linecap="round" stroke-linejoin="round" d="M 162.275391 398.13623 L 162.012939 384.819824 C 161.95874 378.257324 167.238037 372.890625 173.800537 372.840332 L 175.07959 372.828125"/>
        <path id="path28" fill="none" stroke="#8c5819" stroke-width="2.5" stroke-linecap="round" stroke-linejoin="round" d="M 146.636719 398.13623 L 146.515869 397.657227 C 146.46167 391.094727 151.740723 385.731934 158.303223 385.677734 L 161.52832 385.652832"/>
        <path id="path29" fill="none" stroke="#8c5819" stroke-width="2.5" stroke-linecap="round" stroke-linejoin="round" d="M 197.29248 398.13623 L 197.184082 391.536133 C 197.129883 384.973633 191.763428 379.694824 185.200928 379.748535 L 177.388428 379.811035"/>
        <path id="path30" fill="#368900" stroke="none" d="M 203.855713 335.005859 L 203.82251 331.047363 C 203.768311 324.32666 198.280762 318.930664 191.564209 318.984863 L 190.314209 318.997559 C 189.935059 318.997559 189.580811 319.07666 189.209961 319.114258 C 188.122559 313.109863 182.872559 308.563965 176.560059 308.618164 C 171.480713 308.660156 167.151611 311.680664 165.126709 315.989258 C 164.13916 315.751465 163.122559 315.593262 162.060059 315.601563 C 155.001709 315.660156 149.32251 321.430664 149.376709 328.489258 L 149.405762 331.759766 C 143.38916 333.685059 139.026611 339.276855 139.084961 345.926758 C 139.147461 354.109863 145.834961 360.685059 154.018311 360.622559 L 201.151611 360.234863 C 208.214111 360.176758 213.88916 354.405762 213.834961 347.347656 C 213.784912 341.289063 209.522461 336.280762 203.855713 335.005859"/>
        <path id="path31" fill="#00bdf2" stroke="none" d="M 222.358398 213.755371 C 222.479248 213.259766 222.583252 212.759766 222.662598 212.251465 C 222.679199 212.105469 222.708252 211.963867 222.725098 211.822266 C 222.80835 211.159668 222.862549 210.492676 222.862549 209.813965 C 222.862549 209.80957 222.866699 209.80127 222.866699 209.796875 C 222.866699 200.501465 215.329102 192.967773 206.037598 192.967773 C 204.75 192.967773 203.5 193.126465 202.295898 193.401367 C 200.204102 181.62207 189.9375 172.671875 177.55835 172.671875 C 166.237549 172.671875 156.662598 180.155273 153.512451 190.447266 C 152.300049 190.213867 151.050049 190.080566 149.766602 190.080566 C 138.87915 190.080566 130.054199 198.909668 130.054199 209.796875 L 130.054199 209.796875 L 130.050049 209.796875 C 130.050049 210.401367 130.091553 210.992676 130.154053 211.580566 C 130.233398 212.42627 130.350098 213.259766 130.529053 214.072266 L 130.637451 214.072266 C 132.516602 220.963867 138.80835 226.046875 146.300049 226.046875 L 206.616699 226.046875 C 214.108398 226.046875 220.399902 220.963867 222.279053 214.072266 L 222.295898 214.072266 C 222.320801 213.967773 222.333252 213.859375 222.358398 213.755371"/>
        <path id="path32" fill="#002f54" stroke="none" d="M 178.912842 283.372559 C 179.171143 282.926758 179.317139 282.414063 179.317139 281.872559 L 179.071289 239.397461 C 179.058838 237.755859 177.729492 236.438965 176.092041 236.443359 C 174.433838 236.456055 173.14209 237.813965 173.137939 239.426758 L 173.379639 281.901855 C 173.39209 283.539063 174.721191 284.859863 176.358643 284.851563 C 177.45874 284.843262 178.404541 284.251465 178.912842 283.372559"/>
        <path id="path33" fill="#002f54" stroke="none" d="M 192.821289 267.737305 L 160.071289 267.920898 C 158.317139 267.933105 157.421143 270.029297 158.621338 271.304199 L 175.100342 288.820801 C 175.89624 289.670898 177.250488 289.666504 178.037842 288.808105 L 194.312988 271.104004 C 195.496338 269.8125 194.575439 267.729004 192.821289 267.737305"/>
        <path id="path34" fill="#113053" stroke="none" d="M 274.719238 404.738281 C 274.544189 404.738281 274.369141 404.66748 274.248291 404.521484 L 251.785889 378.392578 L 242.98999 391.813477 C 242.873291 391.992676 242.67749 392.09668 242.469238 392.09668 C 242.439941 392.09668 242.410889 392.092285 242.377441 392.088379 C 242.139893 392.055176 241.939941 391.884277 241.869141 391.654785 L 227.840088 345.455078 C 227.773438 345.217285 227.844238 344.963379 228.031738 344.800781 C 228.148438 344.700684 228.294189 344.650879 228.439941 344.650879 C 228.527588 344.650879 228.623291 344.671875 228.710938 344.708984 L 272.277588 365.513184 C 272.498291 365.617676 272.635742 365.838379 272.635742 366.080078 C 272.631592 366.321777 272.48999 366.54248 272.273438 366.646484 L 258.102539 373.129883 L 280.481689 399.15918 C 280.706787 399.421875 280.67749 399.817383 280.415039 400.04248 L 275.127441 404.583984 C 275.010742 404.688477 274.86499 404.738281 274.719238 404.738281"/>
        <path id="path35" fill="#ffffff" stroke="none" d="M 228.439697 344.024902 C 228.147949 344.024902 227.856201 344.129395 227.622803 344.329102 C 227.247803 344.649902 227.0979 345.166504 227.243652 345.637695 L 241.272949 391.833496 C 241.414551 392.299805 241.810303 392.641602 242.293701 392.708496 C 242.352051 392.716797 242.4104 392.720703 242.46875 392.720703 C 242.885498 392.720703 243.28125 392.512695 243.514648 392.158203 L 251.852051 379.429199 L 273.772949 404.929199 C 274.018799 405.216797 274.368652 405.362305 274.71875 405.362305 C 275.010498 405.362305 275.297852 405.262695 275.5354 405.058105 L 280.822998 400.512695 C 281.072998 400.295898 281.231201 399.991699 281.256348 399.658203 C 281.28125 399.329102 281.172852 399.004395 280.956299 398.75 L 259.118652 373.350098 L 272.53125 367.212402 C 272.96875 367.008301 273.256348 366.570801 273.260498 366.087402 C 273.260498 365.600098 272.985352 365.158203 272.547852 364.945801 L 228.977051 344.145996 C 228.806152 344.066895 228.622803 344.024902 228.439697 344.024902 M 228.439697 345.274902 L 272.010498 366.079102 L 257.0896 372.904297 L 280.010498 399.566895 L 274.71875 404.112305 L 251.71875 377.354004 L 242.46875 391.470703 Z"/>
    </g>
</svg>
