<?xml version="1.0" encoding="UTF-8"?>
<!-- Generated by Pixelmator Pro 3.5.7 -->
<svg class="svg-inline-icon" viewBox="0 0 500 501" xmlns="http://www.w3.org/2000/svg">
    <path id="Path-copy" fill="#368900" stroke="none" d="M 250 501.166626 C 388.070862 501.166626 500 389.237549 500 251.166626 C 500 113.095947 388.070862 1.166748 250 1.166748 C 111.929169 1.166748 0 113.095947 0 251.166626 C 0 389.237549 111.929169 501.166626 250 501.166626"/>
    <clipPath id="clipPath-ceccp-1">
        <path d="M 0 251.166626 C 0 389.237427 111.929169 501.166626 250 501.166626 L 250 501.166626 C 388.070801 501.166626 500 389.237427 500 251.166626 L 500 251.166626 C 500 113.091553 388.070801 1.166748 250 1.166748 L 250 1.166748 C 111.929169 1.166748 0 113.091553 0 251.166626"/>
    </clipPath>
    <g id="Group-copy-3" clip-path="url(#clipPath-ceccp-1)">
        <path id="Path" fill="#af9ecc" stroke="none" d="M 80.074173 455.864624 L 80.082504 211.03125 L 269.27417 211.0354 L 269.265839 455.872925 Z"/>
        <path id="path1" fill="none" stroke="#ccf4ff" stroke-width="2.5" stroke-linecap="round" stroke-linejoin="round" d="M 210.566254 323.834961 L 305.441254 323.834961"/>
        <path id="path2" fill="#ccf4ff" stroke="none" d="M 300.462494 328.073364 L 304.704163 323.835815 L 300.462494 319.594116 L 304.058319 319.594116 L 308.299988 323.835815 L 304.058319 328.073364 Z"/>
        <path id="path3" fill="#ccf4ff" stroke="none" d="M 357.852905 163.262451 L 325.986237 157.779053 L 325.957092 54.679199 L 357.81958 60.166748 Z"/>
        <path id="path4" fill="#66ccff" stroke="none" d="M 325.987915 157.776611 L 294.129578 174.751709 L 294.096252 71.655762 L 325.95459 54.680908 Z"/>
        <path id="path5" fill="#ccf4ff" stroke="none" d="M 294.130005 174.750488 L 262.263336 163.291992 L 262.230011 60.196289 L 294.09668 71.654541 Z"/>
    </g>
    <clipPath id="clipPath-ceccp-2">
        <path d="M 294.095825 71.654053 L 262.229156 60.195801 L 262.262512 163.295898 L 294.133331 174.74585 L 325.987488 157.774902 L 357.850006 163.262451 L 357.820831 60.166504 L 325.954163 54.679199 Z"/>
    </clipPath>
    <g id="Group-copy-2" clip-path="url(#clipPath-ceccp-2)">
        <path id="path6" fill="none" stroke="#113053" stroke-width="0.625" stroke-linecap="round" stroke-dasharray="2.5 2.5" stroke-dashoffset="0" d="M 375.326233 134.719238 L 353.255432 119.42749 L 341.359589 137.569092 L 325.784576 134.910889 L 318.472076 143.931641 L 316.567902 104.264893 L 285.817902 114.219238 L 306.822083 152.106689 L 294.126251 166.323242 L 262.051239 157.223389"/>
        <path id="path7" fill="none" stroke="#a7a39d" stroke-width="0.625" stroke-linecap="round" stroke-dasharray="2.5 2.5" stroke-dashoffset="0" d="M 368.578308 86.674561 C 370.178345 96.79541 363.27417 106.29541 353.15332 107.895508 C 343.036652 109.495361 333.532501 102.591309 331.932495 92.470459 C 330.332489 82.35376 337.236664 72.85376 347.357513 71.249512 C 357.474152 69.649658 366.978333 76.553711 368.578308 86.674561 Z"/>
        <path id="path8" fill="none" stroke="#a7a39d" stroke-width="0.625" stroke-linecap="round" stroke-dasharray="2.5 2.5" stroke-dashoffset="0" d="M 256.991241 74.164063 L 271.132904 79.351563 L 274.112091 91.768311 L 286.395416 81.959961 L 293.753754 84.293213 L 317.599579 69.380859 L 318.332916 83.680908"/>
    </g>
    <clipPath id="clipPath-ceccp-3">
        <path d="M 0 251.166626 C 0 389.237427 111.929169 501.166626 250 501.166626 L 250 501.166626 C 388.070801 501.166626 500 389.237427 500 251.166626 L 500 251.166626 C 500 113.091553 388.070801 1.166748 250 1.166748 L 250 1.166748 C 111.929169 1.166748 0 113.091553 0 251.166626"/>
    </clipPath>
    <g id="Group-copy" clip-path="url(#clipPath-ceccp-3)">
        <path id="path9" fill="#113053" stroke="none" d="M 405.184143 255.500854 L 382.892517 245.830078 L 382.892517 265.171631 Z"/>
        <path id="path10" fill="none" stroke="#113053" stroke-width="1.25" stroke-linecap="round" stroke-linejoin="round" d="M 405.184143 255.500854 L 382.892517 245.830078 L 382.892517 265.171631 L 405.184143 255.500854 Z"/>
        <path id="path11" fill="none" stroke="#71c8f0" stroke-width="2.5" stroke-linecap="round" stroke-linejoin="round" d="M 382.891663 245.829102 L 382.891663 273.662476"/>
        <path id="path12" fill="none" stroke="#f9ac22" stroke-width="2.5" stroke-linecap="round" stroke-linejoin="round" d="M 337.056671 319.497559 L 337.056671 350.055786"/>
        <path id="path13" fill="#faad23" stroke="none" d="M 355.389587 350.054565 L 355.389587 319.496216 Z"/>
        <path id="path14" fill="none" stroke="#f9ac22" stroke-width="2.5" stroke-linecap="round" stroke-linejoin="round" d="M 355.390411 319.497559 L 355.390411 350.055786"/>
        <path id="path15" fill="#faad23" stroke="none" d="M 373.724976 350.054565 L 373.724976 319.496216 Z"/>
        <path id="path16" fill="none" stroke="#f9ac22" stroke-width="2.5" stroke-linecap="round" stroke-linejoin="round" d="M 373.724609 319.497559 L 373.724609 350.055786"/>
        <path id="path17" fill="#faad23" stroke="none" d="M 392.057922 350.054565 L 392.057922 319.496216 Z"/>
        <path id="path18" fill="none" stroke="#f9ac22" stroke-width="2.5" stroke-linecap="round" stroke-linejoin="round" d="M 392.058777 319.497559 L 392.058777 350.055786"/>
        <path id="path19" fill="#faad23" stroke="none" d="M 410.393311 350.054565 L 410.393311 319.496216 Z"/>
        <path id="path20" fill="none" stroke="#f9ac22" stroke-width="2.5" stroke-linecap="round" stroke-linejoin="round" d="M 410.392944 319.497559 L 410.392944 350.055786"/>
        <path id="path21" fill="none" stroke="#f9ac22" stroke-width="2.5" stroke-linecap="round" stroke-linejoin="round" d="M 428.727112 319.497559 L 428.727112 350.055786"/>
        <path id="path22" fill="#faad23" stroke="none" d="M 428.729187 369.916626 L 337.058319 369.916626 L 337.058319 350.054199 L 428.729187 350.054199 Z"/>
        <path id="path23" fill="none" stroke="#faad23" stroke-width="2.5" stroke-linecap="round" stroke-linejoin="round" d="M 428.727478 369.916626 L 337.056671 369.916626 L 337.056671 350.054199 L 428.727478 350.054199 Z"/>
        <path id="path24" fill="#faad23" stroke="none" d="M 337.056671 319.497559 C 337.056671 294.180786 357.577515 273.664185 382.890015 273.664185 C 408.206665 273.664185 428.727478 294.180786 428.727478 319.497559 Z"/>
        <path id="path25" fill="none" stroke="#faad23" stroke-width="2.5" stroke-linecap="round" stroke-linejoin="round" d="M 337.056671 319.497559 C 337.056671 294.180786 357.577515 273.664185 382.890015 273.664185 C 408.206665 273.664185 428.727478 294.180786 428.727478 319.497559 L 337.056671 319.497559 Z"/>
        <path id="path26" fill="none" stroke="#8b5924" stroke-width="2.5" stroke-linecap="round" stroke-linejoin="round" d="M 339.673737 304.21875 L 426.107056 304.21875"/>
        <path id="path27" fill="#fff9f0" stroke="none" d="M 56.684586 436.957031 L 56.692917 192.123779 L 245.884583 192.12793 L 245.876251 436.965454 Z"/>
        <path id="path28" fill="none" stroke="#3399ff" stroke-width="2.5" stroke-linecap="round" d="M 81.869583 258.980469 L 223.086243 259.092896"/>
        <path id="path29" fill="none" stroke="#3399ff" stroke-width="2.5" stroke-linecap="round" d="M 81.824173 296.516724 L 223.040833 296.62915"/>
        <path id="path30" fill="none" stroke="#3399ff" stroke-width="2.5" stroke-linecap="round" d="M 81.778336 334.053345 L 222.994995 334.165894"/>
        <path id="path31" fill="none" stroke="#3399ff" stroke-width="2.5" stroke-linecap="round" d="M 81.73291 371.5896 L 222.949585 371.702026"/>
        <path id="path32" fill="none" stroke="#3399ff" stroke-width="2.5" stroke-linecap="round" d="M 81.687088 409.125854 L 222.903748 409.238281"/>
        <path id="path33" fill="none" stroke="#3399ff" stroke-width="2.5" stroke-linecap="round" d="M 81.892914 240.094238 L 223.109589 240.206787"/>
        <path id="path34" fill="none" stroke="#3399ff" stroke-width="2.5" stroke-linecap="round" d="M 81.847076 277.630371 L 223.063751 277.74292"/>
        <path id="path35" fill="none" stroke="#3399ff" stroke-width="2.5" stroke-linecap="round" d="M 81.801666 315.166626 L 223.018341 315.279175"/>
        <path id="path36" fill="none" stroke="#3399ff" stroke-width="2.5" stroke-linecap="round" d="M 81.755829 352.703369 L 222.972504 352.815796"/>
        <path id="path37" fill="none" stroke="#3399ff" stroke-width="2.5" stroke-linecap="round" d="M 81.710419 390.239624 L 222.927063 390.352051"/>
        <path id="path38" fill="none" stroke="#3399ff" stroke-width="2.5" stroke-linecap="round" d="M 81.880829 249.767456 L 223.097504 249.880005"/>
        <path id="path39" fill="none" stroke="#3399ff" stroke-width="2.5" stroke-linecap="round" d="M 81.835419 287.303711 L 223.052063 287.41626"/>
        <path id="path40" fill="none" stroke="#3399ff" stroke-width="2.5" stroke-linecap="round" d="M 81.789581 324.839966 L 223.006256 324.952515"/>
        <path id="path41" fill="none" stroke="#3399ff" stroke-width="2.5" stroke-linecap="round" d="M 81.744171 362.376221 L 222.960815 362.48877"/>
        <path id="path42" fill="none" stroke="#3399ff" stroke-width="2.5" stroke-linecap="round" d="M 81.698746 399.912964 L 222.915405 400.025391"/>
        <path id="path43" fill="none" stroke="#ccf4ff" stroke-width="2.5" stroke-linecap="round" stroke-linejoin="round" d="M 222.490845 145.757568 L 189.369995 145.757568 L 189.369995 201.695068"/>
        <path id="path44" fill="#ccf4ff" stroke="none" d="M 217.511261 141.519287 L 221.75293 145.756592 L 217.511261 149.998291 L 221.107086 149.998291 L 225.348755 145.756592 L 221.107086 141.519287 Z"/>
    </g>
</svg>
