<?xml version="1.0" encoding="UTF-8"?>
<!-- Generated by Pixelmator Pro 3.5.7 -->
<svg class="svg-inline-icon" viewBox="0 0 167 167" xmlns="http://www.w3.org/2000/svg">
    <path id="Path" fill="#54501d" stroke="none" d="M 83.333344 0.083252 C 37.30835 0.083252 0 37.391602 0 83.416748 C 0 129.44165 37.30835 166.75 83.333344 166.75 C 129.358337 166.75 166.666687 129.44165 166.666687 83.416748 C 166.666687 37.391602 129.358337 0.083252 83.333344 0.083252 M 67.241669 129.537598 C 62.637512 129.537598 58.908325 125.804199 58.908325 121.204102 C 58.908325 116.600098 62.637512 112.87085 67.241669 112.87085 C 71.841675 112.87085 75.575012 116.600098 75.575012 121.204102 C 75.575012 125.804199 71.841675 129.537598 67.241669 129.537598 M 67.241669 104.537598 C 62.637512 104.537598 58.908325 100.804199 58.908325 96.204102 C 58.908325 91.600098 62.637512 87.87085 67.241669 87.87085 C 71.841675 87.87085 75.575012 91.600098 75.575012 96.204102 C 75.575012 100.804199 71.841675 104.537598 67.241669 104.537598 M 54.741669 78.962402 C 43.233337 78.962402 33.908325 69.637451 33.908325 58.12915 C 33.908325 46.625 43.233337 37.295898 54.741669 37.295898 C 66.245819 37.295898 75.575012 46.625 75.575012 58.12915 C 75.575012 69.637451 66.245819 78.962402 54.741669 78.962402 M 124.424988 126.412598 L 100.575012 126.412598 C 97.695831 126.412598 95.366669 124.079102 95.366669 121.204102 C 95.366669 118.324951 97.695831 115.99585 100.575012 115.99585 L 124.424988 115.99585 C 127.304169 115.99585 129.633331 118.324951 129.633331 121.204102 C 129.633331 124.079102 127.304169 126.412598 124.424988 126.412598 M 132.758331 101.412598 L 100.575012 101.412598 C 97.695831 101.412598 95.366669 99.079102 95.366669 96.204102 C 95.366669 93.324951 97.695831 90.99585 100.575012 90.99585 L 132.758331 90.99585 C 135.637512 90.99585 137.966675 93.324951 137.966675 96.204102 C 137.966675 99.079102 135.637512 101.412598 132.758331 101.412598 M 132.758331 63.337402 L 100.575012 63.337402 C 97.695831 63.337402 95.366669 61.00415 95.366669 58.12915 C 95.366669 55.25415 97.695831 52.920898 100.575012 52.920898 L 132.758331 52.920898 C 135.637512 52.920898 137.966675 55.25415 137.966675 58.12915 C 137.966675 61.00415 135.637512 63.337402 132.758331 63.337402"/>
</svg>
