<?xml version="1.0" encoding="UTF-8" standalone="no"?>
<svg class="svg-inline-icon" xmlns="http://www.w3.org/2000/svg" version="1.1" id="svg609" viewBox="0 0 95.581261 95.999466" >
  <defs id="defs613">
    <clipPath id="clipPath-Krf9X-625">
      <path d="M 0,0 H 1920 V 2400 H 0 Z" id="path623"></path>
    </clipPath>
  </defs>
  <g id="g617" transform="matrix(1.3333333,0,0,-1.3333333,-1536.1579,580.33305)">
    <g id="g619">
      <g id="g621" clip-path="url(#clipPath-Krf9X-625)">
        <g id="g627" transform="translate(1187.2415,421.6427)">
          <path d="m 0,0 c -12.789,0 -23.158,-10.368 -23.158,-23.158 0,-12.79 10.369,-23.158 23.158,-23.158 12.79,0 23.158,10.368 23.158,23.158 C 23.158,-10.368 12.79,0 0,0 M 11.921,-16.766 -2.711,-34.565 c -0.452,-0.55 -1.125,-0.872 -1.836,-0.88 h -0.027 c -0.702,0 -1.37,0.306 -1.829,0.839 l -5.99,6.964 c -0.869,1.009 -0.754,2.533 0.256,3.401 1.008,0.868 2.531,0.755 3.401,-0.256 l 4.12,-4.789 12.809,15.584 c 0.847,1.028 2.367,1.174 3.396,0.332 1.029,-0.846 1.177,-2.366 0.332,-3.396" style="fill:#002f54;fill-opacity:1;fill-rule:nonzero;stroke:none" id="path629"></path>
        </g>
        <g id="g631" transform="translate(1211.5847,420.6642)">
          <path d="m 0,0 c -1.045,-0.826 -1.222,-2.344 -0.396,-3.389 9.551,-12.077 8.53,-29.41 -2.376,-40.316 -11.852,-11.849 -31.134,-11.849 -42.985,0 -11.85,11.852 -11.85,31.135 0,42.986 10.908,10.907 28.242,11.928 40.321,2.372 1.045,-0.827 2.561,-0.649 3.388,0.396 0.827,1.045 0.65,2.562 -0.395,3.388 -14,11.074 -34.087,9.893 -46.725,-2.745 -13.731,-13.732 -13.731,-36.076 0,-49.808 6.866,-6.865 15.885,-10.298 24.904,-10.298 9.019,0 18.037,3.433 24.903,10.298 12.637,12.637 13.819,32.722 2.749,46.72 C 2.564,0.648 1.047,0.826 0,0" style="fill:#002f54;fill-opacity:1;fill-rule:nonzero;stroke:none" id="path633"></path>
        </g>
      </g>
    </g>
    <g id="g635" transform="translate(1215.5964,425.6008)">
      <path d="M 0,0 3.135,1.649 6.27,0 5.672,3.491 8.208,5.964 4.703,6.473 3.135,9.649 1.568,6.473 -1.937,5.964 0.599,3.491 Z" style="fill:#002f54;fill-opacity:1;fill-rule:nonzero;stroke:none" id="path637"></path>
    </g>
  </g>
</svg>
