<?xml version="1.0" encoding="UTF-8"?>
<!-- Generated by Pixelmator Pro 3.5.7 -->
<svg class="svg-inline-icon" viewBox="0 0 369 369" xmlns="http://www.w3.org/2000/svg">
    <path id="Path-copy-2" fill="#5590cc" stroke="none" d="M 184.583496 357.25 C 279.929199 357.25 357.5 279.679199 357.5 184.333496 C 357.5 88.987305 279.929199 11.416504 184.583496 11.416504 C 89.237305 11.416504 11.666504 88.987305 11.666504 184.333496 C 11.666504 279.679199 89.237305 357.25 184.583496 357.25"/>
    <clipPath id="clipPath-JVS0L-1">
        <path d="M 1.25 184.333496 C 1.25 285.583496 83.333008 367.666504 184.583496 367.666504 L 184.583496 367.666504 C 285.833496 367.666504 367.916504 285.583496 367.916504 184.333496 L 367.916504 184.333496 C 367.916504 83.079102 285.833496 1 184.583496 1 L 184.583496 1 C 83.333008 1 1.25 83.079102 1.25 184.333496"/>
    </clipPath>
    <g id="Group-copy" clip-path="url(#clipPath-JVS0L-1)">
        <path id="Path" fill="#ceecf8" stroke="none" d="M 218.260742 273.247559 C 209.827637 273.493164 203.052734 280.364258 203.052734 288.855957 C 203.052734 297.351563 209.827637 304.230957 218.260742 304.468262 Z"/>
        <path id="path1" fill="#ceecf8" stroke="none" d="M 206.10498 288.946289 C 198.771484 296.104492 188.72998 300.558594 177.559082 300.558594 C 167.746582 300.558594 158.742676 297.062988 151.726074 291.296387 C 150.275879 290.108887 150.259277 287.76709 151.700684 286.562988 C 158.726074 280.663086 167.726074 277.158691 177.559082 277.158691 C 188.72998 277.158691 198.771484 281.612793 206.10498 288.946289"/>
        <path id="path2" fill="none" stroke="#ceecf8" stroke-width="6.545833" stroke-linecap="round" stroke-linejoin="round" d="M 187.764648 87.381836 L 187.764648 81.165039 C 187.764648 70.635742 179.227051 62.098145 168.697754 62.098145 L 166.735352 62.098145 C 166.139648 62.098145 165.581055 62.223145 165.006348 62.273438 C 163.373047 52.844238 155.193848 45.652344 145.293945 45.652344 C 137.331055 45.652344 130.501953 50.331543 127.272949 57.061035 C 125.727051 56.686035 124.131348 56.42334 122.473145 56.42334 C 111.393555 56.42334 102.418945 65.398438 102.418945 76.469238 L 102.418945 81.594238 C 92.964355 84.535645 86.047852 93.256836 86.047852 103.681641 C 86.047852 116.515137 96.447754 126.910645 109.28125 126.910645 L 183.197754 126.910645 C 194.276855 126.910645 203.251953 117.936035 203.251953 106.869141 C 203.251953 97.369141 196.635254 89.452637 187.764648 87.381836 Z"/>
        <path id="path3" fill="none" stroke="#ceecf8" stroke-width="6.545833" stroke-linecap="round" stroke-linejoin="round" d="M 132.503906 128.575684 L 132.503906 246.555176"/>
        <path id="path4" fill="none" stroke="#ceecf8" stroke-width="6.545833" stroke-linecap="round" stroke-linejoin="round" d="M 309.133789 141.122559 L 309.133789 134.818359 C 309.133789 124.134766 300.475586 115.472656 289.788086 115.472656 L 287.796387 115.472656 C 287.196289 115.472656 286.629395 115.597656 286.041992 115.647461 C 284.383789 106.081055 276.092285 98.789063 266.050293 98.789063 C 257.967285 98.789063 251.041992 103.539063 247.762695 110.368164 C 246.200195 109.972656 244.583984 109.709961 242.887695 109.709961 C 231.654785 109.709961 222.546387 118.818359 222.546387 130.051758 L 222.546387 135.255859 C 212.95459 138.243164 205.941895 147.084961 205.941895 157.655762 C 205.941895 170.672363 216.487793 181.226563 229.512695 181.226563 L 304.508789 181.226563 C 315.742188 181.226563 324.846191 172.122559 324.846191 160.88916 C 324.846191 151.251465 318.125488 143.226563 309.133789 141.122559 Z"/>
        <path id="path5" fill="none" stroke="#ceecf8" stroke-width="6.545833" stroke-linecap="round" stroke-linejoin="round" d="M 264.240234 183.67627 L 264.240234 246.167969"/>
        <path id="path6" fill="none" stroke="#ceecf8" stroke-width="6.545833" stroke-linecap="round" stroke-linejoin="round" d="M 104.933105 281.137695 L 104.933105 217.616699 C 104.933105 205 115.166016 194.770996 127.778809 194.770996 L 130.241211 194.770996"/>
        <path id="path7" fill="none" stroke="#ceecf8" stroke-width="6.545833" stroke-linecap="round" stroke-linejoin="round" d="M 74.943848 291.751465 L 74.943848 247.601074 C 74.943848 234.98877 85.177246 224.755371 97.789551 224.755371 L 100.251953 224.755371"/>
        <path id="path8" fill="none" stroke="#ceecf8" stroke-width="6.545833" stroke-linecap="round" stroke-linejoin="round" d="M 172.433105 262.993652 L 172.433105 231.077148 C 172.433105 218.460449 162.199707 208.231445 149.586914 208.231445 L 134.570313 208.231445"/>
        <path id="path9" fill="none" stroke="#ceecf8" stroke-width="6.545833" stroke-linecap="round" stroke-linejoin="round" d="M 305.737793 246.008301 L 305.737793 231.079102 C 305.737793 218.454102 295.504395 208.233398 282.89209 208.233398 L 265.021484 208.233398"/>
        <path id="path10" fill="none" stroke="#ceecf8" stroke-width="6.545833" stroke-linecap="round" stroke-linejoin="round" d="M 242.73291 273.606934 L 242.73291 244.832031 C 242.73291 232.219727 232.499512 221.986328 219.887207 221.986328 L 215.257813 221.986328"/>
        <path id="path11" fill="none" stroke="#ceecf8" stroke-width="6.545833" stroke-linecap="round" stroke-linejoin="round" d="M 210.560059 244.126465 L 210.560059 218.755371 C 210.560059 206.143066 220.793457 195.909668 233.405762 195.909668 L 262.372559 195.909668"/>
        <path id="path12" fill="none" stroke="#ceecf8" stroke-width="6.545833" stroke-linecap="round" stroke-linejoin="round" d="M 131.589355 181.229492 L 84.943848 181.229492 C 78.893555 181.229492 73.977051 176.325195 73.977051 170.262695 L 73.977051 166.858887"/>
        <path id="path13" fill="none" stroke="#ceecf8" stroke-width="6.545833" stroke-linecap="round" stroke-linejoin="round" d="M 91.203613 141.286621 C 89.782715 141.286621 88.403809 141.486816 87.074707 141.791016 C 85.336914 135.690918 79.787109 131.186523 73.124512 131.186523 C 65.966309 131.186523 60.04541 136.361816 58.824707 143.174316 L 48.687012 143.174316 C 42.341309 143.174316 37.199707 148.315918 37.199707 154.661621 C 37.199707 160.999023 42.341309 166.140625 48.687012 166.140625 L 58.570313 166.140625 L 64.191406 166.140625 L 72.73291 166.140625 L 87.687012 166.140625 L 91.203613 166.140625 C 98.066406 166.140625 103.628906 160.569824 103.628906 153.70752 C 103.628906 146.849121 98.066406 141.286621 91.203613 141.286621 Z"/>
        <path id="path14" fill="none" stroke="#ceecf8" stroke-width="6.545833" stroke-linecap="round" stroke-linejoin="round" d="M 134.133789 162.972656 L 150.212891 162.972656 C 156.437988 162.972656 161.492188 157.918457 161.492188 151.685059 L 161.492188 126.984863"/>
        <path id="path15" fill="none" stroke="#ceecf8" stroke-width="6.545833" stroke-linecap="round" stroke-linejoin="round" d="M -31.533203 247.314453 L 382.458496 247.314453"/>
        <path id="path16" fill="none" stroke="#ceecf8" stroke-width="6.545833" stroke-linecap="round" stroke-linejoin="round" d="M 266.541504 284.409668 L 292.445801 284.409668"/>
        <path id="path17" fill="none" stroke="#ceecf8" stroke-width="6.545833" stroke-linecap="round" stroke-linejoin="round" d="M 72.103516 313.123047 L 98.007324 313.123047"/>
        <path id="path18" fill="none" stroke="#ceecf8" stroke-width="6.545833" stroke-linecap="round" stroke-linejoin="round" d="M 288.356445 323.563965 L 314.260742 323.563965"/>
        <path id="path19" fill="none" stroke="#ceecf8" stroke-width="6.545833" stroke-linecap="round" stroke-linejoin="round" d="M 127.590332 376.149414 C 127.590332 369.495605 132.828125 369.495605 132.828125 362.853516 C 132.828125 356.208008 127.590332 356.208008 127.590332 349.574707 C 127.590332 342.912109 132.828125 342.912109 132.828125 336.262207 C 132.828125 329.591309 127.590332 329.591309 127.590332 322.933105 C 127.590332 316.262207 132.828125 316.262207 132.828125 309.591309"/>
        <path id="path20" fill="none" stroke="#ceecf8" stroke-width="6.545833" stroke-linecap="round" stroke-linejoin="round" d="M 150.597168 389.296875 C 150.597168 382.642578 155.834473 382.642578 155.834473 376.000977 C 155.834473 369.35498 150.597168 369.35498 150.597168 362.72168 C 150.597168 356.059082 155.834473 356.059082 155.834473 349.40918 C 155.834473 342.738281 150.597168 342.738281 150.597168 336.075684 C 150.597168 329.40918 155.834473 329.40918 155.834473 322.738281"/>
        <path id="path21" fill="none" stroke="#ceecf8" stroke-width="6.545833" stroke-linecap="round" stroke-linejoin="round" d="M 179.354492 379.436523 C 179.354492 372.782715 184.592285 372.782715 184.592285 366.140625 C 184.592285 359.495117 179.354492 359.495117 179.354492 352.861816 C 179.354492 346.199219 184.592285 346.199219 184.592285 339.549316 C 184.592285 332.878418 179.354492 332.878418 179.354492 326.21582 C 179.354492 319.549316 184.592285 319.549316 184.592285 312.878418"/>
        <path id="path22" fill="none" stroke="#ceecf8" stroke-width="6.545833" stroke-linecap="round" stroke-linejoin="round" d="M 247.498535 373.100586 C 247.498535 366.446289 252.73584 366.446289 252.73584 359.804688 C 252.73584 353.158691 247.498535 353.158691 247.498535 346.525391 C 247.498535 339.862793 252.73584 339.862793 252.73584 333.212891 C 252.73584 326.541992 247.498535 326.541992 247.498535 319.879395 C 247.498535 313.212891 252.73584 313.212891 252.73584 306.541992"/>
    </g>
    <path id="Path-copy" fill="none" stroke="#5590cc" stroke-width="20.833334" d="M 184.583496 357.25 C 279.929199 357.25 357.5 279.679199 357.5 184.333496 C 357.5 88.987305 279.929199 11.416504 184.583496 11.416504 C 89.237305 11.416504 11.666504 88.987305 11.666504 184.333496 C 11.666504 279.679199 89.237305 357.25 184.583496 357.25 Z"/>
</svg>
