<?xml version="1.0" encoding="UTF-8"?>
<!-- Generated by Pixelmator Pro 3.5.7 -->
<svg viewBox="0 0 1565 1468" xmlns="http://www.w3.org/2000/svg" xmlns:xlink="http://www.w3.org/1999/xlink">
    <path id="Path-copy" fill="#44bf00" stroke="none" d="M 1554.807495 818.453125 L 1554.407471 817.84082 C 1542.365845 799.453125 1541.253296 776.194336 1551.011719 756.874023 L 1554.39917 751.69043 C 1563.190796 738.244141 1566.074219 722.381836 1563.378296 707.419922 C 1561.386719 695.694336 1555.990845 684.494141 1547.299194 675.415039 L 1547.265869 675.381836 C 1540.078369 667.87793 1535.107544 658.848633 1532.482544 649.227539 C 1529.199219 636.585938 1529.978394 622.957031 1535.20752 610.398438 L 1535.21167 610.381836 C 1541.411621 595.490234 1541.299194 579.290039 1535.828369 565.032227 C 1531.71167 553.927734 1524.365845 543.960938 1514.203369 536.665039 L 1514.157471 536.631836 C 1504.511719 529.707031 1497.33667 520.298828 1493.103394 509.723633 C 1488.915894 498.898438 1487.803345 486.886719 1490.307495 475.052734 L 1490.315796 475.006836 C 1492.928345 462.640625 1491.574219 450.207031 1487.02417 439.148438 C 1481.415771 425.069336 1470.624146 413.157227 1456.115845 406.386719 L 1456.09082 406.374023 C 1442.565796 400.056641 1432.140869 389.173828 1426.249146 376.085938 C 1422.77417 368.107422 1420.974121 359.332031 1421.182495 350.282227 L 1421.182495 350.227539 C 1421.436646 339.381836 1418.799194 329.02832 1413.936646 319.96582 C 1406.111694 305.015625 1392.21582 293.515625 1374.986694 289.094727 L 1374.982544 289.094727 C 1361.882568 285.732422 1350.59082 278.223633 1342.478394 268.09082 C 1337.661621 261.919922 1334.045044 254.794922 1331.874146 247.069336 L 1330.857544 240.75293 C 1328.549194 226.365234 1321.282471 213.794922 1310.949219 204.669922 C 1300.994995 195.511719 1288.02002 189.636719 1273.753296 188.665039 L 1273.682495 188.661133 C 1263.136719 187.94043 1253.21582 184.52832 1244.694946 179.023438 C 1234.240845 171.898438 1226.011597 161.582031 1221.570068 149.169922 L 1221.561646 149.15332 C 1216.619995 135.352539 1207.08667 124.286133 1195.157471 117.223633 C 1183.719971 110.107422 1169.940796 106.756836 1155.790894 108.411133 L 1155.744995 108.419922 C 1144.003296 109.790039 1132.415771 107.694336 1122.194946 102.782227 C 1112.02002 97.585938 1103.290894 89.552734 1097.27002 79.282227 L 1097.244995 79.240234 C 1090.84082 68.306641 1081.440796 60.011719 1070.594971 54.898438 C 1068.969971 54.111328 1067.307495 53.407227 1065.624146 52.765625 C 1053.011719 47.811523 1038.77002 47.02832 1025.094971 51.298828 L 1025.078369 51.306641 C 1013.724121 54.848633 1001.869995 54.919922 990.857422 51.923828 C 988.295044 51.194336 985.790894 50.282227 983.344971 49.223633 C 975.378296 45.661133 968.119995 40.369141 962.170044 33.519531 L 962.136719 33.477539 C 955.007568 25.269531 946.069946 19.381836 936.349243 15.953125 C 932.953369 14.71582 929.453247 13.802734 925.90332 13.181641 C 924.953369 13.006836 923.994995 12.90332 923.040894 12.773438 C 922.549194 12.710938 922.061646 12.611328 921.569946 12.561523 C 909.661621 11.223633 897.315796 13.348633 886.132568 19.282227 L 886.119995 19.286133 C 875.599243 24.874023 863.944946 27.119141 852.557495 26.194336 C 851.244995 26.073242 849.932495 25.90332 848.628296 25.694336 C 838.71167 23.990234 829.170044 19.844727 820.96582 13.319336 L 820.932495 13.294922 C 811.040894 5.431641 799.319946 1.085938 787.390869 0.210938 C 783.994995 -0.072266 780.58252 -0.072266 777.186646 0.210938 C 765.261658 1.085938 753.540833 5.431641 743.64917 13.294922 L 743.619995 13.319336 C 735.407471 19.844727 725.861633 23.994141 715.936707 25.699219 C 714.644958 25.90332 713.344971 26.073242 712.036682 26.194336 C 700.64502 27.124023 688.986694 24.874023 678.46167 19.286133 L 678.453369 19.282227 C 667.27417 13.352539 654.932495 11.223633 643.02832 12.561523 C 641.665833 12.699219 640.311646 12.911133 638.96167 13.140625 C 638.878357 13.157227 638.790833 13.161133 638.70752 13.177734 C 635.124146 13.798828 631.599121 14.719727 628.178284 15.973633 C 618.478333 19.40332 609.561707 25.286133 602.449219 33.477539 L 602.411682 33.519531 C 596.474182 40.352539 589.236694 45.631836 581.294983 49.194336 C 578.811646 50.273438 576.274109 51.198242 573.674194 51.936523 C 562.678345 54.915039 550.84082 54.844727 539.503296 51.306641 L 539.486633 51.298828 C 525.83667 47.036133 511.611633 47.806641 499.015808 52.740234 C 497.282471 53.398438 495.574158 54.124023 493.907532 54.936523 C 483.095032 60.052734 473.728271 68.335938 467.336609 79.240234 L 467.311707 79.282227 C 461.295044 89.552734 452.561646 97.585938 442.386719 102.782227 C 432.165894 107.694336 420.58252 109.790039 408.840759 108.419922 L 408.790833 108.411133 C 394.64502 106.756836 380.861633 110.107422 369.424133 117.223633 C 357.494934 124.286133 347.96167 135.352539 343.019958 149.15332 L 343.015869 149.169922 C 338.570007 161.582031 330.34082 171.898438 319.886597 179.023438 C 311.365845 184.52832 301.444946 187.94043 290.90332 188.661133 L 290.832458 188.665039 C 276.561707 189.636719 263.58667 195.511719 253.632446 204.669922 C 243.299194 213.794922 236.036652 226.365234 233.724182 240.75293 L 232.740875 246.865234 C 230.557465 254.740234 226.878326 261.999023 221.957489 268.260742 C 213.857483 278.306641 202.628296 285.75293 189.603394 289.094727 L 189.595001 289.094727 C 173.924225 293.115234 161.02417 303.00293 152.932434 316.00293 C 146.590881 325.953125 143.09079 337.773438 143.378296 350.232422 L 143.378296 350.286133 C 143.619995 360.673828 141.199188 370.694336 136.644958 379.569336 C 130.549194 391.098633 120.803284 400.624023 108.490845 406.374023 L 108.46579 406.386719 C 95.394989 412.490234 85.357513 422.769531 79.394989 435.040039 C 73.369934 447.074219 71.307465 461.085938 74.249115 475.006836 L 74.261688 475.061523 C 77.036621 488.199219 75.34494 501.548828 69.953369 513.25293 C 65.607544 522.390625 58.986633 530.486328 50.424164 536.631836 L 50.382446 536.665039 C 40.257477 543.936523 32.924103 553.848633 28.794952 564.90332 C 23.278381 579.19043 23.140808 595.444336 29.361694 610.381836 L 29.369965 610.40332 C 34.811615 623.477539 35.3992 637.699219 31.640839 650.769531 C 28.915863 659.811523 24.115845 668.27832 17.319946 675.381836 L 17.286652 675.415039 C 8.594971 684.490234 3.199219 695.69043 1.207443 707.415039 C -1.492477 722.37793 1.390808 738.244141 10.182526 751.686523 L 13.565796 756.861328 C 23.328369 776.186523 22.21994 799.449219 10.174133 817.84082 L 9.774109 818.453125 C -5.534149 841.986328 -2.617554 872.96582 16.811707 893.232422 C 33.661621 910.806641 38.536682 936.677734 29.232483 959.173828 L 29.124146 959.44043 C 18.307465 985.594727 26.90744 1015.756836 49.886658 1032.27832 L 49.932434 1032.31543 C 69.478302 1046.365234 78.924133 1070.598633 74.053284 1094.173828 L 73.853394 1095.15332 C 68.140869 1122.794922 82.194977 1150.732422 107.799103 1162.619629 L 107.815765 1162.62793 C 129.724213 1172.798828 143.524139 1194.981934 142.974182 1219.12793 L 142.96579 1219.515625 C 142.315887 1247.865234 161.261719 1272.927734 188.711639 1280.040527 L 195.40744 1281.773926 C 199.353363 1282.794434 203.34494 1283.394531 207.332458 1283.615234 L 207.332458 1283.615234 C 209.674164 1283.744629 212.015869 1283.75293 214.345001 1283.615234 L 214.757507 1283.615234 C 275.778259 1283.615234 334.882446 1303.507324 384.432434 1339.119629 C 387.544983 1341.356934 390.686646 1343.561035 393.840881 1345.748535 C 394.570007 1346.256836 395.303284 1346.765625 396.036621 1347.269531 C 399.065857 1349.356934 402.111633 1351.419434 405.174194 1353.457031 C 405.874207 1353.923828 406.582458 1354.38623 407.282471 1354.848633 C 417.015808 1361.265625 426.915833 1367.44043 436.986633 1373.365234 C 437.782532 1373.832031 438.574158 1374.307129 439.370056 1374.773926 C 442.303284 1376.481934 445.257507 1378.161133 448.21582 1379.828125 C 449.465759 1380.532227 450.715881 1381.231934 451.969971 1381.927734 C 454.861694 1383.532227 457.757507 1385.119629 460.674133 1386.682129 C 461.861633 1387.319824 463.057556 1387.94043 464.249146 1388.569824 C 473.720032 1393.57373 483.324158 1398.356934 493.053345 1402.919434 C 494.703308 1403.694336 496.349182 1404.473633 498.007507 1405.236328 C 500.674133 1406.457031 503.349121 1407.661133 506.032532 1408.853027 C 507.890869 1409.677734 509.757507 1410.490234 511.624146 1411.298828 C 514.236694 1412.427734 516.853333 1413.561035 519.486633 1414.661133 C 521.503357 1415.50293 523.532532 1416.31543 525.557495 1417.140625 C 529.832458 1418.87793 534.128357 1420.578125 538.445007 1422.228027 C 540.845032 1423.148926 543.240845 1424.078125 545.65332 1424.969727 C 548.040833 1425.853027 550.440796 1426.703125 552.84082 1427.561035 C 555.199158 1428.402832 557.561646 1429.240234 559.936707 1430.057129 C 562.299194 1430.873535 564.670044 1431.677734 567.044983 1432.465332 C 569.578308 1433.307129 572.119995 1434.12793 574.665833 1434.94043 C 576.890869 1435.648926 579.111633 1436.369629 581.345032 1437.057129 C 585.161682 1438.231934 588.990784 1439.365234 592.83252 1440.473633 C 595.178284 1441.152832 597.528381 1441.802734 599.882446 1442.457031 C 603.119995 1443.353027 606.361694 1444.240234 609.619995 1445.090332 C 611.699219 1445.63623 613.790833 1446.152832 615.878296 1446.677734 C 618.824158 1447.415527 621.77417 1448.140625 624.736694 1448.840332 C 626.807495 1449.328125 628.882507 1449.81543 630.961609 1450.286133 C 634.240784 1451.032227 637.532532 1451.740234 640.828369 1452.436035 C 642.545044 1452.798828 644.257507 1453.177734 645.978333 1453.527832 C 650.853333 1454.515625 655.740845 1455.453125 660.65332 1456.340332 C 662.14502 1456.606934 663.64917 1456.848633 665.14917 1457.106934 C 668.77832 1457.736328 672.420044 1458.344727 676.070007 1458.915527 C 677.96582 1459.211426 679.865845 1459.494629 681.769958 1459.773926 C 685.165833 1460.277832 688.570007 1460.75293 691.982483 1461.203125 C 693.820007 1461.444336 695.65332 1461.694824 697.494995 1461.919434 C 701.611694 1462.432129 705.744995 1462.902832 709.890808 1463.340332 C 710.953369 1463.453125 712.011658 1463.582031 713.078308 1463.69043 C 718.244995 1464.211426 723.432495 1464.665527 728.632507 1465.069824 C 730.144958 1465.19043 731.665833 1465.282227 733.178345 1465.390625 C 736.982483 1465.661133 740.794983 1465.907227 744.619995 1466.115234 C 746.436646 1466.215332 748.261658 1466.302734 750.082458 1466.38623 C 753.811646 1466.561035 757.549194 1466.69873 761.295044 1466.811035 C 762.953369 1466.861328 764.607544 1466.923828 766.265808 1466.961426 C 771.595032 1467.086426 776.932495 1467.165527 782.290771 1467.165527 C 787.64917 1467.165527 792.990845 1467.086426 798.319946 1466.961426 C 799.978394 1466.923828 801.632568 1466.861328 803.286621 1466.811035 C 807.032471 1466.69873 810.77002 1466.561035 814.499146 1466.38623 C 816.324219 1466.302734 818.14502 1466.215332 819.96167 1466.115234 C 823.786621 1465.907227 827.599121 1465.661133 831.407471 1465.390625 C 832.919922 1465.282227 834.436646 1465.19043 835.949219 1465.069824 C 841.14917 1464.665527 846.33667 1464.211426 851.503296 1463.69043 C 852.569946 1463.582031 853.628296 1463.453125 854.695068 1463.340332 C 858.83667 1462.902832 862.969971 1462.432129 867.08667 1461.923828 C 868.928345 1461.694824 870.765869 1461.444336 872.603271 1461.203125 C 876.015869 1460.75293 879.415894 1460.277832 882.811646 1459.773926 C 884.71167 1459.494629 886.615845 1459.211426 888.511719 1458.915527 C 892.161621 1458.344727 895.799194 1457.736328 899.432495 1457.106934 C 900.928345 1456.848633 902.436646 1456.606934 903.932495 1456.340332 C 908.84082 1455.453125 913.732544 1454.515625 918.603394 1453.527832 C 920.324219 1453.177734 922.036621 1452.798828 923.753296 1452.436035 C 927.053345 1451.740234 930.34082 1451.032227 933.619995 1450.286133 C 935.699219 1449.81543 937.77417 1449.328125 939.849121 1448.836426 C 942.807495 1448.140625 945.757568 1447.419434 948.699097 1446.677734 C 950.790771 1446.152832 952.882446 1445.63623 954.969971 1445.090332 C 958.219971 1444.240234 961.453369 1443.356934 964.682495 1442.461426 C 967.053345 1441.802734 969.424194 1441.144531 971.786621 1440.465332 C 975.615845 1439.361328 979.432495 1438.231934 983.232544 1437.061035 C 985.469971 1436.369629 987.695068 1435.648926 989.924194 1434.94043 C 992.46582 1434.12793 995.003296 1433.307129 997.532471 1432.469727 C 999.915894 1431.677734 1002.290771 1430.869629 1004.661621 1430.052734 C 1007.02417 1429.240234 1009.374146 1428.407227 1011.724121 1427.56543 C 1014.128296 1426.707031 1016.536621 1425.853027 1018.928345 1424.969727 C 1021.324219 1424.082031 1023.703369 1423.161133 1026.08667 1422.248535 C 1030.432495 1420.586426 1034.753296 1418.87793 1039.053345 1417.12793 C 1041.070068 1416.311035 1043.08667 1415.498535 1045.094971 1414.661133 C 1047.736694 1413.557129 1050.361694 1412.423828 1052.982544 1411.286133 C 1054.83667 1410.486328 1056.686646 1409.677734 1058.52832 1408.861328 C 1061.219971 1407.665527 1063.907471 1406.461426 1066.58252 1405.231934 C 1068.232544 1404.473633 1069.874146 1403.69873 1071.515869 1402.927734 C 1081.261719 1398.356934 1090.874146 1393.56543 1100.361694 1388.557129 C 1101.540894 1387.932129 1102.728271 1387.31543 1103.90332 1386.686523 C 1106.824219 1385.124023 1109.728271 1383.527832 1112.619995 1381.923828 C 1113.869995 1381.231934 1115.115845 1380.536133 1116.357544 1379.836426 C 1119.324219 1378.165527 1122.27832 1376.481934 1125.219971 1374.769531 C 1126.007446 1374.311035 1126.790894 1373.840332 1127.578369 1373.373535 C 1137.657471 1367.444336 1147.574219 1361.26123 1157.315796 1354.836426 C 1158.011597 1354.37793 1158.70752 1353.923828 1159.39917 1353.465332 C 1162.469971 1351.423828 1165.52002 1349.353027 1168.557495 1347.265625 C 1169.282471 1346.765625 1170.007568 1346.26123 1170.732544 1345.757324 C 1173.886719 1343.56543 1177.036621 1341.361328 1180.15332 1339.115234 C 1229.703369 1303.507324 1288.803345 1283.615234 1349.824219 1283.615234 L 1350.240845 1283.615234 C 1352.565796 1283.75293 1354.907471 1283.744629 1357.249146 1283.615234 L 1358.828369 1283.615234 L 1358.828369 1283.498535 C 1362.290894 1283.215332 1365.753296 1282.661133 1369.174194 1281.773926 L 1375.869995 1280.040527 C 1403.319946 1272.927734 1422.265869 1247.865234 1421.619995 1219.515625 L 1421.607544 1219.12793 C 1421.057495 1194.981934 1434.861694 1172.798828 1456.765869 1162.62793 L 1456.786621 1162.619629 C 1482.52002 1150.669922 1496.574219 1122.515625 1490.65332 1094.769531 L 1490.607544 1094.556641 C 1485.557495 1070.874023 1494.990845 1046.449219 1514.64917 1032.31543 L 1514.699219 1032.27832 C 1537.678345 1015.756836 1546.27417 985.594727 1535.45752 959.44043 L 1535.349121 959.173828 C 1526.049194 936.677734 1530.920044 910.806641 1547.77002 893.232422 C 1567.203369 872.96582 1570.115845 841.986328 1554.807495 818.453125"/>
    <mask id="mask1" maskUnits="userSpaceOnUse" maskContentUnits="userSpaceOnUse" mask-type="alpha">
        <path id="path1" fill="#44bf00" stroke="none" d="M 1554.807495 818.453125 L 1554.407471 817.84082 C 1542.365845 799.453125 1541.253296 776.194336 1551.011719 756.874023 L 1554.39917 751.69043 C 1563.190796 738.244141 1566.074219 722.381836 1563.378296 707.419922 C 1561.386719 695.694336 1555.990845 684.494141 1547.299194 675.415039 L 1547.265869 675.381836 C 1540.078369 667.87793 1535.107544 658.848633 1532.482544 649.227539 C 1529.199219 636.585938 1529.978394 622.957031 1535.20752 610.398438 L 1535.21167 610.381836 C 1541.411621 595.490234 1541.299194 579.290039 1535.828369 565.032227 C 1531.71167 553.927734 1524.365845 543.960938 1514.203369 536.665039 L 1514.157471 536.631836 C 1504.511719 529.707031 1497.33667 520.298828 1493.103394 509.723633 C 1488.915894 498.898438 1487.803345 486.886719 1490.307495 475.052734 L 1490.315796 475.006836 C 1492.928345 462.640625 1491.574219 450.207031 1487.02417 439.148438 C 1481.415771 425.069336 1470.624146 413.157227 1456.115845 406.386719 L 1456.09082 406.374023 C 1442.565796 400.056641 1432.140869 389.173828 1426.249146 376.085938 C 1422.77417 368.107422 1420.974121 359.332031 1421.182495 350.282227 L 1421.182495 350.227539 C 1421.436646 339.381836 1418.799194 329.02832 1413.936646 319.96582 C 1406.111694 305.015625 1392.21582 293.515625 1374.986694 289.094727 L 1374.982544 289.094727 C 1361.882568 285.732422 1350.59082 278.223633 1342.478394 268.09082 C 1337.661621 261.919922 1334.045044 254.794922 1331.874146 247.069336 L 1330.857544 240.75293 C 1328.549194 226.365234 1321.282471 213.794922 1310.949219 204.669922 C 1300.994995 195.511719 1288.02002 189.636719 1273.753296 188.665039 L 1273.682495 188.661133 C 1263.136719 187.94043 1253.21582 184.52832 1244.694946 179.023438 C 1234.240845 171.898438 1226.011597 161.582031 1221.570068 149.169922 L 1221.561646 149.15332 C 1216.619995 135.352539 1207.08667 124.286133 1195.157471 117.223633 C 1183.719971 110.107422 1169.940796 106.756836 1155.790894 108.411133 L 1155.744995 108.419922 C 1144.003296 109.790039 1132.415771 107.694336 1122.194946 102.782227 C 1112.02002 97.585938 1103.290894 89.552734 1097.27002 79.282227 L 1097.244995 79.240234 C 1090.84082 68.306641 1081.440796 60.011719 1070.594971 54.898438 C 1068.969971 54.111328 1067.307495 53.407227 1065.624146 52.765625 C 1053.011719 47.811523 1038.77002 47.02832 1025.094971 51.298828 L 1025.078369 51.306641 C 1013.724121 54.848633 1001.869995 54.919922 990.857422 51.923828 C 988.295044 51.194336 985.790894 50.282227 983.344971 49.223633 C 975.378296 45.661133 968.119995 40.369141 962.170044 33.519531 L 962.136719 33.477539 C 955.007568 25.269531 946.069946 19.381836 936.349243 15.953125 C 932.953369 14.71582 929.453247 13.802734 925.90332 13.181641 C 924.953369 13.006836 923.994995 12.90332 923.040894 12.773438 C 922.549194 12.710938 922.061646 12.611328 921.569946 12.561523 C 909.661621 11.223633 897.315796 13.348633 886.132568 19.282227 L 886.119995 19.286133 C 875.599243 24.874023 863.944946 27.119141 852.557495 26.194336 C 851.244995 26.073242 849.932495 25.90332 848.628296 25.694336 C 838.71167 23.990234 829.170044 19.844727 820.96582 13.319336 L 820.932495 13.294922 C 811.040894 5.431641 799.319946 1.085938 787.390869 0.210938 C 783.994995 -0.072266 780.58252 -0.072266 777.186646 0.210938 C 765.261658 1.085938 753.540833 5.431641 743.64917 13.294922 L 743.619995 13.319336 C 735.407471 19.844727 725.861633 23.994141 715.936707 25.699219 C 714.644958 25.90332 713.344971 26.073242 712.036682 26.194336 C 700.64502 27.124023 688.986694 24.874023 678.46167 19.286133 L 678.453369 19.282227 C 667.27417 13.352539 654.932495 11.223633 643.02832 12.561523 C 641.665833 12.699219 640.311646 12.911133 638.96167 13.140625 C 638.878357 13.157227 638.790833 13.161133 638.70752 13.177734 C 635.124146 13.798828 631.599121 14.719727 628.178284 15.973633 C 618.478333 19.40332 609.561707 25.286133 602.449219 33.477539 L 602.411682 33.519531 C 596.474182 40.352539 589.236694 45.631836 581.294983 49.194336 C 578.811646 50.273438 576.274109 51.198242 573.674194 51.936523 C 562.678345 54.915039 550.84082 54.844727 539.503296 51.306641 L 539.486633 51.298828 C 525.83667 47.036133 511.611633 47.806641 499.015808 52.740234 C 497.282471 53.398438 495.574158 54.124023 493.907532 54.936523 C 483.095032 60.052734 473.728271 68.335938 467.336609 79.240234 L 467.311707 79.282227 C 461.295044 89.552734 452.561646 97.585938 442.386719 102.782227 C 432.165894 107.694336 420.58252 109.790039 408.840759 108.419922 L 408.790833 108.411133 C 394.64502 106.756836 380.861633 110.107422 369.424133 117.223633 C 357.494934 124.286133 347.96167 135.352539 343.019958 149.15332 L 343.015869 149.169922 C 338.570007 161.582031 330.34082 171.898438 319.886597 179.023438 C 311.365845 184.52832 301.444946 187.94043 290.90332 188.661133 L 290.832458 188.665039 C 276.561707 189.636719 263.58667 195.511719 253.632446 204.669922 C 243.299194 213.794922 236.036652 226.365234 233.724182 240.75293 L 232.740875 246.865234 C 230.557465 254.740234 226.878326 261.999023 221.957489 268.260742 C 213.857483 278.306641 202.628296 285.75293 189.603394 289.094727 L 189.595001 289.094727 C 173.924225 293.115234 161.02417 303.00293 152.932434 316.00293 C 146.590881 325.953125 143.09079 337.773438 143.378296 350.232422 L 143.378296 350.286133 C 143.619995 360.673828 141.199188 370.694336 136.644958 379.569336 C 130.549194 391.098633 120.803284 400.624023 108.490845 406.374023 L 108.46579 406.386719 C 95.394989 412.490234 85.357513 422.769531 79.394989 435.040039 C 73.369934 447.074219 71.307465 461.085938 74.249115 475.006836 L 74.261688 475.061523 C 77.036621 488.199219 75.34494 501.548828 69.953369 513.25293 C 65.607544 522.390625 58.986633 530.486328 50.424164 536.631836 L 50.382446 536.665039 C 40.257477 543.936523 32.924103 553.848633 28.794952 564.90332 C 23.278381 579.19043 23.140808 595.444336 29.361694 610.381836 L 29.369965 610.40332 C 34.811615 623.477539 35.3992 637.699219 31.640839 650.769531 C 28.915863 659.811523 24.115845 668.27832 17.319946 675.381836 L 17.286652 675.415039 C 8.594971 684.490234 3.199219 695.69043 1.207443 707.415039 C -1.492477 722.37793 1.390808 738.244141 10.182526 751.686523 L 13.565796 756.861328 C 23.328369 776.186523 22.21994 799.449219 10.174133 817.84082 L 9.774109 818.453125 C -5.534149 841.986328 -2.617554 872.96582 16.811707 893.232422 C 33.661621 910.806641 38.536682 936.677734 29.232483 959.173828 L 29.124146 959.44043 C 18.307465 985.594727 26.90744 1015.756836 49.886658 1032.27832 L 49.932434 1032.31543 C 69.478302 1046.365234 78.924133 1070.598633 74.053284 1094.173828 L 73.853394 1095.15332 C 68.140869 1122.794922 82.194977 1150.732422 107.799103 1162.619629 L 107.815765 1162.62793 C 129.724213 1172.798828 143.524139 1194.981934 142.974182 1219.12793 L 142.96579 1219.515625 C 142.315887 1247.865234 161.261719 1272.927734 188.711639 1280.040527 L 195.40744 1281.773926 C 199.353363 1282.794434 203.34494 1283.394531 207.332458 1283.615234 L 207.332458 1283.615234 C 209.674164 1283.744629 212.015869 1283.75293 214.345001 1283.615234 L 214.757507 1283.615234 C 275.778259 1283.615234 334.882446 1303.507324 384.432434 1339.119629 C 387.544983 1341.356934 390.686646 1343.561035 393.840881 1345.748535 C 394.570007 1346.256836 395.303284 1346.765625 396.036621 1347.269531 C 399.065857 1349.356934 402.111633 1351.419434 405.174194 1353.457031 C 405.874207 1353.923828 406.582458 1354.38623 407.282471 1354.848633 C 417.015808 1361.265625 426.915833 1367.44043 436.986633 1373.365234 C 437.782532 1373.832031 438.574158 1374.307129 439.370056 1374.773926 C 442.303284 1376.481934 445.257507 1378.161133 448.21582 1379.828125 C 449.465759 1380.532227 450.715881 1381.231934 451.969971 1381.927734 C 454.861694 1383.532227 457.757507 1385.119629 460.674133 1386.682129 C 461.861633 1387.319824 463.057556 1387.94043 464.249146 1388.569824 C 473.720032 1393.57373 483.324158 1398.356934 493.053345 1402.919434 C 494.703308 1403.694336 496.349182 1404.473633 498.007507 1405.236328 C 500.674133 1406.457031 503.349121 1407.661133 506.032532 1408.853027 C 507.890869 1409.677734 509.757507 1410.490234 511.624146 1411.298828 C 514.236694 1412.427734 516.853333 1413.561035 519.486633 1414.661133 C 521.503357 1415.50293 523.532532 1416.31543 525.557495 1417.140625 C 529.832458 1418.87793 534.128357 1420.578125 538.445007 1422.228027 C 540.845032 1423.148926 543.240845 1424.078125 545.65332 1424.969727 C 548.040833 1425.853027 550.440796 1426.703125 552.84082 1427.561035 C 555.199158 1428.402832 557.561646 1429.240234 559.936707 1430.057129 C 562.299194 1430.873535 564.670044 1431.677734 567.044983 1432.465332 C 569.578308 1433.307129 572.119995 1434.12793 574.665833 1434.94043 C 576.890869 1435.648926 579.111633 1436.369629 581.345032 1437.057129 C 585.161682 1438.231934 588.990784 1439.365234 592.83252 1440.473633 C 595.178284 1441.152832 597.528381 1441.802734 599.882446 1442.457031 C 603.119995 1443.353027 606.361694 1444.240234 609.619995 1445.090332 C 611.699219 1445.63623 613.790833 1446.152832 615.878296 1446.677734 C 618.824158 1447.415527 621.77417 1448.140625 624.736694 1448.840332 C 626.807495 1449.328125 628.882507 1449.81543 630.961609 1450.286133 C 634.240784 1451.032227 637.532532 1451.740234 640.828369 1452.436035 C 642.545044 1452.798828 644.257507 1453.177734 645.978333 1453.527832 C 650.853333 1454.515625 655.740845 1455.453125 660.65332 1456.340332 C 662.14502 1456.606934 663.64917 1456.848633 665.14917 1457.106934 C 668.77832 1457.736328 672.420044 1458.344727 676.070007 1458.915527 C 677.96582 1459.211426 679.865845 1459.494629 681.769958 1459.773926 C 685.165833 1460.277832 688.570007 1460.75293 691.982483 1461.203125 C 693.820007 1461.444336 695.65332 1461.694824 697.494995 1461.919434 C 701.611694 1462.432129 705.744995 1462.902832 709.890808 1463.340332 C 710.953369 1463.453125 712.011658 1463.582031 713.078308 1463.69043 C 718.244995 1464.211426 723.432495 1464.665527 728.632507 1465.069824 C 730.144958 1465.19043 731.665833 1465.282227 733.178345 1465.390625 C 736.982483 1465.661133 740.794983 1465.907227 744.619995 1466.115234 C 746.436646 1466.215332 748.261658 1466.302734 750.082458 1466.38623 C 753.811646 1466.561035 757.549194 1466.69873 761.295044 1466.811035 C 762.953369 1466.861328 764.607544 1466.923828 766.265808 1466.961426 C 771.595032 1467.086426 776.932495 1467.165527 782.290771 1467.165527 C 787.64917 1467.165527 792.990845 1467.086426 798.319946 1466.961426 C 799.978394 1466.923828 801.632568 1466.861328 803.286621 1466.811035 C 807.032471 1466.69873 810.77002 1466.561035 814.499146 1466.38623 C 816.324219 1466.302734 818.14502 1466.215332 819.96167 1466.115234 C 823.786621 1465.907227 827.599121 1465.661133 831.407471 1465.390625 C 832.919922 1465.282227 834.436646 1465.19043 835.949219 1465.069824 C 841.14917 1464.665527 846.33667 1464.211426 851.503296 1463.69043 C 852.569946 1463.582031 853.628296 1463.453125 854.695068 1463.340332 C 858.83667 1462.902832 862.969971 1462.432129 867.08667 1461.923828 C 868.928345 1461.694824 870.765869 1461.444336 872.603271 1461.203125 C 876.015869 1460.75293 879.415894 1460.277832 882.811646 1459.773926 C 884.71167 1459.494629 886.615845 1459.211426 888.511719 1458.915527 C 892.161621 1458.344727 895.799194 1457.736328 899.432495 1457.106934 C 900.928345 1456.848633 902.436646 1456.606934 903.932495 1456.340332 C 908.84082 1455.453125 913.732544 1454.515625 918.603394 1453.527832 C 920.324219 1453.177734 922.036621 1452.798828 923.753296 1452.436035 C 927.053345 1451.740234 930.34082 1451.032227 933.619995 1450.286133 C 935.699219 1449.81543 937.77417 1449.328125 939.849121 1448.836426 C 942.807495 1448.140625 945.757568 1447.419434 948.699097 1446.677734 C 950.790771 1446.152832 952.882446 1445.63623 954.969971 1445.090332 C 958.219971 1444.240234 961.453369 1443.356934 964.682495 1442.461426 C 967.053345 1441.802734 969.424194 1441.144531 971.786621 1440.465332 C 975.615845 1439.361328 979.432495 1438.231934 983.232544 1437.061035 C 985.469971 1436.369629 987.695068 1435.648926 989.924194 1434.94043 C 992.46582 1434.12793 995.003296 1433.307129 997.532471 1432.469727 C 999.915894 1431.677734 1002.290771 1430.869629 1004.661621 1430.052734 C 1007.02417 1429.240234 1009.374146 1428.407227 1011.724121 1427.56543 C 1014.128296 1426.707031 1016.536621 1425.853027 1018.928345 1424.969727 C 1021.324219 1424.082031 1023.703369 1423.161133 1026.08667 1422.248535 C 1030.432495 1420.586426 1034.753296 1418.87793 1039.053345 1417.12793 C 1041.070068 1416.311035 1043.08667 1415.498535 1045.094971 1414.661133 C 1047.736694 1413.557129 1050.361694 1412.423828 1052.982544 1411.286133 C 1054.83667 1410.486328 1056.686646 1409.677734 1058.52832 1408.861328 C 1061.219971 1407.665527 1063.907471 1406.461426 1066.58252 1405.231934 C 1068.232544 1404.473633 1069.874146 1403.69873 1071.515869 1402.927734 C 1081.261719 1398.356934 1090.874146 1393.56543 1100.361694 1388.557129 C 1101.540894 1387.932129 1102.728271 1387.31543 1103.90332 1386.686523 C 1106.824219 1385.124023 1109.728271 1383.527832 1112.619995 1381.923828 C 1113.869995 1381.231934 1115.115845 1380.536133 1116.357544 1379.836426 C 1119.324219 1378.165527 1122.27832 1376.481934 1125.219971 1374.769531 C 1126.007446 1374.311035 1126.790894 1373.840332 1127.578369 1373.373535 C 1137.657471 1367.444336 1147.574219 1361.26123 1157.315796 1354.836426 C 1158.011597 1354.37793 1158.70752 1353.923828 1159.39917 1353.465332 C 1162.469971 1351.423828 1165.52002 1349.353027 1168.557495 1347.265625 C 1169.282471 1346.765625 1170.007568 1346.26123 1170.732544 1345.757324 C 1173.886719 1343.56543 1177.036621 1341.361328 1180.15332 1339.115234 C 1229.703369 1303.507324 1288.803345 1283.615234 1349.824219 1283.615234 L 1350.240845 1283.615234 C 1352.565796 1283.75293 1354.907471 1283.744629 1357.249146 1283.615234 L 1358.828369 1283.615234 L 1358.828369 1283.498535 C 1362.290894 1283.215332 1365.753296 1282.661133 1369.174194 1281.773926 L 1375.869995 1280.040527 C 1403.319946 1272.927734 1422.265869 1247.865234 1421.619995 1219.515625 L 1421.607544 1219.12793 C 1421.057495 1194.981934 1434.861694 1172.798828 1456.765869 1162.62793 L 1456.786621 1162.619629 C 1482.52002 1150.669922 1496.574219 1122.515625 1490.65332 1094.769531 L 1490.607544 1094.556641 C 1485.557495 1070.874023 1494.990845 1046.449219 1514.64917 1032.31543 L 1514.699219 1032.27832 C 1537.678345 1015.756836 1546.27417 985.594727 1535.45752 959.44043 L 1535.349121 959.173828 C 1526.049194 936.677734 1530.920044 910.806641 1547.77002 893.232422 C 1567.203369 872.96582 1570.115845 841.986328 1554.807495 818.453125"/>
    </mask>
    <g id="Group" mask="url(#mask1)">
        <g id="g1">
            <path id="Path" fill="#44bf00" stroke="none" d="M 1554.807495 818.453125 L 1554.407471 817.84082 C 1542.365845 799.453125 1541.253296 776.194336 1551.011719 756.874023 L 1554.39917 751.69043 C 1563.190796 738.244141 1566.074219 722.381836 1563.378296 707.419922 C 1561.386719 695.694336 1555.990845 684.494141 1547.299194 675.415039 L 1547.265869 675.381836 C 1540.078369 667.87793 1535.107544 658.848633 1532.482544 649.227539 C 1529.199219 636.585938 1529.978394 622.957031 1535.20752 610.398438 L 1535.21167 610.381836 C 1541.411621 595.490234 1541.299194 579.290039 1535.828369 565.032227 C 1531.71167 553.927734 1524.365845 543.960938 1514.203369 536.665039 L 1514.157471 536.631836 C 1504.511719 529.707031 1497.33667 520.298828 1493.103394 509.723633 C 1488.915894 498.898438 1487.803345 486.886719 1490.307495 475.052734 L 1490.315796 475.006836 C 1492.928345 462.640625 1491.574219 450.207031 1487.02417 439.148438 C 1481.415771 425.069336 1470.624146 413.157227 1456.115845 406.386719 L 1456.09082 406.374023 C 1442.565796 400.056641 1432.140869 389.173828 1426.249146 376.085938 C 1422.77417 368.107422 1420.974121 359.332031 1421.182495 350.282227 L 1421.182495 350.227539 C 1421.436646 339.381836 1418.799194 329.02832 1413.936646 319.96582 C 1406.111694 305.015625 1392.21582 293.515625 1374.986694 289.094727 L 1374.982544 289.094727 C 1361.882568 285.732422 1350.59082 278.223633 1342.478394 268.09082 C 1337.661621 261.919922 1334.045044 254.794922 1331.874146 247.069336 L 1330.857544 240.75293 C 1328.549194 226.365234 1321.282471 213.794922 1310.949219 204.669922 C 1300.994995 195.511719 1288.02002 189.636719 1273.753296 188.665039 L 1273.682495 188.661133 C 1263.136719 187.94043 1253.21582 184.52832 1244.694946 179.023438 C 1234.240845 171.898438 1226.011597 161.582031 1221.570068 149.169922 L 1221.561646 149.15332 C 1216.619995 135.352539 1207.08667 124.286133 1195.157471 117.223633 C 1183.719971 110.107422 1169.940796 106.756836 1155.790894 108.411133 L 1155.744995 108.419922 C 1144.003296 109.790039 1132.415771 107.694336 1122.194946 102.782227 C 1112.02002 97.585938 1103.290894 89.552734 1097.27002 79.282227 L 1097.244995 79.240234 C 1090.84082 68.306641 1081.440796 60.011719 1070.594971 54.898438 C 1068.969971 54.111328 1067.307495 53.407227 1065.624146 52.765625 C 1053.011719 47.811523 1038.77002 47.02832 1025.094971 51.298828 L 1025.078369 51.306641 C 1013.724121 54.848633 1001.869995 54.919922 990.857422 51.923828 C 988.295044 51.194336 985.790894 50.282227 983.344971 49.223633 C 975.378296 45.661133 968.119995 40.369141 962.170044 33.519531 L 962.136719 33.477539 C 955.007568 25.269531 946.069946 19.381836 936.349243 15.953125 C 932.953369 14.71582 929.453247 13.802734 925.90332 13.181641 C 924.953369 13.006836 923.994995 12.90332 923.040894 12.773438 C 922.549194 12.710938 922.061646 12.611328 921.569946 12.561523 C 909.661621 11.223633 897.315796 13.348633 886.132568 19.282227 L 886.119995 19.286133 C 875.599243 24.874023 863.944946 27.119141 852.557495 26.194336 C 851.244995 26.073242 849.932495 25.90332 848.628296 25.694336 C 838.71167 23.990234 829.170044 19.844727 820.96582 13.319336 L 820.932495 13.294922 C 811.040894 5.431641 799.319946 1.085938 787.390869 0.210938 C 783.994995 -0.072266 780.58252 -0.072266 777.186646 0.210938 C 765.261658 1.085938 753.540833 5.431641 743.64917 13.294922 L 743.619995 13.319336 C 735.407471 19.844727 725.861633 23.994141 715.936707 25.699219 C 714.644958 25.90332 713.344971 26.073242 712.036682 26.194336 C 700.64502 27.124023 688.986694 24.874023 678.46167 19.286133 L 678.453369 19.282227 C 667.27417 13.352539 654.932495 11.223633 643.02832 12.561523 C 641.665833 12.699219 640.311646 12.911133 638.96167 13.140625 C 638.878357 13.157227 638.790833 13.161133 638.70752 13.177734 C 635.124146 13.798828 631.599121 14.719727 628.178284 15.973633 C 618.478333 19.40332 609.561707 25.286133 602.449219 33.477539 L 602.411682 33.519531 C 596.474182 40.352539 589.236694 45.631836 581.294983 49.194336 C 578.811646 50.273438 576.274109 51.198242 573.674194 51.936523 C 562.678345 54.915039 550.84082 54.844727 539.503296 51.306641 L 539.486633 51.298828 C 525.83667 47.036133 511.611633 47.806641 499.015808 52.740234 C 497.282471 53.398438 495.574158 54.124023 493.907532 54.936523 C 483.095032 60.052734 473.728271 68.335938 467.336609 79.240234 L 467.311707 79.282227 C 461.295044 89.552734 452.561646 97.585938 442.386719 102.782227 C 432.165894 107.694336 420.58252 109.790039 408.840759 108.419922 L 408.790833 108.411133 C 394.64502 106.756836 380.861633 110.107422 369.424133 117.223633 C 357.494934 124.286133 347.96167 135.352539 343.019958 149.15332 L 343.015869 149.169922 C 338.570007 161.582031 330.34082 171.898438 319.886597 179.023438 C 311.365845 184.52832 301.444946 187.94043 290.90332 188.661133 L 290.832458 188.665039 C 276.561707 189.636719 263.58667 195.511719 253.632446 204.669922 C 243.299194 213.794922 236.036652 226.365234 233.724182 240.75293 L 232.740875 246.865234 C 230.557465 254.740234 226.878326 261.999023 221.957489 268.260742 C 213.857483 278.306641 202.628296 285.75293 189.603394 289.094727 L 189.595001 289.094727 C 173.924225 293.115234 161.02417 303.00293 152.932434 316.00293 C 146.590881 325.953125 143.09079 337.773438 143.378296 350.232422 L 143.378296 350.286133 C 143.619995 360.673828 141.199188 370.694336 136.644958 379.569336 C 130.549194 391.098633 120.803284 400.624023 108.490845 406.374023 L 108.46579 406.386719 C 95.394989 412.490234 85.357513 422.769531 79.394989 435.040039 C 73.369934 447.074219 71.307465 461.085938 74.249115 475.006836 L 74.261688 475.061523 C 77.036621 488.199219 75.34494 501.548828 69.953369 513.25293 C 65.607544 522.390625 58.986633 530.486328 50.424164 536.631836 L 50.382446 536.665039 C 40.257477 543.936523 32.924103 553.848633 28.794952 564.90332 C 23.278381 579.19043 23.140808 595.444336 29.361694 610.381836 L 29.369965 610.40332 C 34.811615 623.477539 35.3992 637.699219 31.640839 650.769531 C 28.915863 659.811523 24.115845 668.27832 17.319946 675.381836 L 17.286652 675.415039 C 8.594971 684.490234 3.199219 695.69043 1.207443 707.415039 C -1.492477 722.37793 1.390808 738.244141 10.182526 751.686523 L 13.565796 756.861328 C 23.328369 776.186523 22.21994 799.449219 10.174133 817.84082 L 9.774109 818.453125 C -5.534149 841.986328 -2.617554 872.96582 16.811707 893.232422 C 33.661621 910.806641 38.536682 936.677734 29.232483 959.173828 L 29.124146 959.44043 C 18.307465 985.594727 26.90744 1015.756836 49.886658 1032.27832 L 49.932434 1032.31543 C 69.478302 1046.365234 78.924133 1070.598633 74.053284 1094.173828 L 73.853394 1095.15332 C 68.140869 1122.794922 82.194977 1150.732422 107.799103 1162.619629 L 107.815765 1162.62793 C 129.724213 1172.798828 143.524139 1194.981934 142.974182 1219.12793 L 142.96579 1219.515625 C 142.315887 1247.865234 161.261719 1272.927734 188.711639 1280.040527 L 195.40744 1281.773926 C 199.353363 1282.794434 203.34494 1283.394531 207.332458 1283.615234 L 207.332458 1283.615234 C 209.674164 1283.744629 212.015869 1283.75293 214.345001 1283.615234 L 214.757507 1283.615234 C 275.778259 1283.615234 334.882446 1303.507324 384.432434 1339.119629 C 387.544983 1341.356934 390.686646 1343.561035 393.840881 1345.748535 C 394.570007 1346.256836 395.303284 1346.765625 396.036621 1347.269531 C 399.065857 1349.356934 402.111633 1351.419434 405.174194 1353.457031 C 405.874207 1353.923828 406.582458 1354.38623 407.282471 1354.848633 C 417.015808 1361.265625 426.915833 1367.44043 436.986633 1373.365234 C 437.782532 1373.832031 438.574158 1374.307129 439.370056 1374.773926 C 442.303284 1376.481934 445.257507 1378.161133 448.21582 1379.828125 C 449.465759 1380.532227 450.715881 1381.231934 451.969971 1381.927734 C 454.861694 1383.532227 457.757507 1385.119629 460.674133 1386.682129 C 461.861633 1387.319824 463.057556 1387.94043 464.249146 1388.569824 C 473.720032 1393.57373 483.324158 1398.356934 493.053345 1402.919434 C 494.703308 1403.694336 496.349182 1404.473633 498.007507 1405.236328 C 500.674133 1406.457031 503.349121 1407.661133 506.032532 1408.853027 C 507.890869 1409.677734 509.757507 1410.490234 511.624146 1411.298828 C 514.236694 1412.427734 516.853333 1413.561035 519.486633 1414.661133 C 521.503357 1415.50293 523.532532 1416.31543 525.557495 1417.140625 C 529.832458 1418.87793 534.128357 1420.578125 538.445007 1422.228027 C 540.845032 1423.148926 543.240845 1424.078125 545.65332 1424.969727 C 548.040833 1425.853027 550.440796 1426.703125 552.84082 1427.561035 C 555.199158 1428.402832 557.561646 1429.240234 559.936707 1430.057129 C 562.299194 1430.873535 564.670044 1431.677734 567.044983 1432.465332 C 569.578308 1433.307129 572.119995 1434.12793 574.665833 1434.94043 C 576.890869 1435.648926 579.111633 1436.369629 581.345032 1437.057129 C 585.161682 1438.231934 588.990784 1439.365234 592.83252 1440.473633 C 595.178284 1441.152832 597.528381 1441.802734 599.882446 1442.457031 C 603.119995 1443.353027 606.361694 1444.240234 609.619995 1445.090332 C 611.699219 1445.63623 613.790833 1446.152832 615.878296 1446.677734 C 618.824158 1447.415527 621.77417 1448.140625 624.736694 1448.840332 C 626.807495 1449.328125 628.882507 1449.81543 630.961609 1450.286133 C 634.240784 1451.032227 637.532532 1451.740234 640.828369 1452.436035 C 642.545044 1452.798828 644.257507 1453.177734 645.978333 1453.527832 C 650.853333 1454.515625 655.740845 1455.453125 660.65332 1456.340332 C 662.14502 1456.606934 663.64917 1456.848633 665.14917 1457.106934 C 668.77832 1457.736328 672.420044 1458.344727 676.070007 1458.915527 C 677.96582 1459.211426 679.865845 1459.494629 681.769958 1459.773926 C 685.165833 1460.277832 688.570007 1460.75293 691.982483 1461.203125 C 693.820007 1461.444336 695.65332 1461.694824 697.494995 1461.919434 C 701.611694 1462.432129 705.744995 1462.902832 709.890808 1463.340332 C 710.953369 1463.453125 712.011658 1463.582031 713.078308 1463.69043 C 718.244995 1464.211426 723.432495 1464.665527 728.632507 1465.069824 C 730.144958 1465.19043 731.665833 1465.282227 733.178345 1465.390625 C 736.982483 1465.661133 740.794983 1465.907227 744.619995 1466.115234 C 746.436646 1466.215332 748.261658 1466.302734 750.082458 1466.38623 C 753.811646 1466.561035 757.549194 1466.69873 761.295044 1466.811035 C 762.953369 1466.861328 764.607544 1466.923828 766.265808 1466.961426 C 771.595032 1467.086426 776.932495 1467.165527 782.290771 1467.165527 C 787.64917 1467.165527 792.990845 1467.086426 798.319946 1466.961426 C 799.978394 1466.923828 801.632568 1466.861328 803.286621 1466.811035 C 807.032471 1466.69873 810.77002 1466.561035 814.499146 1466.38623 C 816.324219 1466.302734 818.14502 1466.215332 819.96167 1466.115234 C 823.786621 1465.907227 827.599121 1465.661133 831.407471 1465.390625 C 832.919922 1465.282227 834.436646 1465.19043 835.949219 1465.069824 C 841.14917 1464.665527 846.33667 1464.211426 851.503296 1463.69043 C 852.569946 1463.582031 853.628296 1463.453125 854.695068 1463.340332 C 858.83667 1462.902832 862.969971 1462.432129 867.08667 1461.923828 C 868.928345 1461.694824 870.765869 1461.444336 872.603271 1461.203125 C 876.015869 1460.75293 879.415894 1460.277832 882.811646 1459.773926 C 884.71167 1459.494629 886.615845 1459.211426 888.511719 1458.915527 C 892.161621 1458.344727 895.799194 1457.736328 899.432495 1457.106934 C 900.928345 1456.848633 902.436646 1456.606934 903.932495 1456.340332 C 908.84082 1455.453125 913.732544 1454.515625 918.603394 1453.527832 C 920.324219 1453.177734 922.036621 1452.798828 923.753296 1452.436035 C 927.053345 1451.740234 930.34082 1451.032227 933.619995 1450.286133 C 935.699219 1449.81543 937.77417 1449.328125 939.849121 1448.836426 C 942.807495 1448.140625 945.757568 1447.419434 948.699097 1446.677734 C 950.790771 1446.152832 952.882446 1445.63623 954.969971 1445.090332 C 958.219971 1444.240234 961.453369 1443.356934 964.682495 1442.461426 C 967.053345 1441.802734 969.424194 1441.144531 971.786621 1440.465332 C 975.615845 1439.361328 979.432495 1438.231934 983.232544 1437.061035 C 985.469971 1436.369629 987.695068 1435.648926 989.924194 1434.94043 C 992.46582 1434.12793 995.003296 1433.307129 997.532471 1432.469727 C 999.915894 1431.677734 1002.290771 1430.869629 1004.661621 1430.052734 C 1007.02417 1429.240234 1009.374146 1428.407227 1011.724121 1427.56543 C 1014.128296 1426.707031 1016.536621 1425.853027 1018.928345 1424.969727 C 1021.324219 1424.082031 1023.703369 1423.161133 1026.08667 1422.248535 C 1030.432495 1420.586426 1034.753296 1418.87793 1039.053345 1417.12793 C 1041.070068 1416.311035 1043.08667 1415.498535 1045.094971 1414.661133 C 1047.736694 1413.557129 1050.361694 1412.423828 1052.982544 1411.286133 C 1054.83667 1410.486328 1056.686646 1409.677734 1058.52832 1408.861328 C 1061.219971 1407.665527 1063.907471 1406.461426 1066.58252 1405.231934 C 1068.232544 1404.473633 1069.874146 1403.69873 1071.515869 1402.927734 C 1081.261719 1398.356934 1090.874146 1393.56543 1100.361694 1388.557129 C 1101.540894 1387.932129 1102.728271 1387.31543 1103.90332 1386.686523 C 1106.824219 1385.124023 1109.728271 1383.527832 1112.619995 1381.923828 C 1113.869995 1381.231934 1115.115845 1380.536133 1116.357544 1379.836426 C 1119.324219 1378.165527 1122.27832 1376.481934 1125.219971 1374.769531 C 1126.007446 1374.311035 1126.790894 1373.840332 1127.578369 1373.373535 C 1137.657471 1367.444336 1147.574219 1361.26123 1157.315796 1354.836426 C 1158.011597 1354.37793 1158.70752 1353.923828 1159.39917 1353.465332 C 1162.469971 1351.423828 1165.52002 1349.353027 1168.557495 1347.265625 C 1169.282471 1346.765625 1170.007568 1346.26123 1170.732544 1345.757324 C 1173.886719 1343.56543 1177.036621 1341.361328 1180.15332 1339.115234 C 1229.703369 1303.507324 1288.803345 1283.615234 1349.824219 1283.615234 L 1350.240845 1283.615234 C 1352.565796 1283.75293 1354.907471 1283.744629 1357.249146 1283.615234 L 1358.828369 1283.615234 L 1358.828369 1283.498535 C 1362.290894 1283.215332 1365.753296 1282.661133 1369.174194 1281.773926 L 1375.869995 1280.040527 C 1403.319946 1272.927734 1422.265869 1247.865234 1421.619995 1219.515625 L 1421.607544 1219.12793 C 1421.057495 1194.981934 1434.861694 1172.798828 1456.765869 1162.62793 L 1456.786621 1162.619629 C 1482.52002 1150.669922 1496.574219 1122.515625 1490.65332 1094.769531 L 1490.607544 1094.556641 C 1485.557495 1070.874023 1494.990845 1046.449219 1514.64917 1032.31543 L 1514.699219 1032.27832 C 1537.678345 1015.756836 1546.27417 985.594727 1535.45752 959.44043 L 1535.349121 959.173828 C 1526.049194 936.677734 1530.920044 910.806641 1547.77002 893.232422 C 1567.203369 872.96582 1570.115845 841.986328 1554.807495 818.453125"/>
            <clipPath id="clipPath1">
                <path d="M 191.320831 794.220703 C 191.320831 1120.603516 455.908325 1385.195801 782.291656 1385.195801 L 782.291656 1385.195801 C 1108.67923 1385.195801 1373.262604 1120.603516 1373.262604 794.220703 L 1373.262604 794.220703 C 1373.262604 467.837891 1108.67923 203.25 782.291656 203.25 L 782.291656 203.25 C 455.908325 203.25 191.320831 467.837891 191.320831 794.220703"/>
            </clipPath>
            <g id="g2" clip-path="url(#clipPath1)">
                <path id="path2" fill="#00bdf2" stroke="none" d="M 191.320831 1385.195801 L 1373.266724 1385.195801 L 1373.266724 203.25 L 191.320831 203.25 Z"/>
                <path id="path3" fill="#a5a24a" stroke="none" d="M -67.289169 602.500977 L -67.289169 1797.305176 L 222.339996 1797.305176 L 256.23584 1679.880371 C 259.998352 1667.213867 259.998352 1653.518066 255.890015 1640.513672 L 243.906647 1601.826172 C 237.065002 1580.259766 241.514984 1556.292969 255.890015 1538.48877 L 293.54834 1492.61377 C 303.477478 1480.292969 308.61084 1465.226074 308.61084 1449.476074 C 308.61084 1417.638672 330.869141 1389.909668 361.67749 1382.722168 L 369.206665 1381.009766 C 364.419189 1370.055176 363.390015 1357.388672 367.156677 1345.05957 L 388.039978 1273.509766 C 393.17334 1256.388672 406.185852 1242.701172 423.30249 1237.222168 L 526.348389 1202.984375 C 543.464966 1197.167969 556.477478 1183.472168 561.61084 1166.013672 L 592.764954 1056.800781 C 597.556702 1040.368164 609.881653 1026.675781 625.969177 1020.855469 L 690.67749 996.205078 C 701.977478 992.09668 711.560791 983.880859 718.065002 973.609375 L 745.79834 927.392578 C 753.669189 915.072266 755.723328 900.005859 752.30249 885.967773 L 733.469177 810.30957 C 728.681702 791.480469 734.498352 771.28418 748.535828 757.584961 L 768.390015 738.755859 L 717.381653 726.43457 C 703.685791 723.009766 689.648315 724.03418 676.644165 729.171875 L 604.060791 757.584961 C 578.727539 767.517578 549.973328 761.355469 530.79834 742.18457 L 492.11084 703.49707 C 482.873352 694.250977 470.889954 687.74707 458.223328 685.005859 L 350.723328 661.730469 C 329.494141 656.93457 307.244141 662.755859 291.152527 677.134766 C 263.081665 702.12207 221.315002 737.734375 215.48999 736.017578 C 208.98999 733.62207 130.248322 722.667969 91.219177 717.188477 C 77.181671 715.134766 64.169159 708.630859 53.560822 698.701172 L -25.864166 622.355469 C -34.085007 614.826172 -44.009995 609.005859 -54.968338 605.925781 Z"/>
                <path id="path4" fill="#828829" stroke="none" d="M 222.341248 1797.308105 L 1588.66626 1797.308105 L 1588.66626 1720.620605 C 1588.66626 1696.657715 1573.599609 1675.774414 1551.007935 1668.586914 L 1506.499634 1654.203613 C 1501.024536 1652.491211 1496.22876 1649.753906 1491.437134 1646.674805 L 1459.941162 1624.074707 C 1445.562134 1613.808105 1437.345459 1597.374512 1437.345459 1579.570313 L 1437.345459 1577.520508 C 1437.345459 1564.853516 1432.895386 1552.870605 1425.362061 1543.282715 L 1371.957886 1476.520508 C 1368.874634 1472.762207 1366.137085 1468.312012 1364.087158 1463.85791 L 1331.903809 1387.174805 C 1324.712036 1370.053711 1309.649658 1358.074707 1291.503784 1354.645508 L 1253.157959 1347.799805 C 1235.35791 1344.378906 1219.953735 1332.395508 1212.766235 1315.278809 C 1206.941284 1301.924805 1196.332886 1291.657715 1182.98291 1286.178711 L 1097.73291 1251.604004 C 1089.17041 1248.174316 1079.245361 1246.808105 1069.999634 1248.174316 L 1033.712158 1253.312012 C 1012.828735 1256.053711 995.712036 1270.428711 989.207886 1290.628906 L 975.85791 1332.049805 C 967.641235 1356.699707 943.332886 1372.449707 917.657959 1369.366211 L 831.04126 1359.782715 C 815.97876 1358.074707 800.912109 1362.524414 789.274536 1372.449707 L 747.16626 1408.395508 C 735.182922 1418.328613 719.774597 1423.116211 704.716248 1421.062012 L 605.432922 1408.395508 C 596.187073 1407.370605 586.945435 1408.395508 578.387085 1411.820313 L 514.020386 1437.153809 C 502.04541 1441.949707 488.687073 1442.291016 476.366272 1437.836914 L 401.73291 1412.162109 C 386.328735 1406.683105 374.682922 1395.04541 369.212097 1381.012207 L 361.678772 1382.724609 C 330.866272 1389.912109 308.612061 1417.641113 308.612061 1449.479004 C 308.612061 1465.229004 303.47876 1480.29541 293.54541 1492.616211 L 255.891235 1538.487305 C 241.512085 1556.291016 237.062073 1580.257813 243.907928 1601.824707 L 255.891235 1640.516113 C 259.995422 1653.520508 259.995422 1667.216309 256.237091 1679.882813 Z"/>
                <path id="path5" fill="#828829" stroke="none" d="M -67.289169 158.472656 L -67.289169 602.501953 L -54.968338 605.922852 C -44.009995 609.005859 -34.085007 614.822266 -25.864166 622.355469 L 53.560822 698.702148 C 64.169159 708.630859 77.181671 715.134766 91.219177 717.189453 C 130.248322 722.667969 208.98999 733.62207 215.48999 736.018555 C 221.315002 737.730469 263.081665 702.12207 291.152527 677.134766 C 307.244141 662.755859 329.494141 656.93457 350.723328 661.726563 L 458.223328 685.005859 C 470.889954 687.74707 482.873352 694.251953 492.11084 703.493164 L 530.79834 742.18457 C 549.973328 761.355469 578.727539 767.518555 604.060791 757.584961 L 676.644165 729.172852 C 689.648315 724.035156 703.685791 723.009766 717.381653 726.43457 L 768.390015 738.755859 L 790.30249 717.535156 C 797.835815 710.338867 802.969116 701.785156 805.36499 691.855469 L 825.906738 614.139648 C 828.98584 602.15625 827.956665 589.834961 823.510864 578.880859 L 802.281738 529.235352 C 799.885864 523.076172 796.464966 517.597656 792.015015 513.147461 L 764.281677 483.702148 C 756.406677 475.147461 751.273315 464.193359 749.902527 452.893555 L 739.973328 373.80957 C 738.264954 359.088867 742.369141 344.709961 751.61499 333.072266 L 777.973389 299.860352 C 782.085815 295.072266 785.165039 289.59375 786.881714 283.772461 L 805.36499 231.389648 C 817.690063 195.789063 791.331665 158.472656 753.669189 158.472656 Z"/>
                <path id="path6" fill="none" stroke="#002f54" stroke-width="2.358333" stroke-linecap="round" stroke-dasharray="9.429167 14.141667" stroke-dashoffset="0" d="M -67.289169 602.500977 L -67.289169 1797.305176 L 222.339996 1797.305176 L 256.23584 1679.880371 C 259.998352 1667.213867 259.998352 1653.518066 255.890015 1640.513672 L 243.906647 1601.826172 C 237.065002 1580.259766 241.514984 1556.292969 255.890015 1538.48877 L 293.54834 1492.61377 C 303.477478 1480.292969 308.61084 1465.226074 308.61084 1449.476074 C 308.61084 1417.638672 330.869141 1389.909668 361.67749 1382.722168 L 369.206665 1381.009766 C 364.419189 1370.055176 363.390015 1357.388672 367.156677 1345.05957 L 388.039978 1273.509766 C 393.17334 1256.388672 406.185852 1242.701172 423.30249 1237.222168 L 526.348389 1202.984375 C 543.464966 1197.167969 556.477478 1183.472168 561.61084 1166.013672 L 592.764954 1056.800781 C 597.556702 1040.368164 609.881653 1026.675781 625.969177 1020.855469 L 690.67749 996.205078 C 701.977478 992.09668 711.560791 983.880859 718.065002 973.609375 L 745.79834 927.392578 C 753.669189 915.072266 755.723328 900.005859 752.30249 885.967773 L 733.469177 810.30957 C 728.681702 791.480469 734.498352 771.28418 748.535828 757.584961 L 768.390015 738.755859 L 717.381653 726.43457 C 703.685791 723.009766 689.648315 724.03418 676.644165 729.171875 L 604.060791 757.584961 C 578.727539 767.517578 549.973328 761.355469 530.79834 742.18457 L 492.11084 703.49707 C 482.873352 694.250977 470.889954 687.74707 458.223328 685.005859 L 350.723328 661.730469 C 329.494141 656.93457 307.244141 662.755859 291.152527 677.134766 C 263.081665 702.12207 221.315002 737.734375 215.48999 736.017578 C 208.98999 733.62207 130.248322 722.667969 91.219177 717.188477 C 77.181671 715.134766 64.169159 708.630859 53.560822 698.701172 L -25.864166 622.355469 C -34.085007 614.826172 -44.009995 609.005859 -54.968338 605.925781 L -67.289169 602.500977 Z"/>
                <path id="path7" fill="none" stroke="#002f54" stroke-width="2.358333" stroke-linecap="round" stroke-dasharray="9.429167 14.141667" stroke-dashoffset="0" d="M 222.341248 1797.308105 L 1588.66626 1797.308105 L 1588.66626 1720.620605 C 1588.66626 1696.657715 1573.599609 1675.774414 1551.007935 1668.586914 L 1506.499634 1654.203613 C 1501.024536 1652.491211 1496.22876 1649.753906 1491.437134 1646.674805 L 1459.941162 1624.074707 C 1445.562134 1613.808105 1437.345459 1597.374512 1437.345459 1579.570313 L 1437.345459 1577.520508 C 1437.345459 1564.853516 1432.895386 1552.870605 1425.362061 1543.282715 L 1371.957886 1476.520508 C 1368.874634 1472.762207 1366.137085 1468.312012 1364.087158 1463.85791 L 1331.903809 1387.174805 C 1324.712036 1370.053711 1309.649658 1358.074707 1291.503784 1354.645508 L 1253.157959 1347.799805 C 1235.35791 1344.378906 1219.953735 1332.395508 1212.766235 1315.278809 C 1206.941284 1301.924805 1196.332886 1291.657715 1182.98291 1286.178711 L 1097.73291 1251.604004 C 1089.17041 1248.174316 1079.245361 1246.808105 1069.999634 1248.174316 L 1033.712158 1253.312012 C 1012.828735 1256.053711 995.712036 1270.428711 989.207886 1290.628906 L 975.85791 1332.049805 C 967.641235 1356.699707 943.332886 1372.449707 917.657959 1369.366211 L 831.04126 1359.782715 C 815.97876 1358.074707 800.912109 1362.524414 789.274536 1372.449707 L 747.16626 1408.395508 C 735.182922 1418.328613 719.774597 1423.116211 704.716248 1421.062012 L 605.432922 1408.395508 C 596.187073 1407.370605 586.945435 1408.395508 578.387085 1411.820313 L 514.020386 1437.153809 C 502.04541 1441.949707 488.687073 1442.291016 476.366272 1437.836914 L 401.73291 1412.162109 C 386.328735 1406.683105 374.682922 1395.04541 369.212097 1381.012207 L 361.678772 1382.724609 C 330.866272 1389.912109 308.612061 1417.641113 308.612061 1449.479004 C 308.612061 1465.229004 303.47876 1480.29541 293.54541 1492.616211 L 255.891235 1538.487305 C 241.512085 1556.291016 237.062073 1580.257813 243.907928 1601.824707 L 255.891235 1640.516113 C 259.995422 1653.520508 259.995422 1667.216309 256.237091 1679.882813 L 222.341248 1797.308105 Z"/>
                <path id="path8" fill="none" stroke="#002f54" stroke-width="2.358333" stroke-linecap="round" stroke-dasharray="9.429167 14.141667" stroke-dashoffset="0" d="M -67.289169 158.472656 L -67.289169 602.501953 L -54.968338 605.922852 C -44.009995 609.005859 -34.085007 614.822266 -25.864166 622.355469 L 53.560822 698.702148 C 64.169159 708.630859 77.181671 715.134766 91.219177 717.189453 C 130.248322 722.667969 208.98999 733.62207 215.48999 736.018555 C 221.315002 737.730469 263.081665 702.12207 291.152527 677.134766 C 307.244141 662.755859 329.494141 656.93457 350.723328 661.726563 L 458.223328 685.005859 C 470.889954 687.74707 482.873352 694.251953 492.11084 703.493164 L 530.79834 742.18457 C 549.973328 761.355469 578.727539 767.518555 604.060791 757.584961 L 676.644165 729.172852 C 689.648315 724.035156 703.685791 723.009766 717.381653 726.43457 L 768.390015 738.755859 L 790.30249 717.535156 C 797.835815 710.338867 802.969116 701.785156 805.36499 691.855469 L 825.906738 614.139648 C 828.98584 602.15625 827.956665 589.834961 823.510864 578.880859 L 802.281738 529.235352 C 799.885864 523.076172 796.464966 517.597656 792.015015 513.147461 L 764.281677 483.702148 C 756.406677 475.147461 751.273315 464.193359 749.902527 452.893555 L 739.973328 373.80957 C 738.264954 359.088867 742.369141 344.709961 751.61499 333.072266 L 777.973389 299.860352 C 782.085815 295.072266 785.165039 289.59375 786.881714 283.772461 L 805.36499 231.389648 C 817.690063 195.789063 791.331665 158.472656 753.669189 158.472656 L -67.289169 158.472656 Z"/>
            </g>
            <path id="path9" fill="none" stroke="#ffffff" stroke-width="2.358333" stroke-linecap="round" stroke-dasharray="9.429167 14.141667" stroke-dashoffset="0" d="M 188.433746 184.007813 L 1370.379517 184.007813 L 1370.379517 1365.953613 L 188.433746 1365.953613 Z"/>
            <path id="path10" fill="none" stroke="#ffffff" stroke-width="2.358333" stroke-linecap="round" stroke-dasharray="9.429167 14.141667" stroke-dashoffset="0" d="M 188.433746 1168.960449 L 1370.379517 1168.960449"/>
            <path id="path11" fill="none" stroke="#ffffff" stroke-width="2.358333" stroke-linecap="round" stroke-dasharray="9.429167 14.141667" stroke-dashoffset="0" d="M 188.433746 971.969727 L 1370.379517 971.969727"/>
            <path id="path12" fill="none" stroke="#ffffff" stroke-width="2.358333" stroke-linecap="round" stroke-dasharray="9.429167 14.141667" stroke-dashoffset="0" d="M 188.433746 774.978516 L 1370.379517 774.978516"/>
            <path id="path13" fill="none" stroke="#ffffff" stroke-width="2.358333" stroke-linecap="round" stroke-dasharray="9.429167 14.141667" stroke-dashoffset="0" d="M 188.433746 577.988281 L 1370.379517 577.988281"/>
            <path id="path14" fill="none" stroke="#ffffff" stroke-width="2.358333" stroke-linecap="round" stroke-dasharray="9.429167 14.141667" stroke-dashoffset="0" d="M 188.433746 380.998047 L 1370.379517 380.998047"/>
            <path id="path15" fill="none" stroke="#ffffff" stroke-width="2.358333" stroke-linecap="round" stroke-dasharray="9.429167 14.141667" stroke-dashoffset="0" d="M 1173.388306 184.006836 L 1173.388306 1365.952637"/>
            <path id="path16" fill="none" stroke="#ffffff" stroke-width="2.358333" stroke-linecap="round" stroke-dasharray="9.429167 14.141667" stroke-dashoffset="0" d="M 976.397095 184.006836 L 976.397095 1365.952637"/>
            <path id="path17" fill="none" stroke="#ffffff" stroke-width="2.358333" stroke-linecap="round" stroke-dasharray="9.429167 14.141667" stroke-dashoffset="0" d="M 779.406616 184.006836 L 779.406616 1365.952637"/>
            <path id="path18" fill="none" stroke="#ffffff" stroke-width="2.358333" stroke-linecap="round" stroke-dasharray="9.429167 14.141667" stroke-dashoffset="0" d="M 582.415405 184.006836 L 582.415405 1365.952637"/>
            <path id="path19" fill="none" stroke="#ffffff" stroke-width="2.358333" stroke-linecap="round" stroke-dasharray="9.429167 14.141667" stroke-dashoffset="0" d="M 385.424988 184.006836 L 385.424988 1365.952637"/>
            <clipPath id="clipPath2">
                <path d="M 191.320831 794.220703 C 191.320831 1120.603516 455.908325 1385.195801 782.291656 1385.195801 L 782.291656 1385.195801 C 1108.67923 1385.195801 1373.262604 1120.603516 1373.262604 794.220703 L 1373.262604 794.220703 C 1373.262604 467.837891 1108.67923 203.25 782.291656 203.25 L 782.291656 203.25 C 455.908325 203.25 191.320831 467.837891 191.320831 794.220703"/>
            </clipPath>
            <g id="g3" clip-path="url(#clipPath2)">
                <path id="path20" fill="#ccf4ff" stroke="none" d="M 1098.078369 897.199219 C 1081.761719 934.457031 1058.311646 969.44043 1027.878296 999.874023 C 917.511719 1110.236328 750.515808 1129.374023 620.390869 1057.211914 C 593.015869 1042.232422 567.361633 1023.011719 544.228333 999.874023 C 528.14502 983.794922 514.34082 966.620117 502.182495 948.578125 C 412.761658 815.624023 426.882446 633.957031 544.228333 516.298828 C 553.561646 506.969727 563.445007 498.261719 573.561646 490.024414 C 671.21582 412.449219 801.815796 396.053711 913.27832 440.686523 C 955.08252 457.320313 994.303345 482.416016 1027.878296 516.298828 C 1130.865845 619.52832 1154.240845 771.932617 1098.078369 897.199219"/>
                <path id="path21" fill="#663714" stroke="none" d="M 1264.709961 1168.217285 C 1245.251709 1187.554688 1219.843384 1212.775391 1199.88916 1232.729492 L 1018.084961 1052.192383 C 1030.172485 1043.146484 1041.69751 1032.920898 1052.605835 1022.012695 C 1063.51001 1011.163086 1073.672485 999.575195 1082.722534 987.496094 Z"/>
                <path id="path22" fill="#d18a22" stroke="none" d="M 1523.446655 1494.146484 C 1488.309204 1529.283691 1431.175781 1529.096191 1396.22168 1494.146484 L 1180.246704 1278.217285 C 1173.117432 1271.087891 1173.117432 1259.562988 1180.179932 1252.433594 C 1185.571655 1247.046387 1192.329956 1240.229492 1199.888306 1232.729492 C 1219.842529 1212.775391 1245.250854 1187.554688 1264.709106 1168.217285 C 1271.217529 1161.645996 1277.10498 1155.825195 1281.875854 1151.050781 C 1289.063354 1143.925781 1300.592529 1143.988281 1307.655029 1151.117188 L 1523.446655 1366.858887 C 1558.459106 1401.875488 1558.646606 1458.946289 1523.446655 1494.146484"/>
            </g>
            <clipPath id="clipPath3">
                <path d="M 573.558346 490.024422 C 563.445865 498.258797 553.562504 506.966805 544.224979 516.300789 L 544.224979 516.300789 C 426.883301 633.961922 412.762512 815.621102 502.183349 948.570305 L 502.183349 948.570305 C 514.341678 966.61718 528.145878 983.791992 544.224979 999.875 L 544.224979 999.875 C 567.362552 1023.016602 593.016659 1042.229492 620.391659 1057.211914 L 620.391659 1057.211914 C 750.520824 1129.375 917.508312 1110.237305 1027.874981 999.875 L 1027.874981 999.875 C 1058.312481 969.437493 1081.762432 934.458 1098.074932 897.200188 L 1098.074932 897.200188 C 1154.24168 771.932625 1130.87083 619.529305 1027.874981 516.300789 L 1027.874981 516.300789 C 994.30418 482.417 955.083385 457.312508 913.275036 440.687508 L 913.275036 440.687508 C 872.537487 424.371102 829.245861 416.212899 785.92921 416.212899 L 785.92921 416.212899 C 710.750011 416.216805 635.516659 440.803719 573.558346 490.024422"/>
            </clipPath>
            <g id="g4" clip-path="url(#clipPath3)">
                <path id="path23" fill="#663816" stroke="none" d="M 803.540039 679.733398 L 807.589966 952.354492 C 807.494141 963.837891 790.540039 964.229492 790.060791 952.616211 C 790.044189 952.462891 794.123291 679.933594 794.11084 679.733398 C 794.260864 673.746094 803.339966 673.533203 803.540039 679.733398"/>
                <path id="path24" fill="#663816" stroke="none" d="M 801.700439 784.421875 L 781.733765 799.254883 C 747.621277 821.530273 726.933777 861.742188 728.446228 902.462891 L 729.004578 952.355469 C 729.033752 954.958984 726.946228 957.092773 724.342102 957.12207 C 721.70459 957.150391 719.546265 954.992188 719.575439 952.355469 L 720.133728 902.462891 C 719.229614 859.609375 741.562927 817.18457 777.775391 794.100586 L 798.025391 779.413086 C 801.26709 777.092773 804.95874 781.962891 801.700439 784.421875"/>
                <path id="path25" fill="#663816" stroke="none" d="M 798.417114 803.561523 C 802.000366 797.311523 799.429565 801.84082 800.242065 800.449219 C 800.379639 800.540039 800.654541 800.699219 800.796265 800.790039 C 847.150391 827.061523 872.233765 878.09082 869.696289 930.71582 L 869.933716 952.352539 C 869.95874 954.957031 867.875366 957.094727 865.26709 957.119141 C 862.629639 957.148438 860.471191 954.994141 860.504639 952.352539 L 860.737915 930.71582 C 864.342041 880.199219 841.379639 832.71582 797.187866 807.040039 L 796.908691 806.865234 L 796.77124 806.782227 L 796.700439 806.736328 L 796.662964 806.71582 C 797.450439 805.311523 794.858765 809.828125 798.417114 803.561523"/>
                <path id="path26" fill="none" stroke="#663816" stroke-width="4.7125" stroke-linecap="round" d="M 797.90625 865.591797 L 797.90625 865.591797 C 773.793762 882.054688 758.256226 908.391602 755.514587 937.454102 L 755.447937 952.354492"/>
                <path id="path27" fill="none" stroke="#663816" stroke-width="4.7125" stroke-linecap="round" d="M 865.479126 899.839844 L 865.479126 899.839844 C 883.145874 902.043945 898.041626 914.060547 903.94165 930.864258 L 913.279175 952.027344"/>
                <path id="path28" fill="none" stroke="#663816" stroke-width="4.7125" stroke-linecap="round" d="M 851.514526 859.929688 L 851.514526 859.929688 C 837.989624 871.762695 829.5896 880.075195 829.985474 898.041992 L 830.310425 954.554688"/>
                <path id="path29" fill="none" stroke="#663816" stroke-width="4.7125" stroke-linecap="round" d="M 731.505005 855.074219 L 731.505005 855.074219 C 730.396667 855.265625 729.300842 855.494141 728.213318 855.75293 C 704.804993 861.328125 688.72583 882.944336 688.371643 907.00293 L 687.700806 952.357422"/>
                <path id="path30" fill="#663816" stroke="none" d="M 796.765381 739.801758 C 801.13623 737.402344 807.87793 734.293945 811.07373 730.393555 C 814.182129 726.772461 819.07373 720.097656 822.207031 716.139648 L 844.669556 687.018555 C 847.211304 683.748047 852.277954 687.556641 849.76123 690.90625 L 827.561279 720.235352 C 821.740356 727.397461 816.644531 736.731445 808.307129 741.505859 L 800.13623 746.018555 C 796.057129 748.239258 792.652954 742.018555 796.765381 739.801758"/>
                <path id="path31" fill="#663816" stroke="none" d="M 798.632446 765.017578 C 797.411621 771.975586 798.27832 766.946289 797.999146 768.49707 C 797.96167 768.488281 797.857544 768.467773 797.815796 768.458984 C 786.749146 766.592773 776.699219 759.879883 770.036682 751.017578 C 767.445007 747.942383 760.661682 739.750977 757.990845 736.580078 L 725.865845 698.083984 C 723.094971 694.754883 728.157532 690.383789 731.015808 693.771484 L 763.27832 732.150391 C 765.999146 735.375977 772.757507 743.442383 775.378296 746.546875 C 781.015869 753.951172 788.699219 759.383789 797.83667 761.258789 C 798.199219 761.321289 798.849121 761.462891 799.21582 761.530273 C 798.953369 763.083984 799.83252 758.054688 798.632446 765.017578"/>
                <path id="path32" fill="#4cb648" stroke="none" d="M 880.137085 699.108398 C 880.391235 698.396484 880.632935 697.679688 880.862061 696.962891 C 881.312134 696.871094 881.757935 696.775391 882.207886 696.679688 C 881.499634 697.47168 880.812134 698.279297 880.137085 699.108398 M 712.820435 519.4375 C 713.549561 518.4375 713.778748 517.183594 713.495422 516.021484 C 714.395447 518.538086 715.441223 520.979492 716.628723 523.341797 C 713.674561 524.041992 710.757935 524.775391 707.891235 525.53418 C 709.612061 523.608398 711.257935 521.579102 712.820435 519.4375 M 1017.441284 626.742188 C 1009.16626 624.170898 1001.412109 623.021484 993.737061 623.22168 C 992.453735 623.258789 991.174561 623.329102 989.903809 623.442383 C 991.778809 619.654297 993.345459 615.646484 994.582886 611.47168 C 994.962036 610.196289 994.707886 608.821289 993.895386 607.771484 C 993.091187 606.716797 991.828735 606.113281 990.503784 606.154297 C 990.124634 606.163086 989.753784 606.225586 989.395386 606.333984 C 987.007935 607.067383 984.766235 607.883789 982.587036 608.762695 C 982.528687 608.600586 982.466309 608.433594 982.403809 608.275391 C 982.97876 607.054688 983.42041 605.754883 983.945435 604.508789 C 999.41626 602.53418 1011.303711 595.358398 1018.832886 589.229492 C 1020.016235 588.266602 1020.574585 586.729492 1020.278687 585.229492 C 1019.991211 583.733398 1018.899536 582.516602 1017.441284 582.0625 C 1009.16626 579.496094 1001.412109 578.34668 993.737061 578.545898 C 992.453735 578.579102 991.174561 578.650391 989.903809 578.762695 C 991.778809 574.975586 993.345459 570.97168 994.582886 566.791992 C 994.962036 565.516602 994.707886 564.142578 993.895386 563.087891 C 993.091187 562.038086 991.828735 561.433594 990.503784 561.475586 C 990.124634 561.483398 989.753784 561.541992 989.395386 561.650391 C 986.849609 562.4375 984.445435 563.295898 982.141235 564.246094 C 985.312134 557.650391 987.73291 550.5625 989.345459 543.117188 C 989.653809 541.696289 989.195435 540.225586 988.145386 539.233398 C 987.337036 538.466797 986.270386 538.071289 985.191284 538.100586 C 984.85376 538.104492 984.524536 538.15918 984.195435 538.246094 C 984.057861 538.28418 983.92041 538.333984 983.782959 538.383789 C 979.078735 540.225586 974.737061 542.267578 970.678711 544.545898 C 971.278809 533.208984 968.745361 521.700195 963.10791 510.216797 C 962.432861 508.850586 961.062134 507.958984 959.54126 507.904297 L 959.282959 507.904297 C 957.85376 507.942383 956.54126 508.712891 955.816284 509.958984 C 951.799561 516.84668 949.007935 523.946289 947.457886 531.170898 C 937.912109 516.916992 925.462036 507.925781 915.837036 502.617188 C 915.182861 502.254883 914.453735 502.083984 913.73291 502.108398 C 913.020386 502.125 912.316284 502.325195 911.682861 502.712891 C 910.41626 503.479492 909.662109 504.875 909.699585 506.363281 C 909.699585 506.4375 909.703735 506.516602 909.712036 506.591797 C 910.257935 513.192383 911.312134 519.304688 912.899536 525.09668 C 907.29541 523.525391 901.445435 522.091797 895.391235 520.800781 C 898.582886 515.483398 901.10376 509.654297 902.912109 503.413086 C 903.349609 501.913086 902.895386 500.295898 901.745361 499.229492 C 900.941284 498.479492 899.882935 498.09668 898.824585 498.125 C 898.441284 498.133789 898.057861 498.196289 897.687134 498.3125 C 887.962036 501.379883 879.820435 505.696289 872.974609 511.446289 C 870.487061 504.808594 866.928711 498.475586 862.345459 492.550781 C 861.537109 491.504883 860.278809 490.90918 858.957886 490.942383 C 858.932861 490.946289 858.899536 490.946289 858.870361 490.946289 C 857.524536 491.008789 856.29541 491.729492 855.566284 492.871094 C 855.391235 493.146484 855.245361 493.446289 855.141235 493.762695 C 852.737061 500.883789 851.403809 507.654297 851.10376 514.321289 C 834.807861 512.913086 817.941284 512.425781 800.895386 512.875 C 797.537109 512.966797 794.153809 513.091797 790.757935 513.258789 C 794.887085 507.15918 798.070435 500.295898 800.249634 492.771484 C 800.687134 491.262695 800.23291 489.646484 799.087036 488.579102 C 798.282959 487.833984 797.224609 487.454102 796.162109 487.475586 C 795.778809 487.492188 795.399536 487.554688 795.024536 487.670898 C 785.299561 490.729492 777.157959 495.045898 770.316223 500.804688 C 767.824585 494.163086 764.266235 487.829102 759.678772 481.900391 C 758.870422 480.850586 757.60376 480.262695 756.299561 480.295898 C 756.10791 480.300781 755.912109 480.321289 755.720398 480.354492 C 754.216248 480.604492 752.970398 481.666992 752.48291 483.113281 C 751.10376 487.183594 750.082947 491.137695 749.399597 495.029297 C 748.366272 493.591797 747.287109 492.15918 746.162109 490.75 C 745.349609 489.72168 744.10376 489.150391 742.812073 489.183594 C 742.60376 489.192383 742.391235 489.212891 742.187073 489.25 C 740.682922 489.521484 739.457886 490.59668 738.98291 492.050781 C 737.220398 497.504883 735.953735 502.962891 735.187073 508.379883 C 729.941223 502.317383 723.403748 497.054688 715.649597 492.670898 C 714.97876 492.291992 714.241272 492.117188 713.499573 492.133789 C 712.770447 492.154297 712.04126 492.367188 711.399597 492.771484 C 710.112061 493.591797 709.370422 495.045898 709.47876 496.571289 C 709.953735 503.15918 711.207947 509.400391 713.220398 515.246094 C 713.199585 515.192383 713.16626 515.129883 713.137085 515.071289 C 712.445435 513.754883 711.095398 512.913086 709.620422 512.863281 C 707.595398 512.771484 705.587097 512.754883 703.649597 512.804688 C 695.932922 513.008789 688.657898 514.34668 681.937073 516.788086 C 681.866272 509.700195 680.678772 502.525391 678.391235 495.387695 C 677.941223 493.996094 676.79126 492.942383 675.362061 492.617188 C 675.024597 492.538086 674.678772 492.5 674.337097 492.516602 C 673.253723 492.538086 672.203735 492.996094 671.437073 493.804688 C 671.35791 493.891602 671.282898 493.979492 671.212097 494.071289 C 668.524597 497.429688 666.212097 500.800781 664.245422 504.22168 C 663.766235 502.508789 663.241272 500.804688 662.67041 499.091797 C 662.182922 497.646484 660.945435 496.583984 659.437073 496.329102 C 659.16626 496.279297 658.899597 496.262695 658.628784 496.266602 C 657.407898 496.300781 656.245422 496.875 655.470398 497.867188 C 647.562073 508.045898 642.082947 518.837891 639.074585 530.170898 C 638.470398 528.733398 637.85791 527.400391 637.262085 526.179688 C 636.599548 524.829102 635.262085 523.954102 633.762085 523.871094 C 633.653748 523.863281 633.54126 523.863281 633.432922 523.871094 C 632.062073 523.900391 630.782898 524.625 630.04126 525.791992 C 630.016235 525.833984 629.987061 525.879883 629.962097 525.925781 C 624.882935 534.641602 621.770447 543.25 620.549561 552.008789 C 617.282898 549.333984 613.73291 546.904297 609.941223 544.762695 C 609.278748 544.383789 608.532898 544.205078 607.799561 544.229492 C 607.091248 544.242188 606.391235 544.446289 605.770447 544.817383 C 604.487061 545.587891 603.724609 546.992188 603.762085 548.479492 C 603.762085 548.541992 603.766235 548.608398 603.770386 548.670898 C 604.403748 557.425781 606.207947 565.22168 609.257935 572.329102 C 592.378784 573.72168 579.537109 581.47168 571.557922 587.97168 C 570.374573 588.933594 569.816284 590.47168 570.10376 591.966797 C 570.395447 593.466797 571.487122 594.683594 572.941284 595.137695 C 581.224609 597.708984 588.974609 598.858398 596.649597 598.65918 C 597.932922 598.621094 599.207947 598.550781 600.487122 598.433594 C 598.612061 602.225586 597.04126 606.233398 595.799622 610.40918 C 595.35791 611.904297 595.79126 613.516602 596.924561 614.591797 C 597.73291 615.358398 598.803772 615.754883 599.882935 615.725586 C 600.253784 615.716797 600.628723 615.654297 600.995422 615.541992 C 603.366211 614.8125 605.616211 613.996094 607.799561 613.121094 C 607.85376 613.279297 607.91626 613.442383 607.97876 613.600586 C 607.395386 614.821289 606.953735 616.121094 606.428711 617.379883 C 590.962097 619.358398 579.078735 626.525391 571.557922 632.650391 C 570.374573 633.613281 569.816284 635.150391 570.10376 636.646484 C 570.395447 638.146484 571.487122 639.363281 572.941284 639.817383 C 581.224609 642.383789 588.974609 643.53418 596.649597 643.333984 C 597.932922 643.300781 599.207947 643.225586 600.487122 643.117188 C 598.612061 646.904297 597.04126 650.913086 595.799622 655.087891 C 595.35791 656.583984 595.79126 658.196289 596.924561 659.271484 C 597.73291 660.03418 598.803772 660.433594 599.882935 660.404297 C 600.253784 660.396484 600.628723 660.337891 600.995422 660.22168 C 603.516235 659.446289 605.932922 658.587891 608.237122 657.646484 C 605.074585 664.204102 602.66626 671.266602 601.037048 678.762695 C 600.73291 680.1875 601.195435 681.663086 602.253723 682.65918 C 603.062073 683.416992 604.124573 683.808594 605.199585 683.779297 C 605.54126 683.775391 605.882935 683.716797 606.224609 683.621094 C 606.349609 683.583984 606.47876 683.541992 606.599548 683.496094 C 611.303772 681.654297 615.645386 679.613281 619.712097 677.329102 C 619.10791 688.670898 621.641235 700.179688 627.274597 711.663086 C 627.949585 713.029297 629.320435 713.920898 630.849609 713.97168 C 630.932922 713.975586 631.020447 713.975586 631.10791 713.975586 C 632.532898 713.9375 633.849548 713.166992 634.574585 711.920898 C 638.591248 705.029297 641.378784 697.933594 642.928772 690.704102 C 652.466248 704.954102 664.903748 713.946289 674.549561 719.262695 C 675.203735 719.625 675.928772 719.791992 676.649597 719.771484 C 677.362061 719.754883 678.074585 719.554688 678.699585 719.166992 C 679.970398 718.400391 680.72876 717.004883 680.691223 715.516602 C 680.687073 715.442383 680.682922 715.363281 680.678772 715.288086 C 679.824585 705.029297 677.72876 695.8125 674.328735 687.379883 C 681.98291 690.25 690.299561 692.829102 699.203735 695.087891 C 692.062073 702.808594 686.320435 712.054688 681.762085 723.129883 C 681.16626 724.512695 681.378723 726.117188 682.312073 727.308594 C 683.128723 728.350586 684.382935 728.925781 685.678772 728.891602 C 685.907898 728.883789 686.145447 728.858398 686.378784 728.8125 C 697.178772 726.65918 711.753784 721.850586 725.153748 711.150391 C 724.445435 718.512695 724.962097 726.121094 726.703735 733.900391 C 727.04126 735.387695 728.16626 736.571289 729.637085 736.979492 C 730.037109 737.087891 730.449585 737.141602 730.85376 737.133789 C 731.932922 737.104492 732.970398 736.650391 733.737061 735.854492 C 741.432922 727.817383 746.903748 719.025391 750.070435 709.633789 C 754.145386 713.379883 758.712097 716.692383 763.72876 719.529297 C 764.391235 719.90918 765.137085 720.079102 765.874573 720.0625 C 766.578735 720.041992 767.278748 719.84668 767.899597 719.466797 C 769.182922 718.700195 769.945435 717.300781 769.907898 715.8125 C 769.907898 715.746094 769.903748 715.683594 769.899597 715.621094 C 769.628723 711.933594 769.162109 708.462891 768.47876 705.117188 C 780.412109 705.758789 792.60791 705.920898 804.812134 705.59668 C 810.120361 705.458984 815.466309 705.22168 820.79126 704.891602 C 818.095459 708.746094 815.699585 712.97168 813.628784 717.545898 C 812.995361 718.9375 813.178711 720.558594 814.10791 721.775391 C 814.924561 722.833984 816.187134 723.429688 817.507935 723.396484 C 817.691284 723.391602 817.874634 723.371094 818.057861 723.341797 C 829.741211 721.450195 840.007935 717.22168 848.699585 710.729492 C 848.474609 717.446289 848.995361 724.404297 850.257935 731.529297 C 850.524536 733.029297 851.599609 734.266602 853.04541 734.742188 C 853.503784 734.887695 853.97876 734.958984 854.445435 734.946289 C 855.453735 734.916992 856.441284 734.521484 857.195435 733.800781 C 865.79541 725.587891 872.462036 716.442383 877.10791 706.504883 C 877.587036 707.629883 878.54541 708.496094 879.73291 708.84668 C 880.057861 708.946289 880.395386 709.004883 880.741211 709.016602 C 882.778809 709.108398 884.79541 709.125 886.737061 709.075195 C 894.453735 708.867188 901.73291 707.53418 908.449585 705.091797 C 908.520386 712.179688 909.707886 719.354492 911.995361 726.492188 C 912.441284 727.883789 913.591309 728.9375 915.020386 729.262695 C 915.362061 729.337891 915.707886 729.371094 916.049561 729.367188 C 917.132935 729.333984 918.182861 728.883789 918.949585 728.075195 C 919.028809 727.988281 919.10376 727.900391 919.178711 727.808594 C 921.862061 724.446289 924.174561 721.079102 926.141235 717.65918 C 926.620361 719.371094 927.149536 721.075195 927.720459 722.788086 C 928.207886 724.233398 929.445435 725.295898 930.949585 725.554688 C 931.216309 725.600586 931.487061 725.617188 931.753784 725.613281 C 932.98291 725.579102 934.145386 725.004883 934.91626 724.012695 C 942.812134 713.858398 948.278809 703.045898 951.29541 691.679688 C 951.862061 693.029297 952.474609 694.367188 953.128784 695.700195 C 953.845459 697.163086 955.345459 698.054688 956.953735 698.008789 C 957.037109 698.008789 957.116211 698.004883 957.195435 697.996094 C 958.578735 697.883789 959.787109 697.087891 960.449585 695.913086 C 965.516235 687.212891 968.620361 678.617188 969.841187 669.867188 C 973.10791 672.545898 976.653809 674.975586 980.445435 677.117188 C 981.112061 677.496094 981.85376 677.666992 982.591309 677.650391 C 983.29541 677.629883 983.991211 677.433594 984.620361 677.058594 C 985.895386 676.288086 986.66626 674.887695 986.620361 673.400391 C 986.620361 673.333984 986.616211 673.271484 986.612061 673.208984 C 985.98291 664.462891 984.178711 656.666992 981.128784 649.554688 C 998.007935 648.163086 1010.849609 640.40918 1018.832886 633.90918 C 1020.016235 632.946289 1020.574585 631.40918 1020.278687 629.913086 C 1019.991211 628.413086 1018.899536 627.196289 1017.441284 626.742188"/>
                <path id="path33" fill="#378941" stroke="none" d="M 717.045837 682.148438 L 717.049988 682.148438 C 732.787476 683.202148 755.087524 680.540039 773.395813 656.635742 C 743.983337 654.665039 726.25415 670.12793 717.045837 682.148438"/>
                <path id="path34" fill="#378941" stroke="none" d="M 669.710815 692.941406 L 669.715027 692.945313 C 682.106689 702.695313 702.019165 713.086914 730.627502 703.691406 C 707.456665 685.454102 684.098328 688.211914 669.710815 692.941406"/>
                <path id="path35" fill="#378941" stroke="none" d="M 641.467102 564.254883 L 641.467102 564.258789 C 638.608765 579.766602 638.696228 602.229492 660.342102 623.15918 C 665.679565 594.163086 652.350403 574.779297 641.467102 564.254883"/>
                <path id="path36" fill="#378941" stroke="none" d="M 602.375 605.447266 L 602.37915 605.452148 C 613.220825 616.901367 631.408325 630.084961 661.079163 624.947266 C 640.80835 603.539063 617.295837 602.864258 602.375 605.447266"/>
                <path id="path37" fill="#378941" stroke="none" d="M 793.057861 686.369141 L 793.062134 686.373047 C 805.457886 696.123047 825.366211 706.514648 853.974609 697.119141 C 830.803711 678.880859 807.445435 681.639648 793.057861 686.369141"/>
                <path id="path38" fill="#378941" stroke="none" d="M 796.454224 727.074219 L 796.454224 727.070313 C 793.945801 711.499023 786.337524 690.366211 758.929138 677.899414 C 763.62085 707.007813 782.670776 720.803711 796.454224 727.074219"/>
                <path id="path39" fill="#378941" stroke="none" d="M 754.299988 763.679688 L 754.299988 763.675781 C 761.016663 749.405273 766.670837 727.671875 751.079163 701.90918 C 738.525024 728.580078 746.462524 750.725586 754.299988 763.679688"/>
                <path id="path40" fill="#378941" stroke="none" d="M 810.224609 648.959961 L 810.224609 648.956055 C 805.453735 628.981445 793.524536 602.272461 756.720398 588.744141 C 765.632935 626.084961 791.716309 642.15625 810.224609 648.959961"/>
                <path id="path41" fill="#378941" stroke="none" d="M 695.68335 666.720703 L 695.679138 666.71582 C 681.366638 651.987305 657.462524 635.132813 618.916687 642.316406 C 645.666687 669.853516 676.299988 670.329102 695.68335 666.720703"/>
                <path id="path42" fill="#378941" stroke="none" d="M 871.828369 596.863281 L 871.824219 596.863281 C 851.315796 595.712891 822.311646 599.492188 798.807495 630.883789 C 837.140869 633.03418 860.011719 612.646484 871.828369 596.863281"/>
                <path id="path43" fill="#74c058" stroke="none" d="M 871.045776 629.613281 L 871.050049 629.613281 C 886.12915 625.004883 906.029175 614.580078 914.637451 585.725586 C 886.445801 594.34668 875.37915 615.105469 871.045776 629.613281"/>
                <path id="path44" fill="#74c058" stroke="none" d="M 830.644531 656.537109 L 830.648804 656.537109 C 845.702881 661.245117 868.00708 663.870117 891.398804 644.912109 C 863.26123 636.116211 842.411255 647.00293 830.644531 656.537109"/>
                <path id="path45" fill="#74c058" stroke="none" d="M 758.477478 546.310547 L 758.477478 546.314453 C 761.327515 561.823242 769.394165 582.785156 797.073364 594.652344 C 791.744141 565.65625 772.394165 552.277344 758.477478 546.310547"/>
                <path id="path46" fill="#74c058" stroke="none" d="M 736.593323 598.713867 L 736.597473 598.713867 C 750.801697 605.564453 772.489136 611.414063 798.393311 596.05957 C 771.835022 583.259766 749.618347 590.993164 736.593323 598.713867"/>
                <path id="path47" fill="#74c058" stroke="none" d="M 943.588745 606.522461 L 943.592896 606.522461 C 958.647095 611.230469 980.951294 613.855469 1004.342896 594.897461 C 976.205444 586.101563 955.355469 596.989258 943.588745 606.522461"/>
                <path id="path48" fill="#74c058" stroke="none" d="M 961.23999 643.358398 L 961.23584 643.354492 C 953.352539 629.696289 938.731689 612.645508 908.67749 610.741211 C 923.415039 636.279297 946.127441 642.400391 961.23999 643.358398"/>
                <path id="path49" fill="#74c058" stroke="none" d="M 934.862915 692.563477 L 934.862915 692.55957 C 936.062866 676.838867 933.612915 654.505859 909.883789 635.97168 C 907.633789 665.368164 922.929565 683.243164 934.862915 692.563477"/>
                <path id="path50" fill="#74c058" stroke="none" d="M 946.327026 565.454102 L 946.322876 565.450195 C 934.764526 548.479492 914.110474 527.753906 874.9021 528.204102 C 896.518799 559.933594 926.610474 565.674805 946.327026 565.454102"/>
                <path id="path51" fill="#74c058" stroke="none" d="M 845.592529 622.792969 L 845.588379 622.788086 C 826.97168 614.113281 798.630005 606.863281 765.16333 627.288086 C 799.959229 643.508789 828.759155 633.063477 845.592529 622.792969"/>
                <path id="path52" fill="#74c058" stroke="none" d="M 985.373291 494.852539 L 985.369141 494.852539 C 965.794189 501.069336 940.027466 514.922852 929.227539 552.619141 C 965.819214 540.994141 979.944214 513.806641 985.373291 494.852539"/>
                <path id="path53" fill="#286fb7" stroke="none" d="M 1393.070801 939.192383 L 1393.070801 1572.867676 L 145.841705 1572.867676 L 145.841705 918.763672 C 163.208374 936.833984 187.608307 948.071289 214.641663 948.071289 C 238.925018 948.071289 261.00412 938.992188 277.862549 924.100586 C 294.716614 938.992188 316.800049 948.071289 341.083313 948.071289 C 365.362549 948.071289 387.525024 938.992188 404.337463 924.100586 C 421.154175 939.038086 443.316711 948.071289 467.55835 948.071289 C 491.804138 948.071289 514 938.992188 530.816711 924.063477 C 547.674988 938.992188 569.754211 948.071289 594.037476 948.071289 C 618.320801 948.071289 640.404175 938.992188 657.258301 924.063477 C 674.074951 938.992188 696.274963 948.071289 720.520813 948.071289 C 744.758301 948.071289 766.962463 938.992188 783.775024 924.100586 C 800.595825 939.038086 822.716675 948.071289 846.99585 948.071289 C 871.279175 948.071289 893.358276 938.992188 910.216675 924.100586 C 927.075073 938.992188 949.19165 948.071289 973.479126 948.071289 C 997.720825 948.071289 1019.87915 939.038086 1036.699951 924.100586 C 1053.512451 939.038086 1075.674927 948.071289 1099.920776 948.071289 C 1124.158325 948.071289 1146.362549 938.992188 1163.175049 924.063477 C 1180.033325 938.992188 1202.116699 948.071289 1226.395874 948.071289 C 1250.679199 948.071289 1272.758301 938.992188 1289.616699 924.063477 C 1306.43335 938.992188 1328.633301 948.071289 1352.875 948.071289 C 1367.220825 948.071289 1380.849976 944.892578 1393.070801 939.192383"/>
            </g>
            <defs>
                <path id="path54" d="M 739.224609 922.733398 C 737.324585 922.733398 735.412109 922.163086 733.745422 920.975586 C 729.512085 917.942383 728.532898 912.054688 731.566223 907.821289 L 890.512085 685.446289 C 893.537109 681.212891 899.432861 680.233398 903.66626 683.258789 C 907.895386 686.291992 908.878784 692.179688 905.849609 696.413086 L 746.899597 918.788086 C 745.062073 921.363281 742.16626 922.733398 739.224609 922.733398"/>
            </defs>
            <clipPath id="clipPath4">
                <path d="M 191.320831 794.220703 C 191.320831 1120.603516 455.908325 1385.195801 782.291656 1385.195801 L 782.291656 1385.195801 C 1108.67923 1385.195801 1373.262604 1120.603516 1373.262604 794.220703 L 1373.262604 794.220703 C 1373.262604 467.837891 1108.67923 203.25 782.291656 203.25 L 782.291656 203.25 C 455.908325 203.25 191.320831 467.837891 191.320831 794.220703"/>
            </clipPath>
            <g id="g5" clip-path="url(#clipPath4)">
                <path id="path55" fill="#0d517f" stroke="none" d="M 1080.686279 958.605469 C 1068.452881 976.789063 1054.26123 994.15918 1038.169556 1010.24707 C 1022.082031 1026.330078 1004.782104 1040.59668 986.594604 1052.897461 C 875.06958 1128.938477 729.94458 1134.68457 613.415405 1069.930664 C 584.81958 1054.318359 558.057068 1034.30957 533.923706 1010.24707 C 517.161255 993.414063 502.765381 975.505859 490.057068 956.642578 C 396.844604 818.080078 411.582031 628.68457 533.923706 505.93457 C 543.657104 496.267578 553.865417 487.142578 564.544556 478.625977 C 666.269592 397.713867 802.540405 380.618164 918.732056 427.12207 C 962.265381 444.55957 1003.090454 470.717773 1038.169556 505.93457 C 1145.50708 613.680664 1169.907104 772.517578 1111.44043 903.175781 C 1103.061279 922.243164 1092.786255 940.892578 1080.686279 958.605469 M 1055.744629 488.425781 C 906.69873 339.384766 665.123718 339.384766 516.082092 488.425781 C 367.036255 637.47168 367.036255 878.980469 516.082092 1028.026367 C 649.373779 1161.11377 855.536255 1175.30957 1004.577881 1070.880859 C 1009.173706 1067.701172 1013.69873 1064.388672 1018.227905 1060.943359 L 1018.294556 1060.87207 C 1021.544556 1058.438477 1024.786255 1055.87207 1027.965454 1053.234375 C 1031.207031 1050.664063 1034.38623 1047.963867 1037.494629 1045.193359 C 1043.715454 1039.713867 1049.794556 1033.97168 1055.744629 1028.026367 L 1055.811279 1027.959961 C 1060.340454 1023.493164 1064.732056 1018.830078 1068.990356 1014.09668 C 1073.115356 1009.568359 1077.169556 1004.838867 1081.023804 1000.109375 C 1083.661255 996.863281 1086.232056 993.618164 1088.727905 990.37207 L 1088.798706 990.305664 C 1092.244629 985.84668 1095.552856 981.318359 1098.802856 976.72168 C 1203.232056 828.017578 1188.769531 621.451172 1055.744629 488.425781"/>
                <path id="path56" fill="#fffde1" stroke="none" d="M 1092.244141 894.594727 C 1076.227539 931.162109 1053.244141 965.499023 1023.369141 995.374023 C 915.081665 1103.662109 751.169189 1122.453125 623.48584 1051.616211 C 596.581665 1036.945313 571.435791 1018.086914 548.723328 995.374023 C 532.981628 979.561523 519.390015 962.728516 507.498291 945.019531 C 419.694153 814.56543 433.54834 636.25293 548.723328 520.803711 C 557.92334 511.678711 567.585815 503.094727 577.523315 495.053711 C 673.369202 418.874023 801.523315 402.791016 910.890015 446.586914 C 951.92334 462.945313 990.448364 487.544922 1023.369141 520.803711 C 1124.419189 622.12793 1147.398315 771.644531 1092.244141 894.594727 M 1038.169189 505.932617 C 1003.085815 470.719727 962.265015 444.561523 918.73584 427.120117 C 802.540039 380.616211 666.273315 397.71582 564.544128 478.62793 C 553.86499 487.140625 543.656677 496.269531 533.92334 505.932617 C 411.581665 628.682617 396.844177 818.078125 490.060852 956.644531 C 502.764954 975.50293 517.160828 993.416016 533.92334 1010.249023 C 558.052551 1034.307617 584.819153 1054.31543 613.414978 1069.932617 C 729.948364 1134.686523 875.069214 1128.94043 986.598389 1052.899414 C 1004.781616 1040.599609 1022.081665 1026.332031 1038.169189 1010.249023 C 1054.256714 994.162109 1068.452515 976.791016 1080.685791 958.607422 C 1092.785889 940.894531 1103.056641 922.236328 1111.439941 903.178711 C 1169.906616 772.519531 1145.506714 613.673828 1038.169189 505.932617"/>
                <path id="path57" fill="#002f54" stroke="none" d="M 1102.7771 980.696289 C 1105.0979 983.017578 1105.0979 986.78418 1102.7771 989.100586 L 1095.147949 996.730469 L 1024.585449 1067.225586 L 1016.956299 1074.855469 C 1014.635376 1077.175781 1010.872925 1077.175781 1008.552124 1074.855469 L 1004.572876 1070.875977 L 986.59375 1052.896484 C 1004.7771 1040.59668 1022.081299 1026.333984 1038.172974 1010.250977 C 1054.256226 994.15918 1068.447876 976.788086 1080.685425 958.605469 L 1098.802124 976.717773 Z"/>
            </g>
            <path id="path58" fill="#ffffff" stroke="none" d="M 649.570862 858.652344 C 647.670837 858.652344 645.758362 858.081055 644.091675 856.893555 C 639.858337 853.864258 638.87915 847.972656 641.912476 843.744141 L 800.854126 621.364258 C 803.883301 617.126953 809.770874 616.15625 814.00415 619.176758 C 818.241699 622.209961 819.224976 628.097656 816.19165 632.331055 L 657.24585 854.706055 C 655.408325 857.28125 652.512512 858.652344 649.570862 858.652344"/>
            <path id="path59" fill="#ffffff" stroke="none" d="M 739.224609 922.733398 C 737.324585 922.733398 735.412109 922.163086 733.745422 920.975586 C 729.512085 917.942383 728.532898 912.054688 731.566223 907.821289 L 890.512085 685.446289 C 893.537109 681.212891 899.432861 680.233398 903.66626 683.258789 C 907.895386 686.291992 908.878784 692.179688 905.849609 696.413086 L 746.899597 918.788086 C 745.062073 921.363281 742.16626 922.733398 739.224609 922.733398"/>
            <path id="path60" fill="none" stroke="#aded83" stroke-width="20.833334" d="M 782.291626 1385.195313 C 1108.675049 1385.195313 1373.262451 1120.608398 1373.262451 794.220703 C 1373.262451 467.836914 1108.675049 203.25 782.291626 203.25 C 455.908325 203.25 191.320862 467.836914 191.320862 794.220703 C 191.320862 1120.608398 455.908325 1385.195313 782.291626 1385.195313 Z"/>
        </g>
    </g>
</svg>
