<?xml version="1.0" encoding="UTF-8"?>
<!-- Generated by Pixelmator Pro 3.5.7 -->
<svg viewBox="0 0 1565 1468" xmlns="http://www.w3.org/2000/svg">
    <g id="Group-copy">
        <path id="Path" fill="none" stroke="#368900" stroke-width="25" d="M 745.943359 1241.036133 L 782.293335 1201.94043 L 818.63916 1241.036133"/>
        <path id="path1" fill="#368900" stroke="none" d="M 1554.807495 818.453125 L 1554.407471 817.84082 C 1542.365845 799.453125 1541.253296 776.194336 1551.011719 756.874023 L 1554.39917 751.69043 C 1563.190796 738.249023 1566.074219 722.381836 1563.378296 707.419922 C 1561.386719 695.694336 1555.986694 684.494141 1547.299194 675.415039 L 1547.265869 675.381836 C 1540.078369 667.87793 1535.107544 658.848633 1532.482544 649.227539 C 1529.199219 636.585938 1529.978394 622.957031 1535.203369 610.398438 L 1535.21167 610.381836 C 1541.411621 595.490234 1541.299194 579.290039 1535.828369 565.032227 C 1531.71167 553.927734 1524.365845 543.960938 1514.199219 536.665039 L 1514.157471 536.631836 C 1504.511719 529.707031 1497.33667 520.298828 1493.103394 509.723633 C 1488.915894 498.898438 1487.803345 486.886719 1490.307495 475.052734 L 1490.315796 475.006836 C 1492.928345 462.640625 1491.574219 450.207031 1487.02417 439.148438 C 1481.415771 425.069336 1470.624146 413.161133 1456.115845 406.386719 L 1456.09082 406.374023 C 1442.565796 400.056641 1432.140869 389.173828 1426.249146 376.085938 C 1422.77417 368.107422 1420.974121 359.332031 1421.182495 350.282227 L 1421.182495 350.227539 C 1421.436646 339.381836 1418.799194 329.02832 1413.936646 319.96582 C 1406.111694 305.015625 1392.21582 293.515625 1374.986694 289.094727 L 1374.982544 289.094727 C 1361.882568 285.732422 1350.59082 278.223633 1342.478394 268.09082 C 1337.661621 261.919922 1334.045044 254.794922 1331.874146 247.069336 L 1330.857544 240.75293 C 1328.549194 226.365234 1321.282471 213.794922 1310.949219 204.669922 C 1300.994995 195.511719 1288.02002 189.636719 1273.753296 188.665039 L 1273.678345 188.661133 C 1263.136719 187.94043 1253.21582 184.532227 1244.694946 179.023438 C 1234.240845 171.898438 1226.011597 161.582031 1221.570068 149.169922 L 1221.561646 149.15332 C 1216.619995 135.352539 1207.08667 124.286133 1195.157471 117.223633 C 1183.719971 110.107422 1169.940796 106.756836 1155.790894 108.411133 L 1155.744995 108.419922 C 1144.003296 109.790039 1132.415771 107.694336 1122.194946 102.782227 C 1112.02002 97.585938 1103.290894 89.552734 1097.27002 79.282227 L 1097.244995 79.240234 C 1090.84082 68.306641 1081.440796 60.011719 1070.594971 54.898438 C 1068.969971 54.111328 1067.307495 53.407227 1065.624146 52.765625 C 1053.011719 47.811523 1038.77002 47.02832 1025.094971 51.298828 L 1025.078369 51.306641 C 1013.724121 54.848633 1001.869995 54.919922 990.857422 51.923828 C 988.295044 51.194336 985.790894 50.282227 983.344971 49.223633 C 975.378296 45.661133 968.119995 40.369141 962.170044 33.519531 L 962.136719 33.477539 C 955.007568 25.269531 946.069946 19.381836 936.349243 15.953125 C 932.953369 14.71582 929.453247 13.802734 925.90332 13.181641 C 924.953369 13.006836 923.994995 12.90332 923.040894 12.773438 C 922.549194 12.710938 922.061646 12.611328 921.569946 12.561523 C 909.661621 11.223633 897.315796 13.348633 886.132568 19.282227 L 886.119995 19.286133 C 875.599243 24.874023 863.944946 27.119141 852.557495 26.194336 C 851.240845 26.073242 849.932495 25.90332 848.628296 25.694336 C 838.71167 23.990234 829.170044 19.844727 820.96582 13.319336 L 820.932495 13.294922 C 811.040894 5.431641 799.315918 1.085938 787.390869 0.210938 C 783.994995 -0.072266 780.58252 -0.072266 777.186646 0.210938 C 765.261658 1.085938 753.540833 5.431641 743.64917 13.294922 L 743.619995 13.319336 C 735.407471 19.848633 725.861633 23.994141 715.936707 25.699219 C 714.644958 25.90332 713.344971 26.073242 712.036682 26.194336 C 700.64502 27.124023 688.986694 24.874023 678.46167 19.286133 L 678.453369 19.282227 C 667.27417 13.352539 654.932495 11.223633 643.02832 12.561523 C 641.665833 12.699219 640.311646 12.911133 638.96167 13.140625 C 638.878357 13.157227 638.790833 13.161133 638.70752 13.177734 C 635.124146 13.798828 631.599121 14.719727 628.178284 15.973633 C 618.478333 19.40332 609.561707 25.286133 602.449219 33.477539 L 602.411682 33.519531 C 596.474182 40.352539 589.236694 45.631836 581.294983 49.194336 C 578.811646 50.273438 576.274109 51.198242 573.674194 51.936523 C 562.678345 54.915039 550.84082 54.844727 539.503296 51.306641 L 539.486633 51.298828 C 525.83252 47.036133 511.611633 47.806641 499.015808 52.740234 C 497.282471 53.398438 495.574158 54.124023 493.907532 54.936523 C 483.095032 60.052734 473.728271 68.335938 467.336609 79.240234 L 467.311707 79.282227 C 461.295044 89.552734 452.561646 97.585938 442.386719 102.782227 C 432.165894 107.694336 420.58252 109.790039 408.840759 108.419922 L 408.790833 108.411133 C 394.64502 106.756836 380.861633 110.107422 369.424133 117.223633 C 357.494934 124.286133 347.96167 135.352539 343.019958 149.15332 L 343.015869 149.169922 C 338.570007 161.582031 330.34082 171.898438 319.886597 179.023438 C 311.365845 184.532227 301.444946 187.94043 290.90332 188.661133 L 290.832458 188.665039 C 276.561707 189.636719 263.58667 195.511719 253.632446 204.669922 C 243.299194 213.794922 236.036652 226.365234 233.724182 240.75293 L 232.740875 246.865234 C 230.557465 254.740234 226.878326 261.999023 221.957489 268.260742 C 213.857483 278.306641 202.624207 285.75293 189.603394 289.094727 L 189.595001 289.094727 C 173.924225 293.115234 161.02417 303.00293 152.932434 316.00293 C 146.590881 325.953125 143.09079 337.773438 143.378296 350.232422 L 143.378296 350.286133 C 143.619995 360.673828 141.199188 370.694336 136.644958 379.574219 C 130.549194 391.098633 120.799225 400.624023 108.490845 406.374023 L 108.46579 406.386719 C 95.394989 412.490234 85.357513 422.769531 79.394989 435.040039 C 73.369934 447.074219 71.307465 461.085938 74.249115 475.006836 L 74.261688 475.061523 C 77.036621 488.199219 75.34494 501.548828 69.953369 513.25293 C 65.607544 522.390625 58.986633 530.486328 50.424164 536.631836 L 50.382446 536.665039 C 40.257477 543.936523 32.924103 553.848633 28.794952 564.90332 C 23.278381 579.19043 23.140808 595.444336 29.361694 610.381836 L 29.369965 610.40332 C 34.811615 623.477539 35.3992 637.699219 31.640839 650.769531 C 28.915863 659.811523 24.115845 668.27832 17.319946 675.381836 L 17.286652 675.415039 C 8.594971 684.490234 3.199219 695.69043 1.207443 707.415039 C -1.492477 722.37793 1.390808 738.244141 10.182526 751.686523 L 13.565796 756.861328 C 23.328369 776.186523 22.21994 799.449219 10.174133 817.84082 L 9.774109 818.453125 C -5.534149 841.986328 -2.617554 872.96582 16.811707 893.232422 C 33.661621 910.806641 38.536682 936.677734 29.232483 959.173828 L 29.124146 959.44043 C 18.307465 985.594727 26.903381 1015.756836 49.886658 1032.27832 L 49.932434 1032.31543 C 69.474121 1046.365234 78.924133 1070.598633 74.053284 1094.173828 L 73.853394 1095.15332 C 68.140869 1122.794922 82.194977 1150.732422 107.799103 1162.619141 L 107.815765 1162.62793 C 129.724213 1172.798828 143.524139 1194.982422 142.974182 1219.12793 L 142.96579 1219.515625 C 142.315887 1247.865234 161.261719 1272.927734 188.711639 1280.040039 L 195.40744 1281.773438 C 199.353363 1282.794922 203.34494 1283.394531 207.332458 1283.615234 L 207.332458 1283.615234 C 209.674164 1283.744141 212.015869 1283.75293 214.34082 1283.615234 L 214.757507 1283.615234 C 275.778259 1283.615234 334.882446 1303.506836 384.432434 1339.119141 C 387.544983 1341.357422 390.686646 1343.561523 393.83667 1345.749023 C 394.570007 1346.256836 395.299133 1346.765625 396.036621 1347.269531 C 399.065857 1349.357422 402.111633 1351.419922 405.174194 1353.457031 C 405.874207 1353.923828 406.582458 1354.385742 407.282471 1354.848633 C 417.015808 1361.265625 426.915833 1367.44043 436.986633 1373.365234 C 437.782532 1373.832031 438.574158 1374.306641 439.370056 1374.773438 C 442.303284 1376.482422 445.257507 1378.161133 448.21582 1379.828125 C 449.465759 1380.532227 450.715881 1381.232422 451.969971 1381.927734 C 454.861694 1383.532227 457.757507 1385.119141 460.674133 1386.681641 C 461.861633 1387.319336 463.057556 1387.94043 464.249146 1388.569336 C 473.720032 1393.574219 483.324158 1398.357422 493.053345 1402.919922 C 494.703308 1403.694336 496.349182 1404.473633 498.007507 1405.236328 C 500.674133 1406.460938 503.349121 1407.661133 506.032532 1408.852539 C 507.890869 1409.677734 509.757507 1410.490234 511.619995 1411.298828 C 514.236694 1412.427734 516.853333 1413.561523 519.486633 1414.661133 C 521.503357 1415.50293 523.532532 1416.31543 525.557495 1417.140625 C 529.832458 1418.87793 534.128357 1420.578125 538.445007 1422.227539 C 540.845032 1423.148438 543.240845 1424.078125 545.65332 1424.969727 C 548.040833 1425.852539 550.440796 1426.703125 552.84082 1427.561523 C 555.199158 1428.40332 557.561646 1429.240234 559.936707 1430.056641 C 562.299194 1430.874023 564.670044 1431.677734 567.044983 1432.46582 C 569.578308 1433.306641 572.119995 1434.12793 574.665833 1434.94043 C 576.890869 1435.648438 579.111633 1436.369141 581.345032 1437.056641 C 585.161682 1438.232422 588.990784 1439.365234 592.83252 1440.477539 C 595.178284 1441.15332 597.528381 1441.802734 599.882446 1442.457031 C 603.119995 1443.352539 606.361694 1444.240234 609.615845 1445.09082 C 611.699219 1445.636719 613.786682 1446.15332 615.878296 1446.677734 C 618.824158 1447.415039 621.77417 1448.140625 624.736694 1448.84082 C 626.807495 1449.328125 628.882507 1449.81543 630.961609 1450.286133 C 634.240784 1451.032227 637.532532 1451.740234 640.828369 1452.436523 C 642.545044 1452.798828 644.257507 1453.177734 645.978333 1453.52832 C 650.853333 1454.515625 655.740845 1455.453125 660.65332 1456.34082 C 662.14502 1456.607422 663.64917 1456.848633 665.14917 1457.107422 C 668.77832 1457.736328 672.420044 1458.344727 676.070007 1458.915039 C 677.96582 1459.210938 679.865845 1459.494141 681.769958 1459.773438 C 685.165833 1460.27832 688.570007 1460.75293 691.982483 1461.203125 C 693.815857 1461.444336 695.65332 1461.694336 697.494995 1461.919922 C 701.611694 1462.431641 705.744995 1462.90332 709.890808 1463.34082 C 710.953369 1463.453125 712.011658 1463.582031 713.078308 1463.69043 C 718.244995 1464.210938 723.432495 1464.665039 728.632507 1465.069336 C 730.144958 1465.19043 731.661682 1465.282227 733.178345 1465.390625 C 736.982483 1465.661133 740.794983 1465.907227 744.619995 1466.115234 C 746.436646 1466.21582 748.261658 1466.302734 750.082458 1466.386719 C 753.811646 1466.561523 757.549194 1466.698242 761.295044 1466.811523 C 762.953369 1466.865234 764.607544 1466.923828 766.265808 1466.960938 C 771.595032 1467.085938 776.932495 1467.165039 782.290771 1467.165039 C 787.64917 1467.165039 792.990845 1467.085938 798.319946 1466.960938 C 799.978394 1466.923828 801.632568 1466.865234 803.286621 1466.811523 C 807.032471 1466.698242 810.77002 1466.561523 814.499146 1466.386719 C 816.324219 1466.302734 818.14502 1466.21582 819.96167 1466.115234 C 823.786621 1465.907227 827.599121 1465.661133 831.40332 1465.390625 C 832.919922 1465.282227 834.436646 1465.19043 835.949219 1465.069336 C 841.14917 1464.665039 846.33667 1464.210938 851.503296 1463.69043 C 852.569946 1463.582031 853.628296 1463.453125 854.695068 1463.34082 C 858.83667 1462.90332 862.969971 1462.431641 867.08667 1461.923828 C 868.928345 1461.694336 870.765869 1461.444336 872.603271 1461.203125 C 876.015869 1460.75293 879.415894 1460.27832 882.811646 1459.773438 C 884.71167 1459.494141 886.615845 1459.210938 888.511719 1458.915039 C 892.161621 1458.344727 895.799194 1457.736328 899.432495 1457.107422 C 900.928345 1456.848633 902.436646 1456.607422 903.932495 1456.34082 C 908.84082 1455.453125 913.732544 1454.515625 918.603394 1453.52832 C 920.324219 1453.177734 922.036621 1452.798828 923.753296 1452.436523 C 927.049194 1451.740234 930.34082 1451.032227 933.619995 1450.286133 C 935.699219 1449.81543 937.77417 1449.328125 939.849121 1448.835938 C 942.807495 1448.140625 945.757568 1447.419922 948.699097 1446.677734 C 950.790771 1446.15332 952.882446 1445.636719 954.969971 1445.09082 C 958.219971 1444.240234 961.453369 1443.357422 964.682495 1442.460938 C 967.053345 1441.802734 969.424194 1441.144531 971.786621 1440.46582 C 975.615845 1439.361328 979.432495 1438.232422 983.232544 1437.061523 C 985.469971 1436.369141 987.695068 1435.648438 989.924194 1434.94043 C 992.46582 1434.12793 995.003296 1433.306641 997.532471 1432.469727 C 999.915894 1431.677734 1002.290771 1430.869141 1004.661621 1430.052734 C 1007.02417 1429.240234 1009.374146 1428.407227 1011.724121 1427.56543 C 1014.128296 1426.707031 1016.536621 1425.852539 1018.928345 1424.969727 C 1021.324219 1424.082031 1023.703369 1423.161133 1026.08667 1422.249023 C 1030.432495 1420.585938 1034.753296 1418.87793 1039.053345 1417.12793 C 1041.070068 1416.311523 1043.08667 1415.499023 1045.094971 1414.661133 C 1047.736694 1413.556641 1050.361694 1412.423828 1052.982544 1411.286133 C 1054.83667 1410.486328 1056.686646 1409.677734 1058.52832 1408.861328 C 1061.219971 1407.665039 1063.907471 1406.460938 1066.58252 1405.232422 C 1068.232544 1404.473633 1069.874146 1403.699219 1071.515869 1402.927734 C 1081.261719 1398.357422 1090.874146 1393.56543 1100.361694 1388.556641 C 1101.540894 1387.931641 1102.728271 1387.31543 1103.90332 1386.686523 C 1106.824219 1385.124023 1109.728271 1383.52832 1112.619995 1381.923828 C 1113.869995 1381.232422 1115.115845 1380.536133 1116.357544 1379.835938 C 1119.324219 1378.165039 1122.27832 1376.482422 1125.219971 1374.769531 C 1126.007446 1374.311523 1126.790894 1373.84082 1127.578369 1373.374023 C 1137.657471 1367.444336 1147.574219 1361.261719 1157.315796 1354.835938 C 1158.011597 1354.37793 1158.70752 1353.923828 1159.39917 1353.46582 C 1162.469971 1351.423828 1165.52002 1349.352539 1168.557495 1347.265625 C 1169.282471 1346.765625 1170.007568 1346.261719 1170.732544 1345.756836 C 1173.886719 1343.56543 1177.036621 1341.361328 1180.15332 1339.115234 C 1229.703369 1303.506836 1288.803345 1283.615234 1349.824219 1283.615234 L 1350.240845 1283.615234 C 1352.565796 1283.75293 1354.907471 1283.744141 1357.249146 1283.615234 L 1358.828369 1283.615234 L 1358.828369 1283.499023 C 1362.290894 1283.21582 1365.753296 1282.661133 1369.174194 1281.773438 L 1375.869995 1280.040039 C 1403.319946 1272.927734 1422.265869 1247.865234 1421.615845 1219.515625 L 1421.607544 1219.12793 C 1421.057495 1194.982422 1434.857544 1172.798828 1456.765869 1162.62793 L 1456.786621 1162.619141 C 1482.52002 1150.669922 1496.574219 1122.515625 1490.65332 1094.769531 L 1490.607544 1094.556641 C 1485.557495 1070.87793 1494.990845 1046.449219 1514.64917 1032.31543 L 1514.694946 1032.27832 C 1537.678345 1015.756836 1546.27417 985.594727 1535.45752 959.44043 L 1535.349121 959.173828 C 1526.049194 936.677734 1530.920044 910.806641 1547.77002 893.232422 C 1567.203369 872.96582 1570.115845 841.986328 1554.807495 818.453125"/>
        <path id="path2" fill="#368900" stroke="none" d="M 782.291626 1387.904297 C 1110.170898 1387.904297 1375.974976 1122.104492 1375.974976 794.220703 C 1375.974976 466.341797 1110.170898 200.541992 782.291626 200.541992 C 454.412476 200.541992 188.608368 466.341797 188.608368 794.220703 C 188.608368 1122.104492 454.412476 1387.904297 782.291626 1387.904297"/>
        <clipPath id="clipPath-emN5T-1">
            <path d="M 188.612488 794.224609 C 188.612488 1122.103516 454.412537 1387.904297 782.291626 1387.904297 L 782.291626 1387.904297 C 1110.174927 1387.904297 1375.975037 1122.103516 1375.975037 794.224609 L 1375.975037 794.224609 C 1375.975037 466.341797 1110.174927 200.541016 782.291626 200.541016 L 782.291626 200.541016 C 454.412537 200.541016 188.612488 466.341797 188.612488 794.224609"/>
        </clipPath>
        <g id="Group" clip-path="url(#clipPath-emN5T-1)">
            <path id="path3" fill="#8c5819" stroke="none" d="M 1130.75415 426.583008 C 1130.75415 411.253906 1118.537476 398.833008 1103.466675 398.833008 L 479.699951 398.833008 C 464.675049 398.833008 452.37915 411.336914 452.37915 426.620117 L 452.37915 1245.886719 C 452.37915 1261.21582 464.595825 1273.636719 479.662537 1273.636719 L 1103.43335 1273.636719 C 1118.458374 1273.636719 1130.75415 1261.132813 1130.75415 1245.849609 Z"/>
            <path id="path4" fill="#fff9f0" stroke="none" d="M 1108.741699 421.382813 C 1108.741699 421.061523 1108.474976 420.798828 1108.141724 420.798828 L 474.991638 420.798828 C 474.658386 420.798828 474.391663 421.061523 474.391663 421.382813 L 474.391663 1248.257813 C 474.391663 1248.582031 474.658386 1248.836914 474.991638 1248.836914 L 1108.141724 1248.836914 C 1108.474976 1248.836914 1108.741699 1248.582031 1108.741699 1248.257813 Z"/>
            <path id="path5" fill="none" stroke="#286fb7" stroke-width="5.9375" stroke-linecap="round" stroke-linejoin="round" d="M 602.019592 1155.783203 L 1048.086304 1155.783203"/>
            <path id="path6" fill="none" stroke="#286fb7" stroke-width="5.9375" stroke-linecap="round" stroke-linejoin="round" d="M 602.019592 1183.886719 L 690.407104 1183.886719"/>
        </g>
        <clipPath id="clipPath-emN5T-2">
            <path d="M 188.612488 794.224609 C 188.612488 1122.103516 454.412537 1387.904297 782.291626 1387.904297 L 782.291626 1387.904297 C 1110.174927 1387.904297 1375.975037 1122.103516 1375.975037 794.224609 L 1375.975037 794.224609 C 1375.975037 466.341797 1110.174927 200.541016 782.291626 200.541016 L 782.291626 200.541016 C 454.412537 200.541016 188.612488 466.341797 188.612488 794.224609"/>
        </clipPath>
        <g id="g1" clip-path="url(#clipPath-emN5T-2)">
            <path id="path7" fill="none" stroke="#286fb7" stroke-width="5.9375" stroke-linecap="round" stroke-linejoin="round" d="M 602.019592 1077.538086 L 1048.086304 1077.538086"/>
            <path id="path8" fill="none" stroke="#286fb7" stroke-width="5.9375" stroke-linecap="round" stroke-linejoin="round" d="M 602.019592 1104.364258 L 998.265381 1104.364258"/>
            <path id="path9" fill="none" stroke="#286fb7" stroke-width="5.9375" stroke-linecap="round" stroke-linejoin="round" d="M 602.019592 1010.459961 L 985.494629 1010.459961"/>
            <path id="path10" fill="none" stroke="#286fb7" stroke-width="5.9375" stroke-linecap="round" stroke-linejoin="round" d="M 602.019592 925.444336 L 1048.086304 925.444336"/>
            <path id="path11" fill="none" stroke="#286fb7" stroke-width="5.9375" stroke-linecap="round" stroke-linejoin="round" d="M 602.019592 950.993164 L 841.140381 950.993164"/>
            <path id="path12" fill="#cc5454" stroke="none" d="M 567.522522 1016.186523 C 567.522522 1029.824219 556.468323 1040.882813 542.82666 1040.882813 C 529.189148 1040.882813 518.126648 1029.824219 518.126648 1016.186523 C 518.126648 1002.548828 529.189148 991.491211 542.82666 991.491211 C 556.468323 991.491211 567.522522 1002.548828 567.522522 1016.186523"/>
            <path id="path13" fill="#002f54" stroke="none" d="M 567.522522 941.421875 C 567.522522 955.05957 556.468323 966.117188 542.82666 966.117188 C 529.189148 966.117188 518.126648 955.05957 518.126648 941.421875 C 518.126648 927.78418 529.189148 916.725586 542.82666 916.725586 C 556.468323 916.725586 567.522522 927.78418 567.522522 941.421875"/>
            <path id="path14" fill="#fff8f0" stroke="none" d="M 556.696655 932.924805 L 554.013306 930.241211 C 553.184143 929.416016 551.842529 929.416016 551.013306 930.241211 L 539.755005 941.507813 C 539.28418 941.978516 538.517517 941.978516 538.050842 941.507813 L 534.634155 938.095703 C 533.809143 937.270508 532.467529 937.270508 531.642517 938.095703 L 528.955017 940.783203 C 528.130005 941.612305 528.130005 942.954102 528.955017 943.77832 L 538.067505 952.866211 C 538.53418 953.34082 539.300842 953.34082 539.771667 952.866211 L 556.696655 935.924805 C 557.525818 935.09082 557.521667 933.75 556.696655 932.924805"/>
            <path id="path15" fill="#002f54" stroke="none" d="M 567.522522 1090.950195 C 567.522522 1104.587891 556.468323 1115.646484 542.82666 1115.646484 C 529.189148 1115.646484 518.126648 1104.587891 518.126648 1090.950195 C 518.126648 1077.3125 529.189148 1066.254883 542.82666 1066.254883 C 556.468323 1066.254883 567.522522 1077.3125 567.522522 1090.950195"/>
            <path id="path16" fill="#fff8f0" stroke="none" d="M 556.696655 1082.453125 L 554.013306 1079.769531 C 553.184143 1078.945313 551.842529 1078.945313 551.013306 1079.769531 L 539.755005 1091.037109 C 539.28418 1091.507813 538.517517 1091.507813 538.050842 1091.037109 L 534.634155 1087.624023 C 533.809143 1086.798828 532.467529 1086.798828 531.642517 1087.624023 L 528.955017 1090.311523 C 528.130005 1091.136719 528.130005 1092.478516 528.955017 1093.307617 L 538.067505 1102.394531 C 538.53418 1102.870117 539.300842 1102.870117 539.771667 1102.394531 L 556.696655 1085.449219 C 557.525818 1084.620117 557.521667 1083.27832 556.696655 1082.453125"/>
            <path id="path17" fill="#002f54" stroke="none" d="M 567.522522 1165.71582 C 567.522522 1179.352539 556.468323 1190.411133 542.82666 1190.411133 C 529.189148 1190.411133 518.126648 1179.352539 518.126648 1165.71582 C 518.126648 1152.078125 529.189148 1141.019531 542.82666 1141.019531 C 556.468323 1141.019531 567.522522 1152.078125 567.522522 1165.71582"/>
            <path id="path18" fill="#fff8f0" stroke="none" d="M 556.696655 1157.21875 L 554.013306 1154.535156 C 553.184143 1153.709961 551.842529 1153.709961 551.013306 1154.535156 L 539.755005 1165.801758 C 539.28418 1166.272461 538.517517 1166.272461 538.050842 1165.801758 L 534.634155 1162.389648 C 533.809143 1161.564453 532.467529 1161.564453 531.642517 1162.389648 L 528.955017 1165.077148 C 528.130005 1165.901367 528.130005 1167.243164 528.955017 1168.068359 L 538.067505 1177.160156 C 538.53418 1177.634766 539.300842 1177.634766 539.771667 1177.160156 L 556.696655 1160.213867 C 557.525818 1159.384766 557.521667 1158.042969 556.696655 1157.21875"/>
            <path id="path19" fill="#8c5819" stroke="none" d="M 944.299561 474.805664 L 638.832947 474.805664 C 634.720398 474.805664 631.382935 471.46875 631.382935 467.355469 L 631.382935 383.522461 C 631.382935 381.976563 632.632874 380.730469 634.17041 380.730469 L 948.957886 380.730469 C 950.503784 380.730469 951.749634 381.976563 951.749634 383.522461 L 951.749634 467.355469 C 951.749634 471.46875 948.412109 474.805664 944.299561 474.805664"/>
            <path id="path20" fill="#dcd7ce" stroke="none" d="M 928.974609 440.02832 C 928.974609 446.802734 923.48291 452.286133 916.716309 452.286133 C 909.941284 452.286133 904.453735 446.802734 904.453735 440.02832 C 904.453735 433.25293 909.941284 427.769531 916.716309 427.769531 C 923.48291 427.769531 928.974609 433.25293 928.974609 440.02832"/>
            <path id="path21" fill="#dcd7ce" stroke="none" d="M 678.679993 440.02832 C 678.679993 446.802734 673.188354 452.286133 666.421692 452.286133 C 659.646667 452.286133 654.15918 446.802734 654.15918 440.02832 C 654.15918 433.25293 659.646667 427.769531 666.421692 427.769531 C 673.188354 427.769531 678.679993 433.25293 678.679993 440.02832"/>
            <path id="path22" fill="#0099cc" stroke="none" d="M 791.358276 346.573242 C 784.554199 346.573242 778.920776 329.668945 778.920776 322.676758 C 778.920776 315.676758 784.554199 310.239258 791.358276 310.239258 C 798.349976 310.239258 803.987549 315.676758 803.987549 322.676758 C 803.987549 329.668945 798.349976 346.573242 791.358276 346.573242 M 899.383301 364.064453 L 858.391724 364.064453 C 838.958374 364.064453 823.025024 353.369141 823.025024 340.160156 L 823.025024 316.264648 C 823.025024 304.410156 808.645874 294.698242 790.966675 294.698242 C 773.091675 294.698242 758.712524 304.410156 758.712524 316.264648 L 758.712524 340.160156 C 758.712524 353.369141 742.783325 364.064453 723.354187 364.064453 L 683.520813 364.064453 C 674.00415 364.064453 666.229187 371.831055 666.229187 381.352539 L 666.229187 414.185547 L 916.679199 414.185547 L 916.679199 381.352539 C 916.679199 371.831055 908.900024 364.064453 899.383301 364.064453"/>
            <path id="path23" fill="#286fb7" stroke="none" d="M 825.397095 558.443359 C 809.692871 550.71875 791.93042 546.34375 772.880432 546.34375 C 744.55957 546.34375 718.30127 555.868164 697.963745 572.347656 C 673.763733 591.65625 657.288757 619.709961 653.43042 651.376953 C 652.659607 656.526367 652.397095 661.672852 652.397095 666.827148 C 652.397095 690.764648 659.097107 713.164063 671.192932 731.697266 C 685.092896 753.064453 705.688782 770.055664 729.884583 779.322266 C 743.272095 784.46875 757.692932 787.301758 772.880432 787.301758 C 782.917969 787.301758 792.701294 786.276367 801.972046 783.697266 C 801.972046 783.697266 781.18457 734.910156 825.438721 699.860352 Z"/>
            <path id="path24" fill="#4cb648" stroke="none" d="M 812.010864 712.648438 L 796.823364 712.648438 C 792.960815 712.648438 789.61084 711.87793 786.523315 710.332031 C 778.285889 706.46875 772.881653 698.490234 772.881653 688.964844 C 772.881653 679.435547 778.285889 671.202148 786.523315 667.598633 C 789.61084 665.793945 792.960815 665.277344 796.823364 665.277344 L 823.856689 665.277344 L 825.398315 665.277344 L 825.439941 699.852539 C 825.439941 699.852539 817.381714 704.332031 812.010864 712.648438"/>
            <path id="path25" fill="#4cb648" stroke="none" d="M 742.717896 627.892578 C 742.717896 640.634766 732.334595 651.255859 719.355408 651.484375 L 718.888733 651.484375 L 653.530396 651.484375 C 657.30542 619.634766 673.822083 591.55957 697.888733 572.447266 C 696.947083 574.805664 696.472107 577.401367 696.472107 580.234375 C 696.472107 593.209961 706.61792 603.592773 719.355408 604.063477 C 732.334595 604.300781 742.717896 614.914063 742.717896 627.892578"/>
            <path id="path26" fill="#4cb648" stroke="none" d="M 762.538757 755.541016 C 762.538757 768.519531 751.922058 779.370117 738.709595 779.370117 L 729.976257 779.370117 C 705.67627 770.169922 685.147095 753.178711 671.230408 731.711914 L 738.709595 731.711914 C 751.922058 731.711914 762.538757 742.324219 762.538757 755.541016"/>
            <path id="path27" fill="#ffffff" stroke="none" d="M 823.915894 659.638672 L 823.915894 705.896484 C 819.453369 708.938477 815.599121 712.796875 812.349121 716.850586 C 803.83252 726.99707 798.757446 739.980469 798.757446 754.179688 C 798.757446 760.467773 799.77002 766.763672 801.599121 772.442383 C 809.303345 796.179688 831.628296 813.225586 857.799194 813.225586 C 890.261719 813.225586 916.84082 786.84668 916.84082 754.179688 C 916.84082 734.300781 906.690796 716.650391 891.678345 705.896484 L 891.678345 564.34668 C 891.678345 545.679688 876.46167 530.467773 857.799194 530.467773 C 839.132446 530.467773 823.915894 545.679688 823.915894 564.34668 L 823.915894 565.600586 L 823.915894 567.22168 L 823.915894 651.521484 Z"/>
            <path id="path28" fill="none" stroke="#002f54" stroke-width="5.9375" d="M 823.915894 659.638672 L 823.915894 705.896484 C 819.453369 708.938477 815.599121 712.796875 812.349121 716.850586 C 803.83252 726.99707 798.757446 739.980469 798.757446 754.179688 C 798.757446 760.467773 799.77002 766.763672 801.599121 772.442383 C 809.303345 796.179688 831.628296 813.225586 857.799194 813.225586 C 890.261719 813.225586 916.84082 786.84668 916.84082 754.179688 C 916.84082 734.300781 906.690796 716.650391 891.678345 705.896484 L 891.678345 564.34668 C 891.678345 545.679688 876.46167 530.467773 857.799194 530.467773 C 839.132446 530.467773 823.915894 545.679688 823.915894 564.34668 L 823.915894 565.600586 L 823.915894 567.22168 L 823.915894 651.521484 L 823.915894 659.638672 Z"/>
            <path id="path29" fill="none" stroke="#cc5454" stroke-width="17.8125" stroke-linecap="round" stroke-linejoin="round" d="M 857.740845 600.166992 L 857.740845 754.878906"/>
            <path id="path30" fill="#cc5454" stroke="none" d="M 876.431641 754.880859 C 876.431641 765.206055 868.060791 773.568359 857.744141 773.568359 C 847.419189 773.568359 839.04834 765.206055 839.04834 754.880859 C 839.04834 744.555664 847.419189 736.193359 857.744141 736.193359 C 868.060791 736.193359 876.431641 744.555664 876.431641 754.880859"/>
            <path id="path31" fill="#ffc776" stroke="none" d="M 983.607056 1014.920898 L 990.744629 1021.350586 L 960.602905 1054.925781 L 953.465454 1048.529297 L 898.527954 968.933594 Z"/>
            <path id="path32" fill="#faad23" stroke="none" d="M 1313.260376 1305.173828 L 1283.118774 1338.782227 L 953.4646 1048.523438 L 983.606323 1014.923828 Z"/>
            <path id="path33" fill="#002f54" stroke="none" d="M 898.525024 968.936523 L 922.212524 1003.249023 L 935.208374 988.765625 Z"/>
            <path id="path34" fill="none" stroke="#d18a22" stroke-width="5.9375" stroke-linecap="round" stroke-linejoin="round" d="M 969.097534 1033.046875 L 1298.751709 1323.296875"/>
            <path id="path35" fill="#ff6462" stroke="none" d="M 1283.12207 1338.780273 L 1313.263794 1305.171875 L 1332.788696 1322.693359 C 1335.922119 1325.500977 1336.18457 1330.322266 1333.376221 1333.455078 L 1313.417969 1355.713867 C 1310.605469 1358.84668 1305.788696 1359.109375 1302.655396 1356.292969 Z"/>
            <path id="path36" fill="#fffde1" stroke="none" d="M 1249.516235 1308.641602 L 1279.657959 1275.033203 L 1313.257935 1305.174805 L 1283.124634 1338.783203 Z"/>
            <path id="path37" fill="#a8a49e" stroke="none" d="M 1257.91748 1316.175781 L 1288.059204 1282.568359 L 1304.859131 1297.642578 L 1274.717529 1331.243164 Z"/>
        </g>
        <path id="path38" fill="none" stroke="#aded83" stroke-width="20.833334" d="M 782.291626 1387.904297 C 1110.170898 1387.904297 1375.974976 1122.104492 1375.974976 794.220703 C 1375.974976 466.341797 1110.170898 200.541992 782.291626 200.541992 C 454.412476 200.541992 188.608368 466.341797 188.608368 794.220703 C 188.608368 1122.104492 454.412476 1387.904297 782.291626 1387.904297 Z"/>
    </g>
</svg>
