<?xml version="1.0" encoding="UTF-8"?>
<!-- Generated by Pixelmator Pro 3.5.7 -->
<svg viewBox="0 0 1565 1468" xmlns="http://www.w3.org/2000/svg">
    <path id="Path-copy-3" fill="#207f6d" stroke="none" d="M 1554.807495 818.453125 L 1554.407471 817.84082 C 1542.365845 799.453125 1541.253296 776.194336 1551.011719 756.874023 L 1554.39917 751.69043 C 1563.190796 738.249023 1566.074219 722.381836 1563.378296 707.419922 C 1561.386719 695.694336 1555.986694 684.494141 1547.299194 675.415039 L 1547.265869 675.381836 C 1540.078369 667.87793 1535.107544 658.848633 1532.482544 649.227539 C 1529.199219 636.585938 1529.978394 622.957031 1535.203369 610.398438 L 1535.21167 610.381836 C 1541.411621 595.490234 1541.299194 579.290039 1535.828369 565.032227 C 1531.71167 553.927734 1524.365845 543.960938 1514.199219 536.665039 L 1514.157471 536.631836 C 1504.511719 529.707031 1497.33667 520.298828 1493.103394 509.723633 C 1488.915894 498.898438 1487.803345 486.886719 1490.307495 475.052734 L 1490.315796 475.006836 C 1492.928345 462.640625 1491.574219 450.207031 1487.02417 439.148438 C 1481.415771 425.069336 1470.624146 413.161133 1456.115845 406.386719 L 1456.09082 406.374023 C 1442.565796 400.056641 1432.140869 389.173828 1426.249146 376.085938 C 1422.77417 368.107422 1420.974121 359.332031 1421.182495 350.282227 L 1421.182495 350.227539 C 1421.436646 339.381836 1418.799194 329.02832 1413.936646 319.96582 C 1406.111694 305.015625 1392.21582 293.515625 1374.986694 289.094727 L 1374.982544 289.094727 C 1361.882568 285.732422 1350.59082 278.223633 1342.478394 268.09082 C 1337.661621 261.919922 1334.045044 254.794922 1331.874146 247.069336 L 1330.857544 240.75293 C 1328.549194 226.365234 1321.282471 213.794922 1310.949219 204.669922 C 1300.994995 195.511719 1288.02002 189.636719 1273.753296 188.665039 L 1273.678345 188.661133 C 1263.136719 187.94043 1253.21582 184.532227 1244.694946 179.023438 C 1234.240845 171.898438 1226.011597 161.582031 1221.570068 149.169922 L 1221.561646 149.15332 C 1216.619995 135.352539 1207.08667 124.286133 1195.157471 117.223633 C 1183.719971 110.107422 1169.940796 106.756836 1155.790894 108.411133 L 1155.744995 108.419922 C 1144.003296 109.790039 1132.415771 107.694336 1122.194946 102.782227 C 1112.02002 97.585938 1103.290894 89.552734 1097.27002 79.282227 L 1097.244995 79.240234 C 1090.84082 68.306641 1081.440796 60.011719 1070.594971 54.898438 C 1068.969971 54.111328 1067.307495 53.407227 1065.624146 52.765625 C 1053.011719 47.811523 1038.77002 47.02832 1025.094971 51.298828 L 1025.078369 51.306641 C 1013.724121 54.848633 1001.869995 54.919922 990.857422 51.923828 C 988.295044 51.194336 985.790894 50.282227 983.344971 49.223633 C 975.378296 45.661133 968.119995 40.369141 962.170044 33.519531 L 962.136719 33.477539 C 955.007568 25.269531 946.069946 19.381836 936.349243 15.953125 C 932.953369 14.71582 929.453247 13.802734 925.90332 13.181641 C 924.953369 13.006836 923.994995 12.90332 923.040894 12.773438 C 922.549194 12.710938 922.061646 12.611328 921.569946 12.561523 C 909.661621 11.223633 897.315796 13.348633 886.132568 19.282227 L 886.119995 19.286133 C 875.599243 24.874023 863.944946 27.119141 852.557495 26.194336 C 851.240845 26.073242 849.932495 25.90332 848.628296 25.694336 C 838.71167 23.990234 829.170044 19.844727 820.96582 13.319336 L 820.932495 13.294922 C 811.040894 5.431641 799.315918 1.085938 787.390869 0.210938 C 783.994995 -0.072266 780.58252 -0.072266 777.186646 0.210938 C 765.261658 1.085938 753.540833 5.431641 743.64917 13.294922 L 743.619995 13.319336 C 735.407471 19.848633 725.861633 23.994141 715.936707 25.699219 C 714.644958 25.90332 713.344971 26.073242 712.036682 26.194336 C 700.64502 27.124023 688.986694 24.874023 678.46167 19.286133 L 678.453369 19.282227 C 667.27417 13.352539 654.932495 11.223633 643.02832 12.561523 C 641.665833 12.699219 640.311646 12.911133 638.96167 13.140625 C 638.878357 13.157227 638.790833 13.161133 638.70752 13.177734 C 635.124146 13.798828 631.599121 14.719727 628.178284 15.973633 C 618.478333 19.40332 609.561707 25.286133 602.449219 33.477539 L 602.411682 33.519531 C 596.474182 40.352539 589.236694 45.631836 581.294983 49.194336 C 578.811646 50.273438 576.274109 51.198242 573.674194 51.936523 C 562.678345 54.915039 550.84082 54.844727 539.503296 51.306641 L 539.486633 51.298828 C 525.83252 47.036133 511.611633 47.806641 499.015808 52.740234 C 497.282471 53.398438 495.574158 54.124023 493.907532 54.936523 C 483.095032 60.052734 473.728271 68.335938 467.336609 79.240234 L 467.311707 79.282227 C 461.295044 89.552734 452.561646 97.585938 442.386719 102.782227 C 432.165894 107.694336 420.58252 109.790039 408.840759 108.419922 L 408.790833 108.411133 C 394.64502 106.756836 380.861633 110.107422 369.424133 117.223633 C 357.494934 124.286133 347.96167 135.352539 343.019958 149.15332 L 343.015869 149.169922 C 338.570007 161.582031 330.34082 171.898438 319.886597 179.023438 C 311.365845 184.532227 301.444946 187.94043 290.90332 188.661133 L 290.832458 188.665039 C 276.561707 189.636719 263.58667 195.511719 253.632446 204.669922 C 243.299194 213.794922 236.036652 226.365234 233.724182 240.75293 L 232.740875 246.865234 C 230.557465 254.740234 226.878326 261.999023 221.957489 268.260742 C 213.857483 278.306641 202.624207 285.75293 189.603394 289.094727 L 189.595001 289.094727 C 173.924225 293.115234 161.02417 303.00293 152.932434 316.00293 C 146.590881 325.953125 143.09079 337.773438 143.378296 350.232422 L 143.378296 350.286133 C 143.619995 360.673828 141.199188 370.694336 136.644958 379.574219 C 130.549194 391.098633 120.799225 400.624023 108.490845 406.374023 L 108.46579 406.386719 C 95.394989 412.490234 85.357513 422.769531 79.394989 435.040039 C 73.369934 447.074219 71.307465 461.085938 74.249115 475.006836 L 74.261688 475.061523 C 77.036621 488.199219 75.34494 501.548828 69.953369 513.25293 C 65.607544 522.390625 58.986633 530.486328 50.424164 536.631836 L 50.382446 536.665039 C 40.257477 543.936523 32.924103 553.848633 28.794952 564.90332 C 23.278381 579.19043 23.140808 595.444336 29.361694 610.381836 L 29.369965 610.40332 C 34.811615 623.477539 35.3992 637.699219 31.640839 650.769531 C 28.915863 659.811523 24.115845 668.27832 17.319946 675.381836 L 17.286652 675.415039 C 8.594971 684.490234 3.199219 695.69043 1.207443 707.415039 C -1.492477 722.37793 1.390808 738.244141 10.182526 751.686523 L 13.565796 756.861328 C 23.328369 776.186523 22.21994 799.449219 10.174133 817.84082 L 9.774109 818.453125 C -5.534149 841.986328 -2.617554 872.96582 16.811707 893.232422 C 33.661621 910.806641 38.536682 936.677734 29.232483 959.173828 L 29.124146 959.44043 C 18.307465 985.594727 26.903381 1015.756836 49.886658 1032.27832 L 49.932434 1032.31543 C 69.474121 1046.365234 78.924133 1070.598633 74.053284 1094.173828 L 73.853394 1095.15332 C 68.140869 1122.794922 82.194977 1150.732422 107.799103 1162.619629 L 107.815765 1162.62793 C 129.724213 1172.798828 143.524139 1194.981934 142.974182 1219.12793 L 142.96579 1219.515625 C 142.315887 1247.865234 161.261719 1272.927734 188.711639 1280.040527 L 195.40744 1281.773926 C 199.353363 1282.794434 203.34494 1283.394531 207.332458 1283.615234 L 207.332458 1283.615234 C 209.674164 1283.744629 212.015869 1283.75293 214.34082 1283.615234 L 214.757507 1283.615234 C 275.778259 1283.615234 334.882446 1303.507324 384.432434 1339.119629 C 387.544983 1341.356934 390.686646 1343.561035 393.83667 1345.748535 C 394.570007 1346.256836 395.299133 1346.765625 396.036621 1347.269531 C 399.065857 1349.356934 402.111633 1351.419434 405.174194 1353.457031 C 405.874207 1353.923828 406.582458 1354.38623 407.282471 1354.848633 C 417.015808 1361.265625 426.915833 1367.44043 436.986633 1373.365234 C 437.782532 1373.832031 438.574158 1374.307129 439.370056 1374.773926 C 442.303284 1376.481934 445.257507 1378.161133 448.21582 1379.828125 C 449.465759 1380.532227 450.715881 1381.231934 451.969971 1381.927734 C 454.861694 1383.532227 457.757507 1385.119629 460.674133 1386.682129 C 461.861633 1387.319824 463.057556 1387.94043 464.249146 1388.569824 C 473.720032 1393.57373 483.324158 1398.356934 493.053345 1402.919434 C 494.703308 1403.694336 496.349182 1404.473633 498.007507 1405.236328 C 500.674133 1406.461426 503.349121 1407.661133 506.032532 1408.853027 C 507.890869 1409.677734 509.757507 1410.490234 511.619995 1411.298828 C 514.236694 1412.427734 516.853333 1413.561035 519.486633 1414.661133 C 521.503357 1415.50293 523.532532 1416.31543 525.557495 1417.140625 C 529.832458 1418.87793 534.128357 1420.578125 538.445007 1422.228027 C 540.845032 1423.148926 543.240845 1424.078125 545.65332 1424.969727 C 548.040833 1425.853027 550.440796 1426.703125 552.84082 1427.561035 C 555.199158 1428.402832 557.561646 1429.240234 559.936707 1430.057129 C 562.299194 1430.873535 564.670044 1431.677734 567.044983 1432.465332 C 569.578308 1433.307129 572.119995 1434.12793 574.665833 1434.94043 C 576.890869 1435.648926 579.111633 1436.369629 581.345032 1437.057129 C 585.161682 1438.231934 588.990784 1439.365234 592.83252 1440.478027 C 595.178284 1441.152832 597.528381 1441.802734 599.882446 1442.457031 C 603.119995 1443.353027 606.361694 1444.240234 609.615845 1445.090332 C 611.699219 1445.63623 613.786682 1446.152832 615.878296 1446.677734 C 618.824158 1447.415527 621.77417 1448.140625 624.736694 1448.840332 C 626.807495 1449.328125 628.882507 1449.81543 630.961609 1450.286133 C 634.240784 1451.032227 637.532532 1451.740234 640.828369 1452.436035 C 642.545044 1452.798828 644.257507 1453.177734 645.978333 1453.527832 C 650.853333 1454.515625 655.740845 1455.453125 660.65332 1456.340332 C 662.14502 1456.606934 663.64917 1456.848633 665.14917 1457.106934 C 668.77832 1457.736328 672.420044 1458.344727 676.070007 1458.915527 C 677.96582 1459.211426 679.865845 1459.494629 681.769958 1459.773926 C 685.165833 1460.277832 688.570007 1460.75293 691.982483 1461.203125 C 693.815857 1461.444336 695.65332 1461.694824 697.494995 1461.919434 C 701.611694 1462.432129 705.744995 1462.902832 709.890808 1463.340332 C 710.953369 1463.453125 712.011658 1463.582031 713.078308 1463.69043 C 718.244995 1464.211426 723.432495 1464.665527 728.632507 1465.069824 C 730.144958 1465.19043 731.661682 1465.282227 733.178345 1465.390625 C 736.982483 1465.661133 740.794983 1465.907227 744.619995 1466.115234 C 746.436646 1466.215332 748.261658 1466.302734 750.082458 1466.38623 C 753.811646 1466.561035 757.549194 1466.69873 761.295044 1466.811035 C 762.953369 1466.865234 764.607544 1466.923828 766.265808 1466.961426 C 771.595032 1467.086426 776.932495 1467.165527 782.290771 1467.165527 C 787.64917 1467.165527 792.990845 1467.086426 798.319946 1466.961426 C 799.978394 1466.923828 801.632568 1466.865234 803.286621 1466.811035 C 807.032471 1466.69873 810.77002 1466.561035 814.499146 1466.38623 C 816.324219 1466.302734 818.14502 1466.215332 819.96167 1466.115234 C 823.786621 1465.907227 827.599121 1465.661133 831.40332 1465.390625 C 832.919922 1465.282227 834.436646 1465.19043 835.949219 1465.069824 C 841.14917 1464.665527 846.33667 1464.211426 851.503296 1463.69043 C 852.569946 1463.582031 853.628296 1463.453125 854.695068 1463.340332 C 858.83667 1462.902832 862.969971 1462.432129 867.08667 1461.923828 C 868.928345 1461.694824 870.765869 1461.444336 872.603271 1461.203125 C 876.015869 1460.75293 879.415894 1460.277832 882.811646 1459.773926 C 884.71167 1459.494629 886.615845 1459.211426 888.511719 1458.915527 C 892.161621 1458.344727 895.799194 1457.736328 899.432495 1457.106934 C 900.928345 1456.848633 902.436646 1456.606934 903.932495 1456.340332 C 908.84082 1455.453125 913.732544 1454.515625 918.603394 1453.527832 C 920.324219 1453.177734 922.036621 1452.798828 923.753296 1452.436035 C 927.049194 1451.740234 930.34082 1451.032227 933.619995 1450.286133 C 935.699219 1449.81543 937.77417 1449.328125 939.849121 1448.836426 C 942.807495 1448.140625 945.757568 1447.419434 948.699097 1446.677734 C 950.790771 1446.152832 952.882446 1445.63623 954.969971 1445.090332 C 958.219971 1444.240234 961.453369 1443.356934 964.682495 1442.461426 C 967.053345 1441.802734 969.424194 1441.144531 971.786621 1440.465332 C 975.615845 1439.361328 979.432495 1438.231934 983.232544 1437.061035 C 985.469971 1436.369629 987.695068 1435.648926 989.924194 1434.94043 C 992.46582 1434.12793 995.003296 1433.307129 997.532471 1432.469727 C 999.915894 1431.677734 1002.290771 1430.869629 1004.661621 1430.052734 C 1007.02417 1429.240234 1009.374146 1428.407227 1011.724121 1427.56543 C 1014.128296 1426.707031 1016.536621 1425.853027 1018.928345 1424.969727 C 1021.324219 1424.082031 1023.703369 1423.161133 1026.08667 1422.248535 C 1030.432495 1420.586426 1034.753296 1418.87793 1039.053345 1417.12793 C 1041.070068 1416.311035 1043.08667 1415.498535 1045.094971 1414.661133 C 1047.736694 1413.557129 1050.361694 1412.423828 1052.982544 1411.286133 C 1054.83667 1410.486328 1056.686646 1409.677734 1058.52832 1408.861328 C 1061.219971 1407.665527 1063.907471 1406.461426 1066.58252 1405.231934 C 1068.232544 1404.473633 1069.874146 1403.69873 1071.515869 1402.927734 C 1081.261719 1398.356934 1090.874146 1393.56543 1100.361694 1388.557129 C 1101.540894 1387.932129 1102.728271 1387.31543 1103.90332 1386.686523 C 1106.824219 1385.124023 1109.728271 1383.527832 1112.619995 1381.923828 C 1113.869995 1381.231934 1115.115845 1380.536133 1116.357544 1379.836426 C 1119.324219 1378.165527 1122.27832 1376.481934 1125.219971 1374.769531 C 1126.007446 1374.311035 1126.790894 1373.840332 1127.578369 1373.373535 C 1137.657471 1367.444336 1147.574219 1361.26123 1157.315796 1354.836426 C 1158.011597 1354.37793 1158.70752 1353.923828 1159.39917 1353.465332 C 1162.469971 1351.423828 1165.52002 1349.353027 1168.557495 1347.265625 C 1169.282471 1346.765625 1170.007568 1346.26123 1170.732544 1345.757324 C 1173.886719 1343.56543 1177.036621 1341.361328 1180.15332 1339.115234 C 1229.703369 1303.507324 1288.803345 1283.615234 1349.824219 1283.615234 L 1350.240845 1283.615234 C 1352.565796 1283.75293 1354.907471 1283.744629 1357.249146 1283.615234 L 1358.828369 1283.615234 L 1358.828369 1283.498535 C 1362.290894 1283.215332 1365.753296 1282.661133 1369.174194 1281.773926 L 1375.869995 1280.040527 C 1403.319946 1272.927734 1422.265869 1247.865234 1421.615845 1219.515625 L 1421.607544 1219.12793 C 1421.057495 1194.981934 1434.857544 1172.798828 1456.765869 1162.62793 L 1456.786621 1162.619629 C 1482.52002 1150.673828 1496.574219 1122.515625 1490.65332 1094.769531 L 1490.607544 1094.556641 C 1485.557495 1070.874023 1494.990845 1046.449219 1514.64917 1032.31543 L 1514.694946 1032.27832 C 1537.678345 1015.756836 1546.27417 985.594727 1535.45752 959.44043 L 1535.349121 959.173828 C 1526.049194 936.677734 1530.920044 910.806641 1547.77002 893.232422 C 1567.203369 872.96582 1570.115845 841.986328 1554.807495 818.453125"/>
    <path id="Path-copy-2" fill="#207f6d" stroke="none" d="M 782.291626 1387.90332 C 1110.170898 1387.90332 1375.970825 1122.103516 1375.970825 794.224609 C 1375.970825 466.34082 1110.170898 200.541016 782.291626 200.541016 C 454.412476 200.541016 188.612488 466.34082 188.612488 794.224609 C 188.612488 1122.103516 454.412476 1387.90332 782.291626 1387.90332"/>
    <clipPath id="clipPath-FgfOY-1">
        <path d="M 188.612488 794.224609 C 188.612488 1122.104492 454.412537 1387.904297 782.291626 1387.904297 L 782.291626 1387.904297 C 1110.174927 1387.904297 1375.975037 1122.104492 1375.975037 794.224609 L 1375.975037 794.224609 C 1375.975037 466.341797 1110.174927 200.541016 782.291626 200.541016 L 782.291626 200.541016 C 454.412537 200.541016 188.612488 466.341797 188.612488 794.224609"/>
    </clipPath>
    <g id="Group-copy" clip-path="url(#clipPath-FgfOY-1)">
        <path id="Path" fill="#d08929" stroke="none" d="M 1009.821655 515.979492 L 1009.85498 516.053711 C 1009.03418 516.3125 1008.325806 516.612305 1007.54248 516.946289 Z"/>
        <path id="path1" fill="#d08929" stroke="none" d="M 1007.557861 516.984375 C 1008.337036 516.650391 1009.049561 516.350586 1009.803711 515.938477 L 1009.837036 516.017578 Z"/>
        <path id="path2" fill="#faad23" stroke="none" d="M 1080.300781 486.149414 C 1097.059204 525.686523 1078.592529 571.328125 1039.046631 588.082031 C 999.509155 604.844727 953.871704 586.374023 937.113281 546.836914 C 920.359131 507.294922 938.825806 461.657227 978.367554 444.894531 C 1017.905029 428.140625 1063.54248 446.611328 1080.300781 486.149414"/>
        <path id="path3" fill="#faad23" stroke="none" d="M 1080.300781 486.149414 C 1097.059204 525.686523 1078.592529 571.328125 1039.046631 588.082031 C 999.509155 604.844727 953.871704 586.374023 937.113281 546.836914 C 920.359131 507.294922 938.825806 461.657227 978.367554 444.894531 C 1017.905029 428.140625 1063.54248 446.611328 1080.300781 486.149414"/>
        <path id="path4" fill="none" stroke="#ffc776" stroke-width="4.7375" d="M 1066.669556 491.925781 C 1080.236206 523.938477 1065.286255 560.888672 1033.273804 574.455078 C 1001.26123 588.022461 964.31543 573.068359 950.744629 541.05957 C 937.177979 509.046875 952.13208 472.09668 984.140381 458.530273 C 1016.152954 444.963867 1053.102905 459.914063 1066.669556 491.925781 Z"/>
        <path id="path5" fill="#ffc776" stroke="none" d="M 1026.086304 512.00293 C 1018.273804 503.194336 1007.661255 498.506836 996.773804 497.810547 C 996.707031 497.810547 996.652954 497.764648 996.640381 497.702148 L 993.111206 480.464844 C 993.090454 480.356445 992.957031 480.306641 992.869629 480.381836 L 974.861206 496.356445 C 974.773804 496.431641 974.802979 496.569336 974.911255 496.606445 L 991.602905 502.165039 C 991.661255 502.185547 991.69873 502.248047 991.69458 502.310547 C 991.090454 513.207031 994.477905 524.302734 1002.286255 533.110352 C 1011.165405 543.119141 1023.661255 547.819336 1036.06543 547.373047 C 1036.13623 547.369141 1036.202881 547.310547 1036.211304 547.240234 C 1038.140381 534.981445 1034.965454 522.014648 1026.086304 512.00293"/>
        <path id="path6" fill="#44bf00" stroke="none" d="M 1057.98877 525.629883 L 569.080444 506.28418 L 491.776245 503.225586 L 488.717896 580.53418 L 482.797058 730.137695 L 479.73877 807.446289 L 557.042908 810.508789 L 1045.951294 829.850586 L 1123.255371 832.913086 L 1126.313721 755.600586 L 1132.234619 606 L 1135.288696 528.6875 Z"/>
        <path id="path7" fill="#d08929" stroke="none" d="M 825.776245 346.949219 L 825.776245 347.019531 C 825.067871 346.949219 824.42627 346.949219 823.722046 346.949219 Z"/>
        <path id="path8" fill="#d08929" stroke="none" d="M 823.7229 475.845703 C 824.427124 475.845703 825.068726 475.845703 825.7771 475.774414 L 825.7771 475.845703 Z"/>
        <path id="path9" fill="#f9ac22" stroke="none" d="M 875.900879 411.414063 C 875.900879 447.017578 847.04248 475.875977 811.438354 475.875977 C 775.838379 475.875977 746.97168 447.017578 746.97168 411.414063 C 746.97168 375.813477 775.838379 346.951172 811.438354 346.951172 C 847.04248 346.951172 875.900879 375.813477 875.900879 411.414063"/>
        <path id="path10" fill="#dcd7ce" stroke="none" d="M 875.900879 411.414063 C 875.900879 447.017578 847.04248 475.875977 811.438354 475.875977 C 775.838379 475.875977 746.97168 447.017578 746.97168 411.414063 C 746.97168 375.813477 775.838379 346.951172 811.438354 346.951172 C 847.04248 346.951172 875.900879 375.813477 875.900879 411.414063"/>
        <path id="path11" fill="#dcd7ce" stroke="none" d="M 863.627441 411.414063 C 863.627441 440.234375 840.260864 463.605469 811.435791 463.605469 C 782.61499 463.605469 759.248352 440.234375 759.248352 411.414063 C 759.248352 382.592773 782.61499 359.22168 811.435791 359.22168 C 840.260864 359.22168 863.627441 382.592773 863.627441 411.414063"/>
        <path id="path12" fill="none" stroke="#fff9f0" stroke-width="4.7375" d="M 863.627441 411.414063 C 863.627441 440.234375 840.260864 463.605469 811.435791 463.605469 C 782.61499 463.605469 759.248352 440.234375 759.248352 411.414063 C 759.248352 382.592773 782.61499 359.22168 811.435791 359.22168 C 840.260864 359.22168 863.627441 382.592773 863.627441 411.414063 Z"/>
        <path id="path13" fill="#fff9f0" stroke="none" d="M 820.044556 399.977539 C 809.902954 398.623047 800.25293 401.569336 792.69458 407.297852 C 792.648804 407.332031 792.590454 407.332031 792.544556 407.297852 L 780.432129 397.964844 C 780.357056 397.902344 780.240356 397.948242 780.227905 398.047852 L 777.452881 418.786133 C 777.44458 418.885742 777.536255 418.960938 777.62793 418.922852 L 791.769531 413.098633 C 791.81958 413.082031 791.88208 413.09375 791.915405 413.135742 C 797.702881 420.652344 806.236206 426.027344 816.37793 427.385742 C 827.911255 428.927734 838.798706 424.918945 846.707031 417.582031 C 846.75293 417.536133 846.76123 417.460938 846.723755 417.402344 C 841.027954 408.244141 831.56958 401.514648 820.044556 399.977539"/>
        <path id="path14" fill="#4cb648" stroke="none" d="M 1095.805786 561.344727 L 1095.847534 886.352539 L 408.355835 886.44043 L 408.318359 561.431641 Z"/>
        <path id="path15" fill="#aded83" stroke="none" d="M 1095.805786 561.344727 L 1095.847534 886.352539 L 408.355835 886.44043 L 408.318359 561.431641 Z"/>
        <path id="path16" fill="#2ec1ac" stroke="none" d="M 1059.150024 675.412109 L 1061.633301 772.333008 C 1015.925049 772.266602 978.929199 809.204102 979 854.895508 L 532.74585 854.987305 C 532.833313 809.412109 495.766663 772.4375 450.204163 772.483398 L 447.737488 675.691406 C 493.299988 675.645508 530.291626 638.708008 530.220825 593.016602 L 976.470825 592.920898 C 976.520874 638.483398 1013.462524 675.478516 1059.150024 675.412109"/>
        <path id="path17" fill="#0099cc" stroke="none" d="M 851.762085 723.875 C 851.766235 778.920898 807.149536 823.553711 752.099609 823.558594 C 697.053772 823.571289 652.42041 778.950195 652.41626 723.900391 C 652.407898 668.849609 697.024597 624.220703 752.078735 624.212891 C 807.124634 624.208008 851.757935 668.829102 851.762085 723.875"/>
        <path id="path18" fill="#aded83" stroke="none" d="M 598.371277 790.769531 L 576.129578 790.773438 C 574.871277 790.773438 573.854614 789.756836 573.854614 788.50293 L 573.842102 657.769531 C 573.842102 656.515625 574.858765 655.494141 576.112915 655.494141 L 598.350403 655.494141 C 599.608765 655.494141 600.625427 656.515625 600.625427 657.769531 L 600.64624 788.499023 C 600.64624 789.75293 599.625427 790.769531 598.371277 790.769531"/>
        <path id="path19" fill="#aded83" stroke="none" d="M 926.503296 790.726563 L 904.261719 790.730469 C 903.003296 790.730469 901.986694 789.713867 901.986694 788.459961 L 901.974121 657.726563 C 901.974121 656.472656 902.990845 655.452148 904.244995 655.452148 L 926.482544 655.452148 C 927.740845 655.452148 928.757446 656.472656 928.757446 657.726563 L 928.77832 788.456055 C 928.77832 789.709961 927.757446 790.726563 926.503296 790.726563"/>
        <path id="path20" fill="none" stroke="#faad23" stroke-width="4.7375" stroke-linecap="round" stroke-linejoin="round" d="M 752.064148 708.902344 L 752.489197 761.114258"/>
        <path id="path21" fill="none" stroke="#faad23" stroke-width="4.7375" stroke-linecap="round" stroke-linejoin="round" d="M 735.51123 783.832031 L 735.19873 745.185547 C 735.13208 737.327148 741.44873 730.911133 749.302917 730.84375 L 750.832092 730.835938"/>
        <path id="path22" fill="none" stroke="#faad23" stroke-width="4.7375" stroke-linecap="round" stroke-linejoin="round" d="M 716.799561 778.359375 L 716.653748 760.542969 C 716.591248 752.692383 722.903748 746.275391 730.762085 746.208984 L 734.620422 746.179688"/>
        <path id="path23" fill="none" stroke="#faad23" stroke-width="4.7375" stroke-linecap="round" stroke-linejoin="round" d="M 777.410889 769.245117 L 777.277466 753.220703 C 777.214966 745.366211 770.79834 739.049805 762.944153 739.112305 L 753.598328 739.1875"/>
        <path id="path24" fill="#aded83" stroke="none" d="M 785.264526 685.577148 L 785.227051 680.835938 C 785.1604 672.802734 778.5979 666.339844 770.560425 666.40625 L 769.060425 666.415039 C 768.610413 666.422852 768.181274 666.523438 767.743774 666.56543 C 766.435425 659.373047 760.15625 653.944336 752.602112 654.006836 C 746.5271 654.052734 741.352112 657.665039 738.927063 662.823242 C 737.743774 662.536133 736.5271 662.348633 735.256226 662.356445 C 726.806274 662.427734 720.010437 669.335938 720.081238 677.78125 L 720.110413 681.694336 C 712.918762 683.994141 707.693726 690.69043 707.760437 698.644531 C 707.84375 708.435547 715.8396 716.306641 725.627075 716.227539 L 782.03125 715.764648 C 790.477051 715.694336 797.272949 708.790039 797.202026 700.34375 C 797.147949 693.098633 792.039551 687.102539 785.264526 685.577148"/>
        <path id="path25" fill="#d08929" stroke="none" d="M 759.169556 957.082031 L 759.248779 957.110352 C 758.890442 957.889648 758.640442 958.615234 758.361267 959.422852 Z"/>
        <path id="path26" fill="#d08929" stroke="none" d="M 758.398315 959.435547 C 758.67749 958.630859 758.92749 957.902344 759.127502 957.068359 L 759.206665 957.09375 Z"/>
        <path id="path27" fill="#faad23" stroke="none" d="M 784.273804 884.78418 C 824.848755 898.84668 846.340454 943.146484 832.273804 983.72168 C 818.202881 1024.295898 773.907104 1045.788086 733.332092 1031.72168 C 692.75708 1017.650391 671.273743 973.358398 685.336243 932.78418 C 699.402893 892.204102 743.69873 870.716797 784.273804 884.78418"/>
        <path id="path28" fill="#faad23" stroke="none" d="M 784.273804 884.78418 C 824.848755 898.84668 846.340454 943.146484 832.273804 983.72168 C 818.202881 1024.295898 773.907104 1045.788086 733.332092 1031.72168 C 692.75708 1017.650391 671.273743 973.358398 685.336243 932.78418 C 699.402893 892.204102 743.69873 870.716797 784.273804 884.78418"/>
        <path id="path29" fill="none" stroke="#ffc776" stroke-width="4.7375" d="M 779.424194 898.772461 C 812.27417 910.164063 829.670044 946.026367 818.286621 978.87207 C 806.89502 1011.72168 771.032471 1029.12207 738.186646 1017.730469 C 705.33667 1006.342773 687.936646 970.480469 699.324158 937.634766 C 710.71582 904.780273 746.574158 887.384766 779.424194 898.772461 Z"/>
        <path id="path30" fill="#ffc776" stroke="none" d="M 767.12085 942.34668 C 755.349976 942.242188 744.75415 946.979492 736.94165 954.587891 C 736.891663 954.633789 736.820862 954.646484 736.770813 954.613281 L 721.612488 945.675781 C 721.516663 945.617188 721.391663 945.6875 721.391663 945.804688 L 721.174988 969.875 C 721.170837 969.988281 721.295837 970.058594 721.391663 970.004883 L 736.708313 961.34668 C 736.766663 961.3125 736.833313 961.321289 736.87915 961.371094 C 744.554138 969.125 755.05835 974.050781 766.833313 974.154297 C 780.216675 974.279297 792.079224 968.154297 800.05835 958.650391 C 800.104126 958.59668 800.104126 958.508789 800.05835 958.450195 C 792.25 948.804688 780.5 942.47168 767.12085 942.34668"/>
        <path id="path31" fill="#d08929" stroke="none" d="M 972.431641 900.383789 L 972.510864 900.358398 C 972.67334 901.204102 972.894165 901.941406 973.135864 902.753906 Z"/>
        <path id="path32" fill="#d08929" stroke="none" d="M 973.17627 902.746094 C 972.93457 901.933594 972.717896 901.192383 972.388794 900.396484 L 972.472046 900.375 Z"/>
        <path id="path33" fill="#faad23" stroke="none" d="M 950.707886 826.999023 C 991.878784 814.790039 1035.153809 838.269531 1047.362061 879.44043 C 1059.574585 920.611328 1036.095459 963.886719 994.924561 976.094727 C 953.753784 988.302734 910.47876 964.828125 898.266235 923.65332 C 886.057861 882.482422 909.537109 839.207031 950.707886 826.999023"/>
        <path id="path34" fill="#faad23" stroke="none" d="M 950.707886 826.999023 C 991.878784 814.790039 1035.153809 838.269531 1047.362061 879.44043 C 1059.574585 920.611328 1036.095459 963.886719 994.924561 976.094727 C 953.753784 988.302734 910.47876 964.828125 898.266235 923.65332 C 886.057861 882.482422 909.537109 839.207031 950.707886 826.999023"/>
        <path id="path35" fill="none" stroke="#ffc776" stroke-width="4.7375" d="M 954.91748 841.193359 C 988.250854 831.30957 1023.28418 850.314453 1033.16748 883.647461 C 1043.059204 916.980469 1024.046631 952.018555 990.713379 961.901367 C 957.380005 971.789063 922.34668 952.78125 912.463379 919.443359 C 902.575806 886.114258 921.584106 851.077148 954.91748 841.193359 Z"/>
        <path id="path36" fill="#ffc776" stroke="none" d="M 970.307861 883.775391 C 960.674561 890.545898 954.828735 900.571289 952.912109 911.3125 C 952.903809 911.375 952.85376 911.420898 952.787109 911.425781 L 935.266235 913 C 935.149536 913.008789 935.095459 913.137695 935.153809 913.229492 L 949.007935 932.920898 C 949.074585 933.012695 949.212036 932.996094 949.257935 932.896484 L 956.657959 916.9375 C 956.687134 916.875 956.749634 916.84668 956.816284 916.858398 C 967.570435 918.6875 978.97876 916.571289 988.612061 909.795898 C 999.553711 902.09668 1005.624634 890.212891 1006.574585 877.837891 C 1006.582886 877.762695 1006.528809 877.6875 1006.457886 877.670898 C 994.491211 874.379883 981.253784 876.075195 970.307861 883.775391"/>
        <path id="path37" fill="#d18a22" stroke="none" d="M 703.606262 1107.019531 C 704.0271 1090.731445 691.164612 1077.194336 674.881226 1076.773438 C 658.5979 1076.352539 645.056274 1089.214844 644.635437 1105.498047 C 644.210388 1121.78125 657.072937 1135.323242 673.360413 1135.744141 C 689.643738 1136.161133 703.185425 1123.306641 703.606262 1107.019531"/>
        <path id="path38" fill="#d18a22" stroke="none" d="M 706.786682 983.766602 C 707.20752 967.479492 694.344971 953.941406 678.061646 953.520508 C 661.77832 953.099609 648.236694 965.962891 647.815857 982.246094 C 647.390808 998.529297 660.253357 1012.071289 676.540833 1012.491211 C 692.824158 1012.908203 706.365845 1000.053711 706.786682 983.766602"/>
        <path id="path39" fill="#d18a22" stroke="none" d="M 706.786682 983.766602 L 647.815857 982.246094 L 644.636658 1105.496094 L 703.603333 1107.020508 Z"/>
        <path id="path40" fill="#d18a22" stroke="none" d="M 707.04834 882.175781 C 707.435852 867.192383 695.602478 854.738281 680.623352 854.350586 C 665.640015 853.958984 653.181641 865.796875 652.794189 880.775391 C 652.406677 895.758789 664.23999 908.217773 679.223328 908.600586 C 694.206665 908.988281 706.660828 897.15918 707.04834 882.175781"/>
        <path id="path41" fill="#d18a22" stroke="none" d="M 707.04834 882.175781 L 652.794189 880.775391 L 647.815002 982.242188 L 706.785828 983.763672 Z"/>
        <path id="path42" fill="#d18a22" stroke="none" d="M 633.682068 911.541992 C 634.06958 896.558594 622.236267 884.104492 607.25708 883.716797 C 592.273743 883.325195 579.81543 895.162109 579.427917 910.141602 C 579.040405 925.125 590.873779 937.583008 605.857056 937.966797 C 620.840393 938.354492 633.294556 926.525391 633.682068 911.541992"/>
        <path id="path43" fill="#d18a22" stroke="none" d="M 633.682068 911.541992 L 579.427917 910.141602 L 574.44873 1011.608398 L 633.419556 1013.128906 Z"/>
        <path id="path44" fill="#d18a22" stroke="none" d="M 630.862915 1112.258789 C 631.283752 1095.97168 618.421265 1082.433594 602.137939 1082.012695 C 585.854553 1081.591797 572.312927 1094.454102 571.89209 1110.738281 C 571.467102 1127.021484 584.32959 1140.5625 600.617065 1140.983398 C 616.900391 1141.400391 630.442078 1128.545898 630.862915 1112.258789"/>
        <path id="path45" fill="#d18a22" stroke="none" d="M 633.420837 1013.131836 C 633.841675 996.844727 620.979187 983.306641 604.695862 982.886719 C 588.412476 982.46582 574.87085 995.328125 574.450012 1011.611328 C 574.025024 1027.894531 586.887512 1041.436523 603.174988 1041.857422 C 619.458313 1042.273438 633 1029.419922 633.420837 1013.131836"/>
        <path id="path46" fill="#d18a22" stroke="none" d="M 633.422058 1013.087891 L 574.447083 1011.567383 L 571.892944 1110.738281 L 630.86377 1112.262695 Z"/>
        <path id="path47" fill="#d18a22" stroke="none" d="M 559.816223 960.260742 C 560.203735 945.277344 548.370422 932.823242 533.391235 932.435547 C 518.407898 932.043945 505.949585 943.881836 505.562073 958.860352 C 505.174561 973.84375 517.007935 986.302734 531.991272 986.685547 C 546.974609 987.073242 559.428772 975.244141 559.816223 960.260742"/>
        <path id="path48" fill="#d18a22" stroke="none" d="M 559.816223 960.260742 L 505.562073 958.860352 L 501.132935 1039.085938 L 560.10376 1040.606445 Z"/>
        <path id="path49" fill="#d18a22" stroke="none" d="M 558.094177 1118.46875 C 558.515015 1102.181641 545.652527 1088.643555 529.369141 1088.222656 C 513.085815 1087.801758 499.544189 1100.665039 499.123352 1116.948242 C 498.698303 1133.231445 511.560852 1146.772461 527.848328 1147.193359 C 544.131653 1147.610352 557.67334 1134.755859 558.094177 1118.46875"/>
        <path id="path50" fill="#d18a22" stroke="none" d="M 560.103333 1040.605469 C 560.52417 1024.318359 547.661682 1010.78125 531.378357 1010.360352 C 515.094971 1009.939453 501.553345 1022.801758 501.132507 1039.084961 C 500.70752 1055.368164 513.570007 1068.910156 529.857483 1069.331055 C 546.140808 1069.74707 559.682495 1056.893555 560.103333 1040.605469"/>
        <path id="path51" fill="#d18a22" stroke="none" d="M 560.105408 1040.543945 L 501.134583 1039.022461 L 499.126221 1116.948242 L 558.092896 1118.46875 Z"/>
        <path id="path52" fill="#d18a22" stroke="none" d="M 780.692871 905.712891 C 781.080444 890.729492 769.24707 878.275391 754.267944 877.887695 C 739.284607 877.496094 726.826233 889.333008 726.438721 904.3125 C 726.05127 919.295898 737.884583 931.753906 752.86792 932.137695 C 767.851257 932.525391 780.30542 920.696289 780.692871 905.712891"/>
        <path id="path53" fill="#d18a22" stroke="none" d="M 780.692871 905.712891 L 726.438721 904.3125 L 721.459595 1005.779297 L 780.43457 1007.299805 Z"/>
        <path id="path54" fill="#d18a22" stroke="none" d="M 777.873291 1106.429688 C 778.294189 1090.142578 765.431641 1076.605469 749.148315 1076.18457 C 732.86499 1075.763672 719.323303 1088.625977 718.902527 1104.90918 C 718.477478 1121.192383 731.340027 1134.734375 747.627502 1135.155273 C 763.910828 1135.571289 777.452515 1122.717773 777.873291 1106.429688"/>
        <path id="path55" fill="#d18a22" stroke="none" d="M 780.431641 1007.303711 C 780.852539 991.015625 767.98999 977.478516 751.706665 977.057617 C 735.42334 976.636719 721.881653 989.499023 721.460815 1005.782227 C 721.035828 1022.06543 733.898315 1035.607422 750.185852 1036.02832 C 766.469177 1036.445313 780.010864 1023.59082 780.431641 1007.303711"/>
        <path id="path56" fill="#d18a22" stroke="none" d="M 780.432495 1007.258789 L 721.45752 1005.738281 L 718.90332 1104.90918 L 777.874146 1106.433594 Z"/>
        <path id="path57" fill="#d18a22" stroke="none" d="M 852.602051 1233.385742 C 858.15625 1215.494141 848.15625 1196.490234 830.264526 1190.936035 C 812.372925 1185.381836 793.368774 1195.377441 787.814575 1213.269043 C 782.260376 1231.160645 792.260376 1250.168945 810.1521 1255.723145 C 828.039551 1261.277344 847.047974 1251.277344 852.602051 1233.385742"/>
        <path id="path58" fill="#d18a22" stroke="none" d="M 790.89917 1206.319824 L 852.599121 1233.382324 L 855.736694 1220.02002 C 860.420044 1200.032715 866.828369 1180.482422 874.890869 1161.595215 L 818.549194 1144.103516 L 813.365845 1162.96582 C 811.324219 1170.398926 808.265869 1177.52002 804.282471 1184.124023 Z"/>
        <path id="path59" fill="#d18a22" stroke="none" d="M 874.948364 1160.933105 C 879.415039 1145.341797 870.394165 1129.091797 854.80249 1124.625 C 839.219116 1120.158203 822.960815 1129.178711 818.494141 1144.770508 C 814.035889 1160.354004 823.04834 1176.612305 838.640015 1181.075195 C 854.231689 1185.541504 870.481689 1176.520996 874.948364 1160.933105"/>
        <path id="path60" fill="#d18a22" stroke="none" d="M 818.546631 1144.798828 L 818.959106 1143.541016 L 827.363281 1113.616211 C 833.59668 1092.15332 850.875854 1075.899414 872.405029 1070.999023 L 875.809204 1070.320313 C 886.392456 1067.811523 895.838379 1076.086914 895.713379 1086.199219 C 895.60083 1087.757813 895.488281 1089.31543 895.017456 1090.761719 L 884.959106 1126.311523 L 875.025879 1160.90332 L 842.767456 1151.736328 Z"/>
        <path id="path61" fill="#d18a22" stroke="none" d="M 742.28833 1405.977539 C 743.875854 1344.494141 695.321655 1293.369141 633.834167 1291.781738 C 572.35083 1290.189941 521.217529 1338.748535 519.634155 1400.231445 C 518.046692 1461.714844 566.60498 1512.839844 628.088318 1514.427734 C 689.571655 1516.015137 740.700806 1467.460938 742.28833 1405.977539"/>
        <path id="path62" fill="#d18a22" stroke="none" d="M 790.89917 1206.319824 C 791.65332 1205.041016 792.507446 1203.782715 793.478394 1202.541016 C 801.115845 1192.782715 813.694946 1187.736816 825.89917 1189.878418 C 846.486694 1193.490723 858.594971 1214.086426 852.603394 1233.382324 C 852.27832 1234.436523 851.89502 1235.449219 851.482544 1236.444824 L 851.486694 1236.444824 L 823.040894 1306.732422 C 814.699219 1327.345215 800.953369 1345.315918 783.249146 1358.765625 C 772.911682 1366.620117 763.736694 1375.89502 755.990845 1386.315918 L 742.390808 1404.615723 L 741.799194 1405.995117 L 519.64502 1400.257324 L 499.199158 1119.96582 L 499.182495 1119.832031 L 499.195007 1119.832031 C 499.128357 1118.882813 499.099182 1117.919922 499.124146 1116.945313 C 499.544983 1100.662109 513.08252 1087.803711 529.369995 1088.224609 C 541.040833 1088.524414 550.936646 1095.574219 555.453308 1105.537109 C 556.820007 1108.544922 559.874146 1110.428711 563.182495 1110.511719 L 564.065857 1110.537109 C 568.27832 1110.640625 571.815796 1107.732422 572.928345 1103.673828 C 576.436646 1090.894531 588.294983 1081.65332 602.136658 1082.015625 C 614.02832 1082.31543 624.065857 1089.62793 628.46167 1099.886719 C 629.824158 1103.078125 632.90332 1105.195313 636.369995 1105.287109 L 636.811646 1105.294922 C 641.02002 1105.40332 644.557495 1102.495117 645.669983 1098.432617 C 649.174194 1085.657227 661.036682 1076.416016 674.882507 1076.769531 C 688.199158 1077.116211 699.203308 1086.232422 702.544983 1098.453125 C 703.52832 1102.024414 706.628357 1104.59082 710.33252 1104.686523 L 711.565857 1104.71582 C 715.494995 1104.820313 718.84082 1102.116211 719.815857 1098.31543 C 723.157532 1085.291016 735.136658 1075.820313 749.14917 1076.186523 C 765.407471 1076.603516 778.249146 1090.103516 777.869995 1106.357422 L 777.907471 1106.449219 L 775.686646 1190.294922 C 775.46167 1198.924316 782.27002 1206.099121 790.89917 1206.319824"/>
        <path id="path63" fill="#ffc776" stroke="none" d="M 768.698303 902.286133 L 768.11499 916.769531 C 767.769165 925.323242 760.54834 931.981445 751.98999 931.635742 C 743.431641 931.290039 736.769165 924.073242 737.11499 915.519531 L 737.702515 900.998047 C 737.856689 897.19043 741.069153 894.231445 744.877502 894.389648 L 762.106689 895.123047 C 765.902527 895.286133 768.848328 898.490234 768.698303 902.286133"/>
        <path id="path64" fill="#ffc776" stroke="none" d="M 695.842896 879.579102 L 695.259583 894.0625 C 694.913757 902.616211 687.692932 909.275391 679.134583 908.928711 C 670.576233 908.583008 663.913757 901.366211 664.259583 892.8125 L 664.847107 878.291992 C 665.001221 874.483398 668.213745 871.525391 672.022095 871.683594 L 689.251221 872.420898 C 693.047058 872.579102 695.99292 875.783203 695.842896 879.579102"/>
        <path id="path65" fill="#ffc776" stroke="none" d="M 622.477112 908.945313 L 621.893738 923.428711 C 621.547913 931.983398 614.327087 938.641602 605.768738 938.295898 C 597.210388 937.949219 590.547913 930.733398 590.893738 922.178711 L 591.481262 907.658203 C 591.635437 903.849609 594.8479 900.891602 598.65625 901.049805 L 615.885437 901.783203 C 619.681274 901.945313 622.627075 905.149414 622.477112 908.945313"/>
        <path id="path66" fill="#ffc776" stroke="none" d="M 548.643311 958.894531 L 548.059998 973.374023 C 547.714172 981.932617 540.493347 988.59082 531.934998 988.245117 C 523.372498 987.899414 516.714172 980.682617 517.059998 972.124023 L 517.647522 957.607422 C 517.801697 953.798828 521.01416 950.84082 524.82251 950.999023 L 542.051697 951.732422 C 545.847473 951.894531 548.793335 955.094727 548.643311 958.894531"/>
        <path id="path67" fill="#ffc776" stroke="none" d="M 884.960815 1126.311523 L 884.42749 1126.136719 C 876.323364 1123.482422 871.852539 1114.640625 874.502441 1106.548828 L 880.806641 1087.298828 C 881.810791 1084.240234 885.094116 1082.723633 888.156616 1083.723633 L 895.710815 1086.199219 C 895.602539 1087.756836 895.48999 1089.31543 895.015015 1090.761719 Z"/>
    </g>
    <path id="Path-copy" fill="none" stroke="#86e0ce" stroke-width="20.833334" d="M 782.291626 1387.90332 C 1110.170898 1387.90332 1375.970825 1122.103516 1375.970825 794.224609 C 1375.970825 466.34082 1110.170898 200.541016 782.291626 200.541016 C 454.412476 200.541016 188.612488 466.34082 188.612488 794.224609 C 188.612488 1122.103516 454.412476 1387.90332 782.291626 1387.90332 Z"/>
</svg>
