<?xml version="1.0" encoding="UTF-8"?>
<!-- Generated by Pixelmator Pro 3.5.10 -->
<svg width="1556" height="236" viewBox="0 0 1556 236" xmlns="http://www.w3.org/2000/svg">
    <path id="Path" fill="#ffffff" stroke="none" d="M 518.886719 235.265625 C 468.678406 221.144821 431.853516 175.023956 431.853516 120.294922 C 431.853516 54.345093 485.323425 0.878906 551.277344 0.878906 C 579.264648 0.878906 605.006836 10.50737 625.361328 26.640625 C 611.182129 20.561462 595.574219 17.191406 579.169922 17.191406 C 514.353699 17.191406 461.808594 69.738159 461.808594 134.554688 C 461.808594 177.337891 484.694916 214.757385 518.886719 235.265625 Z M 1235.859375 232.748047 C 1180.163574 232.748047 1143.775391 202.964523 1143.775391 136.435547 L 1143.775391 5.898438 L 1183.017578 5.898438 L 1183.017578 136.435547 C 1183.017578 178.881226 1202.313477 196.630859 1235.859375 196.630859 C 1269.400879 196.630859 1289.972656 178.881531 1289.972656 136.119141 L 1289.972656 5.898438 L 1329.205078 5.898438 L 1329.205078 136.435547 C 1329.205078 202.964523 1291.550781 232.748047 1235.859375 232.748047 Z M 0.238281 228.628906 L 0.238281 5.900391 L 68.275391 5.900391 C 127.4422 5.900391 157.1875 38.537003 157.1875 85.103516 C 157.1875 131.682541 127.759071 164 60.675781 164 L 39.474609 164 L 39.474609 228.628906 L 0.238281 228.628906 Z M 221.730469 228.628906 L 221.730469 5.900391 L 292.929688 5.900391 C 352.104797 5.900391 381.84375 38.537003 381.84375 85.103516 C 381.84375 115.840912 369.185455 140.237411 341.339844 153.220703 L 398.296875 228.628906 L 352.414063 228.628906 L 305.267578 163.044922 C 298.938477 163.682434 292.29248 164 285.333984 164 L 260.96875 164 L 260.96875 228.628906 L 221.730469 228.628906 Z M 719.140625 228.626953 L 719.140625 5.898438 L 790.339844 5.898438 C 847.606262 5.898438 873.244141 29.659332 873.244141 64.830078 C 873.244141 88.909149 859.320313 106.021835 834.324219 114.892578 C 865.01593 123.755104 879.251953 141.819336 879.251953 165.585938 C 879.251953 205.185791 840.964661 228.626953 790.339844 228.626953 L 719.140625 228.626953 Z M 950.761719 228.626953 L 950.761719 5.898438 L 990 5.898438 L 990 192.511719 L 1095.375 192.511719 L 1095.375 228.626953 L 950.761719 228.626953 Z M 1410.515625 228.626953 L 1410.515625 5.898438 L 1555.125 5.898438 L 1555.125 42.015625 L 1449.753906 42.015625 L 1449.753906 104.435547 L 1545.316406 104.435547 L 1545.316406 139.285156 L 1449.753906 139.285156 L 1449.753906 192.511719 L 1555.125 192.511719 L 1555.125 228.626953 L 1410.515625 228.626953 Z M 568.037109 222.443359 C 553.609558 222.515869 540.156372 217.933578 529.171875 210.066406 C 537.197266 213.053894 545.939941 214.50415 555.03125 214.0625 C 590.964783 212.333313 618.688965 181.7966 616.951172 145.863281 C 615.80957 122.15078 602.117188 102.016647 582.617188 91.5625 C 610.825684 98.041626 632.472656 122.629059 633.939453 152.970703 C 635.70166 189.529022 607.496033 220.596375 570.933594 222.367188 C 569.963562 222.413803 568.998962 222.438522 568.037109 222.443359 Z M 758.376953 192.509766 L 792.240234 192.509766 C 825.464661 192.509766 836.847656 177.935867 836.847656 161.460938 C 836.847656 146.260971 824.194153 130.730469 782.744141 130.730469 L 758.376953 130.730469 L 758.376953 192.509766 Z M 656.292969 188.433594 C 661.005371 177.441986 663.609375 165.338226 663.609375 152.613281 C 663.609375 102.350861 622.867554 61.609375 572.609375 61.609375 C 539.442993 61.609375 510.421814 79.358643 494.513672 105.871094 C 505.463867 66.933685 541.231079 38.388672 583.664063 38.388672 C 634.801636 38.388672 676.263672 79.84671 676.263672 130.988281 C 676.263672 152.692398 668.792969 172.646149 656.292969 188.433594 Z M 39.474609 129.144531 L 65.425781 129.144531 C 102.130257 129.144531 114.791016 109.49926 114.791016 85.103516 C 114.791016 60.711945 102.446663 42.015625 65.425781 42.015625 L 39.474609 42.015625 L 39.474609 129.144531 Z M 260.96875 129.144531 L 290.083984 129.144531 C 326.784088 129.144531 339.439453 109.49926 339.439453 85.103516 C 339.439453 60.711945 327.100494 42.015625 290.083984 42.015625 L 260.96875 42.015625 L 260.96875 129.144531 Z M 788.025391 102.537109 C 818.930603 102.336166 832.423828 86.109344 832.423828 69.580078 C 832.423828 54.375961 821.031738 42.017578 792.240234 42.017578 L 758.376953 42.017578 L 758.376953 102.535156 L 786.539063 102.535156 C 787.038391 102.5401 787.534851 102.540298 788.025391 102.537109 Z"/>
</svg>
