<?xml version="1.0" encoding="UTF-8"?>
<!-- Generated by Pixelmator Pro 3.5.7 -->
<svg class="svg-inline-icon" viewBox="0 0 377 377" xmlns="http://www.w3.org/2000/svg">
    <path id="Path-copy-2" fill="#5590cc" stroke="none" d="M 188.416687 365.583496 C 286.0625 365.583496 365.5 286.145996 365.5 188.5 C 365.5 90.854004 286.0625 11.416504 188.416687 11.416504 C 90.770813 11.416504 11.333344 90.854004 11.333344 188.5 C 11.333344 286.145996 90.770813 365.583496 188.416687 365.583496"/>
    <clipPath id="clipPath-9xDmQ-1">
        <path d="M 0.916656 188.5 C 0.916656 292.054199 84.862488 376 188.416687 376 L 188.416687 376 C 291.970825 376 375.916687 292.054199 375.916687 188.5 L 375.916687 188.5 C 375.916687 84.949707 291.970825 1 188.416687 1 L 188.416687 1 C 84.862488 1 0.916656 84.949707 0.916656 188.5"/>
    </clipPath>
    <g id="Group-copy" clip-path="url(#clipPath-9xDmQ-1)">
        <path id="Path" fill="#ceecf8" stroke="none" d="M 222.854187 79.152344 L 220.979187 79.152344 C 214.104187 79.152344 208.533325 73.581543 208.533325 66.706543 L 208.533325 40.115234 C 208.533325 33.240234 214.104187 27.660645 220.979187 27.660645 L 222.854187 27.660645 C 229.729187 27.660645 235.299988 33.240234 235.299988 40.115234 L 235.299988 66.706543 C 235.299988 73.581543 229.729187 79.152344 222.854187 79.152344"/>
        <path id="path1" fill="#ceecf8" stroke="none" d="M 167.767517 109.466309 L 165.892517 109.466309 C 159.017517 109.466309 153.446655 103.895508 153.446655 97.020508 L 153.446655 70.428711 C 153.446655 63.553711 159.017517 57.974609 165.892517 57.974609 L 167.767517 57.974609 C 174.642517 57.974609 180.213318 63.553711 180.213318 70.428711 L 180.213318 97.020508 C 180.213318 103.895508 174.642517 109.466309 167.767517 109.466309"/>
        <path id="path2" fill="none" stroke="#ceecf8" stroke-width="6.695833" stroke-linecap="round" stroke-linejoin="round" d="M -18.07959 156.524902 C 6.562073 156.524902 6.562073 174.383301 31.29541 174.383301 C 55.937073 174.383301 55.937073 156.524902 80.582947 156.524902 C 90.757935 156.524902 96.741272 159.5625 102.007935 163.220703"/>
        <path id="path3" fill="none" stroke="#ceecf8" stroke-width="6.695833" stroke-linecap="round" stroke-linejoin="round" d="M 117.634583 172.507324 C 120.938721 173.669434 124.955444 174.382324 129.86792 174.382324 C 149.597107 174.382324 153.61792 162.953125 167.009583 158.398926 C 170.313721 157.240234 174.330444 156.523926 179.24292 156.523926 C 182.99292 156.523926 186.205444 156.969727 188.972107 157.686035 C 202.722107 161.169434 206.74292 171.615234 222.097107 173.844727 C 222.276245 173.936035 222.455444 174.023926 222.722107 173.936035 C 222.813721 174.023926 222.901245 174.023926 223.080383 174.023926 C 224.776245 174.294434 226.563721 174.382324 228.526245 174.382324 C 242.455444 174.382324 248.526245 168.757324 255.580383 163.757324 L 255.672119 163.757324 C 261.11792 159.919434 267.188782 156.523926 277.901245 156.523926 C 302.547119 156.523926 302.547119 174.382324 327.276245 174.382324 C 352.009583 174.382324 352.009583 156.523926 376.651245 156.523926"/>
        <path id="path4" fill="none" stroke="#ceecf8" stroke-width="6.695833" stroke-linecap="round" stroke-linejoin="round" d="M -18.07959 227.507324 C 6.562073 227.507324 6.562073 245.365234 31.29541 245.365234 C 55.132935 245.365234 55.937073 228.669434 78.17041 227.594727"/>
        <path id="path5" fill="none" stroke="#ceecf8" stroke-width="6.695833" stroke-linecap="round" stroke-linejoin="round" d="M 119.777527 244.114258 C 122.635803 244.918457 125.940002 245.364258 129.86499 245.364258 C 154.598328 245.364258 154.598328 227.505859 179.23999 227.505859 C 191.11499 227.505859 197.277527 231.614258 203.169189 235.901855 C 206.027527 237.95166 208.885803 240.097656 212.277527 241.793457"/>
        <path id="path6" fill="none" stroke="#ceecf8" stroke-width="6.695833" stroke-linecap="round" stroke-linejoin="round" d="M 250.848755 238.221191 C 252.723755 236.883789 254.419556 235.541992 256.294556 234.291992 C 256.740417 234.025391 257.186279 233.666992 257.63623 233.400391 C 262.63623 230.183594 268.436279 227.508789 277.902893 227.508789 C 297.457092 227.508789 301.473755 238.758789 314.686279 243.400391"/>
        <path id="path7" fill="none" stroke="#ceecf8" stroke-width="6.695833" stroke-linecap="round" stroke-linejoin="round" d="M 106.830811 237.59668 C 105.314148 236.525879 103.793335 235.363281 102.189148 234.205078"/>
        <path id="path8" fill="none" stroke="#ceecf8" stroke-width="6.695833" stroke-linecap="round" stroke-linejoin="round" d="M -18.069153 312.196289 C 6.593323 312.196289 6.593323 330.054688 31.251678 330.054688 C 55.914185 330.054688 55.914185 312.196289 80.57251 312.196289 C 105.234985 312.196289 105.234985 330.054688 129.893311 330.054688 C 154.564148 330.054688 154.564148 312.196289 179.234985 312.196289 C 203.88501 312.196289 203.88501 330.054688 228.539185 330.054688 C 253.218323 330.054688 253.218323 312.196289 277.88501 312.196289 C 302.580811 312.196289 302.580811 330.054688 327.280823 330.054688 C 351.968323 330.054688 351.968323 312.196289 376.664185 312.196289"/>
        <path id="path9" fill="none" stroke="#ceecf8" stroke-width="6.695833" stroke-linecap="round" stroke-linejoin="round" d="M 117.634583 172.507324 C 117.634583 175.007324 117.547058 177.507324 117.188721 180.094727 C 115.759583 191.703125 110.847107 202.061035 103.797058 210.365234 C 98.972107 200.632324 96.74292 189.382324 98.259583 177.686035 C 98.884583 172.594727 100.134583 167.773926 102.009583 163.219727 C 104.330444 157.419434 107.634583 152.061035 111.563721 147.419434 C 115.313721 155.007324 117.547058 163.490234 117.634583 172.507324 Z"/>
        <path id="path10" fill="none" stroke="#ceecf8" stroke-width="6.695833" stroke-linecap="round" stroke-linejoin="round" d="M 252.187927 230.989258 C 251.921265 233.489258 251.475403 235.901855 250.850403 238.222656 C 250.57959 239.472656 250.225403 240.630859 249.867065 241.793457 C 247.367065 249.918457 243.258728 257.239258 237.900391 263.489258 C 235.133728 257.864258 233.171265 251.70166 232.187927 245.276855 C 232.008728 244.114258 231.82959 242.95166 231.742065 241.793457 C 231.296265 237.418457 231.383728 232.95166 231.921265 228.489258 C 233.437927 216.081055 238.617065 205.005859 246.20459 196.07666 C 251.383728 206.526855 253.70459 218.57666 252.187927 230.989258 Z"/>
        <path id="path11" fill="none" stroke="#ceecf8" stroke-width="6.695833" stroke-linecap="round" stroke-linejoin="round" d="M 167.009583 192.417969 L 167.009583 192.86377 C 144.688721 199.73877 128.259583 219.917969 126.74292 244.11377 L 119.776245 244.11377 C 114.422058 242.68457 110.49292 240.18457 106.830444 237.597168 C 112.276245 211.705566 135.313721 192.23877 162.901245 192.23877 C 164.24292 192.23877 165.672058 192.23877 167.009583 192.417969 Z"/>
        <path id="path12" fill="none" stroke="#ceecf8" stroke-width="6.695833" stroke-linecap="round" stroke-linejoin="round" d="M 102.187927 234.203613 C 96.921265 230.632813 90.937927 227.507813 80.57959 227.507813 C 79.775391 227.507813 78.975403 227.507813 78.171265 227.595215 C 70.225403 208.220215 51.921265 194.203613 30.225403 192.328613 C 35.312927 190.899414 40.758728 190.095215 46.296265 190.095215 C 73.437927 190.095215 96.20459 208.937012 102.187927 234.203613 Z"/>
        <path id="path13" fill="none" stroke="#ceecf8" stroke-width="6.695833" stroke-linecap="round" stroke-linejoin="round" d="M 222.162109 49.303711 L 222.162109 79.124512 L 222.162109 142.162109 L 222.162109 173.85791"/>
        <path id="path14" fill="none" stroke="#ceecf8" stroke-width="6.695833" stroke-linecap="round" stroke-linejoin="round" d="M 167.009583 79.561035 L 167.009583 109.473145 L 167.009583 158.398438"/>
        <path id="path15" fill="none" stroke="#ceecf8" stroke-width="6.695833" stroke-linecap="round" stroke-linejoin="round" d="M 222.723755 147.864258 L 222.723755 173.935059 C 222.457092 174.026855 222.277893 173.935059 222.098755 173.847656 C 206.740417 171.614258 202.723755 161.168457 188.973755 157.685059 C 188.88623 156.70166 188.794556 155.630859 188.794556 154.560059 L 188.794556 116.347656 L 191.115417 116.347656 C 206.473755 116.347656 219.152893 127.151855 222.098755 141.526855 C 222.544556 143.57666 222.723755 145.722656 222.723755 147.864258 Z"/>
        <path id="path16" fill="none" stroke="#ceecf8" stroke-width="6.695833" stroke-linecap="round" stroke-linejoin="round" d="M 257.009583 116.346191 L 257.009583 154.562988 C 257.009583 157.775391 256.563721 160.900391 255.672058 163.758789 L 255.580444 163.758789 C 248.526245 168.758789 242.455444 174.383789 228.526245 174.383789 C 226.563721 174.383789 224.776245 174.291992 223.080444 174.025391 L 223.080444 147.862793 C 223.080444 130.45459 237.188721 116.346191 254.597107 116.346191 L 257.009583 116.346191 Z"/>
        <path id="path17" fill="none" stroke="#ceecf8" stroke-width="6.695833" stroke-linecap="round" stroke-linejoin="round" d="M 295.313354 267.864746 C 295.313354 275.098145 292.367493 281.614746 287.634155 286.348145 C 282.900818 290.989746 276.47583 293.935547 269.242493 293.935547 L 204.509155 293.935547 C 190.134155 293.935547 178.438354 282.327148 178.438354 267.864746 C 178.438354 260.631348 181.384155 254.202148 186.117493 249.473145 C 190.759155 244.739746 197.367493 241.793945 204.509155 241.793945 L 231.742493 241.793945 C 231.830017 242.952148 232.009155 244.114746 232.188354 245.272949 C 233.171692 251.702148 235.134155 257.864746 237.900818 263.489746 C 243.259155 257.239746 247.367493 249.918945 249.867493 241.793945 L 269.242493 241.793945 C 283.617493 241.793945 295.313354 253.489746 295.313354 267.864746 Z"/>
        <path id="path18" fill="none" stroke="#ceecf8" stroke-width="6.695833" stroke-linecap="round" stroke-linejoin="round" d="M 431.473755 241.436035 C 431.473755 248.668945 428.527893 255.098145 423.794556 259.827637 C 419.152893 264.561035 412.544556 267.506836 405.402893 267.506836 L 340.669617 267.506836 C 326.832092 267.506836 315.669617 256.881836 314.686279 243.398438 C 314.598755 242.773438 314.598755 242.061035 314.598755 241.436035 C 314.598755 234.202637 317.544556 227.773438 322.186279 223.043945 C 326.919556 218.311035 333.436279 215.365234 340.669617 215.365234 L 405.402893 215.365234 C 419.777893 215.365234 431.473755 227.061035 431.473755 241.436035 Z"/>
    </g>
    <path id="Path-copy" fill="none" stroke="#5590cc" stroke-width="20.833334" d="M 188.416687 365.583496 C 286.0625 365.583496 365.5 286.145996 365.5 188.5 C 365.5 90.854004 286.0625 11.416504 188.416687 11.416504 C 90.770813 11.416504 11.333344 90.854004 11.333344 188.5 C 11.333344 286.145996 90.770813 365.583496 188.416687 365.583496 Z"/>
</svg>
