<?xml version="1.0" encoding="UTF-8"?>
<!-- Generated by Pixelmator Pro 3.5.7 -->
<svg class="svg-inline-icon" viewBox="0 0 369 369" xmlns="http://www.w3.org/2000/svg">
    <path id="Path-copy-2" fill="#5590cc" stroke="none" d="M 184.416748 357.25 C 279.762451 357.25 357.333252 279.679199 357.333252 184.333496 C 357.333252 88.987305 279.762451 11.416504 184.416748 11.416504 C 89.070801 11.416504 11.5 88.987305 11.5 184.333496 C 11.5 279.679199 89.070801 357.25 184.416748 357.25"/>
    <clipPath id="clipPath--1">
        <path d="M 1.083252 184.333496 C 1.083252 285.583496 83.162354 367.666504 184.416748 367.666504 L 184.416748 367.666504 C 285.666504 367.666504 367.75 285.583496 367.75 184.333496 L 367.75 184.333496 C 367.75 83.079102 285.666504 1 184.416748 1 L 184.416748 1 C 83.162354 1 1.083252 83.079102 1.083252 184.333496"/>
    </clipPath>
    <g id="Group-copy" clip-path="url(#clipPath--1)">
        <path id="Path" fill="#ceecf8" stroke="none" d="M 135.731201 319.894531 L 158.289551 281.969727 C 163.639648 272.969727 176.256348 271.88623 183.064697 279.848633 C 189.935303 287.882324 186.7854 300.286133 176.918701 304.07373 Z"/>
        <path id="path1" fill="#ceecf8" stroke="none" d="M 132.78125 236.999023 L 95.643799 213.166016 C 86.835449 207.507324 86.181152 194.865723 94.368652 188.336426 C 102.627197 181.736816 114.918701 185.307617 118.377197 195.294922 Z"/>
        <path id="path2" fill="#ceecf8" stroke="none" d="M 286.19043 307.568848 L 308.748779 269.643555 C 314.098633 260.643555 326.715332 259.560547 333.523682 267.522949 C 340.394531 275.556152 337.244629 287.960449 327.37793 291.748047 Z"/>
        <path id="path3" fill="#ceecf8" stroke="none" d="M 283.241211 224.67334 L 246.10376 200.839844 C 237.29541 195.181641 236.641357 182.540039 244.828857 176.010742 C 253.087158 169.410645 265.378662 172.981445 268.837158 182.969238 Z"/>
        <path id="path4" fill="none" stroke="#ceecf8" stroke-width="6.545833" stroke-linecap="round" stroke-linejoin="round" d="M 37.191162 53.237793 C 29.72876 65.066895 16.54541 72.958984 1.474609 72.958984 C -13.592041 72.958984 -26.775391 65.066895 -34.238037 53.237793"/>
        <path id="path5" fill="none" stroke="#ceecf8" stroke-width="6.545833" stroke-linecap="round" stroke-linejoin="round" d="M 108.619629 53.237305 C 101.156982 65.066406 87.973633 72.958008 72.902832 72.958008 C 57.836182 72.958008 44.652832 65.066406 37.19043 53.237305"/>
        <path id="path6" fill="none" stroke="#ceecf8" stroke-width="6.545833" stroke-linecap="round" stroke-linejoin="round" d="M 180.047607 53.237793 C 172.584961 65.066895 159.401611 72.958984 144.330811 72.958984 C 129.26416 72.958984 116.080811 65.066895 108.618408 53.237793"/>
        <path id="path7" fill="none" stroke="#ceecf8" stroke-width="6.545833" stroke-linecap="round" stroke-linejoin="round" d="M 251.499268 53.237793 C 244.036621 65.066895 230.853271 72.958984 215.782471 72.958984 C 200.71582 72.958984 187.532471 65.066895 180.070068 53.237793 L 180.044922 53.237793"/>
        <path id="path8" fill="none" stroke="#ceecf8" stroke-width="6.545833" stroke-linecap="round" stroke-linejoin="round" d="M 322.92749 53.237305 C 315.465088 65.066406 302.281738 72.958008 287.210938 72.958008 C 272.144287 72.958008 258.960938 65.066406 251.498291 53.237305"/>
        <path id="path9" fill="none" stroke="#ceecf8" stroke-width="6.545833" stroke-linecap="round" stroke-linejoin="round" d="M 394.355469 53.237793 C 386.892822 65.066895 373.709473 72.958984 358.638672 72.958984 C 343.572021 72.958984 330.388672 65.066895 322.92627 53.237793"/>
        <path id="path10" fill="none" stroke="#ceecf8" stroke-width="6.545833" stroke-linecap="round" stroke-linejoin="round" d="M 296.439697 151.157227 L 337.96875 151.157227"/>
        <path id="path11" fill="none" stroke="#ceecf8" stroke-width="6.545833" stroke-linecap="round" stroke-linejoin="round" d="M -14.46875 151.999512 L 27.060303 151.999512"/>
        <path id="path12" fill="none" stroke="#ceecf8" stroke-width="6.545833" stroke-linecap="round" stroke-linejoin="round" d="M 37.61377 91.841797 L 79.142822 91.841797"/>
        <path id="path13" fill="none" stroke="#ceecf8" stroke-width="6.545833" stroke-linecap="round" stroke-linejoin="round" d="M 289.098389 94.170898 L 330.627441 94.170898"/>
        <path id="path14" fill="none" stroke="#ceecf8" stroke-width="6.545833" stroke-linecap="round" stroke-linejoin="round" d="M 45.529541 347.445313 C 45.529541 333.041016 50.76709 333.041016 50.76709 318.637207 C 50.76709 304.220215 45.529541 304.220215 45.529541 289.816406 C 45.529541 275.403809 50.76709 275.403809 50.76709 260.999512 C 50.76709 246.558105 45.529541 246.558105 45.529541 232.128906 C 45.529541 217.687012 50.76709 217.687012 50.76709 203.257813"/>
        <path id="path15" fill="none" stroke="#ceecf8" stroke-width="6.545833" stroke-linecap="round" stroke-linejoin="round" d="M 348.722412 330.189941 C 348.722412 315.785645 353.959961 315.785645 353.959961 301.381836 C 353.959961 286.964844 348.722412 286.964844 348.722412 272.561035 C 348.722412 258.148438 353.959961 258.148438 353.959961 243.744141 C 353.959961 229.302734 348.722412 229.302734 348.722412 214.873535 C 348.722412 200.431641 353.959961 200.431641 353.959961 186.002441"/>
        <path id="path16" fill="none" stroke="#ceecf8" stroke-width="6.545833" stroke-linecap="round" stroke-linejoin="round" d="M 201.164551 380.339355 C 201.0354 368.318848 206.272949 368.256348 206.139648 356.235352 C 206.010498 344.206055 200.772949 344.256348 200.639648 332.235352 C 200.510498 320.206055 205.747803 320.143555 205.618652 308.114746 C 205.485352 296.068848 200.247803 296.126953 200.118652 284.072754 C 199.985352 272.022949 205.2229 271.973145 205.09375 259.922852"/>
        <path id="path17" fill="none" stroke="#ceecf8" stroke-width="6.545833" stroke-linecap="round" stroke-linejoin="round" d="M 135.05127 377.851074 C 135.017822 359.893066 140.255371 359.884766 140.226318 341.92627 C 140.192871 323.967773 134.955322 323.976074 134.922119 306.018066 C 134.884521 288.042969 140.12207 288.034668 140.097168 270.05957 C 140.063721 252.076172 134.822021 252.084473 134.788818 234.092773 C 134.763672 216.109375 140.001221 216.097168 139.968018 198.105469"/>
        <path id="path18" fill="none" stroke="#ceecf8" stroke-width="6.545833" stroke-linecap="round" stroke-linejoin="round" d="M 285.510742 365.525879 C 285.477539 347.567383 290.715088 347.559082 290.685791 329.601074 C 290.652588 311.642578 285.415039 311.650879 285.381592 293.692383 C 285.344238 275.717285 290.581787 275.708984 290.556641 257.734375 C 290.523438 239.750977 285.285889 239.759277 285.248291 221.767578 C 285.223389 203.78418 290.460938 203.771484 290.42749 185.779785"/>
        <path id="path19" fill="none" stroke="#ceecf8" stroke-width="6.545833" stroke-linecap="round" stroke-linejoin="round" d="M 224.946777 114.039551 C 216.513428 114.285645 209.738281 121.15625 209.738281 129.647949 C 209.738281 138.143555 216.513428 145.022949 224.946777 145.260254 L 224.946777 114.039551 Z"/>
        <path id="path20" fill="none" stroke="#ceecf8" stroke-width="6.545833" stroke-linecap="round" stroke-linejoin="round" d="M 212.790771 129.739746 C 205.45752 136.897949 195.415771 141.352051 184.245117 141.352051 C 174.432617 141.352051 165.428223 137.856445 158.411621 132.089355 C 156.96167 130.901855 156.945068 128.560547 158.382568 127.356445 C 165.411621 121.456055 174.411621 117.952148 184.245117 117.952148 C 195.415771 117.952148 205.45752 122.40625 212.790771 129.739746 Z"/>
        <path id="path21" fill="none" stroke="#ceecf8" stroke-width="6.545833" stroke-linecap="round" stroke-linejoin="round" d="M 110.577881 315.551758 C 110.577881 319.251465 105.244629 322.789063 105.044678 326.422363 C 104.840332 330.122559 109.75708 334.218262 109.357178 337.831055 C 108.94458 341.51416 103.25293 344.430664 102.652832 348.018555 C 102.031982 351.676758 106.457031 356.297363 105.644531 359.831055 C 104.81543 363.456055 98.81958 365.680664 97.786133 369.164063 C 96.740479 372.718262 100.56543 377.843262 99.32373 381.239258 C 98.048828 384.730957 94.219482 384.605957 92.748779 387.905762 C 91.286133 384.605957 87.452881 384.730957 86.177979 381.239258 C 84.936279 377.843262 88.76123 372.726563 87.715332 369.164063 C 86.682129 365.680664 80.69458 363.464355 79.865479 359.839355 C 79.052979 356.305664 83.469482 351.676758 82.853027 348.018555 C 82.248779 344.438965 76.557129 341.522461 76.144531 337.847656 C 75.744629 334.226563 80.661133 330.130859 80.457031 326.430664 C 80.25708 322.789063 74.923828 319.26416 74.923828 315.551758 C 74.923828 311.851563 80.25708 308.313965 80.457031 304.680664 C 80.661133 300.980957 75.744629 296.884766 76.144531 293.272461 C 76.548828 289.589355 82.248779 286.672363 82.853027 283.084961 C 83.461182 279.426758 79.044678 274.810059 79.857178 271.272461 C 80.686279 267.647461 86.682129 265.422363 87.715332 261.938965 C 88.76123 258.384766 84.936279 253.26416 86.177979 249.864258 C 87.452881 246.372559 91.286133 246.497559 92.748779 243.197266 C 94.219482 246.497559 98.048828 246.372559 99.32373 249.864258 C 100.56543 253.26416 96.740479 258.376465 97.786133 261.938965 C 98.81958 265.422363 104.807129 267.63916 105.63623 271.26416 C 106.44873 274.797363 102.031982 279.426758 102.652832 283.084961 C 103.25293 286.664063 108.94458 289.581055 109.357178 293.255859 C 109.75708 296.876465 104.840332 300.972656 105.044678 304.672363 C 105.244629 308.313965 110.577881 311.843262 110.577881 315.551758 Z"/>
        <path id="path22" fill="none" stroke="#ceecf8" stroke-width="6.545833" stroke-linecap="round" stroke-linejoin="round" d="M 260.120361 325.541504 C 260.120361 329.241699 254.787109 332.779297 254.587158 336.412598 C 254.382813 340.112305 259.299561 344.208496 258.899658 347.820801 C 258.487061 351.504395 252.79541 354.420898 252.191162 358.008301 C 251.574463 361.666504 255.999512 366.287598 255.187012 369.820801 C 254.35791 373.445801 248.362061 375.670898 247.328857 379.154297 C 246.282959 382.708496 250.10791 387.833496 248.866211 391.229004 C 247.591309 394.720703 243.757813 394.595703 242.29126 397.895996 C 240.828857 394.595703 236.995361 394.720703 235.720459 391.229004 C 234.47876 387.833496 238.303711 382.716797 237.257813 379.154297 C 236.224609 375.670898 230.237061 373.454102 229.407959 369.829102 C 228.595459 366.295898 233.011963 361.666504 232.395508 358.008301 C 231.79126 354.429199 226.099609 351.512695 225.687012 347.837402 C 225.287109 344.216797 230.203857 340.120605 229.999512 336.420898 C 229.799561 332.779297 224.466309 329.254395 224.466309 325.541504 C 224.466309 321.841797 229.799561 318.304199 229.999512 314.670898 C 230.203857 310.970703 225.287109 306.875 225.687012 303.262695 C 226.091309 299.579102 231.79126 296.662598 232.395508 293.075195 C 233.003662 289.416504 228.587158 284.799805 229.399658 281.262695 C 230.22876 277.637695 236.224609 275.412598 237.257813 271.929199 C 238.303711 268.375 234.47876 263.254395 235.720459 259.854004 C 236.995361 256.362305 240.828857 256.487305 242.29126 253.1875 C 243.757813 256.487305 247.591309 256.362305 248.866211 259.854004 C 250.10791 263.254395 246.282959 268.366699 247.328857 271.929199 C 248.362061 275.404297 254.349609 277.629395 255.178711 281.254395 C 255.991211 284.787598 251.574463 289.416504 252.191162 293.075195 C 252.79541 296.654297 258.487061 299.570801 258.899658 303.245605 C 259.299561 306.866699 254.382813 310.962402 254.587158 314.662598 C 254.787109 318.304199 260.120361 321.833496 260.120361 325.541504 Z"/>
    </g>
    <path id="Path-copy" fill="none" stroke="#5590cc" stroke-width="20.833334" d="M 184.416748 357.25 C 279.762451 357.25 357.333252 279.679199 357.333252 184.333496 C 357.333252 88.987305 279.762451 11.416504 184.416748 11.416504 C 89.070801 11.416504 11.5 88.987305 11.5 184.333496 C 11.5 279.679199 89.070801 357.25 184.416748 357.25 Z"/>
</svg>
