<?xml version="1.0" encoding="UTF-8"?>
<!-- Generated by Pixelmator Pro 3.5.10 -->
<svg width="248" height="52" viewBox="0 0 248 52" xmlns="http://www.w3.org/2000/svg">
    <path id="Path" fill="#ffffff" stroke="none" d="M 35.604 40.047001 C 38.715 40.008999 41.666 39.554001 44.278 38.675999 C 44.935001 38.453999 45.562 38.209999 46.157001 37.944 C 45.431 39.718998 44.362 41.199001 42.972 42.299999 C 40.226002 44.321999 36.987 45.708 33.470001 46.237999 C 34.349998 44.716999 35.060001 42.570999 35.604 40.047001 M 20.969 44.361 C 20.903999 44.306999 20.834 44.257 20.756001 44.218998 C 19.532 43.623001 19.038 40.896 19.674999 36.724998 C 22.025 37.782001 24.586 38.618999 27.275999 39.194 C 29.315001 39.630001 31.347 39.898998 33.332001 40.002998 C 32.358002 44.237 31.110001 46.459 30.283001 46.459 C 30.23 46.459 30.179001 46.467999 30.129 46.474998 C 26.851 46.452999 23.745001 45.699001 20.969 44.361 M 9.612 30.876999 C 9.424 30.160999 9.306 29.431999 9.258 28.691 C 9.993 29.737 10.89 30.76 11.957 31.747002 C 13.569 33.236 15.482 34.568001 17.614 35.709999 C 17.179001 38.146 17.056 40.352001 17.330999 42.132 C 13.656 39.352001 10.907 35.418999 9.612 30.876999 M 36.991001 24.962 C 36.991001 24.101999 36.978001 23.237999 36.952999 22.376999 C 39.693001 22.195 42.230999 21.483 44.307999 20.288 C 46.230999 24.094 47.264 28.108 47.255001 31.896999 C 47.252998 32.994999 47.159 34.039001 46.984001 35.023998 C 45.993999 35.630001 44.855999 36.155998 43.574001 36.586998 C 41.299999 37.352001 38.737 37.77 36.021 37.84 C 36.675999 33.924999 36.991001 29.379999 36.991001 24.962 M 27.737 37.042 C 25.009001 36.457001 22.431 35.591 20.097 34.493999 C 20.863001 31.046 22.290001 26.867001 24.552999 22.228001 C 24.881001 21.556 25.216999 20.896 25.559 20.247999 C 27.141001 20.958 28.862 21.521 30.667 21.907 C 32.037998 22.201 33.409 22.361 34.751999 22.407 C 34.776001 23.233 34.787998 24.084999 34.787998 24.962999 C 34.787998 30.15 34.373001 34.454998 33.775002 37.818001 C 31.805 37.733002 29.777 37.475998 27.737 37.042 M 13.453 30.129999 C 11.582 28.400999 10.296 26.57 9.641 24.751999 C 10.16 22.714001 11.165 20.67 12.644 18.711002 C 14.048 16.853001 15.792 15.18 17.795 13.742001 C 18.372 14.785999 19.181999 15.804001 20.211 16.77 C 21.190001 17.687 22.332001 18.518002 23.597 19.246002 C 23.247999 19.907001 22.907 20.579 22.575001 21.261999 C 20.621 25.266001 19.025 29.563 18.089001 33.460999 C 16.35 32.480999 14.786 31.362999 13.453 30.129999 M 35.494999 9.661999 C 38 11.526001 40.294998 13.931 42.215 16.743999 C 42.578999 17.278 42.922001 17.82 43.248001 18.367001 C 41.487999 19.383999 39.263 19.992001 36.862 20.163 C 36.659 16.362 36.209 12.705002 35.494999 9.661999 M 31.128 19.751999 C 29.534 19.412003 28.018 18.923 26.624001 18.310001 C 28.679001 14.715 30.927 11.589001 33.144001 9.264999 C 33.837002 11.991001 34.417999 15.656002 34.662998 20.200001 C 33.495998 20.153 32.307999 20.004999 31.128 19.751999 M 21.716 15.163002 C 20.804001 14.310001 20.112 13.421001 19.646 12.528 C 21.709999 11.285999 23.993999 10.274002 26.427 9.542999 C 27.874001 9.108002 29.339001 8.785 30.799999 8.562 C 28.691 10.924999 26.584999 13.927002 24.655001 17.318001 C 23.554001 16.679001 22.563999 15.958 21.716 15.163002 M 16.979 8.144001 C 16.948999 8.256001 16.917 8.368999 16.893 8.485001 C 16.67 9.524002 16.695999 10.588001 16.958 11.644001 C 14.588 13.278999 12.527 15.212002 10.886 17.383999 C 10.386 18.045002 9.938 18.720001 9.533 19.400002 C 10.752 14.889 13.408 10.965 16.979 8.144001 M 19.045 8.945 C 19.289 7.802002 19.976 6.780998 21.039 5.936001 C 23.610001 5.167999 26.601 5.353001 29.745001 6.504002 C 28.422001 6.734001 27.099001 7.039001 25.794001 7.432999 C 23.364 8.161999 21.072001 9.159 18.972 10.371002 C 18.924 9.888 18.947001 9.410999 19.045 8.945 M 36.915001 6.042 C 37.671001 5.553001 38.367001 5.216999 38.949001 5.077999 C 40.054001 5.521 41.148998 6.085999 42.187 6.800999 C 40.521 6.386002 38.749001 6.132 36.915001 6.042 M 33.205002 3.684002 C 34.098999 3.784 35.051998 3.937 36.032001 4.166 C 35.417999 4.494999 34.782001 4.908001 34.136002 5.402 C 33.847 4.751999 33.536999 4.178001 33.205002 3.684002 M 30.818001 4.549 C 29.822001 4.167 28.837 3.872002 27.865999 3.66 C 28.643999 3.572998 29.433001 3.523998 30.233999 3.522999 C 30.608999 3.528 31.069 3.978001 31.551001 4.849998 C 31.308001 4.747002 31.063 4.643002 30.818001 4.549 M 6.584 25 C 6.584 27.250999 6.907 29.427 7.497 31.490999 C 7.533 31.631001 7.566 31.768002 7.607 31.907001 C 7.615 31.932999 7.627 31.957001 7.637 31.984001 C 10.624 41.641998 19.638 48.679001 30.264999 48.679001 C 35.181 48.679001 39.750999 47.173 43.540001 44.598999 C 43.577999 44.577999 43.616001 44.557999 43.651001 44.535 C 43.875999 44.382 44.094002 44.221001 44.305 44.053001 C 48.662998 40.833 51.880001 36.159 53.235001 30.750999 C 53.311001 30.501999 53.377998 30.249001 53.432999 29.993 C 53.445999 29.931999 53.450001 29.872999 53.452999 29.813 C 53.775002 28.257999 53.945 26.646999 53.945 25 C 53.945 21.803999 53.319 18.702 52.084 15.783001 C 51.847 15.222 51.201 14.960999 50.640999 15.198002 C 50.080002 15.432999 49.818001 16.081001 50.055 16.639999 C 51.174999 19.285999 51.742001 22.098999 51.742001 24.999001 C 51.742001 26.775999 51.521 28.503 51.112 30.155001 C 50.786999 31.198 50.215 32.162998 49.424999 33.037998 C 49.444 32.664001 49.457001 32.285999 49.458 31.901001 C 49.466999 27.674999 48.298 23.212999 46.131001 19.018002 C 47.720001 17.653999 48.733002 15.968002 49.081001 14.082001 C 49.192001 13.484001 48.796001 12.91 48.198002 12.799999 C 47.599998 12.688 47.025002 13.084 46.915001 13.682999 C 46.685001 14.93 46.037998 16.073002 45.023998 17.046001 C 44.709 16.525002 44.382 16.008999 44.035 15.5 C 42.102001 12.666 39.805 10.214001 37.291 8.257999 C 40.609001 8.476002 43.675999 9.279999 46.146 10.66 C 46.533001 10.881001 47.048 10.874001 47.41 10.571999 C 47.877998 10.182999 47.939999 9.487 47.549999 9.019001 C 44.001999 4.054001 37.863998 1.318001 30.264 1.318001 C 17.208 1.320999 6.584 11.944 6.584 25"/>
    <path id="path1" fill="#ffffff" stroke="none" d="M 63.359001 44.313 L 63.359001 33.401001 L 65.510002 33.401001 L 65.510002 44.313 L 63.359001 44.313 Z M 67.428001 44.313 L 67.428001 33.401001 L 71.556999 33.401001 C 73.788002 33.401001 75.080002 34.247002 75.080002 36.284 C 75.080002 38.218998 73.93 38.548 73.380997 38.548 L 73.380997 38.578999 C 74.111 38.578999 75.815002 39.218998 75.815002 41.255001 C 75.815002 43.533001 74.022003 44.313999 72.009003 44.313999 L 67.428001 44.313999 Z M 71.310997 37.956001 C 72.477997 37.956001 72.869003 37.376999 72.869003 36.535999 C 72.869003 35.660999 72.291 35.146999 71.012001 35.146999 L 69.578003 35.146999 L 69.578003 37.956001 L 71.310997 37.956001 Z M 71.542 42.567001 C 72.619003 42.567001 73.431 42.228001 73.431 41.025002 C 73.431 39.903 72.602997 39.466999 71.497002 39.466999 L 69.579002 39.466999 L 69.579002 42.567001 L 71.542 42.567001 Z M 86.223999 44.283001 C 86.223999 44.283001 85.820999 44.389999 85.101997 44.389999 C 81.796997 44.389999 82.700996 40.228001 80.391998 40.228001 L 79.240997 40.228001 L 79.240997 44.313 L 77.089996 44.313 L 77.089996 33.401001 L 80.924004 33.401001 C 83.603996 33.401001 85.041 34.383999 85.041 36.834 C 85.041 38.438999 83.996002 39.291 83.152 39.605 C 84.274002 40.523998 84.337997 42.645 85.771004 42.645 L 86.223 42.645 L 86.223 44.283001 Z M 80.674004 38.609001 C 81.969002 38.609001 82.918999 38.014999 82.918999 36.894001 C 82.918999 35.805 82.155998 35.146999 80.848 35.146999 L 79.241997 35.146999 L 79.241997 38.609001 L 80.674004 38.609001 Z M 87.172997 44.313 L 87.172997 33.401001 L 90.370003 33.401001 C 93.236 33.401001 95.793999 34.946999 95.793999 39.046001 C 95.793999 42.928001 93.486 44.313999 90.834999 44.313999 L 87.172997 44.313999 Z M 90.818001 42.567001 C 92.487999 42.567001 93.654999 41.350998 93.654999 39.013 C 93.654999 36.596001 92.629997 35.146999 90.336998 35.146999 L 89.323997 35.146999 L 89.323997 42.567001 L 90.818001 42.567001 Z M 102.183998 41.821999 C 101.061996 41.821999 100.174004 40.917 100.174004 39.793999 C 100.174004 38.669998 101.061996 37.77 102.183998 37.77 C 103.306 37.77 104.209999 38.669998 104.209999 39.793999 C 104.209999 40.917 103.306 41.821999 102.183998 41.821999 Z M 109.085999 44.313 L 109.085999 33.401001 L 111.237 33.401001 L 111.237 44.313 L 109.085999 44.313 Z M 113.152 44.313 L 113.152 33.401001 L 116.348 33.401001 C 119.218002 33.401001 121.772003 34.946999 121.772003 39.046001 C 121.772003 42.928001 119.468002 44.313999 116.816002 44.313999 L 113.152 44.313999 Z M 116.800003 42.567001 C 118.470001 42.567001 119.639999 41.350998 119.639999 39.013 C 119.639999 36.596001 118.611 35.146999 116.319 35.146999 L 115.306 35.146999 L 115.306 42.567001 L 116.800003 42.567001 Z M 128.884003 41.588001 L 125.014 41.588001 L 124.094002 44.313 L 121.849998 44.313 L 125.858002 33.401001 L 128.052994 33.401001 L 132.061005 44.313 L 129.832001 44.313 L 128.884003 41.588001 Z M 125.591003 39.950001 L 128.335007 39.950001 L 126.946999 35.987 L 125.591003 39.950001 Z"/>
    <path id="path2" fill="#ffffff" stroke="none" d="M 59.157001 11.876999 L 71.112999 11.876999 L 71.112999 14.330002 L 66.722 14.330002 L 66.722 26.632 L 63.550999 26.632 L 63.550999 14.331001 L 59.157001 14.331001 L 59.157001 11.876999 Z M 72.792999 26.632 L 72.792999 11.876999 L 75.961998 11.876999 L 75.961998 17.700001 L 81.542 17.700001 L 81.542 11.876999 L 84.749001 11.876999 L 84.749001 26.632 L 81.582001 26.632 L 81.582001 20.153 L 75.961998 20.153 L 75.961998 26.632 L 72.792999 26.632 Z M 87.330002 11.876999 L 97.223 11.876999 L 97.223 14.330002 L 90.5 14.330002 L 90.5 17.784 L 96.794998 17.784 L 96.794998 20.236 L 90.5 20.236 L 90.5 24.18 L 97.447998 24.18 L 97.447998 26.632 L 87.330002 26.632 L 87.330002 11.876999 Z M 112.963997 11.876999 L 116.538002 11.876999 L 119.113998 22.975 L 119.153999 22.975 L 121.527 11.876999 L 124.552002 11.876999 L 120.790001 26.632 L 117.276001 26.632 L 114.620003 15.390999 L 114.579002 15.390999 L 111.714996 26.632 L 108.121002 26.632 L 104.524002 11.876999 L 107.794998 11.876999 L 110.061996 22.975 L 110.105003 22.975 L 112.963997 11.876999 Z M 125.625999 19.257 C 125.625999 14.903999 127.832001 11.57 132.716003 11.57 C 137.598007 11.57 139.807999 14.903 139.807999 19.257 C 139.807999 23.611 137.598007 26.938999 132.716003 26.938999 C 127.832001 26.938999 125.625999 23.610001 125.625999 19.257 Z M 128.996002 19.257 C 128.996002 21.788 129.589996 24.65 132.716995 24.65 C 135.843994 24.65 136.436996 21.788 136.436996 19.257 C 136.436996 16.721001 135.843994 13.858002 132.716995 13.858002 C 129.589996 13.858002 128.996002 16.721001 128.996002 19.257 Z M 145.067001 26.632 L 141.897003 26.632 L 141.897003 11.876999 L 148.169006 11.876999 C 150.705002 11.896999 153.300003 12.714001 153.300003 15.720001 C 153.300003 17.639999 152.054001 18.909 150.235001 19.296001 L 150.235001 19.338001 C 152.667999 19.603001 152.667999 21.094 152.934006 23.139 C 153.078995 24.08 153.199005 25.816999 153.792007 26.632999 L 150.296005 26.632999 C 150.031006 25.326 149.888 23.997999 149.744995 22.667999 C 149.662003 21.851999 149.457001 20.728001 148.417007 20.688 L 145.065994 20.688 L 145.065994 26.632 Z M 145.067001 18.235001 L 147.720001 18.235001 C 149.113007 18.212002 149.927994 17.52 149.927994 16.209999 C 149.927994 14.903999 149.113007 14.351002 147.720001 14.331001 L 145.067001 14.331001 L 145.067001 18.235001 Z M 155.722 26.632 L 155.722 11.876999 L 158.891006 11.876999 L 158.891006 24.18 L 165.287003 24.18 L 165.287003 26.632 L 155.722 26.632 Z M 167.005997 11.876999 L 172.035004 11.876999 C 176.630997 11.838001 179.492996 14.124001 179.492996 19.256001 C 179.492996 24.383999 176.630997 26.671999 172.035004 26.631001 L 167.005997 26.631001 L 167.005997 11.876999 Z M 170.173004 24.181 L 171.809006 24.181 C 175.570999 24.222 176.123993 21.605 176.123993 19.257 C 176.123993 16.906002 175.570007 14.291 171.809006 14.331001 L 170.173004 14.331001 L 170.173004 24.181 Z M 187.513 26.632 L 187.513 11.876999 L 193.052002 11.876999 C 195.688004 11.714001 198.386002 12.819 198.386002 15.699001 C 198.386002 17.313 197.261002 18.438 195.789993 18.927002 L 195.789993 18.969002 C 197.651001 19.359001 199.037994 20.646999 199.037994 22.809999 C 199.037994 25.733999 195.356995 26.796999 193.091995 26.632 L 187.513 26.632 Z M 193.153 24.181 C 194.643997 24.181 195.666 23.914999 195.666 22.219 C 195.666 20.523001 194.645004 20.257 193.153 20.257 L 190.677994 20.257 L 190.677994 24.181 L 193.153 24.181 Z M 193.153 17.806 C 194.481003 17.806 195.216003 17.253002 195.216003 16.068001 C 195.216003 14.881001 194.481003 14.331001 193.153 14.331001 L 190.677994 14.331001 L 190.677994 17.806999 L 193.153 17.806999 Z M 200.026001 26.632 L 205.362 11.876999 L 209.121994 11.876999 L 214.25 26.632 L 211.063995 26.632 L 210.001007 23.506001 L 204.156006 23.506001 L 203.050995 26.632 L 200.026001 26.632 Z M 209.205002 21.053999 L 207.182007 14.758999 L 207.139008 14.758999 L 204.975006 21.053999 L 209.205002 21.053999 Z M 224.703003 26.632 L 218.876999 14.368999 L 218.837006 14.410999 L 218.837006 26.631001 L 215.873993 26.631001 L 215.873993 11.876999 L 220.572006 11.876999 L 226.194 23.486 L 226.235001 23.442999 L 226.235001 11.876999 L 229.197998 11.876999 L 229.197998 26.632 L 224.703003 26.632 Z M 234.966995 18.255001 L 235.009003 18.255001 L 239.912994 11.876999 L 243.610992 11.876999 L 238.195007 18.478001 L 244.082001 26.632 L 240.138 26.632 L 235.009003 19.112 L 234.966995 19.112 L 234.966995 26.632 L 231.800003 26.632 L 231.800003 11.876999 L 234.966995 11.876999 L 234.966995 18.255001 Z"/>
</svg>
