<?xml version="1.0" encoding="UTF-8"?>
<!-- Generated by Pixelmator Pro 3.5.7 -->
<svg class="svg-inline-icon" viewBox="0 0 2205 2205" xmlns="http://www.w3.org/2000/svg">
    <path id="Path-copy-30" fill="#96e0d5" stroke="none" d="M 1102.916504 2204.166748 C 1711.579102 2204.166748 2205 1710.74585 2205 1102.083374 C 2205 493.420898 1711.579102 0 1102.916504 0 C 494.254395 0 0.833496 493.420898 0.833496 1102.083374 C 0.833496 1710.74585 494.254395 2204.166748 1102.916504 2204.166748"/>
    <path id="Path-copy-29" fill="#ccf4ff" stroke="none" d="M 1102.916504 2042.459961 C 1622.274902 2042.459961 2043.295898 1621.439209 2043.295898 1102.084961 C 2043.295898 582.726685 1622.274902 161.705811 1102.916504 161.705811 C 583.558105 161.705811 162.537598 582.726685 162.537598 1102.084961 C 162.537598 1621.439209 583.558105 2042.459961 1102.916504 2042.459961"/>
    <path id="Path-copy-28" fill="#a5a24a" stroke="none" d="M 1148.287109 1251.349609 L 1143.862305 1226.720459 C 1140.928711 1210.395386 1140.049805 1193.616211 1141.253906 1176.966309 L 1141.253906 1176.966309 C 1142.458008 1160.316284 1141.578613 1143.54126 1138.645508 1127.212036 C 1135.711914 1110.887085 1134.833008 1094.112061 1136.037109 1077.462036 L 1136.041016 1077.457886 C 1137.245605 1060.807861 1136.366211 1044.032959 1133.433105 1027.712036 L 1133.428711 1027.695435 C 1130.495605 1011.370361 1129.620605 994.599609 1130.824707 977.949585 L 1132.641113 952.816284 L 1073.191406 952.816284 L 1075.012207 977.949585 C 1076.216309 994.599609 1075.336914 1011.370361 1072.403809 1027.695435 L 1072.403809 1027.712036 C 1069.470215 1044.032959 1068.591309 1060.807861 1069.79541 1077.457886 L 1069.79541 1077.462036 C 1070.999512 1094.112061 1070.120605 1110.887085 1067.187012 1127.212036 C 1064.253906 1143.54126 1063.374512 1160.316284 1064.583008 1176.966309 L 1064.583008 1176.966309 C 1065.787109 1193.616211 1064.907715 1210.395386 1061.974609 1226.720459 L 1057.549805 1251.349609 Z"/>
    <path id="Path-copy-27" fill="none" stroke="#a5a24a" stroke-width="20.833334" d="M 1233.47998 952.815796 L 1233.47998 654.286621"/>
    <path id="Path-copy-26" fill="none" stroke="#a5a24a" stroke-width="20.833334" d="M 735.973145 957.291626 L 886.414551 673.324951"/>
    <path id="Path-copy-25" fill="none" stroke="#a5a24a" stroke-width="20.833334" d="M 1102.916504 954.837891 L 734.095703 954.837891 L 604.304199 757.596191"/>
    <path id="Path-copy-24" fill="none" stroke="#a5a24a" stroke-width="20.833334" d="M 1102.916504 954.837891 L 1406.670898 954.837891 L 1601.254395 757.283813"/>
    <path id="Path-copy-23" fill="#44bf00" stroke="none" d="M 1036.877441 650.57666 C 1034.156738 644.926636 1034.144043 638.364136 1036.844238 632.705811 L 1036.848145 632.693359 C 1040.265137 625.535034 1039.252441 617.07251 1034.240234 610.905884 L 1034.094238 610.726685 C 1030.202637 605.930786 1028.656738 599.672485 1029.885742 593.63916 L 1029.927734 593.426636 C 1031.510742 585.651611 1028.48584 577.660034 1022.127441 572.834961 L 1021.998535 572.735107 C 1017.052734 568.985107 1014.04834 563.251709 1013.802734 557.084961 L 1013.793945 556.922607 C 1013.473145 548.993408 1008.623535 541.939209 1001.29834 538.743408 L 1001.140137 538.676758 C 995.427734 536.189209 991.135742 531.305908 989.427734 525.360107 L 989.398438 525.26416 C 987.202637 517.622559 980.793945 511.893311 972.902344 510.51001 L 972.719238 510.480713 C 966.594238 509.405762 961.269043 505.693359 958.181641 500.339111 L 958.123535 500.239258 C 954.140137 493.32666 946.523438 489.284912 938.510742 489.82666 L 938.331543 489.839111 C 932.152344 490.255859 926.102539 487.939209 921.806641 483.51001 L 921.686035 483.38916 C 916.123535 477.651611 907.740234 475.57251 900.106445 478.034912 L 899.948242 478.084961 C 894.052734 479.985107 887.61084 479.19751 882.36084 475.935059 L 882.210938 475.843262 C 878.777344 473.714111 874.881836 472.655762 870.98584 472.676758 C 867.089844 472.655762 863.194336 473.714111 859.760742 475.843262 L 859.615234 475.935059 C 854.36084 479.19751 847.918945 479.985107 842.023438 478.084961 L 841.865234 478.034912 C 834.231445 475.57251 825.848145 477.651611 820.285645 483.38916 L 820.165039 483.51001 C 815.869141 487.939209 809.819336 490.255859 803.640137 489.839111 L 803.456543 489.82666 C 795.79834 489.310059 788.510742 492.989258 784.402344 499.355957 L 784.314941 499.355957 C 780.002441 506.022461 772.381836 509.935059 764.319336 509.38916 L 764.29834 509.38916 C 759.427734 509.060059 754.585938 510.355713 750.535645 513.07251 L 750.490234 513.101563 C 743.061035 518.080811 733.36084 518.080811 725.927734 513.101563 L 725.885742 513.07251 C 721.831543 510.355713 716.989746 509.060059 712.123535 509.38916 L 712.098145 509.38916 C 704.035645 509.935059 696.415039 506.022461 692.102539 499.355957 L 692.085938 499.355957 L 692.085938 499.468262 C 687.994141 493.034912 680.665039 489.305908 672.960938 489.82666 L 672.777344 489.839111 C 666.598145 490.255859 660.54834 487.939209 656.252441 483.51001 L 656.135742 483.38916 C 650.569336 477.651611 642.186035 475.57251 634.552734 478.034912 L 634.394043 478.084961 C 628.502441 479.985107 622.061035 479.19751 616.806641 475.935059 L 616.656738 475.843262 C 613.223145 473.714111 609.327637 472.655762 605.431641 472.676758 C 601.540039 472.655762 597.640137 473.714111 594.210938 475.843262 L 594.061035 475.935059 C 588.806641 479.19751 582.365234 479.985107 576.469238 478.084961 L 576.314941 478.034912 C 568.677734 475.57251 560.29834 477.651611 554.731445 483.38916 L 554.61084 483.51001 C 550.319336 487.939209 544.269043 490.255859 538.085938 489.839111 L 537.906738 489.82666 C 529.898438 489.284912 522.281738 493.32666 518.29834 500.239258 L 518.23584 500.339111 C 515.148438 505.693359 509.823242 509.405762 503.698242 510.480713 L 503.519043 510.51001 C 495.623535 511.893311 489.214844 517.622559 487.019043 525.26416 L 486.994141 525.360107 C 485.281738 531.305908 480.990234 536.189209 475.281738 538.676758 L 475.123535 538.743408 C 467.793945 541.939209 462.944336 548.993408 462.623535 556.922607 L 462.615234 557.084961 C 462.369141 563.251709 459.365234 568.985107 454.42334 572.735107 L 454.290039 572.834961 C 447.936035 577.660034 444.906738 585.651611 446.490234 593.426636 L 446.531738 593.63916 C 447.760742 599.672485 446.219238 605.930786 442.323242 610.726685 L 442.177734 610.905884 C 437.169434 617.07251 436.152344 625.535034 439.569336 632.693359 L 439.573242 632.705811 C 442.273438 638.364136 442.260742 644.926636 439.543945 650.57666 L 438.302246 653.151611 C 434.823242 660.380859 434.760742 668.797485 438.265137 676.018311 C 441.793945 683.289185 441.811035 691.755859 438.302246 699.039185 C 434.781738 706.234985 434.756836 714.626709 438.231445 721.843384 C 439.248535 723.95166 439.260742 726.38916 438.306641 728.522461 C 436.540039 732.459961 435.581543 736.82666 435.648438 741.426636 C 435.881836 758.380859 450.293945 771.801636 467.398438 771.801636 L 522.202637 771.801636 C 546.231445 787.172485 574.790039 796.089111 605.431641 796.089111 C 636.077637 796.089111 664.635742 787.172485 688.665039 771.801636 L 787.752441 771.801636 C 811.781738 787.172485 840.344238 796.089111 870.98584 796.089111 C 901.627441 796.089111 930.189941 787.172485 954.219238 771.801636 L 1009.019043 771.801636 C 1026.123535 771.801636 1040.535645 758.380859 1040.773438 741.426636 C 1040.835938 736.82666 1039.877441 732.459961 1038.115234 728.522461 C 1037.156738 726.38916 1037.17334 723.95166 1038.186035 721.843384 C 1041.660645 714.626709 1041.635742 706.234985 1038.115234 699.039185 C 1034.61084 691.755859 1034.623535 683.289185 1038.156738 676.018311 C 1041.660645 668.797485 1041.598145 660.380859 1038.115234 653.151611 Z"/>
    <path id="Path-copy-22" fill="#e5f9ff" stroke="none" d="M 602.925781 534.87085 C 547.967285 534.87085 503.413574 579.425049 503.413574 634.383301 C 503.413574 689.341675 547.967285 733.891724 602.925781 733.891724 C 657.884277 733.891724 702.438477 689.341675 702.438477 634.383301 C 702.438477 579.425049 657.884277 534.87085 602.925781 534.87085 M 647.442383 603.224976 L 580.754883 674.06665 C 579.575684 675.320801 577.934082 676.020874 576.22998 676.020874 C 576.021484 676.020874 575.813477 676.012451 575.60498 675.991699 C 573.680176 675.795776 571.955078 674.716675 570.938477 673.070801 L 550.78418 640.474976 C 548.976074 637.554199 549.879883 633.720825 552.800781 631.916626 C 555.717285 630.112549 559.555176 631.012451 561.363281 633.9375 L 577.254883 659.637451 L 638.384277 594.699951 C 640.746582 592.195801 644.675781 592.083374 647.175781 594.43335 C 649.675781 596.787476 649.796875 600.724976 647.442383 603.224976"/>
    <path id="Path-copy-21" fill="#e5f9ff" stroke="none" d="M 875.336914 534.87085 C 820.378906 534.87085 775.824707 579.425049 775.824707 634.383301 C 775.824707 689.341675 820.378906 733.891724 875.336914 733.891724 C 930.29541 733.891724 974.849609 689.341675 974.849609 634.383301 C 974.849609 579.425049 930.29541 534.87085 875.336914 534.87085 M 919.853516 603.224976 L 853.166016 674.06665 C 851.987305 675.320801 850.345215 676.020874 848.641113 676.020874 C 848.433105 676.020874 848.224609 676.012451 848.016113 675.991699 C 846.091309 675.795776 844.366211 674.716675 843.349609 673.070801 L 823.195313 640.474976 C 821.387207 637.554199 822.291016 633.720825 825.211914 631.916626 C 828.128906 630.112549 831.966309 631.012451 833.774414 633.9375 L 849.666016 659.637451 L 910.79541 594.699951 C 913.157715 592.195801 917.086914 592.083374 919.591309 594.43335 C 922.086914 596.787476 922.208008 600.724976 919.853516 603.224976"/>
    <path id="Path-copy-20" fill="#368900" stroke="none" d="M 1403.327148 653.090454 L 1403.239746 652.957031 C 1400.585449 648.902954 1400.339355 643.773804 1402.489746 639.515381 L 1403.239746 638.373779 C 1405.172852 635.411255 1405.810547 631.915405 1405.214355 628.615356 C 1404.776855 626.032104 1403.585449 623.561279 1401.672852 621.561279 L 1401.664551 621.552979 C 1400.081055 619.898804 1398.985352 617.907104 1398.40625 615.786255 C 1397.685547 613.00293 1397.856445 609.998779 1399.006348 607.227905 L 1399.010254 607.223755 C 1400.373047 603.94043 1400.352051 600.369629 1399.143555 597.227905 C 1398.235352 594.782104 1396.618652 592.582031 1394.376953 590.973755 L 1394.368652 590.969604 C 1392.243652 589.44043 1390.660645 587.369629 1389.727051 585.036255 C 1388.806152 582.648804 1388.560547 580.00293 1389.114746 577.394531 L 1389.114746 577.38208 C 1389.689453 574.656982 1389.393555 571.915527 1388.389648 569.478027 C 1387.151855 566.37793 1384.772949 563.75293 1381.577148 562.25708 L 1381.572754 562.25293 C 1378.589355 560.861328 1376.293945 558.461182 1374.993652 555.577881 C 1374.227051 553.81958 1373.831055 551.88623 1373.876953 549.890381 L 1373.876953 549.87793 C 1373.935547 547.486328 1373.352051 545.207031 1372.28125 543.207031 C 1370.556152 539.911133 1367.493652 537.37793 1363.697754 536.402832 L 1363.697754 536.402832 C 1360.810547 535.661133 1358.322754 534.00708 1356.535645 531.773682 C 1355.473145 530.411133 1354.677246 528.840332 1354.197754 527.140381 L 1353.973145 525.748779 C 1353.464355 522.57373 1351.864746 519.802979 1349.585449 517.794678 C 1347.389648 515.773682 1344.53125 514.478027 1341.389648 514.265381 L 1341.373047 514.265381 C 1339.047852 514.107178 1336.860352 513.353027 1334.985352 512.140381 C 1332.681152 510.56958 1330.864746 508.294678 1329.885254 505.557129 L 1329.885254 505.557129 C 1328.797852 502.515381 1326.697754 500.07373 1324.068848 498.515381 C 1321.547852 496.94873 1318.510254 496.211182 1315.389648 496.57373 L 1315.381348 496.577881 C 1312.793945 496.87793 1310.239746 496.415527 1307.985352 495.332031 C 1305.743652 494.186279 1303.822754 492.419678 1302.493652 490.152832 L 1302.489746 490.144531 C 1301.077148 487.736328 1299.006348 485.906982 1296.614746 484.777832 C 1296.256348 484.603027 1295.889648 484.44873 1295.518555 484.307129 C 1292.739746 483.215332 1289.602051 483.044678 1286.589355 483.986328 L 1286.585449 483.986328 C 1284.081055 484.769531 1281.46875 484.781982 1279.043945 484.123779 C 1278.477051 483.961182 1277.927246 483.76123 1277.385254 483.527832 C 1275.631348 482.740479 1274.03125 481.577881 1272.71875 480.06543 L 1272.714355 480.057129 C 1271.143555 478.248779 1269.172852 476.94873 1267.03125 476.19458 C 1266.28125 475.919678 1265.510254 475.719482 1264.727051 475.582031 C 1264.518555 475.544678 1264.306152 475.519531 1264.098145 475.494629 C 1263.989746 475.478027 1263.881348 475.457031 1263.772949 475.44458 C 1261.147949 475.152832 1258.427246 475.619629 1255.964355 476.927979 L 1255.960449 476.927979 C 1253.643555 478.161133 1251.072754 478.656982 1248.564453 478.452881 C 1248.272949 478.423828 1247.985352 478.38623 1247.697754 478.340332 C 1245.514648 477.965332 1243.410645 477.052979 1241.602051 475.611328 L 1241.59375 475.607178 C 1239.414551 473.873779 1236.831055 472.915527 1234.202148 472.723877 C 1233.452148 472.661133 1232.702148 472.661133 1231.952148 472.723877 C 1229.327148 472.915527 1226.743652 473.873779 1224.564453 475.607178 L 1224.556152 475.611328 C 1222.748047 477.052979 1220.643555 477.965332 1218.456055 478.340332 C 1218.168945 478.38623 1217.885254 478.423828 1217.598145 478.452881 C 1215.085449 478.656982 1212.514648 478.161133 1210.197754 476.927979 L 1210.193848 476.927979 C 1207.731445 475.619629 1205.010254 475.152832 1202.389648 475.44458 C 1202.089355 475.478027 1201.789551 475.523682 1201.489746 475.57373 C 1201.473145 475.577881 1201.452148 475.577881 1201.435547 475.582031 C 1200.647949 475.719482 1199.868652 475.923828 1199.114746 476.19873 C 1196.977051 476.952881 1195.010254 478.25293 1193.443848 480.057129 L 1193.435547 480.06543 C 1192.126953 481.57373 1190.53125 482.736328 1188.78125 483.519531 C 1188.235352 483.75708 1187.677246 483.961182 1187.102051 484.123779 C 1184.681152 484.781982 1182.072754 484.765381 1179.572754 483.986328 L 1179.568848 483.986328 C 1176.560547 483.044678 1173.427246 483.215332 1170.647949 484.302979 C 1170.268555 484.44873 1169.889648 484.607178 1169.522949 484.786133 C 1167.139648 485.915527 1165.077148 487.740479 1163.668945 490.144531 L 1163.664551 490.152832 C 1162.335449 492.419678 1160.410645 494.186279 1158.168945 495.332031 C 1155.918945 496.415527 1153.364746 496.87793 1150.776855 496.577881 L 1150.764648 496.57373 C 1147.647949 496.211182 1144.610352 496.94873 1142.089355 498.515381 C 1139.460449 500.07373 1137.360352 502.515381 1136.272949 505.557129 L 1136.268555 505.557129 C 1135.289551 508.294678 1133.477051 510.56958 1131.172852 512.140381 C 1129.293945 513.353027 1127.110352 514.107178 1124.785645 514.265381 L 1124.768555 514.265381 C 1121.623047 514.478027 1118.764648 515.773682 1116.572754 517.794678 C 1114.293945 519.802979 1112.693848 522.57373 1112.185547 525.748779 L 1111.96875 527.094482 C 1111.485352 528.827881 1110.677246 530.427979 1109.589355 531.811279 C 1107.806152 534.023682 1105.331055 535.665527 1102.460449 536.402832 L 1102.460449 536.402832 C 1099.006348 537.290527 1096.164551 539.469482 1094.376953 542.336182 C 1092.981445 544.527832 1092.210449 547.13208 1092.272949 549.87793 L 1092.272949 549.890381 C 1092.327148 552.182129 1091.793945 554.390381 1090.789551 556.348633 C 1089.447754 558.88623 1087.297852 560.986328 1084.585449 562.25293 L 1084.581055 562.25708 C 1081.697754 563.603027 1079.485352 565.869629 1078.172852 568.57373 C 1076.84375 571.228027 1076.389648 574.31543 1077.039551 577.38208 L 1077.039551 577.394531 C 1077.651855 580.290405 1077.28125 583.236206 1076.09375 585.81543 C 1075.135254 587.827881 1073.672852 589.615356 1071.789551 590.969604 L 1071.776855 590.973755 C 1069.547852 592.577881 1067.931152 594.76123 1067.022949 597.19873 C 1065.806152 600.348755 1065.776855 603.932129 1067.147949 607.223755 L 1067.147949 607.227905 C 1068.348145 610.111206 1068.477051 613.244629 1067.647949 616.12793 C 1067.047852 618.119629 1065.989746 619.986206 1064.493652 621.552979 L 1064.485352 621.561279 C 1062.568848 623.561279 1061.381348 626.027954 1060.943848 628.615356 C 1060.348145 631.911255 1060.981445 635.411255 1062.918945 638.373779 L 1063.664551 639.515381 C 1065.818848 643.773804 1065.572754 648.902954 1062.918945 652.957031 L 1062.831055 653.090454 C 1059.456055 658.277954 1060.098145 665.107056 1064.381348 669.57373 C 1068.09375 673.44873 1069.168945 679.148804 1067.118652 684.111206 L 1067.09375 684.169556 C 1064.710449 689.932129 1066.606445 696.582031 1071.668945 700.223755 L 1071.681152 700.232056 C 1075.985352 703.327881 1078.068848 708.673706 1076.998047 713.869629 L 1076.952148 714.082031 C 1075.693848 720.177856 1078.789551 726.336304 1084.431152 728.957031 L 1084.435547 728.957031 C 1089.264648 731.19873 1092.306152 736.090454 1092.185547 741.411255 L 1092.181152 741.498779 C 1092.039551 747.744629 1096.214355 753.273804 1102.264648 754.840454 L 1103.739746 755.219604 C 1104.610352 755.44458 1105.489746 755.577881 1106.368652 755.62793 C 1106.885254 755.657104 1107.401855 755.657104 1107.914551 755.62793 L 1108.006348 755.62793 C 1121.452148 755.62793 1134.477051 760.01123 1145.397949 767.861206 C 1146.085449 768.357056 1146.776855 768.840454 1147.46875 769.32373 C 1147.631348 769.436279 1147.793945 769.548706 1147.956055 769.657104 C 1148.623047 770.119629 1149.293945 770.57373 1149.96875 771.023804 C 1150.123047 771.12793 1150.276855 771.227905 1150.435547 771.327881 C 1152.577148 772.744629 1154.760254 774.107056 1156.981445 775.411255 C 1157.15625 775.515381 1157.331055 775.619629 1157.506348 775.719604 C 1158.151855 776.098755 1158.802246 776.469604 1159.456055 776.836304 C 1159.731445 776.990356 1160.006348 777.144531 1160.28125 777.298706 C 1160.918945 777.652954 1161.556152 778.00293 1162.202148 778.348755 C 1162.460449 778.486206 1162.727051 778.623779 1162.989746 778.76123 C 1165.077148 779.865479 1167.189453 780.919556 1169.335449 781.927856 C 1169.697754 782.098755 1170.060547 782.269531 1170.427246 782.436279 C 1171.014648 782.707031 1171.606445 782.969604 1172.197754 783.232056 C 1172.606445 783.415405 1173.014648 783.594604 1173.427246 783.773804 C 1174.006348 784.023804 1174.581055 784.269531 1175.160645 784.515381 C 1175.606445 784.69873 1176.052246 784.87793 1176.498047 785.061279 C 1177.439453 785.44458 1178.389648 785.81958 1179.339355 786.182129 C 1179.868652 786.38623 1180.397949 786.590454 1180.927246 786.786255 C 1181.452148 786.982056 1181.981445 787.169556 1182.510254 787.357056 C 1183.03125 787.544556 1183.552246 787.727905 1184.077148 787.907104 C 1184.598145 788.086304 1185.118652 788.265381 1185.643555 788.44043 C 1186.202148 788.623779 1186.760254 788.807129 1187.322754 788.982056 C 1187.810547 789.140381 1188.302246 789.298706 1188.793945 789.452881 C 1189.635254 789.711304 1190.477051 789.961304 1191.327148 790.202881 C 1191.84375 790.352905 1192.360352 790.498779 1192.881348 790.640381 C 1193.59375 790.840454 1194.306152 791.036255 1195.022949 791.223755 C 1195.481445 791.340454 1195.943848 791.457031 1196.40625 791.56958 C 1197.052246 791.736206 1197.702148 791.894531 1198.356445 792.048706 C 1198.814453 792.157104 1199.268555 792.265381 1199.727051 792.365356 C 1200.452148 792.532104 1201.177246 792.686279 1201.901855 792.840454 C 1202.28125 792.919556 1202.65625 793.00293 1203.039551 793.082031 C 1204.110352 793.298706 1205.189453 793.50708 1206.272949 793.702881 C 1206.602051 793.76123 1206.931152 793.811279 1207.260254 793.869629 C 1208.064453 794.00708 1208.864746 794.144531 1209.668945 794.269531 C 1210.085449 794.336304 1210.506348 794.394531 1210.927246 794.457031 C 1211.672852 794.56958 1212.422852 794.673706 1213.177246 794.773804 C 1213.581055 794.827881 1213.985352 794.88208 1214.389648 794.932129 C 1215.297852 795.044556 1216.210449 795.148804 1217.123047 795.244629 C 1217.356445 795.269531 1217.589355 795.298706 1217.827148 795.31958 C 1218.964355 795.436279 1220.106445 795.536255 1221.251953 795.62793 C 1221.585449 795.652954 1221.922852 795.673706 1222.256348 795.69458 C 1223.09375 795.75708 1223.935547 795.811279 1224.776855 795.857056 C 1225.177246 795.87793 1225.577148 795.898804 1225.981445 795.915405 C 1226.802246 795.952881 1227.626953 795.986206 1228.452148 796.01123 C 1228.818848 796.019531 1229.181152 796.036255 1229.547852 796.044556 C 1230.723145 796.06958 1231.897949 796.086304 1233.077148 796.086304 C 1234.260254 796.086304 1235.435547 796.06958 1236.610352 796.044556 C 1236.977051 796.036255 1237.339355 796.019531 1237.706055 796.01123 C 1238.53125 795.986206 1239.356445 795.952881 1240.177246 795.915405 C 1240.577148 795.898804 1240.981445 795.87793 1241.381348 795.857056 C 1242.223145 795.811279 1243.064453 795.75708 1243.901855 795.69458 C 1244.235352 795.673706 1244.568848 795.652954 1244.901855 795.62793 C 1246.052246 795.536255 1247.193848 795.436279 1248.331055 795.31958 C 1248.568848 795.298706 1248.802246 795.269531 1249.035645 795.244629 C 1249.947754 795.148804 1250.856445 795.044556 1251.764648 794.932129 C 1252.172852 794.88208 1252.577148 794.827881 1252.981445 794.773804 C 1253.735352 794.673706 1254.481445 794.56958 1255.231445 794.457031 C 1255.651855 794.394531 1256.068848 794.336304 1256.489746 794.269531 C 1257.293945 794.144531 1258.09375 794.00708 1258.893555 793.869629 C 1259.223145 793.811279 1259.556152 793.76123 1259.885254 793.702881 C 1260.96875 793.50708 1262.043945 793.298706 1263.118652 793.082031 C 1263.498047 793.00293 1263.876953 792.919556 1264.256348 792.840454 C 1264.981445 792.686279 1265.706055 792.532104 1266.427246 792.365356 C 1266.889648 792.265381 1267.34375 792.157104 1267.802246 792.048706 C 1268.452148 791.894531 1269.102051 791.736206 1269.751953 791.57373 C 1270.214355 791.457031 1270.672852 791.340454 1271.135254 791.219604 C 1271.848145 791.036255 1272.564453 790.840454 1273.272949 790.640381 C 1273.797852 790.498779 1274.318848 790.352905 1274.839355 790.202881 C 1275.685547 789.957031 1276.526855 789.711304 1277.360352 789.452881 C 1277.856445 789.298706 1278.348145 789.140381 1278.835449 788.982056 C 1279.397949 788.802856 1279.956055 788.623779 1280.514648 788.44043 C 1281.039551 788.265381 1281.560547 788.086304 1282.085449 787.907104 C 1282.606445 787.727905 1283.123047 787.544556 1283.643555 787.357056 C 1284.172852 787.169556 1284.702148 786.982056 1285.227051 786.786255 C 1285.756348 786.590454 1286.28125 786.38623 1286.806152 786.186279 C 1287.764648 785.81958 1288.714355 785.44458 1289.664551 785.057129 C 1290.110352 784.87793 1290.552246 784.69873 1290.993652 784.515381 C 1291.577148 784.269531 1292.15625 784.019531 1292.735352 783.769531 C 1293.143555 783.594604 1293.547852 783.415405 1293.956055 783.236206 C 1294.547852 782.973755 1295.143555 782.707031 1295.731445 782.436279 C 1296.09375 782.269531 1296.456055 782.098755 1296.818848 781.927856 C 1298.964355 780.919556 1301.085449 779.865479 1303.177246 778.76123 C 1303.435547 778.623779 1303.697754 778.486206 1303.956055 778.348755 C 1304.598145 778.00293 1305.239746 777.652954 1305.876953 777.298706 C 1306.151855 777.144531 1306.427246 776.990356 1306.702148 776.836304 C 1307.352051 776.469604 1308.006348 776.098755 1308.651855 775.719604 C 1308.827148 775.619629 1308.998047 775.515381 1309.172852 775.411255 C 1311.393555 774.107056 1313.581055 772.744629 1315.727051 771.327881 C 1315.881348 771.223755 1316.035645 771.123779 1316.185547 771.023804 C 1316.864746 770.57373 1317.535645 770.119629 1318.206055 769.657104 C 1318.364746 769.548706 1318.522949 769.436279 1318.685547 769.32373 C 1319.381348 768.840454 1320.072754 768.357056 1320.760254 767.861206 C 1331.681152 760.01123 1344.706055 755.62793 1358.151855 755.62793 L 1358.243652 755.62793 C 1358.756348 755.657104 1359.272949 755.657104 1359.789551 755.62793 L 1360.135254 755.62793 L 1360.135254 755.602905 C 1360.901855 755.540405 1361.664551 755.415405 1362.418945 755.219604 L 1363.893555 754.840454 C 1369.943848 753.273804 1374.118652 747.744629 1373.973145 741.498779 L 1373.973145 741.411255 C 1373.852051 736.090454 1376.893555 731.19873 1381.71875 728.957031 L 1381.723145 728.957031 C 1387.397949 726.32373 1390.493652 720.115479 1389.189453 713.998779 L 1389.177246 713.952881 C 1388.064453 708.732056 1390.143555 703.348755 1394.477051 700.232056 L 1394.489746 700.223755 C 1399.552246 696.582031 1401.447754 689.932129 1399.064453 684.169556 L 1399.039551 684.111206 C 1396.989746 679.148804 1398.064453 673.44873 1401.776855 669.57373 C 1406.060547 665.107056 1406.702148 658.277954 1403.327148 653.090454"/>
    <path id="Path-copy-19" fill="#e5f9ff" stroke="none" d="M 1233.078125 534.87085 C 1178.120117 534.87085 1133.565918 579.425049 1133.565918 634.383301 C 1133.565918 689.341675 1178.120117 733.891724 1233.078125 733.891724 C 1288.036621 733.891724 1332.59082 689.341675 1332.59082 634.383301 C 1332.59082 579.425049 1288.036621 534.87085 1233.078125 534.87085 M 1277.595215 603.224976 L 1210.907715 674.06665 C 1209.728516 675.320801 1208.086426 676.020874 1206.382324 676.020874 C 1206.174316 676.020874 1205.96582 676.012451 1205.757324 675.991699 C 1203.83252 675.795776 1202.107422 674.716675 1201.09082 673.070801 L 1180.936523 640.474976 C 1179.128418 637.554199 1180.032715 633.720825 1182.953125 631.916626 C 1185.870117 630.112549 1189.70752 631.012451 1191.515625 633.9375 L 1207.407715 659.637451 L 1268.536621 594.699951 C 1270.898926 592.195801 1274.828125 592.083374 1277.33252 594.43335 C 1279.828125 596.787476 1279.949219 600.724976 1277.595215 603.224976"/>
    <path id="Path-copy-18" fill="#207f6d" stroke="none" d="M 1768.035156 653.090454 L 1767.947266 652.957031 C 1765.293457 648.902954 1765.047363 643.773804 1767.197266 639.515381 L 1767.947266 638.373779 C 1769.880859 635.411255 1770.518555 631.915405 1769.922363 628.615356 C 1769.484863 626.032104 1768.293457 623.561279 1766.380859 621.561279 L 1766.372559 621.552979 C 1764.789063 619.898804 1763.693359 617.907104 1763.114258 615.786255 C 1762.393555 613.00293 1762.563965 609.998779 1763.714355 607.227905 L 1763.718262 607.223755 C 1765.084961 603.94043 1765.055664 600.369629 1763.851563 597.227905 C 1762.943359 594.782104 1761.32666 592.582031 1759.084961 590.973755 L 1759.07666 590.969604 C 1756.95166 589.44043 1755.368164 587.369629 1754.435059 585.036255 C 1753.51416 582.648804 1753.268555 580.00293 1753.818359 577.394531 L 1753.822266 577.38208 C 1754.397461 574.656982 1754.101563 571.915527 1753.097656 569.478027 C 1751.859863 566.37793 1749.480957 563.75293 1746.285156 562.25708 L 1746.280762 562.25293 C 1743.297363 560.861328 1741.001465 558.461182 1739.70166 555.577881 C 1738.935059 553.81958 1738.539063 551.88623 1738.584961 549.890381 L 1738.584961 549.87793 C 1738.643555 547.486328 1738.060059 545.207031 1736.989258 543.207031 C 1735.26416 539.911133 1732.20166 537.37793 1728.405762 536.402832 L 1728.405762 536.402832 C 1725.518555 535.661133 1723.030762 534.00708 1721.243164 531.773682 C 1720.180664 530.411133 1719.380859 528.840332 1718.901855 527.140381 L 1718.680664 525.748779 C 1718.172363 522.57373 1716.568359 519.802979 1714.293457 517.794678 C 1712.097656 515.773682 1709.239258 514.478027 1706.097656 514.265381 L 1706.081055 514.265381 C 1703.755859 514.107178 1701.568359 513.353027 1699.693359 512.140381 C 1697.38916 510.56958 1695.57666 508.294678 1694.593262 505.557129 L 1694.593262 505.557129 C 1693.505859 502.515381 1691.401855 500.07373 1688.776855 498.515381 C 1686.255859 496.94873 1683.218262 496.211182 1680.097656 496.57373 L 1680.089355 496.577881 C 1677.501465 496.87793 1674.947266 496.415527 1672.693359 495.332031 C 1670.45166 494.186279 1668.526855 492.419678 1667.20166 490.152832 L 1667.197266 490.144531 C 1665.785156 487.736328 1663.714355 485.906982 1661.322266 484.777832 C 1660.964355 484.603027 1660.597656 484.44873 1660.226563 484.307129 C 1657.447266 483.215332 1654.310059 483.044678 1651.297363 483.986328 L 1651.293457 483.986328 C 1648.789063 484.769531 1646.176758 484.781982 1643.751465 484.123779 C 1643.185059 483.961182 1642.634766 483.76123 1642.093262 483.527832 C 1640.339355 482.740479 1638.739258 481.577881 1637.426758 480.06543 L 1637.422363 480.057129 C 1635.851563 478.248779 1633.880859 476.94873 1631.739258 476.19458 C 1630.989258 475.919678 1630.218262 475.719482 1629.435059 475.582031 C 1629.226563 475.544678 1629.01416 475.519531 1628.805664 475.494629 C 1628.697266 475.478027 1628.589355 475.457031 1628.480957 475.44458 C 1625.855957 475.152832 1623.134766 475.619629 1620.672363 476.927979 L 1620.668457 476.927979 C 1618.351563 478.161133 1615.780762 478.656982 1613.272461 478.452881 C 1612.980957 478.423828 1612.693359 478.38623 1612.405762 478.340332 C 1610.222656 477.965332 1608.118164 477.052979 1606.310059 475.611328 L 1606.301758 475.607178 C 1604.122559 473.873779 1601.539063 472.915527 1598.910156 472.723877 C 1598.160156 472.661133 1597.410156 472.661133 1596.660156 472.723877 C 1594.035156 472.915527 1591.45166 473.873779 1589.268555 475.607178 L 1589.26416 475.611328 C 1587.456055 477.052979 1585.351563 477.965332 1583.164063 478.340332 C 1582.876465 478.38623 1582.593262 478.423828 1582.305664 478.452881 C 1579.793457 478.656982 1577.222656 478.161133 1574.905762 476.927979 L 1574.901855 476.927979 C 1572.438965 475.619629 1569.718262 475.152832 1567.097656 475.44458 C 1566.793457 475.478027 1566.497559 475.523682 1566.197266 475.57373 C 1566.180664 475.577881 1566.160156 475.577881 1566.143555 475.582031 C 1565.351563 475.719482 1564.57666 475.923828 1563.822266 476.19873 C 1561.685059 476.952881 1559.718262 478.25293 1558.151855 480.057129 L 1558.143555 480.06543 C 1556.834961 481.57373 1555.239258 482.736328 1553.489258 483.519531 C 1552.943359 483.75708 1552.384766 483.961182 1551.810059 484.123779 C 1549.38916 484.781982 1546.780762 484.765381 1544.280762 483.986328 L 1544.276855 483.986328 C 1541.268555 483.044678 1538.134766 483.215332 1535.355957 484.302979 C 1534.976563 484.44873 1534.597656 484.607178 1534.230957 484.786133 C 1531.847656 485.915527 1529.785156 487.740479 1528.376465 490.144531 L 1528.372559 490.152832 C 1527.043457 492.419678 1525.118164 494.186279 1522.876465 495.332031 C 1520.626465 496.415527 1518.072266 496.87793 1515.484863 496.577881 L 1515.472656 496.57373 C 1512.355957 496.211182 1509.318359 496.94873 1506.797363 498.515381 C 1504.168457 500.07373 1502.068359 502.515381 1500.976563 505.557129 L 1500.976563 505.557129 C 1499.997559 508.294678 1498.185059 510.56958 1495.880859 512.140381 C 1494.001465 513.353027 1491.818359 514.107178 1489.493164 514.265381 L 1489.476563 514.265381 C 1486.331055 514.478027 1483.472656 515.773682 1481.280762 517.794678 C 1479.001465 519.802979 1477.401855 522.57373 1476.893555 525.748779 L 1476.676758 527.094482 C 1476.193359 528.827881 1475.384766 530.427979 1474.297363 531.811279 C 1472.51416 534.023682 1470.039063 535.665527 1467.168457 536.402832 L 1467.168457 536.402832 C 1463.714355 537.290527 1460.872559 539.469482 1459.084961 542.336182 C 1457.688965 544.527832 1456.918457 547.13208 1456.980957 549.87793 L 1456.980957 549.890381 C 1457.035156 552.182129 1456.501465 554.390381 1455.497559 556.348633 C 1454.155762 558.88623 1452.005859 560.986328 1449.293457 562.25293 L 1449.285156 562.25708 C 1446.405762 563.603027 1444.193359 565.869629 1442.880859 568.57373 C 1441.551758 571.228027 1441.097656 574.31543 1441.747559 577.38208 L 1441.747559 577.394531 C 1442.359863 580.290405 1441.989258 583.236206 1440.801758 585.81543 C 1439.843262 587.827881 1438.385254 589.615356 1436.497559 590.969604 L 1436.484863 590.973755 C 1434.255859 592.577881 1432.63916 594.76123 1431.730957 597.19873 C 1430.51416 600.348755 1430.484863 603.932129 1431.855957 607.223755 L 1431.855957 607.227905 C 1433.055664 610.111206 1433.185059 613.244629 1432.355957 616.12793 C 1431.755859 618.119629 1430.697266 619.986206 1429.20166 621.552979 L 1429.193359 621.561279 C 1427.276855 623.561279 1426.089355 626.027954 1425.647461 628.615356 C 1425.055664 631.911255 1425.688965 635.411255 1427.626465 638.373779 L 1428.372559 639.515381 C 1430.526855 643.773804 1430.280762 648.902954 1427.626465 652.957031 L 1427.539063 653.090454 C 1424.164063 658.277954 1424.805664 665.107056 1429.089355 669.57373 C 1432.801758 673.44873 1433.876465 679.148804 1431.82666 684.111206 L 1431.801758 684.169556 C 1429.418457 689.932129 1431.313965 696.582031 1436.376465 700.223755 L 1436.38916 700.232056 C 1440.693359 703.327881 1442.776855 708.673706 1441.70166 713.869629 L 1441.660156 714.082031 C 1440.401855 720.177856 1443.497559 726.336304 1449.13916 728.957031 L 1449.143555 728.957031 C 1453.972656 731.19873 1457.01416 736.090454 1456.893555 741.411255 L 1456.88916 741.498779 C 1456.747559 747.744629 1460.922363 753.273804 1466.972656 754.840454 L 1468.447266 755.219604 C 1469.318359 755.44458 1470.197266 755.577881 1471.07666 755.62793 L 1471.07666 755.62793 C 1471.593262 755.657104 1472.109863 755.657104 1472.622559 755.62793 L 1472.714355 755.62793 C 1486.160156 755.62793 1499.185059 760.01123 1510.105957 767.861206 C 1510.793457 768.357056 1511.484863 768.840454 1512.176758 769.32373 C 1512.339355 769.436279 1512.501465 769.548706 1512.664063 769.657104 C 1513.331055 770.119629 1514.001465 770.57373 1514.676758 771.023804 C 1514.831055 771.12793 1514.984863 771.227905 1515.143555 771.327881 C 1517.285156 772.744629 1519.468262 774.107056 1521.688965 775.411255 C 1521.864258 775.515381 1522.035156 775.619629 1522.214355 775.719604 C 1522.859863 776.098755 1523.509766 776.469604 1524.160156 776.836304 C 1524.438965 776.990356 1524.714355 777.144531 1524.989258 777.298706 C 1525.626465 777.652954 1526.26416 778.00293 1526.905762 778.348755 C 1527.168457 778.486206 1527.435059 778.623779 1527.697266 778.76123 C 1529.785156 779.865479 1531.897461 780.919556 1534.043457 781.927856 C 1534.405762 782.098755 1534.768555 782.269531 1535.134766 782.436279 C 1535.722656 782.707031 1536.313965 782.969604 1536.905762 783.232056 C 1537.313965 783.415405 1537.722656 783.594604 1538.134766 783.773804 C 1538.714355 784.023804 1539.289063 784.269531 1539.868164 784.515381 C 1540.313965 784.69873 1540.759766 784.87793 1541.206055 785.061279 C 1542.147461 785.44458 1543.097656 785.81958 1544.047363 786.182129 C 1544.57666 786.38623 1545.105957 786.590454 1545.634766 786.786255 C 1546.160156 786.982056 1546.688965 787.169556 1547.218262 787.357056 C 1547.739258 787.544556 1548.259766 787.727905 1548.785156 787.907104 C 1549.305664 788.086304 1549.82666 788.265381 1550.351563 788.44043 C 1550.910156 788.623779 1551.468262 788.807129 1552.030762 788.982056 C 1552.518555 789.140381 1553.009766 789.298706 1553.501465 789.452881 C 1554.343262 789.711304 1555.185059 789.961304 1556.035156 790.202881 C 1556.551758 790.352905 1557.068359 790.498779 1557.584961 790.640381 C 1558.301758 790.840454 1559.01416 791.036255 1559.730957 791.223755 C 1560.188965 791.340454 1560.651855 791.457031 1561.109863 791.56958 C 1561.759766 791.736206 1562.410156 791.894531 1563.063965 792.048706 C 1563.522461 792.157104 1563.976563 792.265381 1564.435059 792.365356 C 1565.160156 792.532104 1565.884766 792.686279 1566.609863 792.840454 C 1566.989258 792.919556 1567.364258 793.00293 1567.747559 793.082031 C 1568.818359 793.298706 1569.897461 793.50708 1570.980957 793.702881 C 1571.310059 793.76123 1571.63916 793.811279 1571.968262 793.869629 C 1572.768555 794.00708 1573.572266 794.144531 1574.376465 794.269531 C 1574.793457 794.336304 1575.214355 794.394531 1575.630859 794.457031 C 1576.380859 794.56958 1577.130859 794.673706 1577.884766 794.773804 C 1578.289063 794.827881 1578.693359 794.88208 1579.097656 794.932129 C 1580.005859 795.044556 1580.918457 795.148804 1581.831055 795.244629 C 1582.063965 795.269531 1582.297363 795.298706 1582.530762 795.31958 C 1583.672363 795.436279 1584.813965 795.536255 1585.959961 795.62793 C 1586.293457 795.652954 1586.630859 795.673706 1586.964355 795.69458 C 1587.801758 795.75708 1588.643555 795.811279 1589.484863 795.857056 C 1589.884766 795.87793 1590.285156 795.898804 1590.688965 795.915405 C 1591.509766 795.952881 1592.334961 795.986206 1593.160156 796.01123 C 1593.522461 796.019531 1593.88916 796.036255 1594.255859 796.044556 C 1595.426758 796.06958 1596.605957 796.086304 1597.785156 796.086304 C 1598.968262 796.086304 1600.143555 796.06958 1601.318359 796.044556 C 1601.685059 796.036255 1602.047363 796.019531 1602.414063 796.01123 C 1603.239258 795.986206 1604.063965 795.952881 1604.884766 795.915405 C 1605.285156 795.898804 1605.688965 795.87793 1606.089355 795.857056 C 1606.930664 795.811279 1607.772461 795.75708 1608.609863 795.69458 C 1608.943359 795.673706 1609.276855 795.652954 1609.609863 795.62793 C 1610.755859 795.536255 1611.901855 795.436279 1613.039063 795.31958 C 1613.276855 795.298706 1613.509766 795.269531 1613.743164 795.244629 C 1614.655762 795.148804 1615.563965 795.044556 1616.472656 794.932129 C 1616.880859 794.88208 1617.285156 794.827881 1617.688965 794.773804 C 1618.443359 794.673706 1619.188965 794.56958 1619.938965 794.457031 C 1620.359863 794.394531 1620.776855 794.336304 1621.197266 794.269531 C 1622.001465 794.144531 1622.801758 794.00708 1623.601563 793.869629 C 1623.930664 793.811279 1624.26416 793.76123 1624.593262 793.702881 C 1625.676758 793.50708 1626.751465 793.298706 1627.82666 793.082031 C 1628.206055 793.00293 1628.584961 792.919556 1628.964355 792.840454 C 1629.688965 792.686279 1630.414063 792.532104 1631.134766 792.365356 C 1631.593262 792.265381 1632.051758 792.157104 1632.509766 792.048706 C 1633.160156 791.894531 1633.810059 791.736206 1634.459961 791.57373 C 1634.922363 791.457031 1635.380859 791.340454 1635.839355 791.219604 C 1636.555664 791.036255 1637.268555 790.840454 1637.980957 790.640381 C 1638.505859 790.498779 1639.026855 790.352905 1639.547363 790.202881 C 1640.38916 789.957031 1641.230957 789.711304 1642.068359 789.452881 C 1642.563965 789.298706 1643.051758 789.140381 1643.543457 788.982056 C 1644.105957 788.802856 1644.664063 788.623779 1645.222656 788.44043 C 1645.747559 788.265381 1646.268555 788.086304 1646.793457 787.907104 C 1647.313965 787.727905 1647.831055 787.544556 1648.347656 787.357056 C 1648.880859 787.169556 1649.410156 786.982056 1649.935059 786.786255 C 1650.464355 786.590454 1650.989258 786.38623 1651.51416 786.186279 C 1652.472656 785.81958 1653.422363 785.44458 1654.372559 785.057129 C 1654.813965 784.87793 1655.259766 784.69873 1655.70166 784.515381 C 1656.285156 784.269531 1656.864258 784.019531 1657.443359 783.769531 C 1657.851563 783.594604 1658.255859 783.415405 1658.664063 783.236206 C 1659.255859 782.973755 1659.847656 782.707031 1660.438965 782.436279 C 1660.801758 782.269531 1661.164063 782.098755 1661.526855 781.927856 C 1663.672363 780.919556 1665.793457 779.865479 1667.884766 778.76123 C 1668.143555 778.623779 1668.405762 778.486206 1668.664063 778.348755 C 1669.305664 778.00293 1669.947266 777.652954 1670.584961 777.298706 C 1670.859863 777.144531 1671.134766 776.990356 1671.410156 776.836304 C 1672.060059 776.469604 1672.714355 776.098755 1673.359863 775.719604 C 1673.535156 775.619629 1673.706055 775.515381 1673.880859 775.411255 C 1676.101563 774.107056 1678.289063 772.744629 1680.435059 771.327881 C 1680.589355 771.223755 1680.743164 771.123779 1680.893555 771.023804 C 1681.572266 770.57373 1682.243164 770.119629 1682.914063 769.657104 C 1683.072266 769.548706 1683.230957 769.436279 1683.393555 769.32373 C 1684.089355 768.840454 1684.780762 768.357056 1685.468262 767.861206 C 1696.38916 760.01123 1709.414063 755.62793 1722.859863 755.62793 L 1722.95166 755.62793 C 1723.464355 755.657104 1723.980957 755.657104 1724.497559 755.62793 L 1724.843262 755.62793 L 1724.843262 755.602905 C 1725.605957 755.540405 1726.368164 755.415405 1727.126465 755.219604 L 1728.601563 754.840454 C 1734.651855 753.273804 1738.82666 747.744629 1738.680664 741.498779 L 1738.680664 741.411255 C 1738.560059 736.090454 1741.601563 731.19873 1746.426758 728.957031 L 1746.430664 728.957031 C 1752.105957 726.32373 1755.20166 720.115479 1753.897461 713.998779 L 1753.884766 713.952881 C 1752.772461 708.732056 1754.851563 703.348755 1759.185059 700.232056 L 1759.193359 700.223755 C 1764.259766 696.582031 1766.155762 689.932129 1763.772461 684.169556 L 1763.747559 684.111206 C 1761.697266 679.148804 1762.772461 673.44873 1766.484863 669.57373 C 1770.768555 665.107056 1771.410156 658.277954 1768.035156 653.090454"/>
    <path id="Path-copy-17" fill="#e5f9ff" stroke="none" d="M 1597.786133 534.87085 C 1542.828125 534.87085 1498.273926 579.425049 1498.273926 634.383301 C 1498.273926 689.341675 1542.828125 733.891724 1597.786133 733.891724 C 1652.744629 733.891724 1697.298828 689.341675 1697.298828 634.383301 C 1697.298828 579.425049 1652.744629 534.87085 1597.786133 534.87085 M 1642.302734 603.224976 L 1575.615234 674.06665 C 1574.436035 675.320801 1572.794434 676.020874 1571.086426 676.020874 C 1570.882324 676.020874 1570.673828 676.012451 1570.465332 675.991699 C 1568.540527 675.795776 1566.81543 674.716675 1565.798828 673.070801 L 1545.644531 640.474976 C 1543.836426 637.554199 1544.740234 633.720825 1547.665527 631.916626 C 1550.578125 630.112549 1554.415527 631.012451 1556.223633 633.9375 L 1572.115234 659.637451 L 1633.244629 594.699951 C 1635.606934 592.195801 1639.536133 592.083374 1642.036133 594.43335 C 1644.536133 596.787476 1644.657227 600.724976 1642.302734 603.224976"/>
    <path id="Path-copy-16" fill="none" stroke="#a5a24a" stroke-width="12.5" d="M 1102.916504 1251.35083 L 1102.916504 1400.613281"/>
    <path id="Path-copy-15" fill="none" stroke="#a5a24a" stroke-width="12.5" d="M 1103.86377 1225.712036 L 975.092773 1381.474609"/>
    <path id="Path-copy-14" fill="none" stroke="#a5a24a" stroke-width="12.5" d="M 1103.240234 1230.277466 L 889.436035 1302.273315"/>
    <path id="Path-copy-13" fill="none" stroke="#a5a24a" stroke-width="12.5" d="M 1101.969727 1225.712036 L 1230.740234 1381.474609"/>
    <path id="Path-copy-12" fill="none" stroke="#a5a24a" stroke-width="12.5" d="M 1102.593262 1230.277466 L 1316.397461 1302.273315"/>
    <path id="Path-copy-11" fill="#3399ff" stroke="none" d="M 174.84668 1254.602051 C 247.72168 1701.427002 635.492676 2042.460449 1102.91748 2042.460449 C 1570.333984 2042.460449 1958.100586 1701.439575 2030.988281 1254.631226"/>
    <path id="Path-copy-10" fill="none" stroke="#368900" stroke-width="41.666668" d="M 1102.916504 2046.504639 C 1624.508301 2046.504639 2047.337402 1623.675415 2047.337402 1102.08374"/>
    <path id="Path-copy-9" fill="none" stroke="#207f6d" stroke-width="41.666668" d="M 158.494141 1102.083374 C 158.494141 1623.675049 581.327637 2046.50415 1102.915039 2046.50415"/>
    <path id="Path-copy-8" fill="none" stroke="#44bf00" stroke-width="41.666668" d="M 1102.916504 157.662109 C 581.325195 157.662109 158.496094 580.491211 158.496094 1102.082886"/>
    <path id="Path-copy-7" fill="none" stroke="#44bf00" stroke-width="41.666668" d="M 2047.339355 1102.083374 C 2047.339355 580.491699 1624.505859 157.662598 1102.918457 157.662598"/>
    <path id="Path-copy-6" fill="#44bf00" stroke="none" d="M 162.538574 1176.716675 C 203.755371 1176.716675 237.171875 1143.304199 237.171875 1102.083374 C 237.171875 1060.866699 203.755371 1027.449951 162.538574 1027.449951 C 121.322266 1027.449951 87.905273 1060.866699 87.905273 1102.083374 C 87.905273 1143.304199 121.322266 1176.716675 162.538574 1176.716675"/>
    <path id="Text-copy-9" fill="#ffffff" stroke="none" d="M 181.40625 1130.416626 L 181.40625 1124.25 L 166.40625 1124.25 L 166.40625 1072.25 L 155.489578 1072.25 L 140.072922 1086.666626 L 144.15625 1091.083374 L 158.822922 1077.416626 L 159.40625 1077.416626 L 159.40625 1124.25 L 143.15625 1124.25 L 143.15625 1130.416626 Z"/>
    <path id="Path-copy-5" fill="#44bf00" stroke="none" d="M 1132.77002 236.338867 C 1173.990723 236.338867 1207.40332 202.92627 1207.40332 161.705322 C 1207.40332 120.484619 1173.990723 87.072021 1132.77002 87.072021 C 1091.553223 87.072021 1058.136719 120.484619 1058.136719 161.705322 C 1058.136719 202.92627 1091.553223 236.338867 1132.77002 236.338867"/>
    <path id="Text-copy-8" fill="#ffffff" stroke="none" d="M 1151.637939 190.038696 L 1151.637939 183.87207 L 1136.637939 183.87207 L 1136.637939 131.87207 L 1125.721191 131.87207 L 1110.304565 146.288818 L 1114.387939 150.705322 L 1129.054565 137.038818 L 1129.637939 137.038818 L 1129.637939 183.87207 L 1113.387939 183.87207 L 1113.387939 190.038696 Z"/>
    <path id="Path-copy-4" fill="#368900" stroke="none" d="M 2043.294922 1176.716675 C 2084.515625 1176.716675 2117.928223 1143.304199 2117.928223 1102.083374 C 2117.928223 1060.866699 2084.515625 1027.449951 2043.294922 1027.449951 C 2002.078125 1027.449951 1968.661621 1060.866699 1968.661621 1102.083374 C 1968.661621 1143.304199 2002.078125 1176.716675 2043.294922 1176.716675"/>
    <path id="Text-copy-7" fill="#ffffff" stroke="none" d="M 1837.85376 1530.122925 C 1858.153809 1530.122925 1869.587158 1519.272949 1869.587158 1503.639648 C 1869.587158 1489.639648 1861.537109 1482.172852 1844.85376 1479.489502 L 1836.803833 1478.206299 C 1830.037109 1477.15625 1827.120483 1475.056274 1827.120483 1469.456299 C 1827.120483 1464.556274 1830.970459 1461.522949 1838.903809 1461.522949 C 1847.303833 1461.522949 1852.553833 1464.672852 1856.403809 1469.2229 L 1868.187134 1457.322998 C 1861.537109 1449.9729 1852.203735 1445.889648 1839.953735 1445.889648 C 1820.820435 1445.889648 1809.387085 1456.039551 1809.387085 1470.622925 C 1809.387085 1484.272949 1817.203735 1492.672852 1834.35376 1494.889648 L 1842.403809 1495.939575 C 1849.987061 1496.989502 1851.85376 1500.256226 1851.85376 1504.689575 C 1851.85376 1510.639648 1847.653809 1514.489502 1839.020386 1514.489502 C 1831.087158 1514.489502 1824.087158 1511.3396 1818.60376 1505.15625 L 1806.937134 1516.939575 C 1813.937134 1524.639648 1823.620483 1530.122925 1837.85376 1530.122925 Z M 1766.687134 1530.122925 C 1786.987061 1530.122925 1798.42041 1519.272949 1798.42041 1503.639648 C 1798.42041 1489.639648 1790.370483 1482.172852 1773.687134 1479.489502 L 1765.637085 1478.206299 C 1758.870483 1477.15625 1755.953735 1475.056274 1755.953735 1469.456299 C 1755.953735 1464.556274 1759.803833 1461.522949 1767.737061 1461.522949 C 1776.137085 1461.522949 1781.387085 1464.672852 1785.237061 1469.2229 L 1797.020386 1457.322998 C 1790.370483 1449.9729 1781.037109 1445.889648 1768.787109 1445.889648 C 1749.653809 1445.889648 1738.220459 1456.039551 1738.220459 1470.622925 C 1738.220459 1484.272949 1746.037109 1492.672852 1763.187134 1494.889648 L 1771.237061 1495.939575 C 1778.820435 1496.989502 1780.687134 1500.256226 1780.687134 1504.689575 C 1780.687134 1510.639648 1776.487061 1514.489502 1767.85376 1514.489502 C 1759.92041 1514.489502 1752.92041 1511.3396 1747.437134 1505.15625 L 1735.770386 1516.939575 C 1742.770386 1524.639648 1752.453735 1530.122925 1766.687134 1530.122925 Z M 1724.92041 1528.7229 L 1724.92041 1512.9729 L 1687.237061 1512.9729 L 1687.237061 1495.356201 L 1719.553833 1495.356201 L 1719.553833 1479.7229 L 1687.237061 1479.7229 L 1687.237061 1463.039551 L 1724.92041 1463.039551 L 1724.92041 1447.289551 L 1669.503784 1447.289551 L 1669.503784 1528.7229 Z M 1626.453735 1530.122925 C 1641.387085 1530.122925 1651.070435 1523.006226 1657.137085 1510.639648 L 1642.67041 1502.239502 C 1640.220459 1508.889648 1635.203735 1514.372925 1626.453735 1514.372925 C 1616.070435 1514.372925 1609.187134 1507.372925 1609.187134 1494.539551 L 1609.187134 1481.4729 C 1609.187134 1468.639648 1616.070435 1461.639648 1626.453735 1461.639648 C 1635.203735 1461.639648 1639.520386 1466.189575 1641.620483 1472.956299 L 1656.903809 1465.022949 C 1650.953735 1451.956299 1641.387085 1445.889648 1626.453735 1445.889648 C 1604.520386 1445.889648 1590.403809 1461.056274 1590.403809 1488.5896 C 1590.403809 1516.122925 1604.520386 1530.122925 1626.453735 1530.122925 Z M 1552.020386 1530.122925 C 1566.953735 1530.122925 1576.637085 1523.006226 1582.703735 1510.639648 L 1568.237061 1502.239502 C 1565.787109 1508.889648 1560.770386 1514.372925 1552.020386 1514.372925 C 1541.637085 1514.372925 1534.753784 1507.372925 1534.753784 1494.539551 L 1534.753784 1481.4729 C 1534.753784 1468.639648 1541.637085 1461.639648 1552.020386 1461.639648 C 1560.770386 1461.639648 1565.087158 1466.189575 1567.187134 1472.956299 L 1582.470459 1465.022949 C 1576.520386 1451.956299 1566.953735 1445.889648 1552.020386 1445.889648 C 1530.087158 1445.889648 1515.970459 1461.056274 1515.970459 1488.5896 C 1515.970459 1516.122925 1530.087158 1530.122925 1552.020386 1530.122925 Z M 1511.303833 1528.7229 L 1484.820435 1447.289551 L 1462.887085 1447.289551 L 1436.053833 1528.7229 L 1454.020386 1528.7229 L 1459.85376 1509.356201 L 1487.037109 1509.356201 L 1492.870483 1528.7229 Z M 1482.720459 1494.306274 L 1464.053833 1494.306274 L 1473.037109 1463.389648 L 1473.620483 1463.389648 Z M 1364.537109 1530.122925 C 1386.120483 1530.122925 1400.35376 1515.65625 1400.35376 1488.006226 C 1400.35376 1460.356201 1386.120483 1445.889648 1364.537109 1445.889648 C 1342.953735 1445.889648 1328.720459 1460.356201 1328.720459 1488.006226 C 1328.720459 1515.65625 1342.953735 1530.122925 1364.537109 1530.122925 Z M 1364.537109 1514.372925 C 1353.92041 1514.372925 1347.503784 1507.022949 1347.503784 1494.072998 L 1347.503784 1481.939575 C 1347.503784 1468.989502 1353.92041 1461.639648 1364.537109 1461.639648 C 1375.153809 1461.639648 1381.570435 1468.989502 1381.570435 1481.939575 L 1381.570435 1494.072998 C 1381.570435 1507.022949 1375.153809 1514.372925 1364.537109 1514.372925 Z M 1322.653687 1463.039551 L 1322.653687 1447.289551 L 1260.820435 1447.289551 L 1260.820435 1463.039551 L 1282.870361 1463.039551 L 1282.870361 1528.7229 L 1300.60376 1528.7229 L 1300.60376 1463.039551 Z M 1201.203735 1528.7229 L 1201.203735 1496.756226 L 1229.087036 1447.289551 L 1209.837036 1447.289551 L 1193.037109 1479.7229 L 1192.803711 1479.7229 L 1175.303711 1447.289551 L 1155.470459 1447.289551 L 1183.35376 1496.872925 L 1183.35376 1528.7229 Z M 1087.465454 1528.7229 L 1118.148682 1528.7229 C 1139.732056 1528.7229 1153.965454 1515.072998 1153.965454 1488.006226 C 1153.965454 1460.939575 1139.732056 1447.289551 1118.148682 1447.289551 L 1087.465454 1447.289551 Z M 1105.19873 1512.9729 L 1105.19873 1463.039551 L 1118.148682 1463.039551 C 1128.648682 1463.039551 1135.182129 1468.756226 1135.182129 1481.706299 L 1135.182129 1494.306274 C 1135.182129 1507.256226 1128.648682 1512.9729 1118.148682 1512.9729 Z M 1076.148682 1528.7229 L 1049.665405 1447.289551 L 1027.732056 1447.289551 L 1000.898743 1528.7229 L 1018.865417 1528.7229 L 1024.69873 1509.356201 L 1051.88208 1509.356201 L 1057.715454 1528.7229 Z M 1047.56543 1494.306274 L 1028.898682 1494.306274 L 1037.88208 1463.389648 L 1038.465454 1463.389648 Z M 992.148743 1528.7229 L 992.148743 1512.9729 L 954.465454 1512.9729 L 954.465454 1495.356201 L 986.782104 1495.356201 L 986.782104 1479.7229 L 954.465454 1479.7229 L 954.465454 1463.039551 L 992.148743 1463.039551 L 992.148743 1447.289551 L 936.732117 1447.289551 L 936.732117 1528.7229 Z M 875.832092 1498.856201 L 888.548767 1498.856201 L 902.782104 1528.7229 L 922.498779 1528.7229 L 906.515442 1496.756226 C 916.432129 1493.022949 921.332092 1484.272949 921.332092 1473.306274 C 921.332092 1457.789551 911.765442 1447.289551 896.715454 1447.289551 L 858.098755 1447.289551 L 858.098755 1528.7229 L 875.832092 1528.7229 Z M 875.832092 1483.922852 L 875.832092 1462.689575 L 894.498779 1462.689575 C 899.748779 1462.689575 903.015442 1465.489502 903.015442 1470.739502 L 903.015442 1475.872925 C 903.015442 1481.122925 899.748779 1483.922852 894.498779 1483.922852 Z M 815.165405 1528.7229 L 815.165405 1512.9729 L 777.482117 1512.9729 L 777.482117 1495.356201 L 809.798767 1495.356201 L 809.798767 1479.7229 L 777.482117 1479.7229 L 777.482117 1463.039551 L 815.165405 1463.039551 L 815.165405 1447.289551 L 759.748779 1447.289551 L 759.748779 1528.7229 Z M 698.848755 1498.856201 L 711.56543 1498.856201 L 725.798767 1528.7229 L 745.515442 1528.7229 L 729.532104 1496.756226 C 739.44873 1493.022949 744.348755 1484.272949 744.348755 1473.306274 C 744.348755 1457.789551 734.782104 1447.289551 719.732117 1447.289551 L 681.115417 1447.289551 L 681.115417 1528.7229 L 698.848755 1528.7229 Z M 698.848755 1483.922852 L 698.848755 1462.689575 L 717.515442 1462.689575 C 722.765442 1462.689575 726.032104 1465.489502 726.032104 1470.739502 L 726.032104 1475.872925 C 726.032104 1481.122925 722.765442 1483.922852 717.515442 1483.922852 Z M 669.798767 1528.7229 L 643.31543 1447.289551 L 621.38208 1447.289551 L 594.548767 1528.7229 L 612.515442 1528.7229 L 618.348755 1509.356201 L 645.532104 1509.356201 L 651.365417 1528.7229 Z M 641.215393 1494.306274 L 622.548767 1494.306274 L 631.532104 1463.389648 L 632.115417 1463.389648 Z M 492.232086 1447.289551 L 492.232086 1495.356201 C 492.232086 1519.389648 500.865417 1530.122925 524.19873 1530.122925 C 547.532104 1530.122925 556.165405 1519.389648 556.165405 1495.356201 L 556.165405 1447.289551 L 538.898743 1447.289551 L 538.898743 1497.2229 C 538.898743 1508.65625 534.69873 1514.372925 524.19873 1514.372925 C 513.69873 1514.372925 509.498749 1508.65625 509.498749 1497.2229 L 509.498749 1447.289551 Z M 442.06543 1530.122925 C 463.648743 1530.122925 477.88208 1515.65625 477.88208 1488.006226 C 477.88208 1460.356201 463.648743 1445.889648 442.06543 1445.889648 C 420.482086 1445.889648 406.248749 1460.356201 406.248749 1488.006226 C 406.248749 1515.65625 420.482086 1530.122925 442.06543 1530.122925 Z M 442.06543 1514.372925 C 431.448761 1514.372925 425.032074 1507.022949 425.032074 1494.072998 L 425.032074 1481.939575 C 425.032074 1468.989502 431.448761 1461.639648 442.06543 1461.639648 C 452.682098 1461.639648 459.098755 1468.989502 459.098755 1481.939575 L 459.098755 1494.072998 C 459.098755 1507.022949 452.682098 1514.372925 442.06543 1514.372925 Z M 377.31543 1528.7229 L 377.31543 1496.756226 L 405.198761 1447.289551 L 385.948761 1447.289551 L 369.148743 1479.7229 L 368.915405 1479.7229 L 351.415405 1447.289551 L 331.582092 1447.289551 L 359.465424 1496.872925 L 359.465424 1528.7229 Z"/>
    <path id="Text-copy-6" fill="#ffffff" stroke="none" d="M 1102.28125 1680.15625 C 1084.314575 1680.15625 1074.632813 1670.4729 1074.632813 1657.40625 C 1074.632813 1646.322998 1081.514771 1640.256836 1090.964844 1634.773438 C 1086.414795 1629.640137 1081.865234 1622.872925 1081.865234 1615.40625 C 1081.865234 1604.672852 1091.314697 1595.923828 1106.248047 1595.923828 C 1119.547974 1595.923828 1129.699219 1602.689819 1129.699219 1614.589844 C 1129.699219 1624.856445 1122.349121 1631.15625 1113.482422 1636.40625 L 1126.082031 1650.056641 C 1128.06543 1645.040039 1129.114746 1639.323242 1129.464844 1633.839844 L 1148.949219 1633.839844 L 1148.949219 1648.189453 L 1141.599609 1648.189453 C 1140.316284 1652.972778 1138.566284 1657.405273 1136.349609 1661.138672 L 1152.566406 1678.755859 L 1131.681641 1678.755859 L 1125.615234 1672.105469 C 1120.481934 1676.30542 1113.5979 1680.15625 1102.28125 1680.15625 Z M 1222.332031 1680.15625 C 1200.398804 1680.15625 1186.28125 1666.156372 1186.28125 1638.623047 C 1186.28125 1611.089722 1200.398804 1595.923828 1222.332031 1595.923828 C 1237.265381 1595.923828 1246.831177 1601.98999 1252.78125 1615.056641 L 1237.498047 1622.990234 C 1235.398071 1616.223633 1231.082031 1611.673828 1222.332031 1611.673828 C 1211.94873 1611.673828 1205.066406 1618.672607 1205.066406 1631.505859 L 1205.066406 1644.572266 C 1205.066406 1657.405518 1211.94873 1664.40625 1222.332031 1664.40625 C 1231.082031 1664.40625 1236.098877 1658.923462 1238.548828 1652.273438 L 1253.015625 1660.673828 C 1246.948975 1673.040527 1237.265381 1680.15625 1222.332031 1680.15625 Z M 1533.470703 1680.15625 C 1511.887329 1680.15625 1497.654297 1665.688965 1497.654297 1638.039063 C 1497.654297 1610.389038 1511.887329 1595.923828 1533.470703 1595.923828 C 1555.053955 1595.923828 1569.287109 1610.389038 1569.287109 1638.039063 C 1569.287109 1665.688965 1555.053955 1680.15625 1533.470703 1680.15625 Z M 832.316406 1678.755859 L 859.148438 1597.322266 L 881.082031 1597.322266 L 907.566406 1678.755859 L 889.132813 1678.755859 L 883.298828 1659.388672 L 856.115234 1659.388672 L 850.28125 1678.755859 L 832.316406 1678.755859 Z M 927.515625 1678.755859 L 927.515625 1613.072266 L 905.464844 1613.072266 L 905.464844 1597.322266 L 967.298828 1597.322266 L 967.298828 1613.072266 L 945.248047 1613.072266 L 945.248047 1678.755859 L 927.515625 1678.755859 Z M 979.431641 1678.755859 L 979.431641 1597.322266 L 1034.849609 1597.322266 L 1034.849609 1613.072266 L 997.166016 1613.072266 L 997.166016 1629.755859 L 1029.482422 1629.755859 L 1029.482422 1645.388672 L 997.166016 1645.388672 L 997.166016 1663.005859 L 1034.849609 1663.005859 L 1034.849609 1678.755859 L 979.431641 1678.755859 Z M 1257.787109 1678.755859 L 1284.621094 1597.322266 L 1306.554688 1597.322266 L 1333.037109 1678.755859 L 1314.603516 1678.755859 L 1308.769531 1659.388672 L 1281.587891 1659.388672 L 1275.753906 1678.755859 L 1257.787109 1678.755859 Z M 1344.353516 1678.755859 L 1344.353516 1597.322266 L 1382.970703 1597.322266 C 1398.02063 1597.322266 1407.587891 1607.823242 1407.587891 1623.339844 C 1407.587891 1634.306519 1402.686279 1643.055664 1392.769531 1646.789063 L 1408.753906 1678.755859 L 1389.037109 1678.755859 L 1374.804688 1648.888672 L 1362.087891 1648.888672 L 1362.087891 1678.755859 L 1344.353516 1678.755859 Z M 1422.986328 1678.755859 L 1422.986328 1597.322266 L 1462.537109 1597.322266 C 1475.953735 1597.322266 1484.003906 1605.607056 1484.003906 1618.207031 C 1484.003906 1630.69043 1477.121216 1635.357056 1468.837891 1635.707031 L 1468.837891 1636.40625 C 1476.537964 1636.40625 1487.154297 1641.539063 1487.154297 1655.539063 C 1487.154297 1668.372314 1478.170898 1678.755859 1466.154297 1678.755859 L 1422.986328 1678.755859 Z M 1584.103516 1678.755859 L 1584.103516 1597.322266 L 1603.470703 1597.322266 L 1625.753906 1635.822266 L 1633.570313 1652.15625 L 1633.919922 1652.15625 L 1633.919922 1597.322266 L 1650.603516 1597.322266 L 1650.603516 1678.755859 L 1631.236328 1678.755859 L 1608.953125 1640.255859 L 1601.136719 1623.923828 L 1600.787109 1623.923828 L 1600.787109 1678.755859 L 1584.103516 1678.755859 Z M 1104.849609 1665.806641 C 1109.516235 1665.806641 1113.482788 1664.639038 1116.632813 1662.539063 L 1099.482422 1643.990234 C 1094.232422 1647.140259 1092.248047 1650.173096 1092.248047 1654.373047 L 1092.248047 1655.539063 C 1092.248047 1661.489014 1096.449585 1665.806641 1104.849609 1665.806641 Z M 1533.470703 1664.40625 C 1544.08728 1664.40625 1550.503906 1657.05542 1550.503906 1644.105469 L 1550.503906 1631.972656 C 1550.503906 1619.022705 1544.08728 1611.673828 1533.470703 1611.673828 C 1522.854004 1611.673828 1516.4375 1619.022705 1516.4375 1631.972656 L 1516.4375 1644.105469 C 1516.4375 1657.05542 1522.854004 1664.40625 1533.470703 1664.40625 Z M 1440.720703 1663.822266 L 1461.136719 1663.822266 C 1465.803345 1663.822266 1468.720703 1661.139404 1468.720703 1656.472656 L 1468.720703 1652.505859 C 1468.720703 1647.839233 1465.803345 1645.15625 1461.136719 1645.15625 L 1440.720703 1645.15625 L 1440.720703 1663.822266 Z M 860.316406 1644.339844 L 878.982422 1644.339844 L 869.882813 1613.423828 L 869.298828 1613.423828 L 860.316406 1644.339844 Z M 1285.787109 1644.339844 L 1304.453125 1644.339844 L 1295.353516 1613.423828 L 1294.769531 1613.423828 L 1285.787109 1644.339844 Z M 1362.087891 1633.957031 L 1380.753906 1633.957031 C 1386.003906 1633.957031 1389.269531 1631.15625 1389.269531 1625.90625 L 1389.269531 1620.773438 C 1389.269531 1615.523438 1386.003906 1612.722656 1380.753906 1612.722656 L 1362.087891 1612.722656 L 1362.087891 1633.957031 Z M 1440.720703 1630.689453 L 1458.337891 1630.689453 C 1463.004639 1630.689453 1465.804688 1627.889404 1465.804688 1623.222656 L 1465.804688 1619.722656 C 1465.804688 1615.05603 1463.004639 1612.255859 1458.337891 1612.255859 L 1440.720703 1612.255859 L 1440.720703 1630.689453 Z M 1104.964844 1627.189453 C 1110.44812 1623.922852 1113.248047 1620.889404 1113.248047 1616.222656 L 1113.248047 1615.755859 C 1113.248047 1611.555908 1109.981201 1609.105469 1105.78125 1609.105469 C 1101.581177 1609.105469 1098.316406 1611.555908 1098.316406 1615.755859 L 1098.316406 1616.222656 C 1098.316406 1619.255981 1100.181519 1621.822754 1104.964844 1627.189453 Z M 804.31543 1678.756226 L 820.998779 1678.756226 L 820.998779 1597.322998 L 802.098755 1597.322998 L 782.38208 1635.4729 L 782.148743 1635.4729 L 762.19873 1597.322998 L 743.415405 1597.322998 L 743.415405 1678.756226 L 760.098755 1678.756226 L 760.098755 1624.506226 L 760.44873 1624.506226 L 766.63208 1637.3396 L 782.148743 1666.039551 L 798.015442 1637.2229 L 803.965454 1625.322998 L 804.31543 1625.322998 Z M 728.598755 1678.756226 L 728.598755 1664.639648 L 718.098755 1664.639648 L 718.098755 1611.439575 L 728.598755 1611.439575 L 728.598755 1597.322998 L 689.865417 1597.322998 L 689.865417 1611.439575 L 700.365417 1611.439575 L 700.365417 1664.639648 L 689.865417 1664.639648 L 689.865417 1678.756226 Z M 679.94873 1678.756226 L 679.94873 1663.006226 L 648.915405 1663.006226 L 648.915405 1597.322998 L 631.182068 1597.322998 L 631.182068 1678.756226 Z M 588.13208 1680.15625 C 603.06543 1680.15625 612.748779 1673.039551 618.81543 1660.672852 L 604.348755 1652.272949 C 601.898743 1658.922852 596.88208 1664.40625 588.13208 1664.40625 C 577.748779 1664.40625 570.865417 1657.40625 570.865417 1644.572998 L 570.865417 1631.506226 C 570.865417 1618.672852 577.748779 1611.672852 588.13208 1611.672852 C 596.88208 1611.672852 601.19873 1616.2229 603.298767 1622.989502 L 618.582092 1615.056274 C 612.63208 1601.989502 603.06543 1595.922852 588.13208 1595.922852 C 566.19873 1595.922852 552.082092 1611.0896 552.082092 1638.622925 C 552.082092 1666.15625 566.19873 1680.15625 588.13208 1680.15625 Z"/>
    <path id="Text-copy-5" fill="#ffffff" stroke="none" d="M 1363.848755 1803.122925 L 1369.215454 1769.989624 L 1369.215454 1747.356201 L 1351.015381 1747.356201 L 1351.015381 1769.989624 L 1356.498779 1803.122925 Z M 1359.998779 1830.189575 C 1367.348755 1830.189575 1370.38208 1826.3396 1370.38208 1821.322876 L 1370.38208 1818.522949 C 1370.38208 1813.506226 1367.348755 1809.65625 1359.998779 1809.65625 C 1352.648682 1809.65625 1349.615356 1813.506226 1349.615356 1818.522949 L 1349.615356 1821.322876 C 1349.615356 1826.3396 1352.648682 1830.189575 1359.998779 1830.189575 Z M 1334.915405 1828.789551 L 1334.915405 1813.039551 L 1297.232056 1813.039551 L 1297.232056 1795.422852 L 1329.548706 1795.422852 L 1329.548706 1779.789551 L 1297.232056 1779.789551 L 1297.232056 1763.106201 L 1334.915405 1763.106201 L 1334.915405 1747.356201 L 1279.498779 1747.356201 L 1279.498779 1828.789551 Z M 1236.44873 1830.189575 C 1251.38208 1830.189575 1261.06543 1823.072876 1267.13208 1810.706299 L 1252.665405 1802.306274 C 1250.215454 1808.956299 1245.19873 1814.439575 1236.44873 1814.439575 C 1226.06543 1814.439575 1219.182129 1807.439575 1219.182129 1794.606201 L 1219.182129 1781.539551 C 1219.182129 1768.706299 1226.06543 1761.706299 1236.44873 1761.706299 C 1245.19873 1761.706299 1249.515381 1766.256226 1251.615356 1773.022949 L 1266.898804 1765.0896 C 1260.94873 1752.022949 1251.38208 1745.956299 1236.44873 1745.956299 C 1214.515381 1745.956299 1200.398804 1761.122925 1200.398804 1788.65625 C 1200.398804 1816.189575 1214.515381 1830.189575 1236.44873 1830.189575 Z M 1166.215454 1828.789551 L 1185.582031 1828.789551 L 1185.582031 1747.356201 L 1168.898804 1747.356201 L 1168.898804 1802.189575 L 1168.548706 1802.189575 L 1160.732056 1785.856201 L 1138.44873 1747.356201 L 1119.082031 1747.356201 L 1119.082031 1828.789551 L 1135.765381 1828.789551 L 1135.765381 1773.956299 L 1136.115356 1773.956299 L 1143.932129 1790.289551 Z M 1107.765381 1828.789551 L 1081.282104 1747.356201 L 1059.348755 1747.356201 L 1032.515381 1828.789551 L 1050.482056 1828.789551 L 1056.31543 1809.422852 L 1083.498779 1809.422852 L 1089.332031 1828.789551 Z M 1079.182129 1794.372925 L 1060.515381 1794.372925 L 1069.498779 1763.456299 L 1070.082031 1763.456299 Z M 1001.832092 1828.789551 L 1021.19873 1828.789551 L 1021.19873 1747.356201 L 1004.515442 1747.356201 L 1004.515442 1802.189575 L 1004.165405 1802.189575 L 996.348755 1785.856201 L 974.06543 1747.356201 L 954.69873 1747.356201 L 954.69873 1828.789551 L 971.38208 1828.789551 L 971.38208 1773.956299 L 971.732117 1773.956299 L 979.548767 1790.289551 Z M 939.88208 1828.789551 L 939.88208 1814.672852 L 929.38208 1814.672852 L 929.38208 1761.4729 L 939.88208 1761.4729 L 939.88208 1747.356201 L 901.148743 1747.356201 L 901.148743 1761.4729 L 911.648743 1761.4729 L 911.648743 1814.672852 L 901.148743 1814.672852 L 901.148743 1828.789551 Z M 853.782104 1828.789551 L 853.782104 1795.422852 L 884.69873 1795.422852 L 884.69873 1779.789551 L 853.782104 1779.789551 L 853.782104 1763.106201 L 890.06543 1763.106201 L 890.06543 1747.356201 L 836.048767 1747.356201 L 836.048767 1828.789551 Z"/>
    <path id="Text-copy-4" fill="#ffffff" stroke="none" d="M 2060.995361 1124.25 L 2030.412109 1124.25 L 2046.078735 1110.166626 C 2053.495361 1103.5 2058.828857 1097.166626 2058.828857 1088.166626 C 2058.828857 1078.25 2052.328857 1071.25 2040.995361 1071.25 C 2029.745361 1071.25 2024.578735 1078.083374 2022.328735 1084.916626 L 2028.578735 1087.333374 C 2030.162109 1081.833374 2033.495361 1077.5 2040.662109 1077.5 C 2047.828735 1077.5 2051.412109 1081.916626 2051.412109 1088.333374 L 2051.412109 1089.333374 C 2051.412109 1094.916626 2047.245361 1100.75 2041.828735 1105.75 L 2022.828735 1123.25 L 2022.828735 1130.416626 L 2060.995361 1130.416626 Z"/>
    <path id="Path-copy-3" fill="#207f6d" stroke="none" d="M 1132.77002 2117.094482 C 1173.990723 2117.094482 1207.40332 2083.682129 1207.40332 2042.461182 C 1207.40332 2001.244629 1173.990723 1967.827881 1132.77002 1967.827881 C 1091.553223 1967.827881 1058.136719 2001.244629 1058.136719 2042.461182 C 1058.136719 2083.682129 1091.553223 2117.094482 1132.77002 2117.094482"/>
    <path id="Text-copy-3" fill="#ffffff" stroke="none" d="M 1121.471191 2037.295044 L 1121.471191 2043.378296 L 1128.304565 2043.378296 C 1136.471191 2043.378296 1140.804565 2047.295044 1140.804565 2054.128418 L 1140.804565 2054.794922 C 1140.804565 2061.628418 1136.471191 2065.544922 1128.304565 2065.544922 C 1121.221191 2065.544922 1117.804565 2062.46167 1114.804565 2057.878418 L 1109.554565 2061.878418 C 1113.137939 2066.878418 1118.304565 2071.794922 1128.387939 2071.794922 C 1140.221191 2071.794922 1148.137939 2064.878418 1148.137939 2054.878418 C 1148.137939 2046.128296 1142.137939 2041.46167 1135.887939 2040.21167 L 1135.887939 2039.878296 C 1142.054565 2038.295044 1147.054565 2033.795044 1147.054565 2026.295044 C 1147.054565 2016.878296 1139.221191 2011.628296 1129.387939 2011.628296 C 1120.054565 2011.628296 1114.971191 2016.46167 1112.054565 2021.128296 L 1117.221191 2025.128296 C 1119.637939 2020.71167 1123.221191 2017.878296 1129.221191 2017.878296 C 1135.387939 2017.878296 1139.637939 2020.96167 1139.637939 2027.045044 L 1139.637939 2027.628296 C 1139.637939 2033.21167 1135.637939 2037.295044 1127.804565 2037.295044 Z"/>
    <path id="Text-copy-2" fill="#002f54" stroke="none" d="M 334.471252 1130.378296 L 314.137909 1072.21167 L 305.221252 1072.21167 L 284.887909 1130.378296 L 291.971252 1130.378296 L 297.804596 1113.21167 L 321.304596 1113.21167 L 327.137909 1130.378296 Z M 319.554596 1107.045044 L 299.471252 1107.045044 L 309.304596 1078.71167 L 309.721252 1078.71167 Z"/>
    <path id="Path-copy-2" fill="none" stroke="#002f54" stroke-width="4.166667" d="M 311.805176 1177.12085 C 353.24707 1177.12085 386.842773 1143.525024 386.842773 1102.083374 C 386.842773 1060.641724 353.24707 1027.045776 311.805176 1027.045776 C 270.36377 1027.045776 236.768066 1060.641724 236.768066 1102.083374 C 236.768066 1143.525024 270.36377 1177.12085 311.805176 1177.12085 Z"/>
    <path id="Text-copy" fill="#002f54" stroke="none" d="M 1111.19043 339.305054 L 1137.607056 339.305054 C 1146.19043 339.305054 1152.607056 332.055054 1152.607056 322.47168 C 1152.607056 312.805054 1145.357056 309.22168 1141.19043 308.97168 L 1141.19043 308.47168 C 1145.023804 307.888306 1150.607056 304.805054 1150.607056 296.138306 C 1150.607056 287.055054 1144.69043 281.138306 1135.107056 281.138306 L 1111.19043 281.138306 Z M 1118.19043 312.305054 L 1135.44043 312.305054 C 1141.44043 312.305054 1145.107056 315.47168 1145.107056 321.305054 L 1145.107056 324.138306 C 1145.107056 329.97168 1141.44043 333.138306 1135.44043 333.138306 L 1118.19043 333.138306 Z M 1118.19043 287.305054 L 1134.273804 287.305054 C 1139.773804 287.305054 1143.107056 290.22168 1143.107056 295.388306 L 1143.107056 298.22168 C 1143.107056 303.388306 1139.773804 306.305054 1134.273804 306.305054 L 1118.19043 306.305054 Z"/>
    <path id="Path-copy" fill="none" stroke="#002f54" stroke-width="4.166667" d="M 1132.77002 386.009277 C 1174.211426 386.009277 1207.807617 352.41333 1207.807617 310.97168 C 1207.807617 269.530029 1174.211426 235.934082 1132.77002 235.934082 C 1091.328125 235.934082 1057.732422 269.530029 1057.732422 310.97168 C 1057.732422 352.41333 1091.328125 386.009277 1132.77002 386.009277 Z"/>
</svg>
