<?xml version="1.0" encoding="UTF-8"?>
<!-- Generated by Pixelmator Pro 3.5.7 -->
<svg class="svg-inline-icon" viewBox="0 0 876 876" xmlns="http://www.w3.org/2000/svg">
    <g id="Group-copy">
        <path id="Path" fill="#44bf00" stroke="none" d="M 437.958313 875.5 C 679.583313 875.5 875.458374 679.625 875.458374 438 C 875.458374 196.375 679.583313 0.5 437.958313 0.5 C 196.333313 0.5 0.458344 196.375 0.458344 438 C 0.458344 679.625 196.333313 875.5 437.958313 875.5"/>
        <clipPath id="clipPath-9sTtA-1">
            <path d="M 0.458344 438 C 0.458344 679.625 196.333344 875.5 437.958313 875.5 L 437.958313 875.5 C 679.583344 875.5 875.458344 679.625 875.458344 438 L 875.458344 438 C 875.458344 196.375 679.583344 0.5 437.958313 0.5 L 437.958313 0.5 C 196.333344 0.5 0.458344 196.375 0.458344 438"/>
        </clipPath>
        <g id="Group" clip-path="url(#clipPath-9sTtA-1)">
            <path id="path1" fill="#3399ff" stroke="none" d="M 0.458344 764.479004 L 875.458374 764.479004 L 875.458374 0.503906 L 0.458344 0.503906 Z"/>
            <path id="path2" fill="#aded83" stroke="none" d="M -68.005417 882.122559 L 427.952942 581.005859 C 570.532043 494.438965 747.544556 487.051758 896.840454 561.435059 L 1471.19458 882.122559 Z"/>
            <path id="path3" fill="#86e0ce" stroke="none" d="M -277.894165 385.554688 L -126.777496 408.900391 C 0.009979 428.479492 120.88916 475.908691 227.164124 547.762695 L 755.880859 905.233887 L -453.914978 888.471191 Z"/>
            <path id="path4" fill="#ffffff" stroke="none" d="M 369.327087 56.903809 C 315.243774 140.687012 203.485413 164.757813 119.702087 110.674805 C 35.922913 56.586914 11.847931 -55.171387 65.931244 -138.950195 C 120.014587 -222.729492 231.7771 -246.804688 315.560425 -192.721191 C 399.335388 -138.637695 423.4104 -26.875488 369.327087 56.903809"/>
        </g>
        <clipPath id="clipPath-9sTtA-2">
            <path d="M 0.458344 438 C 0.458344 679.625 196.333344 875.5 437.958313 875.5 L 437.958313 875.5 C 679.583344 875.5 875.458344 679.625 875.458344 438 L 875.458344 438 C 875.458344 196.375 679.583344 0.5 437.958313 0.5 L 437.958313 0.5 C 196.333344 0.5 0.458344 196.375 0.458344 438"/>
        </clipPath>
        <g id="g1" clip-path="url(#clipPath-9sTtA-2)">
            <path id="path5" fill="#ffffff" stroke="none" d="M 551.138733 20.042969 C 508.272095 86.451172 419.688721 105.530273 353.280396 62.663574 C 286.87207 19.792969 267.792908 -68.790527 310.659607 -135.194824 C 353.530396 -201.603027 442.11377 -220.682129 508.517944 -177.81543 C 574.92627 -134.94873 594.005432 -46.365234 551.138733 20.042969"/>
            <path id="path6" fill="#ffffff" stroke="none" d="M 158.050842 67.16748 C 115.184174 133.575684 26.60083 152.654785 -39.807495 109.788574 C -106.215836 66.91748 -125.294998 -21.666016 -82.428329 -88.069824 C -39.557495 -154.478516 49.025818 -173.557617 115.429993 -130.690918 C 181.838348 -87.824219 200.917511 0.759277 158.050842 67.16748"/>
            <path id="path7" fill="#ffffff" stroke="none" d="M 946.00415 207.811523 C 869.912476 272.265625 755.979126 262.83252 691.525024 186.740723 C 627.070862 110.648926 636.50415 -3.288574 712.600037 -67.738281 C 788.6875 -132.192383 902.62085 -122.759277 967.074951 -46.66748 C 1031.529175 29.424316 1022.095825 143.357422 946.00415 207.811523"/>
            <path id="path8" fill="#ffffff" stroke="none" d="M 740.859131 156.251465 C 680.546692 207.339355 590.242493 199.859863 539.150818 139.551758 C 488.063354 79.239258 495.53833 -11.069336 555.85498 -62.156738 C 616.16748 -113.244141 706.47168 -105.769043 757.559204 -45.456543 C 808.650879 14.855957 801.171631 105.164063 740.859131 156.251465"/>
            <path id="path9" fill="#ccf4ff" stroke="none" d="M 663.314575 362.828125 C 663.9021 360.481934 664.377075 358.103027 664.743774 355.677734 C 664.852112 354.994629 664.9729 354.328125 665.060425 353.640625 C 665.443726 350.51123 665.706238 347.344727 665.710388 344.111328 C 665.710388 344.086426 665.7146 344.057129 665.7146 344.032227 C 665.7146 299.915527 629.952087 264.148926 585.831238 264.148926 C 579.7229 264.148926 573.797913 264.898926 568.081238 266.19873 C 558.143738 210.286133 509.40625 167.790527 450.639587 167.790527 C 396.885437 167.790527 351.447937 203.32373 336.481262 252.173828 C 330.7229 251.069824 324.793762 250.444824 318.7146 250.444824 C 267.022888 250.444824 225.118744 292.344727 225.118744 344.032227 C 225.118744 346.898926 225.302094 349.719727 225.606232 352.50293 C 225.981262 356.51123 226.5354 360.469727 227.385437 364.319824 L 227.90625 364.319824 C 236.822937 397.061035 266.685425 421.169434 302.252075 421.169434 L 588.585449 421.169434 C 624.147888 421.169434 654.014587 397.061035 662.935425 364.319824 L 663.018738 364.319824 C 663.143738 363.832031 663.197937 363.319824 663.314575 362.828125"/>
            <path id="path10" fill="#ffffff" stroke="none" d="M 443.875427 535.82373 C 444.33374 535.027832 444.592102 534.119629 444.587891 533.152832 L 444.158752 457.498535 C 444.133728 454.57373 441.76709 452.228027 438.850403 452.240234 C 435.904602 452.26123 433.596252 454.682129 433.587891 457.548828 L 434.01709 533.203125 C 434.046265 536.12793 436.412903 538.473633 439.32959 538.461426 C 441.279602 538.444824 442.971252 537.38623 443.875427 535.82373"/>
            <path id="path11" fill="#ffffff" stroke="none" d="M 468.647888 507.974609 L 410.314575 508.308105 C 407.197937 508.324707 405.59375 512.058105 407.735413 514.333008 L 437.081238 545.532715 C 438.506226 547.041016 440.9104 547.028809 442.318726 545.503906 L 471.297913 513.966309 C 473.4104 511.67041 471.772888 507.958008 468.647888 507.974609"/>
            <path id="path12" fill="#ffffff" stroke="none" d="M 573.304138 535.82373 C 573.762512 535.027832 574.020813 534.119629 574.016663 533.152832 L 573.587524 457.498535 C 573.5625 454.57373 571.195862 452.228027 568.279175 452.240234 C 565.333313 452.26123 563.025024 454.682129 563.016663 457.548828 L 563.450012 533.203125 C 563.474976 536.12793 565.841675 538.473633 568.758362 538.461426 C 570.708313 538.444824 572.400024 537.38623 573.304138 535.82373"/>
            <path id="path13" fill="#ffffff" stroke="none" d="M 598.07666 507.974609 L 539.743347 508.308105 C 536.626648 508.324707 535.022522 512.058105 537.164185 514.333008 L 566.51001 545.532715 C 567.930847 547.041016 570.339172 547.028809 571.747498 545.503906 L 600.726685 513.966309 C 602.839172 511.67041 601.20166 507.958008 598.07666 507.974609"/>
            <path id="path14" fill="#ffffff" stroke="none" d="M 314.446655 535.82373 C 314.905029 535.027832 315.16333 534.119629 315.15918 533.152832 L 314.72998 457.498535 C 314.705017 454.57373 312.338318 452.228027 309.421692 452.240234 C 306.47583 452.26123 304.16748 454.682129 304.15918 457.548828 L 304.592529 533.203125 C 304.617493 536.12793 306.984192 538.473633 309.900818 538.461426 C 311.85083 538.444824 313.54248 537.38623 314.446655 535.82373"/>
            <path id="path15" fill="#ffffff" stroke="none" d="M 339.219971 507.974609 L 280.886658 508.308105 C 277.77002 508.324707 276.165833 512.058105 278.307495 514.333008 L 307.65332 545.532715 C 309.074158 547.041016 311.482483 547.028809 312.890808 545.503906 L 341.869995 513.966309 C 343.982483 511.67041 342.344971 507.958008 339.219971 507.974609"/>
            <path id="path16" fill="#44bf00" stroke="none" d="M 917.415405 851.708008 C 927.327881 845.803711 932.857056 834.099609 930.152954 822.245605 C 927.461304 810.445313 917.482056 802.316406 906.057129 801.237305 C 914.411255 793.278809 917.19043 780.637207 911.915405 769.678711 C 906.665405 758.778809 895.12793 753.074707 883.748779 754.566406 C 890.123779 744.945313 890.023804 731.999512 882.44043 722.491211 C 874.898804 713.028809 862.38208 710.037109 851.619629 714.020508 C 855.69043 703.224609 852.715454 690.624512 843.207031 683.04541 C 833.748779 675.499512 820.87793 675.366211 811.273804 681.641113 C 812.840454 670.216309 807.13208 658.595215 796.173706 653.320313 C 785.273804 648.070313 772.69873 650.799805 764.732056 659.058105 C 763.715454 647.566406 755.56543 637.507813 743.715454 634.799805 C 731.915405 632.10791 720.26123 637.570313 714.332092 647.395508 C 710.782104 636.42041 700.602905 628.424805 688.44043 628.424805 C 676.340393 628.424805 666.19458 636.341309 662.602905 647.237305 C 656.69873 637.324707 644.994568 631.799805 633.13623 634.503906 C 621.340393 637.195313 613.207092 647.174805 612.13208 658.599609 C 604.173767 650.249512 591.532104 647.466309 580.57373 652.737305 C 569.673767 657.987305 563.969543 669.524414 565.457092 680.903809 C 555.840393 674.528809 542.894592 674.628906 533.38623 682.211914 C 523.923706 689.757813 520.927917 702.274414 524.911255 713.032715 C 514.119568 708.966309 501.519592 711.941406 493.936218 721.445313 C 486.394592 730.907715 486.25708 743.774414 492.536255 753.382813 C 481.107117 751.812012 469.486267 757.524414 464.215454 768.478516 C 458.965393 779.378906 461.69458 791.958008 469.952942 799.92041 C 458.461243 800.941406 448.398743 809.086914 445.69458 820.941406 C 442.998718 832.741211 448.465454 844.391113 458.290405 850.320313 C 447.307068 853.870605 439.31543 864.053711 439.31543 876.211914 C 439.31543 876.816406 439.457092 877.378906 439.494568 877.970215 C 439.423767 878.558105 439.31543 879.128906 439.31543 879.728516 L 439.31543 879.737305 C 439.31543 893.624512 450.57373 904.878906 464.452942 904.878906 L 903.990356 904.878906 L 903.990356 904.157715 C 905.607056 904.461914 907.19043 904.878906 908.902954 904.878906 C 923.994629 904.878906 936.232056 892.645508 936.232056 877.54541 C 936.232056 865.445313 928.31543 855.299805 917.415405 851.708008"/>
        </g>
        <path id="Text" fill="#0d517f" stroke="none" d="M 525.461487 322.23761 L 534.126831 326.755981 C 535.921814 321.247314 539.697449 317.966858 543.720642 317.966858 C 548.115234 317.966858 551.210022 320.814026 551.210022 325.703796 C 551.210022 330.036499 547.620117 332.759888 542.111389 336.721191 C 535.302856 341.610962 526.699402 346.438782 526.204224 356.280212 L 526.204224 360.736694 L 562.846375 360.736694 L 562.846375 351.266663 L 538.645203 351.266663 C 540.068848 349.40979 543.411194 347.305359 546.258362 345.262756 C 552.695496 340.682495 561.979858 335.668945 561.979858 325.951355 C 561.979858 315.119629 553.809631 308.496826 543.596863 308.496826 C 535.674255 308.496826 528.184875 314.067444 525.461487 322.23761 Z M 472.540771 361.974548 C 497.48468 361.974548 515.991455 344.210571 515.991455 318.833374 C 515.991455 293.641907 497.48468 275.44458 472.540771 275.44458 C 447.782562 275.44458 429.152008 293.641907 429.152008 318.833374 C 429.152008 344.210571 447.782562 361.974548 472.540771 361.974548 Z M 442.769012 318.709595 C 442.769012 300.636108 454.776764 287.761841 472.540771 287.761841 C 490.552399 287.761841 502.374451 300.636108 502.374451 318.709595 C 502.374451 337.21637 490.552399 349.657349 472.540771 349.657349 C 454.776764 349.657349 442.769012 337.21637 442.769012 318.709595 Z M 340.0224 318.709595 C 340.0224 343.282104 359.148132 361.974548 383.534973 361.974548 C 398.94696 361.974548 412.563995 354.42334 420.486633 341.549072 L 410.769012 334.802429 C 404.208099 344.45813 394.676178 349.657349 383.534973 349.657349 C 366.204224 349.657349 353.639435 336.721191 353.639435 318.709595 C 353.639435 300.759888 365.956635 287.761841 383.225494 287.761841 C 394.30481 287.761841 403.341553 292.83728 410.088165 302.988098 L 420.177155 295.932007 C 412.068817 282.93396 398.513702 275.44458 383.225494 275.44458 C 358.900543 275.44458 340.0224 294.198975 340.0224 318.709595 Z"/>
        <clipPath id="clipPath-9sTtA-3">
            <path d="M 0.458344 438 C 0.458344 679.625 196.333344 875.5 437.958313 875.5 L 437.958313 875.5 C 679.583344 875.5 875.458344 679.625 875.458344 438 L 875.458344 438 C 875.458344 196.375 679.583344 0.5 437.958313 0.5 L 437.958313 0.5 C 196.333344 0.5 0.458344 196.375 0.458344 438"/>
        </clipPath>
        <g id="g2" clip-path="url(#clipPath-9sTtA-3)">
            <path id="path17" fill="#44bf00" stroke="none" d="M 416.435425 851.708008 C 426.3479 845.803711 431.877075 834.099609 429.172913 822.245605 C 426.481262 810.445313 416.502075 802.316406 405.077087 801.237305 C 413.431274 793.278809 416.210388 780.637207 410.935425 769.678711 C 405.685425 758.778809 394.147888 753.074707 382.768738 754.566406 C 389.143738 744.945313 389.043762 731.999512 381.460388 722.491211 C 373.918762 713.028809 361.4021 710.037109 350.639587 714.020508 C 354.710388 703.224609 351.735413 690.624512 342.227112 683.04541 C 332.768738 675.499512 319.897888 675.366211 310.293762 681.641113 C 311.860413 670.216309 306.1521 658.595215 295.193726 653.320313 C 284.293762 648.070313 271.71875 650.799805 263.752075 659.058105 C 262.735413 647.566406 254.585388 637.507813 242.735413 634.799805 C 230.935425 632.10791 219.28125 637.570313 213.352081 647.395508 C 209.806244 636.42041 199.622925 628.424805 187.460419 628.424805 C 175.360413 628.424805 165.2146 636.341309 161.622925 647.237305 C 155.71875 637.324707 144.014587 631.799805 132.15625 634.503906 C 120.360413 637.195313 112.231232 647.174805 111.1521 658.599609 C 103.193756 650.249512 90.552094 647.466309 79.59375 652.737305 C 68.693756 657.987305 62.989563 669.524414 64.477081 680.903809 C 54.860413 674.528809 41.914581 674.628906 32.40625 682.211914 C 22.943726 689.757813 19.947937 702.274414 23.931274 713.032715 C 13.139587 708.966309 0.539581 711.941406 -7.043762 721.445313 C -14.585419 730.907715 -14.71875 743.774414 -8.443756 753.382813 C -19.872894 751.812012 -31.493744 757.524414 -36.764572 768.478516 C -42.014587 779.378906 -39.285416 791.958008 -31.027084 799.92041 C -42.518753 800.941406 -52.577103 809.086914 -55.2854 820.941406 C -57.981247 832.741211 -52.514572 844.391113 -42.68959 850.320313 C -53.672897 853.870605 -61.664597 864.053711 -61.664597 876.211914 C -61.664597 876.816406 -61.522919 877.378906 -61.485397 877.970215 C -61.556259 878.558105 -61.664597 879.128906 -61.664597 879.728516 L -61.664597 879.737305 C -61.664597 893.624512 -50.40625 904.878906 -36.527084 904.878906 L 403.010437 904.878906 L 403.010437 904.157715 C 404.627075 904.461914 406.210388 904.878906 407.922913 904.878906 C 423.014587 904.878906 435.252075 892.645508 435.252075 877.54541 C 435.252075 865.445313 427.335388 855.299805 416.435425 851.708008"/>
            <path id="path18" fill="#368900" stroke="none" d="M 660.119995 865.322266 C 670.032471 859.422363 675.561646 847.714355 672.857483 835.859863 C 670.165833 824.060059 660.186646 815.930664 648.761658 814.851563 C 657.115845 806.893555 659.89502 794.251465 654.619995 783.297363 C 649.369995 772.393555 637.83252 766.688965 626.453308 768.180664 C 632.828308 758.560059 632.728333 745.614258 625.14502 736.105957 C 617.603333 726.643555 605.08667 723.651855 594.324158 727.634766 C 598.39502 716.839355 595.419983 704.239258 585.911682 696.660156 C 576.453308 689.114258 563.58252 688.980957 553.978333 695.255859 C 555.544983 683.831055 549.83667 672.209961 538.878357 666.935059 C 527.978333 661.685059 515.40332 664.414063 507.436646 672.672363 C 506.419983 661.180664 498.27002 651.122559 486.419983 648.414063 C 474.619995 645.722656 462.96582 651.185059 457.036682 661.009766 C 453.490845 650.035156 443.307495 642.039063 431.14502 642.039063 C 419.044983 642.039063 408.89917 649.956055 405.307495 660.851563 C 399.40332 650.938965 387.699158 645.414063 375.845032 648.118164 C 364.044983 650.810059 355.915833 660.789063 354.83667 672.214355 C 346.878357 663.864258 334.236694 661.081055 323.27832 666.351563 C 312.378357 671.601563 306.674133 683.13916 308.161682 694.518555 C 298.544983 688.143555 285.599182 688.243164 276.09082 695.82666 C 266.628296 703.372559 263.632507 715.88916 267.615845 726.647461 C 256.824158 722.581055 244.224182 725.555664 236.640808 735.060059 C 229.099182 744.522461 228.96582 757.393555 235.240845 766.997559 C 223.811676 765.426758 212.190826 771.13916 206.920013 782.093262 C 201.670013 792.993164 204.39917 805.572266 212.657501 813.535156 C 201.165833 814.551758 191.107483 822.70166 188.39917 834.555664 C 185.703339 846.355957 191.170013 858.005859 200.994995 863.935059 C 190.011688 867.484863 182.019989 877.668457 182.019989 889.82666 C 182.019989 890.430664 182.161682 890.993164 182.199188 891.584961 C 182.128326 892.172363 182.019989 892.743164 182.019989 893.343262 L 182.019989 893.351563 C 182.019989 907.239258 193.27832 918.493164 207.157501 918.493164 L 646.695007 918.493164 L 646.695007 917.776855 C 648.311646 918.07666 649.89502 918.493164 651.607483 918.493164 C 666.699158 918.493164 678.936646 906.259766 678.936646 891.160156 C 678.936646 879.060059 671.02002 868.914063 660.119995 865.322266"/>
            <path id="path19" fill="none" stroke="#663816" stroke-width="8.75" stroke-linecap="round" d="M 441.432922 754.62793 L 441.432922 898.478027"/>
            <path id="path20" fill="none" stroke="#663816" stroke-width="8.75" stroke-linecap="round" d="M 368.678772 760.772949 L 440.60376 838.452148"/>
            <path id="path21" fill="none" stroke="#663816" stroke-width="8.75" stroke-linecap="round" d="M 705.91333 765.745605 L 705.91333 909.595215"/>
            <path id="path22" fill="none" stroke="#663816" stroke-width="8.75" stroke-linecap="round" d="M 778.66748 771.889648 L 706.742493 849.568848"/>
        </g>
    </g>
</svg>
