<?xml version="1.0" encoding="UTF-8"?>
<!-- Generated by Pixelmator Pro 3.5.7 -->
<svg class="svg-inline-icon" viewBox="0 0 876 876" xmlns="http://www.w3.org/2000/svg">
    <g id="Group-copy">
        <path id="Path" fill="none" stroke="#002f54" stroke-width="8.333333" d="M 512.12207 470.5979 L 490.951233 450.914551 L 512.12207 431.235352"/>
        <path id="path1" fill="#44bf00" stroke="none" d="M 437.958313 875.91626 C 679.583313 875.91626 875.458374 680.04126 875.458374 438.41626 C 875.458374 196.791016 679.583313 0.916016 437.958313 0.916016 C 196.333313 0.916016 0.458344 196.791016 0.458344 438.41626 C 0.458344 680.04126 196.333313 875.91626 437.958313 875.91626"/>
        <clipPath id="clipPath-EHrTq-1">
            <path d="M 0.458344 438.416504 C 0.458344 680.041504 196.333344 875.916504 437.958313 875.916504 L 437.958313 875.916504 C 679.583344 875.916504 875.458344 680.041504 875.458344 438.416504 L 875.458344 438.416504 C 875.458344 196.791504 679.583344 0.916504 437.958313 0.916504 L 437.958313 0.916504 C 196.333344 0.916504 0.458344 196.791504 0.458344 438.416504"/>
        </clipPath>
        <g id="Group" clip-path="url(#clipPath-EHrTq-1)">
            <path id="path2" fill="#aded83" stroke="none" d="M -99.770828 463.774902 L 396.1875 162.658203 C 538.766663 76.091797 715.779175 68.704102 865.075073 143.087402 L 1439.429077 463.774902 Z"/>
            <path id="path3" fill="#2ec1ac" stroke="none" d="M 925.932495 420.874512 C 931.811646 417.374512 935.094971 410.428711 933.486694 403.391357 C 931.890869 396.391357 925.969971 391.566162 919.190796 390.928711 C 924.14917 386.203857 925.803345 378.703857 922.670044 372.203857 C 919.553345 365.73291 912.70752 362.345215 905.95752 363.228516 C 909.736694 357.524414 909.678345 349.841309 905.182495 344.199707 C 900.703369 338.586914 893.27832 336.808105 886.890869 339.17041 C 889.303345 332.766113 887.540894 325.29541 881.89917 320.791016 C 876.286621 316.316406 868.64502 316.237305 862.949219 319.961914 C 863.878296 313.178711 860.490845 306.282715 853.994995 303.153809 C 847.52417 300.037109 840.061646 301.662109 835.33667 306.562012 C 834.732544 299.741211 829.89502 293.770508 822.861694 292.166016 C 815.857544 290.570313 808.944946 293.812012 805.428345 299.637207 C 803.324219 293.124512 797.282471 288.382813 790.061646 288.382813 C 782.882446 288.382813 776.861694 293.078613 774.732544 299.54541 C 771.228271 293.662109 764.282471 290.387207 757.249146 291.991211 C 750.244995 293.586914 745.424194 299.507813 744.786621 306.287109 C 740.061646 301.333008 732.557495 299.678711 726.057495 302.812012 C 719.59082 305.924805 716.203308 312.770508 717.08667 319.524414 C 711.378357 315.741211 703.695007 315.799805 698.057495 320.299805 C 692.445007 324.778809 690.665833 332.203613 693.02832 338.591309 C 686.624146 336.174805 679.14917 337.937012 674.64917 343.583008 C 670.174194 349.195313 670.09082 356.828613 673.820007 362.528809 C 667.036682 361.603516 660.140808 364.987305 657.011658 371.487061 C 653.89502 377.953857 655.515808 385.42041 660.419983 390.145508 C 653.599182 390.749512 647.628357 395.587158 646.02417 402.616211 C 644.424194 409.616211 647.665833 416.532959 653.494995 420.053711 C 646.982483 422.157959 642.240845 428.203857 642.240845 435.41626 C 642.240845 435.770508 642.320007 436.10791 642.345032 436.458008 C 642.303345 436.803711 642.240845 437.145508 642.240845 437.503662 L 642.240845 437.507813 C 642.240845 445.745361 648.915833 452.428711 657.15332 452.428711 L 917.96582 452.428711 L 917.96582 451.999512 C 918.928345 452.178711 919.865845 452.428711 920.878296 452.428711 C 929.83667 452.428711 937.099121 445.16626 937.099121 436.208008 C 937.099121 429.024658 932.39917 423.003662 925.932495 420.874512"/>
            <path id="path4" fill="#2ec1ac" stroke="none" d="M 628.661255 420.874512 C 634.540405 417.374512 637.82373 410.428711 636.215393 403.391357 C 634.619568 396.391357 628.69873 391.566162 621.919556 390.928711 C 626.87793 386.203857 628.527893 378.703857 625.398743 372.203857 C 622.282104 365.73291 615.436279 362.345215 608.686279 363.228516 C 612.465393 357.524414 612.407104 349.841309 607.911255 344.199707 C 603.432068 338.586914 596.00708 336.808105 589.619568 339.17041 C 592.032104 332.766113 590.265442 325.29541 584.62793 320.791016 C 579.015442 316.316406 571.373779 316.237305 565.677917 319.961914 C 566.607056 313.178711 563.219604 306.282715 556.723755 303.153809 C 550.25293 300.037109 542.790405 301.662109 538.06543 306.562012 C 537.461243 299.741211 532.623779 293.770508 525.590393 292.166016 C 518.586243 290.570313 511.673767 293.812012 508.157104 299.637207 C 506.052917 293.124512 500.01123 288.382813 492.790405 288.382813 C 485.611267 288.382813 479.590393 293.078613 477.461243 299.54541 C 473.957092 293.662109 467.01123 290.387207 459.977905 291.991211 C 452.973755 293.586914 448.152893 299.507813 447.515442 306.287109 C 442.790405 301.333008 435.286255 299.678711 428.786255 302.812012 C 422.31958 305.924805 418.932068 312.770508 419.81543 319.524414 C 414.107056 315.741211 406.423767 315.799805 400.786255 320.299805 C 395.173767 324.778809 393.394592 332.203613 395.75708 338.591309 C 389.352905 336.174805 381.87793 337.937012 377.37793 343.583008 C 372.902893 349.195313 372.81958 356.828613 376.548767 362.528809 C 369.765442 361.603516 362.869568 364.987305 359.740417 371.487061 C 356.623718 377.953857 358.244568 385.42041 363.148743 390.145508 C 356.327942 390.749512 350.357117 395.587158 348.75293 402.616211 C 347.152954 409.616211 350.394592 416.532959 356.223755 420.053711 C 349.711243 422.157959 344.969604 428.203857 344.969604 435.41626 C 344.969604 435.770508 345.048767 436.10791 345.073792 436.458008 C 345.027893 436.803711 344.969604 437.145508 344.969604 437.503662 L 344.969604 437.507813 C 344.969604 445.745361 351.644592 452.428711 359.88208 452.428711 L 620.69458 452.428711 L 620.69458 451.999512 C 621.657104 452.178711 622.594604 452.428711 623.607056 452.428711 C 632.56543 452.428711 639.827942 445.16626 639.827942 436.208008 C 639.827942 429.024658 635.12793 423.003662 628.661255 420.874512"/>
            <path id="path5" fill="#207f6d" stroke="none" d="M 773.258789 428.953369 C 779.137939 425.453369 782.421265 418.507568 780.812866 411.469971 C 779.217041 404.469971 773.296265 399.64502 766.51709 399.007568 C 771.475464 394.282471 773.125366 386.782471 769.996216 380.282471 C 766.879639 373.811768 760.033691 370.424072 753.283691 371.307617 C 757.062866 365.603516 757.004639 357.919922 752.508789 352.27832 C 748.029541 346.666016 740.604614 344.886719 734.217102 347.249023 C 736.629578 340.845215 734.867065 333.374023 729.225403 328.870117 C 723.612915 324.39502 715.971252 324.315918 710.275391 328.041016 C 711.20459 321.257324 707.817078 314.361816 701.321228 311.232422 C 694.850403 308.115723 687.387939 309.740723 682.662903 314.640625 C 682.058777 307.819824 677.221252 301.849121 670.187927 300.245117 C 663.183777 298.648926 656.27124 301.890625 652.754578 307.720215 C 650.650391 301.203125 644.608765 296.461426 637.387939 296.461426 C 630.20874 296.461426 624.187927 301.161621 622.058777 307.624023 C 618.554565 301.740723 611.608765 298.46582 604.575439 300.069824 C 597.571228 301.666016 592.750427 307.586426 592.112915 314.365723 C 587.387939 309.411621 579.883728 307.757324 573.383728 310.890625 C 566.917114 314.003418 563.529602 320.849121 564.412903 327.603516 C 558.70459 323.819824 551.02124 323.878418 545.383728 328.378418 C 539.77124 332.857422 537.992065 340.282715 540.354614 346.669922 C 533.950439 344.253418 526.475403 346.015625 521.975403 351.661621 C 517.500427 357.274414 517.417053 364.907715 521.14624 370.607422 C 514.362915 369.682617 507.467102 373.065918 504.337891 379.565918 C 501.221252 386.036621 502.842102 393.499268 507.746277 398.224121 C 500.925415 398.828369 494.95459 403.665771 493.350403 410.695068 C 491.750427 417.695068 494.992126 424.611572 500.821228 428.132568 C 494.308777 430.236572 489.567078 436.282471 489.567078 443.495117 C 489.567078 443.849121 489.650391 444.186768 489.671265 444.536621 C 489.625427 444.882568 489.567078 445.224121 489.567078 445.58252 L 489.567078 445.58667 C 489.567078 453.824219 496.242065 460.507568 504.479553 460.507568 L 765.292114 460.507568 L 765.292114 460.078369 C 766.254639 460.257568 767.192139 460.507568 768.20459 460.507568 C 777.162964 460.507568 784.425415 453.245117 784.425415 444.286621 C 784.425415 437.103271 779.725464 431.08252 773.258789 428.953369"/>
            <path id="path6" fill="none" stroke="#663816" stroke-width="8.75" stroke-linecap="round" d="M 643.494141 363.269043 L 643.494141 459.102539"/>
            <path id="path7" fill="none" stroke="#663816" stroke-width="8.75" stroke-linecap="round" d="M 600.323303 366.915527 L 643.002502 413.01123"/>
            <path id="path8" fill="none" stroke="#663816" stroke-width="8.75" stroke-linecap="round" d="M 800.431274 369.866699 L 800.431274 451.645752"/>
            <path id="path9" fill="none" stroke="#663816" stroke-width="8.75" stroke-linecap="round" d="M 843.602051 373.512451 L 800.922974 419.608398"/>
            <path id="path10" fill="#86e0ce" stroke="none" d="M -309.65918 -32.792969 L -158.542496 -9.447266 C -31.755005 10.13623 89.119995 57.561035 195.399139 129.415527 L 724.115845 486.88623 L -485.679993 470.123779 Z"/>
            <path id="path11" fill="#aded83" stroke="none" d="M -140.591675 452.674805 L 1000.820801 452.674805 L 1000.820801 876.262451 L -140.591675 876.262451 Z"/>
            <path id="path12" fill="#44bf00" stroke="none" d="M 455.544556 503.922119 C 463.215393 499.359619 467.490417 490.30127 465.398743 481.134521 C 463.31543 472.005371 455.598755 465.713867 446.76123 464.884521 C 453.215393 458.730469 455.369568 448.947021 451.290405 440.472168 C 447.232056 432.042969 438.307068 427.626221 429.50293 428.776367 C 434.432068 421.338867 434.357056 411.326172 428.494568 403.972168 C 422.657104 396.651367 412.977905 394.338867 404.648743 397.417969 C 407.798767 389.063721 405.494568 379.322021 398.144592 373.459473 C 390.82373 367.62207 380.869568 367.518066 373.44043 372.376221 C 374.652893 363.534668 370.236267 354.542969 361.765442 350.463867 C 353.332092 346.401367 343.602905 348.513672 337.44043 354.905273 C 336.652893 346.013672 330.348755 338.230469 321.177917 336.143066 C 312.052917 334.05957 303.040405 338.280273 298.457092 345.884766 C 295.711243 337.393066 287.832092 331.205566 278.427917 331.205566 C 269.06958 331.205566 261.219604 337.330566 258.436279 345.759766 C 253.873718 338.092773 244.81958 333.817871 235.648743 335.909668 C 226.523743 337.992676 220.236267 345.713867 219.398743 354.546875 C 213.244568 348.088867 203.465424 345.93457 194.990417 350.013672 C 186.557098 354.072266 182.140442 362.99707 183.298767 371.80127 C 175.857086 366.87207 165.840424 366.951172 158.490417 372.813721 C 151.169556 378.646973 148.852905 388.330322 151.936249 396.655518 C 143.586243 393.505371 133.840424 395.80957 127.973755 403.159668 C 122.140411 410.480469 122.032074 420.43457 126.894592 427.86792 C 118.052917 426.651367 109.061249 431.063721 104.982086 439.538818 C 100.919586 447.976318 103.032104 457.705322 109.419586 463.86377 C 100.532074 464.651367 92.75293 470.955322 90.657104 480.126221 C 88.573761 489.24707 92.798767 498.263672 100.398743 502.851318 C 91.907074 505.593018 85.727936 513.472168 85.727936 522.880371 C 85.727936 523.343018 85.832062 523.780518 85.861267 524.23877 C 85.807098 524.688721 85.727936 525.130371 85.727936 525.601318 L 85.727936 525.605469 C 85.727936 536.347168 94.432098 545.05127 105.169586 545.05127 L 445.157104 545.05127 L 445.157104 544.49292 C 446.411255 544.726318 447.63623 545.05127 448.961243 545.05127 C 460.63208 545.05127 470.098755 535.584473 470.098755 523.909668 C 470.098755 514.547119 463.973755 506.701172 455.544556 503.922119"/>
            <path id="path13" fill="#44bf00" stroke="none" d="M 68.025421 503.922119 C 75.696259 499.359619 79.971252 490.30127 77.879578 481.134521 C 75.796265 472.005371 68.07959 465.713867 59.242096 464.884521 C 65.696259 458.730469 67.850403 448.947021 63.77124 440.472168 C 59.712921 432.042969 50.787903 427.626221 41.983765 428.776367 C 46.912903 421.338867 46.837921 411.326172 40.975403 403.972168 C 35.137909 396.651367 25.45874 394.338867 17.129578 397.417969 C 20.279572 389.063721 17.975403 379.322021 10.625427 373.459473 C 3.304596 367.62207 -6.649597 367.518066 -14.078735 372.376221 C -12.866241 363.534668 -17.282928 354.542969 -25.753754 350.463867 C -34.187088 346.401367 -43.916245 348.513672 -50.078751 354.905273 C -50.866257 346.013672 -57.170425 338.230469 -66.341248 336.143066 C -75.466248 334.05957 -84.47876 338.280273 -89.062088 345.884766 C -91.807922 337.393066 -99.687088 331.205566 -109.091248 331.205566 C -118.449585 331.205566 -126.299591 337.330566 -129.082916 345.759766 C -133.645416 338.092773 -142.699585 333.817871 -151.870422 335.909668 C -160.995407 337.992676 -167.282913 345.713867 -168.120407 354.546875 C -174.274582 348.088867 -184.053741 345.93457 -192.528748 350.013672 C -200.962082 354.072266 -205.378738 362.99707 -204.220398 371.80127 C -211.662079 366.87207 -221.678741 366.951172 -229.028748 372.813721 C -236.349594 378.646973 -238.66626 388.330322 -235.582901 396.655518 C -243.932922 393.505371 -253.678741 395.80957 -259.54541 403.159668 C -265.378754 410.480469 -265.487091 420.43457 -260.624573 427.86792 C -269.466248 426.651367 -278.457916 431.063721 -282.537079 439.538818 C -286.599579 447.976318 -284.487061 457.705322 -278.099579 463.86377 C -286.987091 464.651367 -294.766235 470.955322 -296.862061 480.126221 C -298.945404 489.24707 -294.720398 498.263672 -287.120422 502.851318 C -295.612091 505.593018 -301.791229 513.472168 -301.791229 522.880371 C -301.791229 523.343018 -301.687103 523.780518 -301.657898 524.23877 C -301.712067 524.688721 -301.791229 525.130371 -301.791229 525.601318 L -301.791229 525.605469 C -301.791229 536.347168 -293.087097 545.05127 -282.349579 545.05127 L 57.637909 545.05127 L 57.637909 544.49292 C 58.89209 544.726318 60.117096 545.05127 61.442078 545.05127 C 73.112915 545.05127 82.57959 535.584473 82.57959 523.909668 C 82.57959 514.547119 76.45459 506.701172 68.025421 503.922119"/>
            <path id="path14" fill="#368900" stroke="none" d="M 256.520813 514.453857 C 264.19165 509.891357 268.466675 500.833008 266.375 491.66626 C 264.291687 482.537109 256.575012 476.245361 247.737488 475.41626 C 254.19165 469.257813 256.345825 459.47876 252.266663 451.003662 C 248.208313 442.570313 239.283325 438.157959 230.479187 439.307861 C 235.408325 431.870361 235.333313 421.85791 229.470825 414.503662 C 223.633331 407.182861 213.954163 404.870361 205.625 407.949463 C 208.774994 399.595459 206.470825 389.85376 199.120819 383.991211 C 191.799988 378.153809 181.845825 378.04541 174.416656 382.907959 C 175.629181 374.066162 171.212494 365.074707 162.741669 360.995605 C 154.308319 356.933105 144.579163 359.04541 138.416656 365.437012 C 137.62915 356.54541 131.324982 348.762207 122.154175 346.67041 C 113.029175 344.591309 104.016663 348.812012 99.433319 356.416016 C 96.6875 347.924805 88.80835 341.737305 79.404175 341.737305 C 70.045837 341.737305 62.195831 347.862305 59.412506 356.291016 C 54.850006 348.624512 45.795837 344.349609 36.625 346.441406 C 27.5 348.524414 21.212494 356.245605 20.375 365.078613 C 14.220825 358.620605 4.44165 356.466309 -4.033325 360.54541 C -12.466675 364.603516 -16.883331 373.528809 -15.724976 382.333008 C -23.166656 377.403809 -33.183334 377.48291 -40.533325 383.345459 C -47.854187 389.178711 -50.170837 398.862061 -47.087494 407.187012 C -55.437515 404.037109 -65.183334 406.341309 -71.049988 413.691162 C -76.883331 421.011963 -76.991669 430.966309 -72.129166 438.399658 C -80.97084 437.182861 -89.962494 441.595459 -94.041672 450.070313 C -98.104172 458.507813 -95.991653 468.237061 -89.604172 474.395508 C -98.491684 475.182861 -106.270828 481.487061 -108.366653 490.657959 C -110.449997 499.778809 -106.224991 508.79541 -98.625 513.382813 C -107.116684 516.124512 -113.295822 524.003662 -113.295822 533.412109 C -113.295822 533.874512 -113.191681 534.312012 -113.162491 534.770508 C -113.21666 535.220459 -113.295822 535.662109 -113.295822 536.132813 L -113.295822 536.136963 C -113.295822 546.878662 -104.59166 555.583008 -93.854156 555.583008 L 246.133362 555.583008 L 246.133362 555.024658 C 247.387512 555.257813 248.612488 555.583008 249.9375 555.583008 C 261.608337 555.583008 271.075012 546.116211 271.075012 534.441162 C 271.075012 525.078857 264.950012 517.23291 256.520813 514.453857"/>
            <path id="path15" fill="none" stroke="#663816" stroke-width="8.75" stroke-linecap="round" d="M 87.361664 428.828857 L 87.361664 607.087158"/>
            <path id="path16" fill="none" stroke="#663816" stroke-width="8.75" stroke-linecap="round" d="M 31.084595 433.581787 L 86.722076 493.669189"/>
            <path id="path17" fill="none" stroke="#663816" stroke-width="8.75" stroke-linecap="round" d="M 291.943359 437.428711 L 291.943359 589.79126"/>
            <path id="path18" fill="none" stroke="#663816" stroke-width="8.75" stroke-linecap="round" d="M 348.219971 442.181152 L 292.58252 502.268799"/>
            <path id="path19" fill="#66ccff" stroke="none" d="M 276.260803 777.763672 L 862.335815 777.763672 C 892.86499 777.763672 917.61499 802.513672 917.61499 833.042969 C 917.61499 863.576172 892.86499 888.326172 862.335815 888.326172 L 276.260803 888.326172 C 245.731689 888.326172 220.981659 863.576172 220.981659 833.042969 C 220.981659 802.513672 245.731689 777.763672 276.260803 777.763672"/>
            <path id="path20" fill="#66ccff" stroke="none" d="M 354.753357 641.675781 L 956.107544 641.675781 C 982.415894 641.675781 1003.744995 663.004883 1003.744995 689.313232 C 1003.744995 715.629883 982.415894 736.959229 956.107544 736.959229 L 354.753357 736.959229 C 328.440857 736.959229 307.115845 715.629883 307.115845 689.313232 C 307.115845 663.004883 328.440857 641.675781 354.753357 641.675781"/>
            <path id="path21" fill="#66ccff" stroke="none" d="M 901.097534 736.6875 L 901.097534 780.904053 L 449.07251 780.904053 C 455.26001 780.904053 460.809998 778.429199 464.876648 774.44165 C 468.901672 770.416748 471.401672 764.925049 471.401672 758.800049 C 471.401672 746.587402 461.401672 736.6875 449.07251 736.6875 Z"/>
            <path id="path22" fill="none" stroke="#663816" stroke-width="16.266666" stroke-linecap="round" d="M 800.334106 499.073242 L 800.334106 659.42334"/>
            <path id="path23" fill="none" stroke="#663816" stroke-width="4.375" stroke-linecap="round" d="M 875.954224 633.57251 C 890.229126 633.57251 901.800049 645.143311 901.800049 659.418213"/>
            <path id="path24" fill="none" stroke="#663816" stroke-width="4.375" stroke-linecap="round" d="M 685.915405 643.166748 C 694.894592 643.166748 702.169556 650.44165 702.169556 659.420898"/>
            <path id="path25" fill="none" stroke="#663816" stroke-width="4.375" stroke-linecap="round" d="M 678.932068 659.42041 C 681.873779 637.60791 700.561279 619.716309 723.182068 619.716309"/>
            <path id="path26" fill="none" stroke="#663816" stroke-width="8.75" stroke-linecap="round" d="M 875.954224 659.42041 L 875.954224 641.73291 C 875.954224 599.220459 841.491699 564.757813 798.983276 564.757813 C 756.470825 564.757813 722.012512 599.220459 722.012512 641.73291 L 722.012512 659.42041"/>
            <path id="path27" fill="none" stroke="#663816" stroke-width="8.75" stroke-linecap="round" d="M 844.901611 659.42041 L 844.901611 648.866211 C 844.901611 623.507813 824.343384 602.949463 798.980835 602.949463 C 773.622559 602.949463 753.064209 623.507813 753.064209 648.866211 L 753.064209 659.42041"/>
            <path id="path28" fill="#44bf00" stroke="none" d="M 642.012085 542.166748 C 635.178772 538.095947 631.366272 530.024902 633.23291 521.854248 C 635.087097 513.720947 641.970398 508.116699 649.845398 507.37085 C 644.087097 501.887451 642.16626 493.166748 645.803772 485.616699 C 649.424561 478.100098 657.378723 474.166748 665.220398 475.195801 C 660.828735 468.5625 660.899597 459.637451 666.124573 453.083252 C 671.324585 446.55835 679.957947 444.49585 687.370422 447.241699 C 684.566223 439.800049 686.620422 431.112549 693.174561 425.887451 C 699.695435 420.6875 708.570435 420.591553 715.187073 424.920898 C 714.112061 417.037598 718.04541 409.024902 725.595398 405.391602 C 733.112061 401.770752 741.782959 403.654053 747.274536 409.350098 C 747.974609 401.429199 753.595459 394.487549 761.770386 392.625 C 769.903809 390.770752 777.932861 394.537598 782.024536 401.30835 C 784.470459 393.741699 791.487061 388.229248 799.870483 388.229248 C 808.216309 388.229248 815.207886 393.6875 817.691284 401.199951 C 821.757935 394.366699 829.832886 390.554199 837.999634 392.420898 C 846.137085 394.279053 851.741211 401.154053 852.48291 409.029053 C 857.970459 403.274902 866.687134 401.354248 874.241211 404.991699 C 881.757935 408.612549 885.691284 416.56665 884.662109 424.408447 C 891.29541 420.016602 900.220459 420.087402 906.774536 425.30835 C 913.29541 430.512451 915.362061 439.145752 912.616211 446.55835 C 920.057983 443.75415 928.741211 445.80835 933.970459 452.362549 C 939.17041 458.883301 939.262085 467.758301 934.937134 474.37915 C 942.816284 473.300049 950.824585 477.233398 954.466187 484.783447 C 958.082886 492.300049 956.199585 500.970947 950.507935 506.466553 C 958.428711 507.166748 965.362061 512.783447 967.23291 520.958252 C 969.087036 529.091553 965.320435 537.12085 958.549561 541.212402 C 966.116211 543.658447 971.628784 550.679199 971.628784 559.0625 C 971.628784 559.479248 971.532959 559.862549 971.507935 560.274902 C 971.553711 560.679199 971.628784 561.070801 971.628784 561.487549 L 971.628784 561.491699 C 971.628784 571.0625 963.866211 578.824951 954.29541 578.824951 L 651.270386 578.824951 L 651.270386 578.324951 C 650.153748 578.537598 649.062073 578.824951 647.882935 578.824951 C 637.474609 578.824951 629.04126 570.391602 629.04126 559.983398 C 629.04126 551.637451 634.499573 544.641602 642.012085 542.166748"/>
            <path id="path29" fill="none" stroke="#663816" stroke-width="16.266666" stroke-linecap="round" d="M 553.275391 533.661621 L 553.275391 694.011719"/>
            <path id="path30" fill="none" stroke="#663816" stroke-width="4.375" stroke-linecap="round" d="M 628.895813 668.160889 C 643.170837 668.160889 654.741638 679.731689 654.741638 694.006592"/>
            <path id="path31" fill="none" stroke="#663816" stroke-width="4.375" stroke-linecap="round" d="M 438.857056 677.754639 C 447.836243 677.754639 455.111267 685.029541 455.111267 694.008789"/>
            <path id="path32" fill="none" stroke="#663816" stroke-width="4.375" stroke-linecap="round" d="M 431.873779 694.008789 C 434.81543 672.196289 453.50293 654.304688 476.123779 654.304688"/>
            <path id="path33" fill="none" stroke="#663816" stroke-width="8.75" stroke-linecap="round" d="M 628.895813 694.008789 L 628.895813 676.321289 C 628.895813 633.808838 594.43335 599.346191 551.924988 599.346191 C 509.412476 599.346191 474.954163 633.808838 474.954163 676.321289 L 474.954163 694.008789"/>
            <path id="path34" fill="none" stroke="#663816" stroke-width="8.75" stroke-linecap="round" d="M 597.843323 694.008789 L 597.843323 683.45459 C 597.843323 658.096191 577.284973 637.537842 551.922485 637.537842 C 526.564148 637.537842 506.005859 658.096191 506.005859 683.45459 L 506.005859 694.008789"/>
            <path id="path35" fill="#368900" stroke="none" d="M 394.954163 576.754639 C 388.12085 572.683838 384.30835 564.613037 386.174988 556.442139 C 388.029175 548.308838 394.912476 542.70459 402.787476 541.95874 C 397.029175 536.475342 395.108337 527.754639 398.741638 520.20459 C 402.366638 512.687988 410.320862 508.754639 418.162476 509.783691 C 413.770813 503.150391 413.841675 494.225342 419.06665 487.671143 C 424.266663 481.14624 432.900024 479.08374 440.3125 481.82959 C 437.508362 474.387939 439.5625 465.700439 446.116638 460.475342 C 452.637512 455.275391 461.512512 455.179688 468.12915 459.508789 C 467.054199 451.625488 470.987488 443.612793 478.537476 439.979492 C 486.054138 436.358643 494.724976 438.242188 500.216675 443.937988 C 500.916687 436.01709 506.537476 429.075439 514.712524 427.212891 C 522.845825 425.358643 530.875 429.125488 534.966675 435.89624 C 537.412476 428.32959 544.429199 422.817139 552.8125 422.817139 C 561.162476 422.817139 568.150024 428.275391 570.633301 435.787842 C 574.700012 428.95459 582.766663 425.14209 590.94165 427.008789 C 599.079163 428.867188 604.68335 435.742188 605.424988 443.617188 C 610.912537 437.863037 619.62915 435.942139 627.18335 439.57959 C 634.700012 443.200439 638.633362 451.154541 637.604187 458.996338 C 644.237488 454.604492 653.162476 454.675537 659.716675 459.89624 C 666.237488 465.100342 668.304138 473.733643 665.55835 481.14624 C 673 478.342041 681.68335 480.39624 686.912476 486.950439 C 692.112488 493.471191 692.204163 502.346191 687.87915 508.967041 C 695.758362 507.887939 703.766663 511.821289 707.408325 519.371338 C 711.025024 526.887939 709.141663 535.558838 703.450012 541.054688 C 711.37085 541.754639 718.304138 547.371338 720.170837 555.546143 C 722.029175 563.679688 718.262512 571.70874 711.491699 575.800537 C 719.05835 578.246338 724.570862 585.26709 724.570862 593.650391 C 724.570862 594.067139 724.474976 594.450439 724.450012 594.863037 C 724.495789 595.26709 724.570862 595.658691 724.570862 596.075439 L 724.570862 596.07959 C 724.570862 605.650391 716.80835 613.412842 707.237488 613.412842 L 404.212524 613.412842 L 404.212524 612.912842 C 403.095825 613.125488 402.00415 613.412842 400.825012 613.412842 C 390.416687 613.412842 381.983337 604.975342 381.983337 594.571289 C 381.983337 586.225342 387.44165 579.229492 394.954163 576.754639"/>
        </g>
    </g>
</svg>
