<?xml version="1.0" encoding="UTF-8"?>
<!-- Generated by Pixelmator Pro 3.5.7 -->
<svg class="svg-inline-icon" viewBox="0 0 502 501" xmlns="http://www.w3.org/2000/svg">
    <g id="Wetlands-copy">
        <g id="Group">
            <path id="Path" fill="#44bf00" stroke="none" d="M 250.583374 501 C 388.654053 501 500.583252 389.070801 500.583252 251 C 500.583252 112.929199 388.654053 1 250.583374 1 C 112.512451 1 0.583374 112.929199 0.583374 251 C 0.583374 389.070801 112.512451 501 250.583374 501"/>
            <clipPath id="clipPath-g9mPc-1">
                <path d="M 0.583374 251 C 0.583374 389.070801 112.512573 501 250.583374 501 L 250.583374 501 C 388.654297 501 500.583252 389.070801 500.583252 251 L 500.583252 251 C 500.583252 112.929199 388.654297 1 250.583374 1 L 250.583374 1 C 112.512573 1 0.583374 112.929199 0.583374 251"/>
            </clipPath>
            <g id="g1" clip-path="url(#clipPath-g9mPc-1)">
                <path id="path1" fill="#3399ff" stroke="none" d="M 127.547485 414.035156 L 90.747559 131.301758 L 309.226563 102.864258 L 346.026611 385.597656 Z"/>
                <path id="path2" fill="#3399ff" stroke="#3399ff" stroke-width="2.5" stroke-linecap="round" d="M 129.871704 204.72168 L 292.963379 183.617676"/>
                <path id="path3" fill="#3399ff" stroke="#3399ff" stroke-width="2.5" stroke-linecap="round" d="M 135.462891 248.075195 L 298.554688 226.971191"/>
                <path id="path4" fill="#3399ff" stroke="#3399ff" stroke-width="2.5" stroke-linecap="round" d="M 141.054199 291.429199 L 304.145752 270.325195"/>
                <path id="path5" fill="#3399ff" stroke="#3399ff" stroke-width="2.5" stroke-linecap="round" d="M 146.64502 334.782715 L 309.736572 313.678711"/>
                <path id="path6" fill="#3399ff" stroke="#3399ff" stroke-width="2.5" stroke-linecap="round" d="M 152.236206 378.137207 L 315.327881 357.032715"/>
                <path id="path7" fill="#3399ff" stroke="#3399ff" stroke-width="2.5" stroke-linecap="round" d="M 127.058716 182.908691 L 290.150391 161.804688"/>
                <path id="path8" fill="#3399ff" stroke="#3399ff" stroke-width="2.5" stroke-linecap="round" d="M 132.650024 226.262695 L 295.741699 205.158203"/>
                <path id="path9" fill="#3399ff" stroke="#3399ff" stroke-width="2.5" stroke-linecap="round" d="M 138.240845 269.616211 L 301.33252 248.512207"/>
                <path id="path10" fill="#3399ff" stroke="#3399ff" stroke-width="2.5" stroke-linecap="round" d="M 143.832031 312.970215 L 306.923828 291.865723"/>
                <path id="path11" fill="#3399ff" stroke="#3399ff" stroke-width="2.5" stroke-linecap="round" d="M 149.42334 356.32373 L 312.514893 335.219727"/>
                <path id="path12" fill="#3399ff" stroke="#3399ff" stroke-width="2.5" stroke-linecap="round" d="M 128.499634 194.081055 L 291.591309 172.976563"/>
                <path id="path13" fill="#3399ff" stroke="#3399ff" stroke-width="2.5" stroke-linecap="round" d="M 134.090454 237.43457 L 297.182129 216.330566"/>
                <path id="path14" fill="#3399ff" stroke="#3399ff" stroke-width="2.5" stroke-linecap="round" d="M 139.681641 280.788574 L 302.773438 259.68457"/>
                <path id="path15" fill="#3399ff" stroke="#3399ff" stroke-width="2.5" stroke-linecap="round" d="M 145.272949 324.142578 L 308.364502 303.038574"/>
                <path id="path16" fill="#3399ff" stroke="#3399ff" stroke-width="2.5" stroke-linecap="round" d="M 150.86377 367.495605 L 313.955322 346.391602"/>
                <path id="path17" fill="#ccf4ff" stroke="none" d="M 145.474121 392.26709 L 108.674194 109.533691 L 327.15332 81.096191 L 363.953369 363.82959 Z"/>
                <path id="path18" fill="none" stroke="#3399ff" stroke-width="2.5" stroke-linecap="round" d="M 147.798706 182.953125 L 310.890381 161.849121"/>
                <path id="path19" fill="none" stroke="#3399ff" stroke-width="2.5" stroke-linecap="round" d="M 153.390015 226.307129 L 316.481689 205.203125"/>
                <path id="path20" fill="none" stroke="#3399ff" stroke-width="2.5" stroke-linecap="round" d="M 158.980835 269.660645 L 322.07251 248.556641"/>
                <path id="path21" fill="none" stroke="#3399ff" stroke-width="2.5" stroke-linecap="round" d="M 164.572144 313.014648 L 327.663818 291.910645"/>
                <path id="path22" fill="none" stroke="#3399ff" stroke-width="2.5" stroke-linecap="round" d="M 170.16333 356.368652 L 333.254883 335.264648"/>
                <path id="path23" fill="none" stroke="#3399ff" stroke-width="2.5" stroke-linecap="round" d="M 144.98584 161.140137 L 308.077393 140.035645"/>
                <path id="path24" fill="none" stroke="#3399ff" stroke-width="2.5" stroke-linecap="round" d="M 150.57666 204.493652 L 313.668213 183.389648"/>
                <path id="path25" fill="none" stroke="#3399ff" stroke-width="2.5" stroke-linecap="round" d="M 156.167969 247.847656 L 319.259521 226.743164"/>
                <path id="path26" fill="none" stroke="#3399ff" stroke-width="2.5" stroke-linecap="round" d="M 161.758789 291.201172 L 324.850342 270.097168"/>
                <path id="path27" fill="none" stroke="#3399ff" stroke-width="2.5" stroke-linecap="round" d="M 167.349976 334.555176 L 330.44165 313.450684"/>
                <path id="path28" fill="none" stroke="#3399ff" stroke-width="2.5" stroke-linecap="round" d="M 146.42627 172.3125 L 309.517822 151.208496"/>
                <path id="path29" fill="none" stroke="#3399ff" stroke-width="2.5" stroke-linecap="round" d="M 152.017456 215.666016 L 315.109131 194.562012"/>
                <path id="path30" fill="none" stroke="#3399ff" stroke-width="2.5" stroke-linecap="round" d="M 157.608765 259.02002 L 320.700439 237.916016"/>
                <path id="path31" fill="none" stroke="#3399ff" stroke-width="2.5" stroke-linecap="round" d="M 163.199585 302.373535 L 326.29126 281.269531"/>
                <path id="path32" fill="none" stroke="#3399ff" stroke-width="2.5" stroke-linecap="round" d="M 168.790894 345.727539 L 331.882568 324.623535"/>
                <path id="path33" fill="#286fb7" stroke="none" d="M 355.958008 251.237793 C 347.837158 269.421387 326.441162 277.646484 308.224609 269.521484 C 290.04126 261.400391 281.85376 239.975586 289.974609 221.791992 C 293.886963 212.967285 301.04126 206.212891 310.028809 202.771484 C 314.241211 201.166992 318.620361 200.362793 322.966309 200.362793 C 327.97876 200.362793 332.962158 201.400391 337.674561 203.504395 C 355.891357 211.629395 364.078857 233.021484 355.958008 251.237793"/>
                <path id="path34" fill="#286fb7" stroke="none" d="M 368.19165 256.687012 C 364.079102 265.878906 357.49585 273.199707 349.574951 278.245605 C 341.649902 283.257813 332.391602 286.003906 322.899902 286.003906 C 316.149902 286.003906 309.329102 284.632813 302.8125 281.720215 C 277.875 270.591309 266.645874 241.278809 277.741699 216.341309 C 283.125 204.274414 292.916748 195.016113 305.25 190.270508 C 317.587402 185.558105 331.05835 185.924805 343.12085 191.308105 C 368.05835 202.403809 379.287598 231.753906 368.19165 256.687012 M 415.25415 226.537109 C 414.854248 222.958008 411.375 220.553711 407.87085 221.35791 C 406.93335 221.591309 405.962402 221.691406 405.024902 221.691406 C 400.079102 221.691406 395.43335 218.683105 393.529053 213.903809 L 389.820801 204.578613 C 387.579102 198.995605 389.68335 192.60791 394.800049 189.433105 L 395.266602 189.166016 C 398.274902 187.328613 399.045898 183.253906 396.904053 180.441406 C 392.391602 174.458008 387.145752 169.012207 381.195801 164.23291 C 378.387451 161.958008 374.208252 162.695313 372.304199 165.770508 C 369.962402 169.512207 365.949951 171.620605 361.774902 171.620605 C 360.137451 171.620605 358.462402 171.282715 356.895752 170.616211 L 347.670898 166.67041 C 342.12085 164.299805 339.112549 158.282715 340.483398 152.433105 L 340.616699 151.895508 C 341.416748 148.453613 339.079102 145.04541 335.570801 144.54541 C 328.012451 143.507813 320.425049 143.407715 313.008301 144.241211 C 309.429199 144.60791 306.987549 148.086914 307.824951 151.595215 C 308.05835 152.532715 308.158447 153.503906 308.158447 154.437012 C 308.158447 159.416016 305.149902 164.032715 300.37085 165.937012 L 291.045898 169.645508 C 285.429199 171.887207 279.045776 169.778809 275.904175 164.666016 L 275.637451 164.23291 C 273.762451 161.191406 269.720825 160.42041 266.87915 162.558105 C 260.929199 167.070313 255.479126 172.353516 250.699951 178.303711 C 248.425049 181.112305 249.162476 185.291016 252.204224 187.162109 C 255.945801 189.503906 258.087524 193.54541 258.087524 197.724609 C 258.087524 199.362305 257.75415 200.999512 257.083374 202.570313 L 253.108276 211.828613 C 250.733276 217.345215 244.716675 220.353516 238.866699 218.98291 L 238.366699 218.849609 C 234.925049 218.04541 231.483276 220.387207 231.012451 223.895508 C 229.974976 231.449707 229.875 239.041016 230.679199 246.491211 C 231.079102 250.070313 234.520874 252.474609 238.033325 251.67041 L 238.06665 251.641113 C 244.016724 250.270508 250.099976 253.412109 252.37085 259.128906 L 256.112549 268.453613 C 258.354126 274.032715 256.216675 280.42041 251.099976 283.562012 L 250.666626 283.862305 C 247.658325 285.699707 246.887451 289.778809 249.029175 292.586914 C 253.541626 298.537109 258.787476 304.016113 264.737549 308.79541 C 267.545776 311.037109 271.724976 310.333008 273.62915 307.257813 C 275.970825 303.516113 279.983276 301.407715 284.158447 301.407715 C 285.795898 301.407715 287.470947 301.711914 289.037598 302.412109 L 298.262451 306.35791 C 303.8125 308.73291 306.820801 314.745605 305.449951 320.595215 L 305.31665 321.132813 C 304.483398 324.574707 306.820801 327.98291 310.333252 328.48291 C 317.920898 329.520508 325.508301 329.591309 332.925049 328.787109 C 336.50415 328.382813 338.945801 324.941406 338.108398 321.433105 C 337.875 320.495605 337.774902 319.528809 337.774902 318.591309 C 337.774902 313.612305 340.783447 308.999512 345.5625 307.091309 L 354.887451 303.349609 C 360.470947 301.141113 366.854248 303.249512 370.029053 308.362305 L 370.295898 308.79541 C 372.170898 311.808105 376.212402 312.574707 379.054199 310.470215 C 385.00415 305.958008 390.454102 300.674805 395.233398 294.724609 C 397.508301 291.916016 396.770752 287.741211 393.729248 285.833008 L 393.695801 285.833008 C 388.512451 282.624512 386.44165 276.074707 388.850098 270.424805 L 392.824951 261.199707 C 395.199951 255.683105 401.18335 252.641113 407.06665 254.04541 L 407.56665 254.145508 C 411.008301 254.98291 414.454102 252.641113 414.920898 249.132813 C 415.958252 241.578613 416.05835 233.991211 415.25415 226.537109"/>
                <path id="path35" fill="#f7f5ba" stroke="none" d="M 222.530884 251.581055 L 200.984985 221.026855 C 197.443359 216.001953 191.676636 213.014648 185.530884 213.014648 L 99.01416 213.014648 C 88.568359 213.014648 80.101685 221.477051 80.101685 231.922852 L 80.101685 259.59375 L 80.101685 481.768555 C 80.101685 492.214355 88.568359 500.681152 99.01416 500.681152 L 419.922607 500.681152 C 430.368408 500.681152 438.834961 492.214355 438.834961 481.768555 L 438.834961 278.506348 C 438.834961 268.060547 430.368408 259.59375 419.922607 259.59375 L 237.984985 259.59375 C 231.839111 259.59375 226.07251 256.606445 222.530884 251.581055"/>
                <path id="path36" fill="#8ed1c6" stroke="none" d="M 181.739624 259.594727 L 109.385376 259.594727 C 108.331299 259.594727 107.477051 258.740234 107.477051 257.686035 L 107.477051 238.87793 C 107.477051 237.82373 108.331299 236.969727 109.385376 236.969727 L 181.739624 236.969727 C 182.793701 236.969727 183.647949 237.82373 183.647949 238.87793 L 183.647949 257.686035 C 183.647949 258.740234 182.793701 259.594727 181.739624 259.594727"/>
                <path id="path37" fill="none" stroke="#286fb7" stroke-width="2.5" stroke-linecap="round" stroke-linejoin="round" d="M 107.476685 458.40625 L 214.630859 458.40625"/>
            </g>
        </g>
        <clipPath id="clipPath-g9mPc-2">
            <path d="M 209.016602 368.491699 C 209.016602 400.666992 235.104126 426.758301 267.283325 426.758301 L 267.283325 426.758301 C 299.462402 426.758301 325.554199 400.666992 325.554199 368.491699 L 325.554199 368.491699 C 325.554199 336.3125 299.462402 310.220703 267.283325 310.220703 L 267.283325 310.220703 C 235.104126 310.220703 209.016602 336.3125 209.016602 368.491699"/>
        </clipPath>
        <g id="g2" clip-path="url(#clipPath-g9mPc-2)">
            <path id="path38" fill="#ccf4ff" stroke="none" d="M 333.604004 368.200195 L 199.345825 368.200195 L 199.345825 262.791504 L 333.604004 262.791504 Z"/>
            <path id="path39" fill="#44bf00" stroke="none" d="M 369.381592 348.574219 C 370.827393 347.720215 371.635742 346.032715 371.23999 344.319824 C 370.848389 342.615723 369.389893 341.440918 367.723389 341.282715 C 368.939941 340.136719 369.348389 338.307617 368.577393 336.728516 C 367.810791 335.15332 366.127441 334.328125 364.465088 334.544922 C 365.394287 333.15332 365.381592 331.282715 364.273438 329.911621 C 363.17334 328.544922 361.340088 328.111816 359.773438 328.690918 C 360.36499 327.128418 359.931641 325.307617 358.540039 324.21582 C 357.160889 323.124023 355.277588 323.103516 353.877441 324.011719 C 354.106689 322.361816 353.273438 320.682617 351.67334 319.919922 C 350.077393 319.161621 348.23999 319.557617 347.077393 320.749023 C 346.931641 319.09082 345.73999 317.636719 344.010742 317.245117 C 342.285889 316.857422 340.585938 317.64502 339.715088 319.065918 C 339.198242 317.478516 337.710938 316.328125 335.935791 316.328125 C 334.165039 316.328125 332.685791 317.470215 332.160889 319.044922 C 331.29834 317.611816 329.590088 316.815918 327.856689 317.203125 C 326.135742 317.59082 324.948242 319.032715 324.790039 320.682617 C 323.627441 319.478516 321.777588 319.078125 320.17749 319.836426 C 318.585938 320.595215 317.752441 322.261719 317.969238 323.90332 C 316.564941 322.982422 314.67334 322.999023 313.285889 324.095215 C 311.902588 325.182617 311.465088 326.990723 312.04834 328.544922 C 310.473389 327.95752 308.631592 328.386719 307.523438 329.761719 C 306.42334 331.128418 306.402588 332.986816 307.319092 334.374023 C 305.648438 334.14502 303.952393 334.970215 303.181641 336.553223 C 302.415039 338.128418 302.814941 339.944824 304.019287 341.095215 C 302.340088 341.240723 300.873291 342.419922 300.477539 344.132324 C 300.085938 345.83252 300.881592 347.515625 302.314941 348.374023 C 300.710938 348.886719 299.544189 350.357422 299.544189 352.115723 C 299.544189 352.199219 299.564941 352.282715 299.573242 352.365723 C 299.560791 352.453125 299.544189 352.532715 299.544189 352.620117 C 299.544189 354.628418 301.189941 356.253418 303.215088 356.253418 L 367.419189 356.253418 L 367.419189 356.148926 C 367.656738 356.194824 367.889893 356.253418 368.139893 356.253418 C 370.340088 356.253418 372.127441 354.486816 372.127441 352.307617 C 372.127441 350.557617 370.973389 349.095215 369.381592 348.574219"/>
            <path id="path40" fill="#44bf00" stroke="none" d="M 296.202393 348.574219 C 297.648438 347.720215 298.456787 346.032715 298.060791 344.319824 C 297.669189 342.615723 296.210938 341.440918 294.544189 341.282715 C 295.760742 340.136719 296.169189 338.307617 295.398438 336.728516 C 294.631592 335.15332 292.948242 334.328125 291.285889 334.544922 C 292.215088 333.15332 292.202393 331.282715 291.094238 329.911621 C 289.994141 328.544922 288.160889 328.111816 286.594238 328.690918 C 287.185791 327.128418 286.752441 325.307617 285.36084 324.21582 C 283.981689 323.124023 282.098389 323.103516 280.698364 324.011719 C 280.92749 322.361816 280.094116 320.682617 278.494141 319.919922 C 276.898315 319.161621 275.060791 319.557617 273.898315 320.749023 C 273.752441 319.09082 272.560791 317.636719 270.831665 317.245117 C 269.106689 316.857422 267.406616 317.64502 266.535889 319.065918 C 266.019165 317.478516 264.531616 316.328125 262.756714 316.328125 C 260.98584 316.328125 259.506714 317.470215 258.981689 319.044922 C 258.119141 317.611816 256.410889 316.815918 254.67749 317.203125 C 252.956665 317.59082 251.769165 319.032715 251.61084 320.682617 C 250.448364 319.478516 248.598389 319.078125 246.998291 319.836426 C 245.406616 320.595215 244.573364 322.261719 244.790039 323.90332 C 243.385864 322.982422 241.494141 322.999023 240.106689 324.095215 C 238.723389 325.182617 238.285889 326.990723 238.869141 328.544922 C 237.294189 327.95752 235.452515 328.386719 234.344116 329.761719 C 233.244141 331.128418 233.223389 332.986816 234.140015 334.374023 C 232.469116 334.14502 230.773315 334.970215 230.002441 336.553223 C 229.23584 338.128418 229.635864 339.944824 230.839966 341.095215 C 229.160889 341.240723 227.694214 342.419922 227.29834 344.132324 C 226.906616 345.83252 227.702515 347.515625 229.135864 348.374023 C 227.531616 348.886719 226.36499 350.357422 226.36499 352.115723 C 226.36499 352.199219 226.385864 352.282715 226.394165 352.365723 C 226.381714 352.453125 226.36499 352.532715 226.36499 352.620117 C 226.36499 354.628418 228.010864 356.253418 230.035889 356.253418 L 294.23999 356.253418 L 294.23999 356.148926 C 294.477539 356.194824 294.710938 356.253418 294.960938 356.253418 C 297.160889 356.253418 298.948242 354.486816 298.948242 352.307617 C 298.948242 350.557617 297.794189 349.095215 296.202393 348.574219"/>
            <path id="path41" fill="#368900" stroke="none" d="M 331.797852 350.541016 C 333.243652 349.686523 334.052002 347.999023 333.65625 346.286621 C 333.264648 344.58252 331.806152 343.407715 330.139648 343.249023 C 331.356201 342.103516 331.764648 340.273926 330.993652 338.694824 C 330.227051 337.120117 328.543701 336.294922 326.881348 336.511719 C 327.810303 335.120117 327.797852 333.249023 326.689697 331.878418 C 325.5896 330.511719 323.756348 330.078125 322.189697 330.657715 C 322.78125 329.095215 322.3479 327.273926 320.956299 326.182617 C 319.577148 325.09082 317.693848 325.069824 316.293701 325.978516 C 316.522949 324.328125 315.689697 322.648926 314.0896 321.886719 C 312.493652 321.128418 310.65625 321.523926 309.493652 322.71582 C 309.3479 321.057617 308.15625 319.603516 306.427002 319.211426 C 304.702148 318.824219 303.002197 319.611816 302.131348 321.032715 C 301.614502 319.444824 300.127197 318.294922 298.352051 318.294922 C 296.581299 318.294922 295.102051 319.436523 294.577148 321.011719 C 293.7146 319.578125 292.006348 318.782715 290.272949 319.169922 C 288.552002 319.557617 287.364502 320.999023 287.206299 322.648926 C 286.043701 321.444824 284.193848 321.044922 282.59375 321.803223 C 281.002075 322.561523 280.168701 324.228516 280.385376 325.870117 C 278.981201 324.949219 277.0896 324.96582 275.702026 326.061523 C 274.318726 327.148926 273.881226 328.95752 274.4646 330.511719 C 272.889526 329.924316 271.047974 330.353516 269.939575 331.728516 C 268.8396 333.095215 268.818726 334.953125 269.735474 336.34082 C 268.064575 336.111816 266.368774 336.936523 265.5979 338.52002 C 264.831299 340.095215 265.231201 341.911621 266.435425 343.061523 C 264.756226 343.20752 263.289551 344.386719 262.893799 346.099121 C 262.502075 347.799316 263.297974 349.482422 264.731201 350.34082 C 263.127075 350.853516 261.960449 352.324219 261.960449 354.08252 C 261.960449 354.166016 261.981201 354.249023 261.989624 354.33252 C 261.977051 354.419922 261.960449 354.499023 261.960449 354.586426 C 261.960449 356.595215 263.606201 358.220215 265.631226 358.220215 L 329.835449 358.220215 L 329.835449 358.115723 C 330.072998 358.161621 330.306152 358.220215 330.556152 358.220215 C 332.756348 358.220215 334.543701 356.453125 334.543701 354.273926 C 334.543701 352.523926 333.389648 351.061523 331.797852 350.541016"/>
            <path id="path42" fill="#286fb7" stroke="none" d="M 201.480469 348.705566 C 203.351196 351.001465 206.251221 352.509766 209.451294 352.509766 C 209.813721 352.509766 210.23877 352.451172 210.601196 352.388672 L 210.901245 352.388672 C 211.201294 352.326172 211.447144 352.268066 211.74707 352.209473 C 211.86792 352.209473 211.92627 352.146973 212.05127 352.146973 C 212.288696 352.088867 212.534546 352.026367 212.772095 351.905273 C 212.897095 351.905273 213.013794 351.847168 213.134644 351.784668 C 213.376221 351.663574 213.62207 351.605469 213.80127 351.484375 C 213.922119 351.421875 214.042969 351.36377 214.163696 351.30127 C 214.347046 351.242676 214.584595 351.12207 214.767944 351.001465 C 214.888794 350.880371 215.009644 350.822266 215.067871 350.759766 C 215.30957 350.638672 215.49292 350.518066 215.672119 350.334473 C 215.792969 350.276367 215.855469 350.213867 215.976196 350.155273 C 216.155396 349.972168 216.338745 349.792969 216.517944 349.609375 C 216.638794 349.55127 216.701294 349.48877 216.759644 349.430176 C 217.001221 349.188965 217.18457 348.947266 217.36377 348.705566 L 217.967896 348.705566 C 219.838745 351.001465 222.73877 352.509766 225.938721 352.509766 C 229.138794 352.509766 231.980469 351.001465 233.851196 348.705566 L 234.455444 348.705566 C 236.388794 351.001465 239.226196 352.509766 242.42627 352.509766 C 244.480469 352.509766 246.413696 351.905273 247.984619 350.822266 C 248.888794 350.276367 249.734619 349.55127 250.401245 348.705566 L 251.001221 348.705566 C 252.876221 351.001465 255.713745 352.509766 258.913696 352.509766 C 262.11377 352.509766 265.013794 351.001465 266.888794 348.705566 L 267.48877 348.705566 C 269.36377 351.001465 272.201294 352.509766 275.401245 352.509766 C 278.422119 352.509766 281.138794 351.180176 283.013794 349.126465 C 284.884521 351.180176 287.601318 352.509766 290.62207 352.509766 C 293.884521 352.509766 296.722168 351.001465 298.597168 348.705566 L 299.197021 348.705566 C 301.072021 351.001465 303.909668 352.509766 307.109619 352.509766 C 310.37207 352.509766 313.209473 351.001465 315.084473 348.705566 L 315.68457 348.705566 C 317.55957 351.001465 320.396973 352.509766 323.597168 352.509766 C 325.530518 352.509766 327.343018 351.967773 328.913818 351.05957 C 329.938721 350.396973 330.847168 349.609375 331.572021 348.705566 L 332.172119 348.705566 L 332.172119 445.701172 L 194.48877 445.701172 Z"/>
            <path id="path43" fill="#ffff52" stroke="none" d="M 261.890015 375.219727 L 259.689941 373.019531 C 252.785889 366.115234 241.594116 366.115234 234.685791 373.019531 L 233.031616 374.677734 C 232.981689 374.723633 232.964966 374.790527 232.92334 374.840332 C 231.748291 372.286133 228.094116 370.398926 225.306641 370.398926 L 228.344116 376.478027 L 225.306641 382.552734 C 228.094116 382.552734 231.748291 380.669434 232.92334 378.111328 C 232.964966 378.161133 232.981689 378.228027 233.031616 378.273926 L 234.685791 379.932129 C 241.594116 386.836426 252.785889 386.836426 259.689941 379.932129 L 261.890015 377.731934 C 261.148315 376.478027 261.148315 376.478027 261.890015 375.219727"/>
            <path id="path44" fill="#3e953b" stroke="none" d="M 288.875732 440.27002 L 291.580078 438.661621 C 292.217529 438.27832 292.679932 437.765625 292.72168 437.416016 C 293.009277 434.728516 292.492432 432.682617 290.888428 430.845215 C 290.03418 429.865723 289.205078 428.828125 288.41748 427.732422 C 286.830078 425.549316 286.588379 422.824219 287.692383 420.128418 C 288.304932 418.624023 288.959229 417.14502 289.621582 415.666016 C 290.863281 412.932617 290.867432 410.203125 289.546631 407.561523 C 287.567383 403.611816 285.54248 399.511719 283.242554 395.636719 C 283.04248 395.299316 282.309204 395.161621 281.505005 395.311523 L 278.796631 395.819824 C 277.938354 395.978516 277.271606 396.398926 277.271606 396.773926 C 277.271606 399.603516 277.117554 402.449219 276.921631 405.336426 C 276.85083 406.374023 276.963379 407.411621 277.263306 408.428223 L 278.530029 412.728516 C 278.963379 414.203125 279.025879 415.732422 278.72583 417.303223 C 278.117554 420.565918 277.60498 423.932617 277.371704 427.474121 C 277.15918 430.40332 278.309204 433.291016 280.634155 435.470215 C 282.696655 437.398926 284.900879 439.136719 287.179932 440.574219 C 287.521729 440.791016 288.217529 440.666016 288.875732 440.27002"/>
            <path id="path45" fill="#5bbc57" stroke="none" d="M 286.375488 405.941895 C 287.916992 408.649902 287.867188 411.458496 286.317139 414.345703 C 285.404541 416.058105 284.508789 417.783203 283.658691 419.549805 C 281.971191 423.029297 282.242065 426.587402 284.467041 429.450195 C 285.492188 430.75 286.554688 431.991699 287.658691 433.145996 C 289.14624 434.695801 289.842041 436.479004 289.908691 438.708496 C 287.791992 437.641602 285.712891 436.304199 283.712891 434.770996 C 281.14209 432.799805 279.95459 430 280.317139 427.070801 C 280.775391 423.191895 281.571289 419.520996 282.471191 415.933105 C 282.946289 414.041504 282.908691 412.195801 282.32959 410.412598 L 280.754639 405.612305 C 280.408691 404.583496 280.279541 403.512695 280.367065 402.4375 C 280.52124 400.5 280.64209 398.558105 280.696289 396.600098 C 282.70874 399.587402 284.571289 402.774902 286.375488 405.941895"/>
            <path id="path46" fill="#3e953b" stroke="none" d="M 273.410889 442.014648 L 276.277466 440.71875 C 276.956665 440.410645 277.456665 439.922852 277.506714 439.518555 C 277.877441 436.443848 277.169189 433.797852 275.36084 431.585449 C 274.402466 430.40625 273.444214 429.206055 272.515015 427.985352 C 270.640015 425.552246 270.019165 422.556152 270.67749 419.418945 C 271.064941 417.664551 271.452515 415.939453 271.898315 414.227051 C 272.702515 411.060547 272.323364 408.160645 270.752441 405.493652 C 268.381714 401.501953 266.17749 397.331055 264.165039 393.001953 C 263.98584 392.626953 263.260864 392.40625 262.448364 392.481445 L 259.706665 392.739746 C 258.835815 392.818848 258.144165 393.227051 258.127441 393.672852 C 257.935791 397.035645 257.894165 400.414551 257.931641 403.810547 C 257.952515 405.035645 258.156616 406.243652 258.585815 407.393555 C 259.156616 409.010254 259.790039 410.606445 260.406616 412.193848 C 261.069214 413.802246 261.344116 415.498047 261.306641 417.272949 C 261.206665 420.939453 261.214966 424.647949 261.390015 428.381348 C 261.527466 431.477051 262.844116 434.297852 265.231689 436.485352 C 267.335815 438.443848 269.502441 440.306152 271.67334 442.098145 C 271.994141 442.368652 272.710815 442.331055 273.410889 442.014648"/>
            <path id="path47" fill="#5bbc57" stroke="none" d="M 267.434204 404.012695 C 269.213379 406.795898 269.505005 409.783203 268.405029 413.149902 C 267.759155 415.133301 267.130005 417.154297 266.567505 419.195801 C 265.438354 423.241699 266.192505 427.016602 268.713379 430.045898 C 269.880005 431.420898 271.03418 432.783203 272.238281 434.104004 C 273.825806 435.883301 274.60498 438.020996 274.563354 440.483398 C 272.454956 438.987305 270.363281 437.416504 268.309204 435.774902 C 265.646606 433.674805 264.29248 430.879395 264.28418 427.716797 C 264.28418 423.537598 264.47168 419.404297 264.817505 415.329102 C 265.000854 413.183105 264.688354 411.149902 263.880005 409.225098 C 263.15918 407.491699 262.446655 405.741699 261.79248 403.970703 C 261.35083 402.825195 261.155029 401.616699 261.200806 400.387695 C 261.267456 398.191895 261.388306 396 261.559204 393.820801 C 263.405029 397.341797 265.35083 400.741699 267.434204 404.012695"/>
            <path id="path48" fill="#3e953b" stroke="none" d="M 309.415527 435.024414 L 312.19458 433.54541 C 312.848633 433.199707 313.294678 432.628906 313.277832 432.153809 C 313.152832 428.503906 311.982178 425.308105 309.76123 422.628906 C 308.57373 421.199707 307.411133 419.745605 306.25708 418.270508 C 303.965332 415.328613 302.861328 411.737305 303.090332 407.912109 C 303.219482 405.787109 303.38623 403.691406 303.615479 401.632813 C 304.031982 397.808105 303.38623 394.42041 301.723633 391.29541 C 299.223633 386.595215 297.232178 381.595215 296.290527 376.120605 C 296.207031 375.645508 295.557129 375.211914 294.744629 375.095215 L 292.019531 374.716309 C 291.152832 374.591309 290.38208 374.933105 290.248779 375.495605 C 289.223633 379.73291 288.82373 384.124512 288.811279 388.48291 C 288.81958 390.058105 289.061279 391.612305 289.536133 393.095215 C 290.19873 395.166016 290.952881 397.178711 291.744629 399.153809 C 292.56958 401.153809 293.06543 403.23291 293.25293 405.395508 C 293.640381 409.866211 294.19873 414.282715 294.906982 418.73291 C 295.486328 422.424805 297.269531 425.757813 300.061279 428.374512 C 302.536133 430.699707 305.057129 432.941406 307.619629 435.091309 C 307.998779 435.416016 308.736328 435.382813 309.415527 435.024414"/>
            <path id="path49" fill="#5bbc57" stroke="none" d="M 298.36377 389.42334 C 300.159668 392.802734 300.672119 396.290039 299.947021 400.356445 C 299.509521 402.752441 299.155518 405.206543 298.86792 407.681641 C 298.288818 412.581543 299.61377 417.089844 302.667969 420.719238 C 304.067871 422.381836 305.484619 424.010742 306.93042 425.606445 C 308.855469 427.748535 310.005371 430.319336 310.36377 433.240234 C 307.922119 431.418945 305.509521 429.527344 303.130371 427.556641 C 300.067871 425.027344 298.234619 421.723145 297.771973 417.931641 C 297.17627 412.939941 296.73877 407.969238 296.567871 403.015137 C 296.484619 400.402344 295.955322 397.939941 294.99707 395.569336 C 294.126221 393.436035 293.359619 391.248535 292.692871 389.002441 C 292.259521 387.552734 292.097168 386.019043 292.234619 384.498535 C 292.468018 381.777344 292.896973 379.085938 293.55542 376.490234 C 294.547119 381.17334 296.271973 385.452637 298.36377 389.42334"/>
            <path id="path50" fill="#3e953b" stroke="none" d="M 315.86377 416.84082 L 317.98877 414.52002 C 318.484619 413.96582 318.830322 413.374023 318.851318 413.111816 C 318.959473 412.036621 319.12207 411.311523 319.034668 410.474121 C 318.947021 409.666016 318.667969 408.757324 318.146973 407.703125 C 317.597168 406.603516 317.167969 405.203125 316.73877 403.720215 C 315.87207 400.749023 316.317871 397.561523 316.459473 393.624023 C 316.593018 391.523926 316.49707 389.511719 316.634521 387.84082 C 316.74292 386.273926 316.80127 385.169922 316.784668 384.574219 C 316.792969 384.08252 316.534668 383.515625 316.05542 382.349121 C 314.593018 379.099121 314.572021 371.549316 309.30957 367.39502 C 308.859619 367.053223 308.088867 367.265625 307.513672 367.836426 L 305.530518 369.749023 C 304.909668 370.374023 304.501221 370.995117 304.563721 371.186523 C 305.12207 372.728516 304.838867 375.015625 304.05542 377.782715 C 303.784668 378.824219 303.659668 380.02002 303.784668 381.357422 C 303.955322 383.194824 304.24707 385.345215 305.05127 387.398926 C 305.843018 389.419922 306.55957 391.182617 306.851318 392.907715 C 307.146973 394.674316 307.359619 396.261719 307.18042 397.398926 C 306.99292 398.470215 306.593018 399.390625 306.12207 400.686523 C 305.36792 402.70752 305.267822 405.886719 307.05127 409.569824 C 308.605469 412.599121 310.917969 415.836426 314.172119 417.444824 C 314.659668 417.674316 315.351318 417.411621 315.86377 416.84082"/>
            <path id="path51" fill="#5bbc57" stroke="none" d="M 313.202393 380.325684 C 313.694092 381.867676 313.86084 383.10498 313.80249 384.092285 C 313.73584 385.038574 313.42749 385.992676 313.094238 387.613281 C 312.67334 389.458984 312.602539 391.646484 312.306641 393.72168 C 312.031738 395.813477 311.79834 397.442383 311.727539 399.063477 C 311.669189 400.688477 311.831787 402.40918 312.456787 404.246582 C 313.023438 405.913574 313.619141 407.617676 314.435791 409.101074 C 315.560791 411.117676 315.885742 412.78418 316.406738 414.996582 C 314.010742 414.317383 311.823242 412.134277 310.219238 409.750977 C 309.160889 408.217285 308.635742 406.434082 308.506592 404.946777 C 308.373291 403.41748 308.602539 402.080078 309.085938 400.84668 C 309.719238 399.196777 310.23999 397.767578 310.340088 396.067383 C 310.444092 394.330078 310.131592 392.325684 309.919189 390.321777 C 309.694092 388.188477 309.139893 386.338379 308.623291 384.359375 C 308.119141 382.567383 307.956787 380.654785 307.756592 378.842285 C 307.627441 377.65918 307.719238 376.546875 307.910889 375.458984 C 308.260742 373.504883 308.356689 371.442383 307.527588 369.488281 C 309.152588 370.559082 310.394287 372.446777 311.248291 374.413574 C 312.123291 376.400879 312.619141 378.550781 313.202393 380.325684"/>
            <path id="path52" fill="#3e953b" stroke="none" d="M 264.987915 437.762695 L 265.542114 434.666504 C 265.667114 433.933105 265.596191 433.254395 265.371216 432.995605 C 263.617065 431.041504 261.812866 430.170898 259.546265 430.295898 C 258.342041 430.366699 257.08374 430.366699 255.867065 430.329102 C 254.317139 430.283203 253.14209 429.641602 252.83374 428.583496 C 252.64624 427.975098 252.77124 427.391602 253.033691 426.629395 C 253.462891 425.445801 254.02124 424.179199 254.39209 422.429199 C 255.046265 419.083496 253.967041 415.866699 251.683716 413.791504 C 248.254639 410.645996 244.729614 408.254395 241.26709 405.958496 C 240.967041 405.758301 240.250366 405.950195 239.575439 406.408203 L 237.296265 407.954102 C 236.571289 408.445801 236.129639 409.083496 236.27124 409.420898 C 237.379639 411.945801 238.425415 414.424805 239.279541 416.862305 C 239.58374 417.737305 240.042114 418.516602 240.625366 419.208496 C 241.450439 420.179199 242.237915 421.166504 242.967041 422.1875 C 243.70874 423.233398 244.01709 424.454102 243.89209 425.762695 C 243.804565 426.808105 243.712891 428.016602 243.842041 429.491699 C 243.933716 430.895996 244.429565 432.883301 245.39209 434.645996 C 246.033691 435.845703 246.95874 437.037598 247.89209 438.004395 C 249.337891 439.537598 250.879639 440.391602 252.20459 440.816895 C 253.558716 441.254395 255.029541 441.362305 256.533691 441.129395 C 259.196289 440.716797 261.750366 440.083496 264.154541 439.258301 C 264.512939 439.133301 264.854614 438.516602 264.987915 437.762695"/>
            <path id="path53" fill="#5bbc57" stroke="none" d="M 248.112915 413.481445 C 250.58374 415.289551 251.671265 418.297852 250.842041 421.602051 C 250.371216 423.585449 249.633789 425.297852 249.042114 427.047852 C 248.562866 428.456055 248.567139 430.056152 249.308716 431.452148 C 249.821289 432.422852 250.717041 433.243652 251.637939 433.714355 C 252.571289 434.202148 253.571289 434.414551 254.57959 434.427246 C 256.150391 434.447754 257.692139 434.381348 259.196289 434.227051 C 261.20874 434.026855 262.917114 434.598145 264.533691 435.977051 C 262.467041 436.910645 260.258789 437.697754 257.929565 438.306152 C 254.887939 439.006348 252.292114 438.498047 249.862915 435.772949 C 249.100464 434.860352 248.312866 433.739746 247.854614 432.639648 C 246.371216 429.052246 247.217041 426.401855 247.383789 423.90625 C 247.554565 422.102051 247.029541 420.385254 245.942139 419.014648 C 244.962891 417.776855 243.925415 416.610352 242.854614 415.481445 C 242.167114 414.751953 241.637939 413.914551 241.296265 412.964355 C 240.679565 411.260254 240.000366 409.552246 239.317139 407.848145 C 242.258789 409.572754 245.20874 411.327148 248.112915 413.481445"/>
        </g>
    </g>
</svg>
