<?xml version="1.0" encoding="UTF-8"?>
<!-- Generated by Pixelmator Pro 3.5.7 -->
<svg class="svg-inline-icon"  viewBox="0 0 501 501" xmlns="http://www.w3.org/2000/svg">
    <g id="Group">
        <path id="Path" fill="#44bf00" stroke="none" d="M 250.5 500.5 C 388.570801 500.5 500.5 388.570801 500.5 250.5 C 500.5 112.429199 388.570801 0.5 250.5 0.5 C 112.429199 0.5 0.5 112.429199 0.5 250.5 C 0.5 388.570801 112.429199 500.5 250.5 500.5"/>
        <clipPath id="clipPath-y8vbE-1">
            <path d="M 0.5 250.5 C 0.5 388.570801 112.428955 500.5 250.5 500.5 L 250.5 500.5 C 388.571045 500.5 500.5 388.570801 500.5 250.5 L 500.5 250.5 C 500.5 112.429199 388.571045 0.5 250.5 0.5 L 250.5 0.5 C 112.428955 0.5 0.5 112.429199 0.5 250.5"/>
        </clipPath>
        <g id="g1" clip-path="url(#clipPath-y8vbE-1)">
            <path id="path1" fill="#66ccff" stroke="none" d="M 0.5 316.529297 L 500.5 316.529297 L 500.5 0.5 L 0.5 0.5 Z"/>
            <path id="path2" fill="none" stroke="#663816" stroke-width="9.295834" stroke-linecap="round" d="M 76.405029 163.189453 L 76.405029 263.848145"/>
            <path id="path3" fill="none" stroke="#663816" stroke-width="2.5" stroke-linecap="round" d="M 123.875 247.621094 C 132.837402 247.621094 140.100098 254.887695 140.100098 263.846191"/>
            <path id="path4" fill="none" stroke="#663816" stroke-width="2.5" stroke-linecap="round" d="M 4.579102 253.643555 C 10.212402 253.643555 14.783447 258.210449 14.783447 263.848145"/>
            <path id="path5" fill="none" stroke="#663816" stroke-width="2.5" stroke-linecap="round" d="M 0.195068 263.847656 C 2.040771 250.151855 13.77417 238.926758 27.974121 238.926758"/>
            <path id="path6" fill="none" stroke="#663816" stroke-width="5" stroke-linecap="round" d="M 123.875 263.847656 L 123.875 252.743164 C 123.875 226.055664 102.241699 204.426758 75.55835 204.426758 C 48.87085 204.426758 27.237549 226.055664 27.237549 252.743164 L 27.237549 263.847656"/>
            <path id="path7" fill="none" stroke="#663816" stroke-width="5" stroke-linecap="round" d="M 104.38208 263.847656 L 104.38208 257.222656 C 104.38208 241.301758 91.478027 228.397461 75.557129 228.397461 C 59.63623 228.397461 46.732178 241.301758 46.732178 257.222656 L 46.732178 263.847656"/>
            <path id="path8" fill="#44bf00" stroke="none" d="M -22.980713 157.672363 C -27.272461 155.118164 -29.664063 150.051758 -28.493408 144.922363 C -27.32666 139.813965 -23.01001 136.297363 -18.064209 135.831055 C -21.676758 132.384766 -22.88501 126.914063 -20.601563 122.172363 C -18.32666 117.45166 -13.334961 114.984863 -8.409912 115.630859 C -11.168213 111.468262 -11.126709 105.864258 -7.847412 101.751465 C -4.57666 97.655762 0.835938 96.355957 5.494141 98.081055 C 3.731689 93.410156 5.023438 87.956055 9.135742 84.676758 C 13.227539 81.414063 18.79834 81.351563 22.956787 84.068359 C 22.277588 79.126465 24.748291 74.093262 29.48999 71.813965 C 34.210938 69.539063 39.652588 70.722656 43.098389 74.297363 C 43.535889 69.322266 47.064941 64.968262 52.194092 63.797363 C 57.30249 62.630859 62.344238 64.997559 64.910889 69.251465 C 66.448242 64.497559 70.852539 61.039063 76.11499 61.039063 C 81.352539 61.039063 85.744141 64.464355 87.29834 69.180664 C 89.852539 64.88916 94.919189 62.497559 100.04834 63.668457 C 105.156738 64.834961 108.67334 69.151855 109.139893 74.097656 C 112.585938 70.480957 118.060791 69.276855 122.79834 71.560059 C 127.519043 73.831055 129.98584 78.82666 129.340088 83.751465 C 133.502441 80.993164 139.11084 81.035156 143.223389 84.318359 C 147.314941 87.581055 148.61499 93.001465 146.889893 97.655762 C 151.560791 95.893555 157.014893 97.180664 160.294189 101.297363 C 163.560791 105.393555 163.619141 110.964355 160.898438 115.118164 C 165.848389 114.438965 170.877441 116.910156 173.160889 121.651855 C 175.431641 126.368164 174.248291 131.813965 170.67749 135.259766 C 175.648438 135.70166 180.002441 139.226563 181.17334 144.355957 C 182.340088 149.464355 179.973389 154.505859 175.723389 157.072266 C 180.473389 158.605957 183.935791 163.01416 183.935791 168.276855 C 183.935791 168.539063 183.873291 168.780762 183.856689 169.039063 C 183.885742 169.293457 183.935791 169.539063 183.935791 169.801758 L 183.935791 169.805664 C 183.935791 175.813965 179.064941 180.685059 173.05249 180.685059 L -17.168213 180.685059 L -17.168213 180.372559 C -17.872559 180.501465 -18.555908 180.685059 -19.297607 180.685059 C -25.82666 180.685059 -31.122559 175.38916 -31.122559 168.855957 C -31.122559 163.618164 -27.69751 159.226563 -22.980713 157.672363"/>
            <path id="path9" fill="none" stroke="#663816" stroke-width="9.295834" stroke-linecap="round" d="M 429.345459 163.189453 L 429.345459 263.848145"/>
            <path id="path10" fill="none" stroke="#663816" stroke-width="2.5" stroke-linecap="round" d="M 476.815918 247.621094 C 485.77832 247.621094 493.040771 254.887695 493.040771 263.846191"/>
        </g>
        <clipPath id="clipPath-y8vbE-2">
            <path d="M 0.5 250.5 C 0.5 388.570801 112.428955 500.5 250.5 500.5 L 250.5 500.5 C 388.571045 500.5 500.5 388.570801 500.5 250.5 L 500.5 250.5 C 500.5 112.429199 388.571045 0.5 250.5 0.5 L 250.5 0.5 C 112.428955 0.5 0.5 112.429199 0.5 250.5"/>
        </clipPath>
        <g id="g2" clip-path="url(#clipPath-y8vbE-2)">
            <path id="path11" fill="none" stroke="#663816" stroke-width="2.5" stroke-linecap="round" d="M 357.519531 253.643555 C 363.152832 253.643555 367.723633 258.210449 367.723633 263.848145"/>
            <path id="path12" fill="none" stroke="#663816" stroke-width="2.5" stroke-linecap="round" d="M 353.135498 263.847656 C 354.981201 250.151855 366.7146 238.926758 380.914551 238.926758"/>
            <path id="path13" fill="none" stroke="#663816" stroke-width="5" stroke-linecap="round" d="M 476.815918 263.847656 L 476.815918 252.743164 C 476.815918 226.055664 455.182617 204.426758 428.499268 204.426758 C 401.811768 204.426758 380.178223 226.055664 380.178223 252.743164 L 380.178223 263.847656"/>
            <path id="path14" fill="none" stroke="#663816" stroke-width="5" stroke-linecap="round" d="M 457.32251 263.847656 L 457.32251 257.222656 C 457.32251 241.301758 444.418213 228.397461 428.497559 228.397461 C 412.57666 228.397461 399.672607 241.301758 399.672607 257.222656 L 399.672607 263.847656"/>
            <path id="path15" fill="#44bf00" stroke="none" d="M 329.959473 157.672363 C 325.667969 155.118164 323.276367 150.051758 324.447021 144.922363 C 325.61377 139.813965 329.93042 136.297363 334.876221 135.831055 C 331.263672 132.384766 330.05542 126.914063 332.338867 122.172363 C 334.61377 117.45166 339.605469 114.984863 344.530518 115.630859 C 341.771973 111.468262 341.813721 105.864258 345.093018 101.751465 C 348.36377 97.655762 353.776367 96.355957 358.43457 98.081055 C 356.672119 93.410156 357.963867 87.956055 362.076172 84.676758 C 366.167969 81.414063 371.73877 81.351563 375.896973 84.068359 C 375.218018 79.126465 377.688721 74.093262 382.43042 71.813965 C 387.151367 69.539063 392.593018 70.722656 396.038818 74.297363 C 396.476318 69.322266 400.005371 64.968262 405.134521 63.797363 C 410.24292 62.630859 415.284668 64.997559 417.851318 69.251465 C 419.388672 64.497559 423.792969 61.039063 429.05542 61.039063 C 434.292969 61.039063 438.68457 64.464355 440.23877 69.180664 C 442.792969 64.88916 447.859619 62.497559 452.98877 63.668457 C 458.097168 64.834961 461.61377 69.151855 462.080322 74.097656 C 465.526367 70.480957 471.001221 69.276855 475.73877 71.560059 C 480.459473 73.831055 482.92627 78.82666 482.280518 83.751465 C 486.442871 80.993164 492.05127 81.035156 496.163818 84.318359 C 500.255371 87.581055 501.55542 93.001465 499.830322 97.655762 C 504.501221 95.893555 509.955322 97.180664 513.234619 101.297363 C 516.501221 105.393555 516.55957 110.964355 513.838867 115.118164 C 518.788818 114.438965 523.817871 116.910156 526.101318 121.651855 C 528.37207 126.368164 527.188721 131.813965 523.61792 135.259766 C 528.588867 135.70166 532.942871 139.226563 534.11377 144.355957 C 535.280518 149.464355 532.913818 154.505859 528.663818 157.072266 C 533.413818 158.605957 536.876221 163.01416 536.876221 168.276855 C 536.876221 168.539063 536.813721 168.780762 536.797119 169.039063 C 536.826172 169.293457 536.876221 169.539063 536.876221 169.801758 L 536.876221 169.805664 C 536.876221 175.813965 532.005371 180.685059 525.99292 180.685059 L 335.771973 180.685059 L 335.771973 180.372559 C 335.067871 180.501465 334.384521 180.685059 333.642822 180.685059 C 327.11377 180.685059 321.817871 175.38916 321.817871 168.855957 C 321.817871 163.618164 325.24292 159.226563 329.959473 157.672363"/>
            <path id="path16" fill="none" stroke="#663816" stroke-width="9.295834" stroke-linecap="round" d="M 251.463379 182.719727 L 251.463379 283.37793"/>
            <path id="path17" fill="none" stroke="#663816" stroke-width="2.5" stroke-linecap="round" d="M 298.933838 267.150879 C 307.89624 267.150879 315.158691 274.41748 315.158691 283.375977"/>
            <path id="path18" fill="none" stroke="#663816" stroke-width="2.5" stroke-linecap="round" d="M 179.637451 273.172852 C 185.270752 273.172852 189.841553 277.739746 189.841553 283.376953"/>
            <path id="path19" fill="none" stroke="#663816" stroke-width="2.5" stroke-linecap="round" d="M 175.253662 283.376465 C 177.099609 269.680664 188.833008 258.456055 203.032959 258.456055"/>
            <path id="path20" fill="none" stroke="#663816" stroke-width="5" stroke-linecap="round" d="M 298.933838 283.376465 L 298.933838 272.272461 C 298.933838 245.584961 277.300537 223.956055 250.617188 223.956055 C 223.929688 223.956055 202.296143 245.584961 202.296143 272.272461 L 202.296143 283.376465"/>
            <path id="path21" fill="none" stroke="#663816" stroke-width="5" stroke-linecap="round" d="M 279.44043 283.376465 L 279.44043 276.751465 C 279.44043 260.831055 266.536133 247.926758 250.615479 247.926758 C 234.69458 247.926758 221.790527 260.831055 221.790527 276.751465 L 221.790527 283.376465"/>
            <path id="path22" fill="#368900" stroke="none" d="M 152.077393 177.20166 C 147.785889 174.647461 145.394287 169.581055 146.564941 164.45166 C 147.731689 159.343262 152.04834 155.82666 156.994141 155.359863 C 153.381592 151.914063 152.17334 146.443359 154.456787 141.70166 C 156.731689 136.980957 161.723389 134.51416 166.648438 135.160156 C 163.889893 130.997559 163.931641 125.393555 167.210938 121.280762 C 170.481689 117.185059 175.894287 115.884766 180.55249 117.609863 C 178.790039 112.938965 180.081787 107.484863 184.194092 104.206055 C 188.285889 100.943359 193.856689 100.880859 198.014893 103.597656 C 197.335938 98.655762 199.806641 93.622559 204.54834 91.343262 C 209.269287 89.068359 214.710938 90.251465 218.156738 93.82666 C 218.594238 88.851563 222.123291 84.497559 227.252441 83.32666 C 232.36084 82.160156 237.402588 84.526855 239.969238 88.780762 C 241.506592 84.026855 245.910889 80.568359 251.17334 80.568359 C 256.410889 80.568359 260.80249 83.993164 262.356689 88.709961 C 264.910889 84.418457 269.981689 82.026855 275.106689 83.197266 C 280.215088 84.364258 283.731689 88.680664 284.198242 93.626465 C 287.644043 90.009766 293.119141 88.805664 297.856689 91.089355 C 302.577393 93.359863 305.044189 98.355957 304.398438 103.280762 C 308.560791 100.522461 314.169189 100.563965 318.281738 103.847656 C 322.373291 107.109863 323.67334 112.530762 321.948242 117.185059 C 326.619141 115.422363 332.073242 116.709961 335.352539 120.82666 C 338.619141 124.922363 338.67749 130.493164 335.956787 134.647461 C 340.906738 133.968262 345.935791 136.438965 348.219238 141.180664 C 350.48999 145.897461 349.306641 151.343262 345.73584 154.789063 C 350.706787 155.230957 355.060791 158.755859 356.231689 163.884766 C 357.398438 168.993164 355.031738 174.035156 350.781738 176.601563 C 355.531738 178.134766 358.994141 182.543457 358.994141 187.805664 C 358.994141 188.068359 358.931641 188.310059 358.915039 188.568359 C 358.944092 188.822266 358.994141 189.068359 358.994141 189.331055 L 358.994141 189.334961 C 358.994141 195.343262 354.123291 200.214355 348.11084 200.214355 L 157.889893 200.214355 L 157.889893 199.901855 C 157.185791 200.030762 156.502441 200.214355 155.760742 200.214355 C 149.231689 200.214355 143.935791 194.918457 143.935791 188.384766 C 143.935791 183.147461 147.36084 178.755859 152.077393 177.20166"/>
            <path id="path23" fill="#286fb7" stroke="none" d="M 594.779541 277.154297 L 594.779541 613.212402 L -66.66626 613.212402 L -66.66626 266.320801 C -57.453735 275.904297 -44.516235 281.862305 -30.178711 281.862305 C -17.299561 281.862305 -5.591309 277.049805 3.350342 269.149902 C 12.287842 277.049805 24.000488 281.862305 36.875488 281.862305 C 49.754639 281.862305 61.508789 277.049805 70.425293 269.149902 C 79.342041 277.070801 91.096191 281.862305 103.950439 281.862305 C 116.808838 281.862305 128.58374 277.049805 137.500488 269.133301 C 146.437988 277.049805 158.150391 281.862305 171.025391 281.862305 C 183.904541 281.862305 195.617188 277.049805 204.554688 269.133301 C 213.475342 277.049805 225.246338 281.862305 238.104492 281.862305 C 250.95874 281.862305 262.733643 277.049805 271.650391 269.149902 C 280.571289 277.070801 292.300293 281.862305 305.179688 281.862305 C 318.058838 281.862305 329.76709 277.049805 338.70874 269.149902 C 347.64624 277.049805 359.375488 281.862305 372.258789 281.862305 C 385.113037 281.862305 396.863037 277.070801 405.783691 269.149902 C 414.700439 277.070801 426.45459 281.862305 439.312988 281.862305 C 452.166992 281.862305 463.942139 277.049805 472.858643 269.133301 C 481.800537 277.049805 493.508789 281.862305 506.387939 281.862305 C 519.262939 281.862305 530.975342 277.049805 539.912842 269.133301 C 548.83374 277.049805 560.608643 281.862305 573.462891 281.862305 C 581.071289 281.862305 588.300537 280.174805 594.779541 277.154297"/>
            <path id="path24" fill="#0d517f" stroke="none" d="M 371.004639 505.268555 C 381.113037 504.914063 390.687988 502.622559 399.400391 498.76416 C 419.675537 489.785156 442.471191 487.151855 463.037842 495.438965 C 475.825439 500.589355 490.275391 502.397461 505.300293 499.793457 C 539.33374 493.88916 565.946289 464.597656 568.650391 430.160156 C 572.325439 383.313965 534.587891 345.051758 489.000488 346.655762 C 478.887939 347.009766 469.312988 349.301758 460.604492 353.160156 C 439.450439 362.530762 416.125488 363.351563 394.363037 355.489258 C 385.404541 352.255859 375.687988 350.63916 365.57959 350.997559 C 355.471191 351.351563 345.89624 353.643555 337.187988 357.501465 C 316.029541 366.872559 292.70874 367.688965 270.946289 359.831055 C 261.988037 356.593262 252.27124 354.976563 242.162842 355.334961 C 232.050537 355.688965 222.475342 357.984863 213.76709 361.839355 C 192.608643 371.209961 169.287842 372.030762 147.525391 364.172363 C 138.567139 360.935059 128.854492 359.318359 118.746338 359.676758 C 108.633789 360.030762 99.058838 362.322266 90.350342 366.180664 C 70.075439 375.160156 47.275391 377.793457 26.712891 369.505859 C 13.925537 364.351563 -0.528809 362.543457 -15.549561 365.147461 C -49.582886 371.051758 -76.199585 400.347656 -78.899536 434.785156 C -82.574585 481.626465 -44.837036 519.88916 0.750488 518.289063 C 10.858643 517.935059 20.433838 515.63916 29.14624 511.780762 C 50.300293 502.410156 73.621338 501.589355 95.383789 509.45166 C 104.346191 512.688965 114.058838 514.301758 124.171143 513.947266 C 134.279541 513.593262 143.854492 511.297363 152.562988 507.438965 C 173.721191 498.072266 197.041992 497.251465 218.804688 505.114258 C 227.762939 508.347656 237.475342 509.964355 247.587891 509.609863 C 257.696289 509.251465 267.275391 506.959961 275.983643 503.101563 C 297.137939 493.730957 320.462891 492.910156 342.225342 500.772461 C 351.183838 504.009766 360.89624 505.622559 371.004639 505.268555"/>
            <path id="path25" fill="#389d00" stroke="none" d="M 391.135498 463.07666 C 391.197998 462.209961 391.256348 461.368164 391.314697 460.563965 C 391.21875 460.293457 391.122803 460.018555 391.0271 459.739258 C 390.364502 457.893555 389.59375 455.805664 390.210449 452.160156 C 392.002197 441.497559 387.4104 434.597656 382.306152 432.572266 C 378.614502 431.126465 376.4646 431.047363 374.2771 431.051758 C 374.806152 433.084961 375.502197 434.522461 376.206299 436.005859 C 377.422852 438.568359 378.693848 441.197266 379.3396 446.605957 C 379.506348 447.947266 379.485352 449.368164 379.4646 450.743164 C 379.427002 453.51416 379.418701 456.130859 380.806152 457.581055 C 382.568848 459.405762 383.856201 459.743164 385.477051 460.176758 C 387.122803 460.614258 388.956299 461.122559 391.135498 463.07666 M 424.6521 361.530762 C 424.164551 368.218262 423.018799 371.597656 421.9104 374.872559 C 420.84375 378.07666 419.814697 381.118164 419.514648 387.435059 C 419.460449 388.480957 419.568848 389.655762 419.702148 390.893555 C 420.006348 393.95166 420.364502 397.418457 418.193848 400.063965 C 414.477051 404.593262 411.868652 406.331055 409.34375 408.005859 C 406.943848 409.605957 404.672852 411.109863 401.352051 415.285156 C 400.443848 416.422363 400.693848 418.447266 400.956299 420.601563 C 401.127197 422.018555 401.306152 423.489258 401.181152 424.884766 C 400.252197 434.880859 398.956299 439.918457 397.685303 444.805664 C 396.606201 449.009766 395.581299 453.043457 394.943848 460.206055 C 395.377197 461.688965 395.6521 463.484863 395.252197 466.084961 C 395.114502 466.943359 394.5979 467.618164 393.8479 467.922363 L 393.689697 467.984863 C 391.672852 468.643555 389.393799 466.364258 389.297852 466.268555 C 387.522949 464.468262 386.231201 464.134766 384.614502 463.70166 C 382.802002 463.222656 380.747803 462.672363 378.268799 460.118164 C 375.818848 457.568359 375.831299 453.884766 375.877197 450.63916 C 375.893799 449.32666 375.914551 448.089355 375.7771 446.997559 C 375.206299 442.20166 374.118652 439.956055 372.981201 437.560059 C 372.106201 435.722656 371.206299 433.843262 370.564697 430.922363 C 368.852051 430.734863 366.8479 430.289063 364.197998 429.20166 C 360.885498 427.834961 359.397949 424.331055 358.122803 421.230957 C 357.622803 420.018555 357.143799 418.872559 356.5979 417.910156 C 351.085449 408.147461 347.743652 403.759766 344.189697 399.105957 C 340.706299 394.535156 337.114502 389.785156 331.789551 379.443359 C 331.318848 378.530762 331.643799 377.410156 332.518799 376.947266 C 333.389648 376.484863 334.481201 376.851563 334.952148 377.76416 C 340.118652 387.805664 343.460449 392.218262 346.993652 396.864258 C 350.46875 401.422363 354.056152 406.118164 359.697998 416.109863 C 360.352051 417.280762 360.9021 418.584961 361.427002 419.851563 C 362.518799 422.509766 363.577148 425.018555 365.489502 425.805664 C 367.28125 426.543457 368.7146 426.938965 369.960449 427.155762 L 369.935303 426.910156 C 369.789551 425.443359 369.914551 424.118164 370.039551 422.843262 C 370.2854 420.218262 370.506348 418.13916 368.2854 415.376465 C 364.768799 411.789063 357.239502 402.397461 361.443848 393.355957 C 363.943848 387.984863 366.09375 385.709961 368.177002 383.505859 C 370.15625 381.418457 372.010498 379.443359 374.356201 374.668457 C 374.793701 373.780762 375.864502 373.418457 376.752197 373.855957 C 377.639648 374.293457 378.002197 375.368164 377.564697 376.255859 C 374.997803 381.526855 372.852051 383.805664 370.772949 386.009766 C 368.806152 388.105957 366.943848 390.084961 364.685303 394.943359 C 361.418701 401.984863 367.927002 409.88916 370.877197 412.893555 L 370.989502 413.022461 C 374.227051 416.997559 373.885498 420.310059 373.606201 423.247559 C 373.493652 424.393555 373.389648 425.480957 373.502197 426.581055 C 373.5354 426.868164 373.564697 427.143555 373.5979 427.405762 L 373.872803 427.410156 C 376.422852 427.410156 379.064697 427.414063 383.577148 429.206055 C 388.689697 431.218262 393.164551 436.518555 394.043701 444.57666 L 394.2229 443.884766 C 395.506348 438.930664 396.7229 434.255859 397.618652 424.560059 C 397.7146 423.547363 397.564697 422.331055 397.40625 421.039063 C 397.077148 418.384766 396.727051 415.372559 398.556152 413.081055 C 402.2229 408.484863 404.852051 406.755859 407.377197 405.084961 C 409.789551 403.493164 412.064697 401.984863 415.431152 397.893555 C 416.668701 396.393555 416.418701 393.914063 416.147949 391.293457 C 416.018799 389.984863 415.889648 388.630859 415.952148 387.334961 C 416.2771 380.543457 417.418701 377.143555 418.5271 373.859863 C 419.610352 370.655762 420.639648 367.626465 421.0979 361.368164 C 421.168701 360.414063 422.018799 359.685059 423.006348 359.730957 C 423.985352 359.776855 424.7229 360.581055 424.6521 361.530762"/>
            <path id="path26" fill="#349100" stroke="none" d="M 109.394531 441.906738 C 109.998779 441.152344 110.57373 440.381836 111.111328 439.581543 C 115.515381 433.311035 117.552979 425.631836 117.50293 418.377441 C 119.406982 417.677734 121.290527 416.910645 123.165527 416.085938 C 130.82373 412.723145 136.50293 404.890137 137.515381 395.335938 C 137.911133 391.677734 138.19873 387.98584 138.294678 384.277344 C 135.57373 387.219238 132.69873 390.015137 129.81958 392.644043 C 124.103027 397.890137 120.223633 404.714844 118.640381 412.160645 C 118.294678 413.769043 117.906982 415.369141 117.486328 416.960938 C 117.44043 416.077637 117.402832 415.202637 117.31958 414.327637 C 116.040527 401.740234 115.615479 389.439941 116.211182 376.814941 L 116.240479 376.29834 C 117.590332 374.602539 118.88623 372.865234 120.19043 371.073242 C 125.12793 364.314941 126.023682 354.623535 122.390381 346.194336 C 120.998779 342.952637 119.486328 339.781738 117.911133 336.652344 C 116.915527 340.54834 115.802979 344.335938 114.552979 348.023438 C 112.098633 355.327637 112.031982 362.973145 114.340332 370.123535 C 114.673828 371.119141 114.994629 372.123535 115.277832 373.135742 C 115.240479 374.352539 115.240479 375.552734 115.165527 376.760742 C 114.898682 382.561035 114.848633 388.293945 114.982178 394.015137 C 114.81543 393.002441 114.57373 392.002441 114.365479 391.006836 C 112.686279 383.04834 106.57373 376.944336 98.906982 374.981445 C 95.902832 374.206543 92.978027 373.519043 89.990479 372.939941 C 91.711182 375.602539 93.361328 378.356445 94.853027 381.219238 C 97.848633 386.827637 103.07373 391.598145 109.807129 394.635742 C 111.56543 395.42334 113.327881 396.240234 115.086182 397.102539 C 115.290527 402.86084 115.69873 408.61084 116.281982 414.436035 C 116.75293 419.515137 116.348633 424.823242 114.715332 429.890137 C 114.898682 429.098145 115.044678 428.306641 115.173828 427.510742 C 115.915527 423.29834 115.202881 419.127441 113.461182 415.61084 C 111.719482 412.077637 108.990479 409.160645 105.57373 407.035645 C 102.965332 405.402344 100.298828 403.873535 97.603027 402.448242 C 98.540527 405.552734 99.286133 408.814941 99.927979 411.936035 C 101.202881 418.052734 104.607178 423.648438 109.544678 429.23584 C 110.81958 430.648438 112.061279 432.144043 113.248779 433.714844 C 112.394531 435.540039 111.432129 437.327637 110.25708 438.973145 C 107.998779 442.248535 105.269531 445.248535 102.44873 447.827637 C 99.648682 450.427734 96.836182 452.852539 94.498779 455.660645 C 95.086182 454.519043 95.728027 453.377441 96.44873 452.269043 C 98.598633 448.877441 100.415527 445.043945 100.63208 441.244141 C 100.869629 437.464844 99.682129 433.802734 97.37793 430.727539 C 95.598633 428.339844 93.648682 426.160645 91.561279 424.177734 C 91.56543 426.54834 91.336182 428.92334 90.740479 431.348145 C 90.436279 432.573242 90.307129 433.752441 89.94458 435.398438 C 89.57373 437.035645 89.269531 438.806641 89.048828 440.727539 C 88.648682 444.506836 88.894531 448.648438 90.44458 452.189941 C 91.248779 454.019043 92.13623 455.790039 93.240479 457.373535 C 91.686279 459.652344 90.715332 462.523438 91.728027 465.277344 C 91.81543 465.54834 92.098633 465.681641 92.365479 465.564941 L 92.398682 465.552734 C 92.640381 465.427734 92.781982 465.156738 92.715332 464.936035 C 91.673828 461.98584 93.098633 459.040039 95.19043 456.477539 C 97.294678 453.890137 99.94043 451.569336 102.611328 449.102539 C 104.494629 449.561035 106.398682 449.98584 108.353027 450.327637 C 112.498779 450.990234 117.173828 450.148438 121.465332 447.619141 C 125.765381 445.119141 129.623779 440.92334 132.115479 435.869141 C 134.048828 431.977539 135.611328 428.010742 136.898682 424.098145 C 133.373779 426.385742 129.69043 428.477539 125.994629 430.219238 C 119.773682 433.186035 114.286133 437.390137 109.394531 441.906738"/>
            <path id="path27" fill="#349100" stroke="none" d="M 248.459473 439.312012 L 248.99292 436.774414 C 250.36792 430.091309 250.817871 423.274414 250.343018 416.507813 L 255.667969 414.228516 C 262.888672 411.124512 268.30127 404.803711 270.322021 397.216309 L 272.672119 388.461914 L 263.313721 393.970215 C 257.151367 397.616211 252.80127 403.678711 251.24707 410.678711 L 250.24707 415.183105 C 250.163818 414.370605 250.084473 413.549805 250.001221 412.720215 C 248.584473 400.845215 249.784668 388.583008 253.709473 377.287109 L 253.87207 376.824707 L 258.98877 373.336914 C 265.480469 368.933105 269.61377 361.945313 270.338867 354.312012 L 271.234619 345.487305 L 262.888672 352.274414 C 257.42627 356.820313 254.155518 363.558105 253.976318 370.711914 L 253.896973 373.695313 L 252.759521 376.958008 C 250.938721 382.183105 249.705322 387.628906 249.030518 393.137207 L 248.905518 390.157715 C 248.584473 382.303711 244.709473 375.024414 238.417969 370.291016 L 231.130371 364.782715 L 232.822021 375.687012 C 233.963867 382.841309 238.047119 389.091309 244.026367 393.028809 L 248.726318 396.120605 C 248.251221 401.691406 248.338867 407.299805 249.005371 412.841309 C 249.576172 417.678711 249.68042 422.553711 249.30127 427.403809 L 249.24292 425.17041 C 249.042969 417.29541 245.159668 409.999512 238.822021 405.382813 L 231.472168 400.041016 L 233.255371 410.699707 C 234.417969 417.703613 238.413818 423.916016 244.317871 427.961914 L 248.917969 431.124512 C 248.67627 432.945313 248.376221 434.762207 248.005371 436.570313 C 246.501221 443.703613 244.951172 450.820313 243.167969 457.882813 L 243.263672 454.041016 C 243.388672 446.166016 239.755371 438.753906 233.517822 434.028809 L 226.292969 428.586914 L 227.813721 439.086914 C 228.776367 445.999512 232.501221 452.278809 238.205322 456.583008 L 242.655518 459.966309 L 240.501221 468.178711 C 240.42627 468.445313 240.588867 468.724609 240.855469 468.79541 L 240.892822 468.808105 C 241.151367 468.85791 241.401367 468.703613 241.468018 468.445313 C 243.267822 461.728516 245.001221 454.970215 246.513672 448.166016 L 251.73877 446.153809 C 259.063721 443.299805 264.713867 437.007813 266.880371 429.274414 L 269.36377 420.345215 L 259.93042 425.870605 C 254.667969 428.933105 250.651367 433.703613 248.459473 439.312012"/>
            <path id="path28" fill="#389d00" stroke="none" d="M 330.925537 469.540527 L 333.233643 467.407227 C 333.783691 466.898926 334.041992 466.194824 333.875488 465.677734 C 333.258789 463.682129 332.304688 461.994629 331.387939 460.302734 C 330.89624 459.478027 330.342041 458.703125 329.725342 457.965332 C 329.179688 457.19043 328.558838 456.457031 327.871338 455.757324 C 326.321289 454.307129 325.129639 452.611328 323.729492 450.961426 C 321.229492 447.548828 320.154541 443.157227 320.988037 438.990234 C 321.537842 436.673828 322.046143 434.469727 322.921143 432.373535 C 323.571289 430.432129 324.279541 428.57373 324.504639 426.682129 C 324.971191 424.81543 324.971191 422.894531 325.029541 420.907227 C 324.937988 414.907227 326.192139 408.527832 328.712891 402.348633 C 328.916992 401.802734 328.592041 401.044434 327.942139 400.552734 L 325.738037 398.902832 C 325.037842 398.373535 324.158691 398.369629 323.721191 398.890625 C 320.275391 402.682129 317.429688 407.069824 315.012939 411.769531 C 314.221191 413.50293 313.492188 415.294434 313.27124 417.211426 C 312.787842 419.844727 312.658691 422.515625 312.537842 425.144531 C 312.596191 427.844727 312.262939 430.478027 311.921143 433.169434 C 311.104492 438.723633 311.121338 444.557129 312.041992 450.369629 C 312.929688 455.132324 315.26709 459.694824 319.004639 462.757324 C 322.196289 465.561035 325.64624 467.88623 329.104492 469.907227 C 329.613037 470.215332 330.363037 470.061035 330.925537 469.540527"/>
            <path id="path29" fill="#54c415" stroke="none" d="M 322.924561 417.384766 C 322.874512 421.831055 321.778809 425.593262 319.782959 429.768555 C 318.645508 432.226563 317.591309 434.876465 316.878662 437.676758 C 315.378662 443.218262 316.703857 449.197266 320.282959 453.626465 L 322.803711 456.563965 L 325.520508 459.251465 C 327.98291 461.568359 329.870361 464.230957 331.274658 467.380859 C 328.112061 465.805664 325.011963 463.918457 322.016357 461.693359 C 318.132813 458.864258 315.678711 454.526855 314.98291 449.801758 C 314.17041 443.526855 314.453857 437.301758 315.770508 431.539063 C 316.449463 428.501465 316.874512 425.535156 317.028809 422.480957 C 317.016357 421.089355 317.278809 419.739258 317.42041 418.351563 C 317.54541 416.95166 317.845459 415.593262 318.153809 414.222656 C 318.47876 412.418457 319.245361 410.730957 320.212158 409.185059 C 321.011963 407.76416 322.04541 406.484863 322.995361 405.180664 C 323.903809 403.851563 325.024658 402.672363 326.074463 401.468262 C 324.128662 406.759766 323.016357 412.168457 322.924561 417.384766"/>
            <path id="path30" fill="#389d00" stroke="none" d="M 453.736328 466.941406 L 456.402832 465.270508 C 457.031982 464.874512 457.415527 464.23291 457.340332 463.699707 C 456.740479 459.620605 455.228027 456.10791 452.840332 452.941406 C 451.515381 451.274414 450.332031 449.507813 449.098633 447.737305 C 446.728027 444.162109 445.682129 439.870605 446.090332 435.528809 C 446.353027 433.099609 446.603027 430.724609 446.982178 428.336914 C 447.619629 423.945313 447.165527 419.662109 445.50293 415.553711 C 443.00708 409.395508 440.732178 402.999512 438.478027 396.570313 C 438.281982 396.007813 437.544678 395.657715 436.732178 395.745605 L 433.994629 396.024414 C 433.123779 396.112305 432.44873 396.67041 432.44873 397.299805 C 432.423828 402.041016 432.427979 406.812012 432.523682 411.612305 C 432.557129 413.345215 432.790527 415.066406 433.240479 416.753906 C 433.840332 419.10791 434.519531 421.458008 435.19043 423.79541 C 435.911133 426.183105 436.25708 428.632813 436.31958 431.149414 C 436.432129 436.349609 436.76123 441.628906 437.494629 446.961914 C 438.144531 451.370605 440.052979 455.578613 443.219482 458.85791 C 445.957031 461.79541 448.902832 464.495605 451.88208 466.999512 C 452.32373 467.374512 453.086182 467.349609 453.736328 466.941406"/>
            <path id="path31" fill="#54c415" stroke="none" d="M 442.112549 412.970703 C 443.966553 417.25 444.345947 421.641602 443.354248 426.295898 C 442.795898 429.037598 442.258301 431.825195 441.845947 434.641602 C 440.99585 440.212402 442.25415 445.679199 445.479248 450.191895 C 446.979248 452.237305 448.487549 454.237305 450.108398 456.137695 C 452.241699 458.700195 453.69165 461.616699 454.479248 464.912598 C 451.679199 462.845703 448.954102 460.583496 446.329102 458.129395 C 442.904053 455 440.949951 450.858398 440.420898 446.395996 C 439.80835 440.475098 439.658447 434.641602 439.80835 428.891602 C 439.87915 425.858398 439.49585 422.904297 438.633301 420.037598 C 437.845947 417.462402 437.116699 414.862305 436.416748 412.25 C 435.958252 410.5625 435.733398 408.8125 435.75415 407.0625 L 435.899902 397.649902 C 437.920898 402.804199 439.949951 407.954102 442.112549 412.970703"/>
            <path id="path32" fill="#389d00" stroke="none" d="M 60.037598 461.76709 L 62.070801 464.166992 C 62.554199 464.733887 63.241699 465.004395 63.758301 464.825195 C 67.729248 463.475586 71.108398 460.883789 73.241699 457.312988 C 74.429199 455.450195 75.470947 453.483887 76.541748 451.583984 C 78.5625 447.696289 81.445801 444.562988 85.024902 441.871094 C 87.070801 440.416992 88.991699 438.804688 90.954102 437.150391 C 94.55835 434.062988 96.908447 429.750488 97.670898 425.066895 C 98.75415 418.021484 98.970947 410.975586 98.283447 404.212891 C 98.229248 403.621094 97.595947 403.125488 96.787598 403.033691 L 94.054199 402.708984 C 93.18335 402.608887 92.395752 402.958984 92.24585 403.51709 C 91.208252 407.733887 89.712402 411.800293 87.929199 415.687988 C 87.320801 417.104492 86.766602 418.533691 86.408447 420.046387 C 85.883301 422.146484 85.295898 424.250488 84.574951 426.325195 C 83.883301 428.458984 82.68335 430.383789 81.1875 432.058594 C 78 435.475586 74.604248 438.600586 71.06665 441.471191 C 68.095947 443.821289 65.908447 446.800293 64.320801 450.396484 C 62.945801 453.617188 61.358398 456.796387 59.62915 459.962891 C 59.375 460.437988 59.541748 461.183594 60.037598 461.76709"/>
            <path id="path33" fill="#54c415" stroke="none" d="M 95.991211 421.03125 C 95.657959 425.814453 93.328857 430.072754 89.60791 433.131348 C 87.399658 434.935547 85.112061 436.585449 82.837158 438.139648 C 78.270508 441.164551 74.987061 444.785645 72.682861 449.506348 C 71.632813 451.668945 70.487061 453.793945 69.274658 455.910645 C 67.645508 458.739746 65.136963 460.927246 62.087158 462.189453 C 63.587158 459.151855 64.932861 456.085449 66.132813 453.018555 C 67.657959 449.064453 69.953857 446.010254 73.162109 443.585449 C 77.395508 440.376953 81.449463 436.797852 85.220459 432.789551 C 87.212158 430.685547 88.662109 428.135254 89.437012 425.364746 C 90.16626 422.881348 90.724609 420.360352 91.208008 417.856445 C 91.470459 416.21875 92.011963 414.660645 92.595459 413.114746 C 93.17041 411.743652 93.724609 410.356445 94.178711 408.935547 C 94.695313 407.522949 95.132813 406.089355 95.516357 404.635254 C 96.253662 409.918945 96.407959 415.439453 95.991211 421.03125"/>
            <path id="path34" fill="#389d00" stroke="none" d="M 161.084229 465.612793 L 164.155029 464.929688 C 164.879883 464.76709 165.41748 464.14209 165.47168 463.396484 C 165.85498 457.700195 165.10498 452.033691 163.263428 446.646484 C 162.280029 443.771484 161.330078 440.879395 160.41333 437.967285 C 158.571777 432.171387 158.138428 425.987793 159.03833 419.996094 C 159.580078 416.666992 160.10083 413.358887 160.72998 410.066895 C 161.838379 403.967285 161.804932 397.76709 160.625732 391.696289 C 158.842529 382.583984 157.405029 373.350586 156.317383 364.012695 C 156.22168 363.200195 155.554932 362.571289 154.738281 362.521484 L 151.988281 362.367188 C 151.117432 362.316895 150.35498 362.958984 150.246582 363.842285 C 149.363281 370.492188 148.72583 377.175293 148.205078 383.883789 C 148.030029 386.308594 148.03833 388.746094 148.304932 391.158691 C 148.629883 394.538086 149.054932 397.904785 149.463379 401.262695 C 149.938232 404.679688 150.004883 408.133789 149.79248 411.57959 C 149.325928 418.696289 149.009277 425.867188 148.959229 433.054688 C 148.90918 439.025391 150.109131 444.983887 152.54248 450.421387 C 154.66333 455.254395 156.925781 460.012695 159.22998 464.708984 C 159.571777 465.408691 160.334229 465.779785 161.084229 465.612793"/>
            <path id="path35" fill="#54c415" stroke="none" d="M 157.557617 387.466309 C 158.90332 393.770508 158.799072 400.058105 157.33667 406.382813 C 156.478271 410.112305 155.640869 413.874512 154.907471 417.662109 C 153.415771 425.153809 153.924072 432.770508 156.39502 439.974609 C 157.557617 443.262207 158.699219 446.537109 159.936768 449.778809 C 161.553223 454.128906 162.374268 458.749512 162.324219 463.416016 C 160.070068 459.262207 157.878418 455.049805 155.77832 450.770508 C 153.036621 445.287109 151.790771 439.308105 151.96167 433.211914 C 152.21167 425.166016 152.740723 417.17041 153.515869 409.237305 C 153.924072 405.053711 153.844971 400.85791 153.303223 396.708008 C 152.811768 392.970215 152.353271 389.220215 151.990723 385.461914 C 151.736572 383.024414 151.736572 380.54541 151.999268 378.103516 C 152.445068 373.724609 152.978271 369.35791 153.59082 365.007813 C 154.690918 372.574707 155.990723 380.070313 157.557617 387.466309"/>
            <path id="path36" fill="#389d00" stroke="none" d="M 186.495117 466.626465 L 189.632568 466.855957 C 190.374268 466.910156 191.053223 466.597656 191.299072 466.093262 C 193.165771 462.230957 193.786621 458.035156 193.09082 453.88916 L 191.940918 447.255859 C 191.157471 442.864258 191.544922 438.443359 193.128418 434.180664 L 195.703369 427.047363 C 197.27417 422.622559 197.486572 417.968262 196.324219 413.480957 C 194.59082 406.751465 192.736572 400.081055 190.761719 393.472656 C 190.59082 392.897461 189.874268 392.509766 189.057617 392.560059 L 186.311768 392.726563 C 185.436768 392.780762 184.736572 393.310059 184.703369 393.938965 C 184.486572 398.668457 184.182617 403.393555 183.83667 408.105957 C 183.71167 409.805664 183.77417 411.509766 184.007568 413.197266 L 184.96582 420.293457 C 185.265869 422.706055 185.190918 425.143555 184.690918 427.539063 C 183.665771 432.497559 182.594971 437.430664 181.436768 442.331055 C 180.478271 446.401855 180.615723 450.560059 181.820068 454.647461 C 182.90332 458.276855 183.928223 461.926758 184.936768 465.601563 C 185.08667 466.147461 185.728271 466.572266 186.495117 466.626465"/>
            <path id="path37" fill="#54c415" stroke="none" d="M 193.255859 410.414551 C 194.63501 414.989746 194.418213 419.664551 192.57251 424.197754 L 189.251709 432.172852 C 187.026611 437.393555 186.489258 442.702148 187.647461 448.09375 L 189.176758 455.506348 C 189.847412 458.827148 189.518311 462.223145 188.251709 465.40625 C 187.168213 462.068848 186.055908 458.748047 184.909912 455.447754 C 183.44751 451.21875 183.251709 446.993652 184.38501 442.797852 C 185.868408 437.268555 187.26001 431.693848 188.57251 426.081055 C 189.26416 423.118652 189.38501 420.098145 188.935059 417.123047 L 187.651611 409.106445 C 187.372559 407.376953 187.297607 405.618652 187.439209 403.868652 L 188.13916 394.443848 C 189.918213 399.723145 191.63501 405.043945 193.255859 410.414551"/>
            <path id="path38" fill="#389d00" stroke="none" d="M 368.362061 464.713867 L 371.403809 465.521973 C 372.120361 465.717773 372.833008 465.567871 373.153809 465.155273 C 375.620361 461.99707 376.841309 458.188965 376.628662 454.276367 C 376.511963 452.188965 376.35376 450.11377 376.153809 448.05127 C 375.766357 443.947266 376.378662 439.972168 378.120361 436.092773 C 379.04126 433.93457 379.98291 431.734375 380.807861 429.49707 C 382.391357 425.355469 382.47876 420.884766 381.04541 416.742676 C 378.928711 410.530273 376.41626 404.55957 373.557861 398.880371 C 373.312012 398.384766 372.549561 398.155273 371.753662 398.334473 L 369.070313 398.942871 C 368.216309 399.134766 367.595459 399.717773 367.641357 400.271973 C 368.070313 404.467773 368.220459 408.667969 368.245361 412.834473 C 368.237061 414.338867 368.432861 415.822266 368.741211 417.292969 C 369.224609 419.342773 369.60376 421.417969 369.995361 423.49707 C 370.337158 425.626465 370.316162 427.792969 369.79126 429.909668 C 368.741211 434.284668 367.532959 438.55957 366.057861 442.709473 C 364.837158 446.159668 364.649658 449.717773 365.370361 453.42627 C 366.057861 456.726074 366.566162 460.084473 366.991211 463.509766 C 367.057861 464.018066 367.620361 464.518066 368.362061 464.713867"/>
            <path id="path39" fill="#54c415" stroke="none" d="M 377.797607 414.102051 C 379.476563 418.223145 379.472412 422.65625 377.664063 426.860352 C 376.589111 429.339355 375.493408 431.760254 374.289063 434.126953 C 371.943359 438.797852 371.126709 443.414551 371.814209 448.368652 C 372.089111 450.626953 372.380859 452.918945 372.555908 455.21875 C 372.830811 458.310547 372.018311 461.348145 370.276611 463.960449 C 369.735107 460.768555 369.097412 457.635254 368.339111 454.564453 C 367.405762 450.631348 367.543213 446.956055 368.968262 443.356445 C 370.814209 438.606445 372.380859 433.681152 373.676758 428.610352 C 374.355713 425.935547 374.418213 423.172852 373.843262 420.506348 C 373.32666 418.106445 372.776611 415.723145 372.118408 413.373047 C 371.718262 411.848145 371.493408 410.289551 371.468262 408.710449 C 371.439209 405.873047 371.314209 403.022949 371.093262 400.172852 C 373.547607 404.623047 375.818359 409.268555 377.797607 414.102051"/>
            <path id="path40" fill="#389d00" stroke="none" d="M 201.297852 466.76709 L 204.206299 467.962891 C 204.893799 468.250488 205.627197 468.183594 206.006348 467.800293 C 208.914551 464.887695 210.71875 461.233887 211.202148 457.237793 L 211.90625 450.846191 C 212.327148 446.604492 213.831299 442.675293 216.418701 439.163086 C 217.831299 437.208984 219.264648 435.233887 220.635498 433.221191 C 223.2146 429.496094 224.477051 425.166992 224.314697 420.70459 C 224.077148 414.012695 223.577148 407.383789 222.827148 400.846191 C 222.764648 400.275391 222.122803 399.788086 221.314697 399.687988 L 218.581299 399.346191 C 217.7146 399.237793 216.931152 399.600586 216.789551 400.175293 C 215.739502 404.500488 214.53125 408.783691 213.247803 413.021484 C 212.78125 414.550293 212.497803 416.117188 212.364502 417.708984 C 212.210449 419.941895 211.985352 422.166992 211.7771 424.400391 C 211.522949 426.675293 210.897949 428.879395 209.852051 430.933594 C 207.702148 435.183594 205.46875 439.358887 203.106201 443.437988 C 201.143799 446.821289 200.202148 450.571289 200.231201 454.583984 C 200.2771 458.154785 200.2229 461.737793 200.114502 465.354492 C 200.102051 465.89209 200.5896 466.475586 201.297852 466.76709"/>
            <path id="path41" fill="#54c415" stroke="none" d="M 221.977051 417.165039 C 222.360352 421.727539 221.106201 426.061035 218.268799 429.806641 C 216.585449 432.010742 214.897949 434.186035 213.1604 436.311035 C 209.743652 440.523438 207.889648 445.160645 207.568848 450.381836 C 207.40625 452.760742 207.239502 455.160645 207.014648 457.54834 C 206.731201 460.760742 205.447998 463.748535 203.318848 466.223145 C 203.260498 462.869141 203.143799 459.535645 202.956299 456.223145 C 202.735352 451.98584 203.647949 448.144043 205.822998 444.67334 C 208.668701 440.089844 211.372803 435.381836 213.952148 430.561035 C 215.310303 428.019043 216.118652 425.260742 216.322998 422.415039 C 216.518799 419.856445 216.672852 417.29834 216.772949 414.744141 C 216.8479 413.094238 217.135498 411.456543 217.610352 409.869141 C 218.485352 407.023438 219.306152 404.156738 220.068848 401.269043 C 220.868652 406.502441 221.514648 411.806641 221.977051 417.165039"/>
            <path id="path42" fill="#389d00" stroke="none" d="M 305.332031 461.852539 L 308.357178 460.994141 C 309.07373 460.785645 309.56958 460.119141 309.57373 459.352539 C 309.582031 453.48584 308.44458 447.706543 306.236328 442.281738 C 305.052979 439.385742 303.906982 436.469238 302.786133 433.540039 C 300.544678 427.698242 299.665527 421.385742 300.12793 415.177734 C 300.427979 411.723145 300.702881 408.290039 301.086182 404.865234 C 301.736328 398.523438 301.240479 392.148438 299.598633 385.994141 C 297.123779 376.769043 294.965332 367.394043 293.140381 357.902344 C 292.982178 357.077637 292.265381 356.48584 291.44873 356.502441 L 288.69873 356.561035 C 287.82373 356.581543 287.115479 357.29834 287.07373 358.219238 C 286.723633 365.094238 286.607178 371.994141 286.611328 378.906738 C 286.619629 381.398438 286.81958 383.894043 287.269531 386.348145 C 287.848633 389.781738 288.531982 393.198242 289.19043 396.61084 C 289.915527 400.081543 290.248779 403.619141 290.286133 407.156738 C 290.340332 414.481445 290.548828 421.839844 291.00293 429.202637 C 291.373779 435.314941 292.982178 441.335938 295.777832 446.760742 C 298.228027 451.585938 300.802979 456.335938 303.415527 461.023438 C 303.802979 461.723145 304.594482 462.061035 305.332031 461.852539"/>
            <path id="path43" fill="#54c415" stroke="none" d="M 296.212402 381.878418 C 298.037598 388.249023 298.416748 394.720215 297.425049 401.311523 C 296.854248 405.203125 296.295898 409.120117 295.833252 413.053223 C 294.895752 420.836426 295.945801 428.599121 298.916748 435.84082 C 300.300049 439.140625 301.670898 442.432617 303.125 445.686523 C 305.041748 450.053223 306.166748 454.749023 306.425049 459.536621 C 303.899902 455.398926 301.429199 451.199219 299.037598 446.932617 C 295.929199 441.474121 294.270752 435.428223 294.008301 429.174316 C 293.69165 420.924316 293.645752 412.690918 293.824951 404.507324 C 293.920898 400.186523 293.529053 395.886719 292.675049 391.669922 C 291.899902 387.874023 291.158447 384.061523 290.508301 380.236816 C 290.06665 377.757324 289.875 375.21582 289.945801 372.694824 C 290.045898 368.169922 290.237549 363.648926 290.50415 359.14502 C 292.195801 366.815918 294.083252 374.398926 296.212402 381.878418"/>
            <path id="path44" fill="#389d00" stroke="none" d="M 49.392822 472.526367 L 51.813721 470.518066 C 52.384521 470.042969 52.651367 469.330566 52.463867 468.771973 C 51.030518 464.501465 48.797119 460.842773 45.726318 457.734375 C 44.088867 456.076172 42.49707 454.355469 40.955322 452.567871 C 39.422119 450.792969 38.197021 448.755371 37.351318 446.617676 C 36.534668 444.555176 36.24707 442.268066 37.017822 440.880371 C 37.42627 440.109375 38.034668 439.730469 38.609619 439.513672 C 39.159668 439.376465 39.87207 439.12207 40.68457 438.876465 C 42.37207 438.355469 44.322021 437.530273 46.513672 436.130371 C 48.701172 434.634766 51.047119 432.947266 53.351318 429.097168 C 54.226318 427.584473 54.713867 426.018066 55.097168 424.442871 C 55.351318 422.976074 55.355469 421.492676 55.126221 420.067871 C 54.917969 418.688965 54.413818 417.134766 53.976318 416.255371 C 53.05957 414.30127 52.088867 412.951172 51.36792 411.805176 C 50.688721 410.834473 50.23877 409.967773 50.034668 409.109375 C 49.843018 408.288574 49.847168 407.480469 50.505371 406.580566 C 50.734619 406.234375 50.734619 405.459473 50.359619 404.722168 L 49.084473 402.284668 C 48.701172 401.521973 47.692871 401.171875 46.80542 401.759766 C 45.167969 402.771973 43.68042 404.555176 42.972168 406.509766 C 42.222168 408.476074 42.130371 410.455566 42.30542 412.24707 C 42.513672 414.126465 42.972168 415.580566 43.271973 416.817871 C 43.588867 418.021973 43.838867 419.222168 43.80127 419.771973 C 43.771973 420.226074 43.722168 420.634766 43.642822 421.05957 C 43.584473 421.288574 43.534668 421.526367 43.451172 421.771973 C 43.42627 421.909668 43.36792 421.980469 43.343018 422.088867 C 43.280518 422.24707 43.172119 422.42627 43.030518 422.609375 C 42.80542 422.972168 42.463867 423.367676 42.126221 423.763672 C 41.388672 424.563965 40.55127 425.388672 39.584473 426.242676 C 37.646973 428.026367 35.24292 429.396973 32.538818 431.459473 C 31.455322 432.255371 30.376221 433.359375 29.36792 434.771973 C 28.355469 436.284668 27.663818 438.05127 27.355469 439.92627 C 27.047119 441.742676 27.088867 443.49707 27.276367 445.055176 C 27.663818 448.18457 28.49292 450.734375 29.130371 452.976074 C 30.538818 457.722168 33.351318 461.963867 37.138672 465.097168 C 40.501221 467.884766 43.959473 470.442871 47.49707 472.771973 C 48.021973 473.117676 48.80127 473.018066 49.392822 472.526367"/>
            <path id="path45" fill="#54c415" stroke="none" d="M 53.050537 422.60498 C 53.041992 423.004883 52.996338 423.404785 52.946289 423.809082 C 52.629639 425.59668 51.70459 427.509277 50.58374 428.888184 C 49.554688 430.150879 48.429688 431.146484 47.317139 431.904785 C 45.067139 433.458984 42.83374 434.259277 40.58374 434.875977 C 38.383789 435.47998 36.367188 436.09668 34.608643 437.458984 C 34.154541 437.859375 33.687988 438.325684 33.32959 438.879883 C 32.45459 440.125977 32.087891 441.796875 32.121338 443.388184 C 32.14209 445.000977 32.52124 446.563477 33.050537 447.988281 C 34.121338 450.821777 35.70874 453.359375 37.77124 455.59668 C 39.650391 457.638184 41.592041 459.588379 43.587891 461.450684 C 46.26709 463.938477 48.321289 466.90918 49.754639 470.325684 C 46.496338 468.396484 43.287842 466.288574 40.14624 463.97998 C 36.121338 461.021484 33.258789 456.863281 31.979492 452.059082 C 31.39209 449.759277 30.687988 447.29248 30.446289 444.521484 C 30.158691 441.825684 30.679688 438.54248 32.429688 436.34668 C 33.633789 434.788574 35.092041 433.833984 36.533691 433.013184 C 39.467041 431.384277 42.367188 429.842285 44.64209 427.434082 C 46.137939 425.871582 47.375488 424.125977 47.70874 422.259277 C 47.82959 421.563477 47.796143 420.859375 47.662842 420.188477 C 47.354492 418.671875 46.687988 416.97168 46.229492 415.080078 C 45.817139 413.413574 45.412842 411.488281 45.675537 409.638184 C 45.887939 407.79248 46.812988 406.013184 48.242188 404.984375 C 47.383789 406.279785 47.171143 407.746582 47.408691 409.046875 C 47.633789 410.367676 48.20459 411.521484 48.95459 412.625977 C 49.717041 413.800781 50.621338 414.992676 51.467041 416.521484 C 51.675537 416.896484 51.879639 417.305176 52.071289 417.738281 C 52.279541 418.22168 52.45459 418.746582 52.608643 419.271484 C 52.912842 420.333984 53.07959 421.458984 53.050537 422.60498"/>
            <path id="path46" fill="#389d00" stroke="none" d="M 107.313721 464.683105 L 110.259521 465.791016 C 110.955322 466.053711 111.655518 466.053711 111.972168 465.791016 C 114.422119 463.791016 115.74707 461.162109 115.80957 458.199707 L 115.86377 453.461914 C 115.87207 450.324707 117.013672 447.512207 119.284668 445.099609 L 123.017822 441.012207 C 125.30957 438.453613 126.334473 435.366211 125.99707 432.086914 C 125.48877 427.17041 124.843018 422.303711 124.05542 417.503906 C 123.98877 417.086914 123.351318 416.683105 122.547119 416.549805 L 119.830322 416.095215 C 118.968018 415.949707 118.192871 416.153809 118.05542 416.558105 C 117.030518 419.616211 115.922119 422.641113 114.784668 425.637207 C 114.36792 426.716309 114.138672 427.841309 114.076172 428.999512 L 113.792969 433.862305 C 113.672119 435.512207 113.172119 437.086914 112.280518 438.528809 C 110.442871 441.507813 108.567871 444.428711 106.62207 447.299805 C 105.009521 449.678711 104.442871 452.407715 104.901367 455.424805 C 105.317871 458.10791 105.68042 460.803711 106.009521 463.528809 C 106.05957 463.937012 106.597168 464.412109 107.313721 464.683105"/>
            <path id="path47" fill="#54c415" stroke="none" d="M 123.547852 429.322266 C 124.09375 432.688965 123.056152 435.772461 120.481201 438.318359 C 118.960449 439.818359 117.439697 441.301758 115.889648 442.747559 C 112.8396 445.609863 111.414551 448.926758 111.5979 452.801758 L 111.7854 458.134766 C 111.852051 460.526855 110.947998 462.688965 109.193848 464.414063 C 108.739502 461.868164 108.247803 459.351563 107.7146 456.851563 C 107.043701 453.647461 107.568848 450.843262 109.377197 448.418457 C 111.747803 445.209961 114.047852 441.922363 116.289551 438.555664 C 117.46875 436.780762 118.110352 434.813965 118.185303 432.743164 L 118.327148 427.164063 C 118.34375 425.959961 118.577148 424.789063 119.014648 423.668457 C 119.814697 421.664063 120.581299 419.63916 121.322998 417.605957 C 122.1521 421.459961 122.9021 425.368164 123.547852 429.322266"/>
            <path id="path48" fill="#389d00" stroke="none" d="M 284.817383 469.037109 L 287.675781 467.720215 C 288.35083 467.407715 288.859131 466.916016 288.91748 466.516113 C 289.338379 463.48291 288.875732 461.003906 287.388428 458.603516 C 286.580078 457.328613 285.838379 455.978516 285.121582 454.586914 C 283.688232 451.808105 283.696777 448.60791 284.97168 445.549805 L 287.175781 440.395508 C 288.554932 437.208008 288.638428 433.803711 287.254883 430.516113 C 285.209229 425.620605 282.821777 420.695313 279.809082 416.362305 C 279.554932 415.98291 278.800781 415.895508 278.025879 416.149414 L 275.40918 417.007813 C 274.580078 417.282715 273.97998 417.820313 274.030029 418.245605 C 274.530029 421.391113 274.575928 424.612305 274.53833 427.828613 C 274.504883 428.999512 274.671631 430.132813 274.967529 431.29541 C 275.41333 432.887207 275.800781 434.541016 276.200928 436.191406 C 276.588379 437.895508 276.588379 439.628906 276.200928 441.403809 C 275.421631 445.053711 274.609131 448.770508 274.092529 452.745605 C 273.66748 456.032715 274.509277 459.441406 276.746582 462.257813 C 278.655029 464.757813 280.838379 467.058105 283.075928 469.070313 C 283.405029 469.378906 284.121582 469.35791 284.817383 469.037109"/>
            <path id="path49" fill="#54c415" stroke="none" d="M 284.041748 428.498535 C 285.670898 431.760742 285.612549 435.23584 283.93335 438.552734 L 280.987549 444.431641 C 279.070801 448.29834 279.020752 452.36084 281.020752 455.990234 C 281.979248 457.631836 282.912598 459.227539 283.987549 460.731445 C 285.37085 462.756836 286.008301 464.927734 285.970947 467.456543 C 283.845947 465.869141 281.795898 464.010742 279.895752 461.952637 C 277.37915 459.306641 276.508301 455.973145 277.0625 452.677734 C 277.837402 448.314941 278.94165 444.214844 280.016602 440.119141 C 280.583252 437.964844 280.608398 435.793945 280.041748 433.698242 C 279.520752 431.811035 279.008301 429.931641 278.387451 428.102539 C 278.016602 426.910645 277.81665 425.694336 277.80835 424.452637 C 277.8125 422.214844 277.704102 419.969238 277.420898 417.719238 C 279.9375 420.964844 282.141602 424.677734 284.041748 428.498535"/>
            <path id="path50" fill="#389d00" stroke="none" d="M 412.372559 466.679688 L 415.493408 466.275391 C 416.230713 466.179688 416.82666 465.725586 416.955811 465.150391 C 417.95166 460.742188 417.330811 456.233887 415.426758 452.358887 C 414.409912 450.279785 413.368408 448.242188 412.32251 446.225586 C 410.239258 442.221191 409.318359 437.791992 409.843262 433.337891 C 410.13916 430.875488 410.518311 428.458984 410.993408 426.14209 C 411.880859 421.825195 411.860107 417.925293 411.005859 414.008789 C 409.76001 408.137695 409.739258 401.883789 411.726563 395.612793 C 411.893311 395.071289 411.518311 394.346191 410.839111 393.896484 L 408.526611 392.400391 C 407.793213 391.916992 406.905762 391.983887 406.480713 392.550293 C 403.301758 396.758789 400.901611 401.721191 399.464111 406.925293 C 398.914063 408.800293 398.709961 410.754395 398.768311 412.675293 C 398.876709 415.362793 399.147461 418.000488 399.593262 420.562988 C 400.051758 423.179688 400.26416 425.775391 400.19751 428.416992 C 400.097412 433.858887 400.426758 439.262695 400.801758 444.500488 C 401.114258 448.871094 402.539063 452.837891 404.868408 456.362793 C 406.935059 459.504395 408.88501 462.663086 410.630859 466.000488 C 410.893311 466.496094 411.614258 466.775391 412.372559 466.679688"/>
            <path id="path51" fill="#54c415" stroke="none" d="M 408.287842 410.96875 C 409.02124 415.289551 408.83374 419.327148 407.51709 423.90625 C 406.738037 426.59375 406.117188 429.401855 405.608643 432.272949 C 404.617188 437.973145 405.742188 443.464355 408.475342 448.327148 C 409.725342 450.560547 410.962891 452.802246 412.158691 455.085449 C 413.758789 458.135254 414.379639 461.643555 413.83374 465.102051 C 412.046143 462.001953 410.087891 459.089355 408.050537 456.248047 C 405.437988 452.610352 403.942139 448.602051 403.762939 444.110352 C 403.529541 438.214355 403.33374 432.189453 403.800537 426.289551 C 404.041992 423.181152 403.916992 420.160645 403.488037 417.126953 C 403.100342 414.389648 402.904541 411.598145 402.971191 408.764648 C 403.046143 406.935547 403.408691 405.089355 404.14209 403.393555 C 405.425537 400.348145 407.071289 397.493652 409.01709 394.931152 C 407.525391 400.422852 407.39209 405.876953 408.287842 410.96875"/>
            <path id="path52" fill="#207f6d" stroke="none" d="M 367.329102 600.266602 C 377.44165 600.520996 387.137451 598.808105 396.06665 595.483398 C 416.845947 587.745605 439.758301 586.487305 459.787598 596 C 472.241699 601.916504 486.55835 604.591797 501.708252 602.895996 C 536.037598 599.054199 564.37085 571.416504 569.141602 537.208496 C 575.633301 490.670898 540.270752 450.200195 494.670898 449.054199 C 484.55835 448.799805 474.858398 450.512695 465.93335 453.837402 C 444.25 461.912598 420.920898 461.329102 399.675049 452.170898 C 390.925049 448.399902 381.324951 446.200195 371.212402 445.945801 C 361.100098 445.691895 351.404053 447.404297 342.479248 450.729004 C 320.795898 458.808105 297.466553 458.220703 276.216553 449.0625 C 267.470947 445.291504 257.87085 443.095703 247.758301 442.841797 C 237.645752 442.587402 227.945801 444.299805 219.020752 447.625 C 197.337402 455.700195 174.008301 455.112305 152.758301 445.958496 C 144.012451 442.1875 134.412598 439.987305 124.304199 439.733398 C 114.1875 439.483398 104.49585 441.191895 95.56665 444.516602 C 74.787598 452.258301 51.87085 453.512695 31.845947 444 C 19.387451 438.087402 5.074951 435.412598 -10.079102 437.108398 C -44.404175 440.945801 -72.737549 468.583496 -77.508301 502.795898 C -84 549.333496 -48.637451 589.799805 -3.037598 590.950195 C 7.074951 591.200195 16.770752 589.491699 25.699951 586.166504 C 47.383301 578.087402 70.708252 578.674805 91.958252 587.833496 C 100.708252 591.600098 110.30835 593.799805 120.420898 594.054199 C 130.533447 594.308105 140.229248 592.595703 149.154053 589.270996 C 170.837402 581.195801 194.166748 581.779297 215.412598 590.9375 C 224.162598 594.708496 233.762451 596.908203 243.875 597.162598 C 253.987549 597.412598 263.68335 595.704102 272.612549 592.375 C 294.295898 584.299805 317.625 584.887695 338.87085 594.045898 C 347.62085 597.8125 357.216553 600.012695 367.329102 600.266602"/>
        </g>
    </g>
</svg>
