<?xml version="1.0" encoding="UTF-8"?>
<!-- Generated by Pixelmator Pro 3.5.7 -->
<svg class="svg-inline-icon" viewBox="0 0 501 501" xmlns="http://www.w3.org/2000/svg" xmlns:xlink="http://www.w3.org/1999/xlink">
    <path id="Path-copy" fill="#44bf00" stroke="none" d="M 250.125 500.666748 C 388.195801 500.666748 500.125 388.737549 500.125 250.666748 C 500.125 112.595947 388.195801 0.666748 250.125 0.666748 C 112.054199 0.666748 0.125 112.595947 0.125 250.666748 C 0.125 388.737549 112.054199 500.666748 250.125 500.666748"/>
    <mask id="mask-lHWDs-1" maskUnits="userSpaceOnUse" maskContentUnits="userSpaceOnUse" mask-type="alpha">
        <path id="path1" fill="#44bf00" stroke="none" d="M 250.125 500.666748 C 388.195801 500.666748 500.125 388.737549 500.125 250.666748 C 500.125 112.595947 388.195801 0.666748 250.125 0.666748 C 112.054199 0.666748 0.125 112.595947 0.125 250.666748 C 0.125 388.737549 112.054199 500.666748 250.125 500.666748"/>
    </mask>
    <g id="Group" mask="url(#mask-lHWDs-1)">
        <g id="g1">
            <path id="Path" fill="#44bf00" stroke="none" d="M 250.125 500.666748 C 388.195801 500.666748 500.125 388.737549 500.125 250.666748 C 500.125 112.595947 388.195801 0.666748 250.125 0.666748 C 112.054199 0.666748 0.125 112.595947 0.125 250.666748 C 0.125 388.737549 112.054199 500.666748 250.125 500.666748"/>
            <clipPath id="clipPath-lHWDs-1">
                <path d="M 0.125 265.666504 C 0.125 403.737549 112.054199 515.666504 250.125 515.666504 L 250.125 515.666504 C 388.195801 515.666504 500.125 403.737549 500.125 265.666504 L 500.125 265.666504 C 500.125 127.595947 388.195801 15.666504 250.125 15.666504 L 250.125 15.666504 C 112.054199 15.666504 0.125 127.595947 0.125 265.666504"/>
            </clipPath>
            <g id="g2" clip-path="url(#clipPath-lHWDs-1)">
                <path id="path2" fill="#ffff52" stroke="none" d="M 262.47998 141.891357 C 262.47998 153.507813 256.771606 163.782959 248.009155 170.083008 C 239.246704 163.782959 233.53833 153.507813 233.53833 141.891357 C 233.53833 130.253662 239.246704 119.974609 248.009155 113.674561 C 256.771606 119.974609 262.47998 130.253662 262.47998 141.891357"/>
                <path id="path3" fill="#ffff52" stroke="none" d="M 231.550049 215.483643 C 241.483276 221.504639 247.30835 231.717041 248.154175 242.475342 C 238.220825 246.700439 226.474976 246.254639 216.541626 240.229492 C 206.591675 234.192139 200.766724 223.983643 199.920776 213.225342 C 209.854126 209.000488 221.599976 209.450439 231.550049 215.483643"/>
                <path id="path4" fill="#ffff52" stroke="none" d="M 274.95166 163.498779 C 283.13916 155.25708 294.430786 151.994629 305.089111 153.69873 C 306.859985 164.344482 303.668335 175.656982 295.480835 183.894531 C 287.280884 192.152832 275.984985 195.419678 265.330811 193.715332 C 263.555786 183.06958 266.747559 171.75293 274.95166 163.498779"/>
                <path id="path5" fill="#ffff52" stroke="none" d="M 287.700439 199.79541 C 298.612915 203.778809 306.308716 212.66626 309.221191 223.053711 C 300.300415 229.124512 288.687866 230.966309 277.779541 226.98291 C 266.846191 222.991211 259.150391 214.10376 256.233765 203.716309 C 265.158691 197.645508 276.76709 195.803711 287.700439 199.79541"/>
                <path id="path6" fill="none" stroke="#002f54" stroke-width="2.5" stroke-linecap="round" d="M 248.420044 296.25708 L 248.420044 241.82373 L 248.420044 154.844482"/>
                <path id="path7" fill="none" stroke="#002f54" stroke-width="2.5" stroke-linecap="round" d="M 248.833374 211.732422 L 274.458374 184.040771"/>
                <path id="path8" fill="none" stroke="#002f54" stroke-width="2.5" stroke-linecap="round" d="M 235.385864 233.036133 L 248.419189 241.81958"/>
                <path id="path9" fill="none" stroke="#002f54" stroke-width="2.5" stroke-linecap="round" d="M 256.233276 203.7146 L 269.650024 208.872803"/>
                <path id="path10" fill="#ccf4ff" stroke="none" d="M 434.306641 529.735107 C 434.306641 618.414063 371.627441 692.501709 288.148315 710.01416 C 275.890015 712.618408 263.152466 713.943359 250.152466 713.943359 C 236.98999 713.943359 224.094116 712.564209 211.727539 709.909912 C 128.406616 692.239258 65.944214 618.310059 65.944214 529.735107 C 65.944214 441.26416 128.406616 367.284912 211.67334 349.614258 C 224.094116 346.959961 236.935791 345.580811 250.152466 345.580811 C 263.206665 345.580811 275.944214 346.959961 288.202515 349.560059 C 371.685791 367.07251 434.306641 441.105713 434.306641 529.735107"/>
                <path id="path11" fill="none" stroke="#286fb7" stroke-width="2.5" stroke-linecap="round" d="M 211.72876 709.909912 C 161.099609 666.339111 129.04541 601.805908 129.04541 529.735107 C 129.04541 457.718262 161.099609 393.185059 211.674561 349.614258"/>
                <path id="path12" fill="none" stroke="#286fb7" stroke-width="2.5" stroke-linecap="round" d="M 288.202881 349.560059 C 338.88623 393.130859 370.94043 457.664063 370.94043 529.735107 C 370.94043 601.855713 338.832031 666.443359 288.148804 710.01416"/>
                <path id="path13" fill="none" stroke="#286fb7" stroke-width="2.5" stroke-linecap="round" d="M 250.151245 713.46582 L 250.151245 711.71167 L 250.151245 711.39502 L 250.151245 348.128418 L 250.151245 347.807373 L 250.151245 345.58252"/>
                <path id="path14" fill="none" stroke="#286fb7" stroke-width="2.5" stroke-linecap="round" d="M 78.947876 461.706787 L 421.735352 461.706787"/>
                <path id="path15" fill="#002f54" stroke="none" d="M 156.674194 185.350098 C 156.674194 133.25415 198.353394 91.579102 250.444946 91.579102 C 301.96167 91.579102 343.640869 133.25415 343.640869 185.350098 C 343.640869 236.866699 301.96167 278.541748 250.444946 278.541748 C 198.353394 278.541748 156.674194 236.866699 156.674194 185.350098 M 141.39917 243.591553 L 226.46167 414.12085 C 228.890869 419.387451 233.344971 423.845947 238.611694 426.279053 C 251.574219 432.758301 267.369995 427.491699 273.853271 414.12085 L 358.915771 243.591553 C 368.232544 224.958252 372.282471 205.920898 372.282471 186.883301 C 372.282471 124.095947 325.703369 66.175049 258.053345 62.12085 L 242.257446 62.12085 C 154.357544 67.387451 101.699219 164.199951 141.39917 243.591553"/>
            </g>
        </g>
    </g>
</svg>
