<?xml version="1.0" encoding="UTF-8"?>
<!-- Generated by Pixelmator Pro 3.5.7 -->
<svg class="svg-inline-icon" viewBox="0 0 502 500" xmlns="http://www.w3.org/2000/svg">
    <g id="GHG-inventory-copy">
        <path id="Path" fill="#44bf00" stroke="none" d="M 250.583374 500 C 388.654053 500 500.583252 388.070801 500.583252 250 C 500.583252 111.929199 388.654053 0 250.583374 0 C 112.512451 0 0.583374 111.929199 0.583374 250 C 0.583374 388.070801 112.512451 500 250.583374 500"/>
        <clipPath id="clipPath-0DjGZ-1">
            <path d="M 0.583374 250 C 0.583374 388.070801 112.512573 500 250.583374 500 L 250.583374 500 C 388.654297 500 500.583252 388.070801 500.583252 250 L 500.583252 250 C 500.583252 111.929199 388.654297 0 250.583374 0 L 250.583374 0 C 112.512573 0 0.583374 111.929199 0.583374 250"/>
        </clipPath>
        <g id="Group" clip-path="url(#clipPath-0DjGZ-1)">
            <path id="path1" fill="#605384" stroke="none" d="M 107.767944 419.584961 L 107.388794 96.45166 L 357.084473 96.155762 L 357.463623 419.293457 Z"/>
            <path id="path2" fill="#fffde1" stroke="none" d="M 129.259155 396.140625 L 128.880005 73.006836 L 378.575928 72.711426 L 378.955078 395.848633 Z"/>
            <path id="path3" fill="none" stroke="#dbd8a7" stroke-width="2.5" stroke-linecap="round" d="M 161.03125 259.397949 L 346.802002 259.318848"/>
            <path id="path4" fill="none" stroke="#dbd8a7" stroke-width="2.5" stroke-linecap="round" d="M 161.03125 271.416992 L 346.802002 271.337891"/>
            <path id="path5" fill="none" stroke="#dbd8a7" stroke-width="2.5" stroke-linecap="round" d="M 161.03125 247.379395 L 346.802002 247.299805"/>
            <path id="path6" fill="#ccf4ff" stroke="none" d="M 346.454102 176.012695 L 160.258301 176.012695 L 160.258301 111.941406 L 346.454102 111.941406 Z"/>
            <path id="path7" fill="#66ccff" stroke="none" d="M 346.46582 153.365234 L 346.46582 225.740234 L 160.261719 225.740234 L 160.261719 153.365234 C 171.14502 153.760742 171.436646 161.894043 182.874146 161.894043 C 184.782471 161.894043 186.369995 161.652344 187.749146 161.281738 C 188.436646 161.098145 189.069946 160.885742 189.65332 160.619141 C 190.424194 160.302734 191.136719 159.931641 191.799194 159.535645 C 192.328369 159.219238 192.83252 158.873535 193.307495 158.527344 C 196.036621 156.623535 198.444946 154.448242 202.70752 153.631836 C 202.974121 153.602539 203.236694 153.54834 203.503296 153.523438 C 204.057495 153.444336 204.640869 153.394043 205.27832 153.365234 L 205.357544 153.365234 C 205.64917 153.335938 205.994995 153.335938 206.33667 153.335938 L 207.103394 153.335938 C 207.686646 153.365234 208.244995 153.394043 208.77417 153.469238 C 209.061646 153.498535 209.328369 153.54834 209.594971 153.577637 C 211.236694 153.844238 212.611694 154.319336 213.83252 154.927734 C 214.569946 155.273438 215.232544 155.644043 215.869995 156.064941 C 216.240845 156.306641 216.58252 156.543945 216.95752 156.806641 C 217.378296 157.123535 217.828369 157.444336 218.27832 157.760742 C 221.136719 159.852539 224.049194 161.894043 229.799194 161.894043 C 230.219971 161.894043 230.619995 161.865234 230.986694 161.835938 C 231.678345 161.811035 232.286621 161.760742 232.869995 161.652344 C 233.611694 161.54834 234.299194 161.415039 234.936646 161.231445 C 235.490845 161.043945 236.02002 160.856445 236.52417 160.648438 C 242.186646 158.290039 244.33252 153.335938 253.257446 153.335938 C 255.27002 153.335938 256.911621 153.577637 258.369995 153.998535 C 259.111694 154.210938 259.799194 154.477539 260.46167 154.793945 C 261.282471 155.165039 262.02417 155.589844 262.736694 156.064941 C 263.27002 156.381836 263.77002 156.727539 264.244995 157.073242 C 266.682495 158.844238 268.932495 160.698242 272.670044 161.494141 C 273.199219 161.598145 273.753296 161.681641 274.33667 161.731445 C 274.811646 161.811035 275.315796 161.835938 275.819946 161.865234 C 276.111694 161.894043 276.428345 161.894043 276.719971 161.894043 C 277.115845 161.894043 277.511719 161.865234 277.911621 161.835938 C 283.420044 161.54834 286.169922 159.244141 289.161621 157.098145 C 289.719971 156.702637 290.27417 156.277344 290.886719 155.906738 C 291.52002 155.510742 292.157471 155.140137 292.870117 154.823242 C 293.320068 154.61084 293.799072 154.42334 294.299072 154.265137 C 295.890869 153.681641 297.794922 153.335938 300.182617 153.335938 C 300.682617 153.335938 301.157471 153.335938 301.611572 153.394043 C 302.349121 153.418945 303.011719 153.498535 303.674072 153.631836 C 304.124268 153.710938 304.549072 153.790039 304.974121 153.894043 C 305.424072 154.027344 305.874268 154.160645 306.27002 154.319336 C 312.411621 156.543945 314.374268 161.835938 323.507568 161.894043 L 323.640869 161.894043 C 324.328369 161.894043 324.936768 161.865234 325.549072 161.811035 C 326.39502 161.731445 327.161621 161.598145 327.90332 161.444336 C 328.432617 161.311035 328.96167 161.177734 329.46582 160.990234 C 335.686768 158.873535 337.620117 153.602539 346.46582 153.365234"/>
            <path id="path8" fill="none" stroke="#66ccff" stroke-width="2.5" d="M 160.077881 177.254395 C 171.723755 177.254395 171.723755 185.750488 183.369629 185.750488 C 195.015381 185.750488 195.015381 177.254395 206.661255 177.254395 C 218.311279 177.254395 218.311279 185.750488 229.957031 185.750488 C 241.602905 185.750488 241.602905 177.254395 253.248779 177.254395 C 264.894531 177.254395 264.894531 185.750488 276.544556 185.750488 C 288.19458 185.750488 288.19458 177.254395 299.844482 177.254395 C 311.494629 177.254395 311.494629 185.750488 323.144531 185.750488 C 334.794678 185.750488 334.794678 177.254395 346.44873 177.254395"/>
            <path id="path9" fill="#3e953b" stroke="none" d="M 193.915039 173.025391 C 193.931641 176.112793 193.873291 179.229492 193.744141 182.346191 C 193.260864 182.683594 192.752441 183.025391 192.231689 183.337891 C 191.577515 183.733887 190.869141 184.104492 190.106689 184.413086 C 189.523315 184.666992 188.885864 184.896484 188.206665 185.07959 C 188.219116 184.541992 188.219116 183.987793 188.219116 183.450195 C 188.219116 179.554688 188.277466 175.646484 188.406616 171.733887 C 188.460815 170.346191 188.531616 168.946289 188.644165 167.541992 C 188.744141 166.171387 188.844116 164.854492 188.915039 163.508789 C 189.323364 156.071289 188.335815 148.550293 186.806641 141.083984 C 186.594116 140.07959 186.719116 139.242188 187.11499 139.146484 L 188.319214 138.846191 C 188.67334 138.762695 189.156616 139.358887 189.439941 140.262695 C 191.040039 145.492188 192.42749 150.842285 193.219116 156.396484 C 193.619141 159.158691 193.856689 161.979492 193.931641 164.808594 C 193.973389 167.700195 193.885864 170.321289 193.915039 173.025391"/>
            <path id="path10" fill="#5bbc57" stroke="none" d="M 192.923706 167.926758 C 192.907104 173.081055 192.69458 178.239258 192.227905 183.334961 C 191.577881 183.734863 190.869629 184.101563 190.102905 184.414063 C 190.177856 182.418457 190.219604 180.418457 190.232056 178.435059 C 190.244629 174.072266 190.432129 169.685059 190.557129 165.359863 C 190.602905 162.560059 190.544556 159.726563 190.44458 156.905762 C 190.26123 151.864258 189.523804 146.834961 188.561279 141.834961 C 189.848755 146.01416 190.994629 150.247559 191.777954 154.609863 C 192.557129 158.959961 192.952881 163.45166 192.923706 167.926758"/>
            <path id="path11" fill="#3e953b" stroke="none" d="M 233.64624 146.783691 C 233.262939 153.921387 234.437866 161.104492 235.754639 168.383789 C 235.967041 169.575195 236.179565 170.862793 236.350464 172.191895 C 236.52124 173.500488 236.633789 174.812988 236.70459 176.117188 C 236.846191 178.754395 236.817139 181.358887 236.675415 183.925293 C 236.662964 184.121094 236.650391 184.316895 236.633789 184.51709 C 236.137939 184.729492 235.612915 184.913086 235.062866 185.083984 C 234.425415 185.26709 233.758789 185.408691 233.025391 185.525391 C 232.442139 185.621094 231.817139 185.679688 231.154541 185.70459 C 231.179565 184.929688 231.20874 184.163086 231.225464 183.400391 C 231.26709 180.779785 231.237915 178.171387 231.054565 175.592285 C 230.871216 173.01709 230.475464 170.525391 230.062866 167.846191 C 229.479614 164.050293 229.042114 160.183594 228.942139 156.258789 C 228.800415 150.850586 229.154541 145.312988 230.587891 139.95459 C 230.942139 138.625488 231.367065 137.308594 231.862915 136.004395 C 232.371216 134.64209 232.867065 133.57959 233.221191 132.404785 C 233.95874 130.083984 234.183716 127.604492 234.354614 124.983887 C 234.45459 123.57959 234.837891 122.492188 235.229614 122.521484 L 236.479614 122.592285 C 236.846191 122.604492 237.117065 123.554688 237.117065 124.854492 C 237.117065 126.725586 237.129639 128.637695 236.887939 130.592285 C 236.675415 132.533691 236.154541 134.558594 235.51709 136.32959 C 234.412964 139.700195 233.82959 143.229492 233.64624 146.783691"/>
            <path id="path12" fill="#5bbc57" stroke="none" d="M 234.792969 169.234375 C 235.188721 171.78418 235.43042 174.476074 235.459595 177.080078 C 235.501221 179.788574 235.330444 182.463379 235.063721 185.083984 C 234.42627 185.267578 233.759644 185.40918 233.022095 185.525879 C 233.222046 182.521484 233.276245 179.517578 233.092896 176.513184 C 232.938721 173.525879 232.472046 170.580078 231.98877 167.617676 C 231.534546 164.65918 231.109619 161.700684 230.797119 158.696777 C 230.413696 154.830078 230.330444 150.833984 230.797119 146.925781 C 231.222046 143.413574 232.017944 139.955078 233.251221 136.654785 C 233.901245 135.013184 234.609619 133.455078 235.022095 131.767578 C 235.459595 130.083984 235.672119 128.35498 235.813721 126.613281 C 235.838745 129.601074 235.501221 132.646484 234.480469 135.538574 C 233.55957 138.342285 232.980469 141.246582 232.697144 144.175781 C 232.11377 150.025879 232.667969 155.892578 233.601196 161.726074 C 234.001221 164.250977 234.397095 166.742676 234.792969 169.234375"/>
            <path id="path13" fill="#3e953b" stroke="none" d="M 218.688354 179.531738 C 218.630005 180.240234 218.575806 180.948242 218.517456 181.656738 C 218.079956 181.331543 217.642456 181.019043 217.200806 180.694336 C 216.84668 180.452637 216.492554 180.210938 216.138306 179.973145 C 215.500854 179.561035 214.834106 179.177734 214.113281 178.835938 C 214.155029 176.627441 214.142456 174.418945 214.071655 172.223145 L 213.800781 161.981445 C 213.671631 155.577637 214.184204 149.064941 215.28833 142.915039 C 215.430054 142.11084 215.755005 141.573242 216.09668 141.598145 L 217.525879 141.686035 C 217.867554 141.714844 218.134155 142.323242 218.16333 143.156738 C 218.405029 148.823242 218.646606 154.473145 218.984131 160.127441 C 219.325806 166.502441 219.242554 173.073242 218.688354 179.531738"/>
            <path id="path14" fill="#5bbc57" stroke="none" d="M 217.37085 178.894531 C 217.3125 179.490234 217.258301 180.098633 217.199951 180.694824 C 216.845825 180.453125 216.491699 180.211426 216.137451 179.973633 C 216.195801 176.898926 216.166626 173.811035 216.054199 170.723633 L 215.670776 159.236328 C 215.516724 154.090332 215.854126 148.794434 216.637451 143.740234 C 216.916626 148.853027 217.241699 153.965332 217.612549 159.06543 C 218.06665 165.611328 218.008301 172.265625 217.37085 178.894531"/>
            <path id="path15" fill="#3e953b" stroke="none" d="M 264.170044 180.976074 C 263.686646 180.62207 263.190796 180.280273 262.670044 179.955566 C 261.96167 179.48877 261.224121 179.063965 260.40332 178.697266 C 259.765869 178.396973 259.069946 178.130371 258.319946 177.917969 C 258.14917 176.643066 257.953369 175.355469 257.782471 174.05127 C 257.611694 172.734375 257.453369 171.384766 257.357544 169.99707 C 257.244995 168.609375 257.244995 167.222168 257.244995 165.893066 C 257.244995 162.038574 257.553345 158.155273 258.165894 154.347168 C 258.59082 151.671875 259.099121 149.205566 259.453369 146.655273 C 259.824219 144.12207 260.09082 141.584473 260.203369 139.063965 C 260.415894 134.005371 259.936646 128.963867 258.420044 124.17627 C 258.007446 122.917969 257.924194 121.826172 258.290894 121.671875 L 259.440796 121.205566 C 259.77832 121.046875 260.428345 121.826172 260.940796 123.042969 C 263.828369 130.109375 264.424194 137.972168 263.95752 145.480469 C 263.77417 149.259766 263.219971 153.018066 262.978394 156.530273 C 262.71167 160.097168 262.65332 163.680176 262.795044 167.234375 C 262.911621 171.472168 263.89917 175.93457 264.170044 180.976074"/>
            <path id="path16" fill="#5bbc57" stroke="none" d="M 261.747925 160.509277 C 261.689575 162.988281 261.689575 165.467285 261.731201 167.91748 C 261.7771 170.267578 262.043701 172.705078 262.302124 175.196777 C 262.456299 176.742676 262.5979 178.330078 262.668701 179.955078 C 261.960449 179.488281 261.2229 179.063477 260.4021 178.696777 C 260.243774 177.404785 260.077026 176.117676 259.893799 174.842285 C 258.914551 168.97998 259.102051 162.976074 259.552124 157.067383 C 259.852051 153.200684 260.643799 149.388184 261.110474 145.592285 C 262.072876 138.825684 262.143799 131.842285 260.360474 125.154785 C 262.356201 130.738281 263.039551 136.813477 262.9104 142.805176 C 262.852051 145.805176 262.627075 148.79248 262.327026 151.767578 C 262.018799 154.700684 261.806274 157.592285 261.747925 160.509277"/>
            <path id="path17" fill="#3e953b" stroke="none" d="M 330.303711 177.308105 C 330.020508 179.912598 329.495361 182.4375 328.91626 184.870605 C 328.432861 185.041504 327.907959 185.183105 327.370361 185.295898 C 326.649658 185.466797 325.882813 185.591797 325.032959 185.666504 C 324.437012 185.720703 323.816162 185.75 323.149658 185.75 L 323.024658 185.75 C 323.757813 182.266602 324.553711 178.879395 324.937012 175.524902 C 325.245361 172.975098 325.374512 170.524902 325.23291 168.016602 C 325.062012 164.516602 324.282959 160.820801 324.199463 156.854004 C 324.17041 155.862305 324.212158 154.858398 324.282959 153.854004 C 324.382813 152.862305 324.566162 151.770996 324.778809 150.891602 C 324.97876 150 325.149658 149.120605 325.303711 148.200195 C 325.474609 147.279297 325.687012 146.274902 325.941162 145.354004 C 326.212158 144.350098 326.749512 143.695801 327.132813 143.795898 L 328.333008 144.137695 C 328.687012 144.237305 328.799561 144.954102 328.662109 145.820801 C 328.42041 147.079102 328.349609 148.287598 328.237061 149.629395 L 328.024658 151.641602 C 327.949463 152.308105 327.882813 152.845703 327.882813 153.470703 C 327.812012 155.850098 328.261963 158.287598 328.799561 160.804199 C 329.35376 163.3125 330.007813 165.933105 330.345459 168.766602 C 330.687012 171.641602 330.587158 174.533203 330.303711 177.308105"/>
            <path id="path18" fill="#5bbc57" stroke="none" d="M 329.538818 171.982422 C 329.651367 175.819824 328.942871 179.561523 328.009521 183.044922 C 327.80957 183.811523 327.597168 184.544922 327.37207 185.299316 C 326.646973 185.46582 325.884521 185.595215 325.034668 185.666016 C 325.317871 184.461426 325.601318 183.257324 325.843018 182.053223 C 326.663818 177.932617 327.343018 173.740723 327.047119 169.603516 C 326.859619 166.940918 326.36792 164.236816 326.067871 161.499023 C 325.784668 159.049316 325.584473 156.541016 325.813721 154.065918 C 325.92627 152.815918 326.209473 151.586426 326.463867 150.411621 C 326.734619 149.20752 326.917969 147.986816 327.201172 146.786621 C 327.072021 147.849121 327.030518 148.89502 326.93042 149.95752 C 326.847168 151.003418 326.705322 152.065918 326.663818 153.086426 C 326.605469 155.15332 326.888672 157.194824 327.30127 159.220215 C 328.109619 163.273926 329.455322 167.424316 329.538818 171.982422"/>
            <path id="path19" fill="#3e953b" stroke="none" d="M 294 178.171875 C 293.50415 178.325684 293.037598 178.525879 292.595947 178.738281 C 291.891602 179.050781 291.237549 179.41748 290.62915 179.813477 C 290.020752 180.184082 289.454102 180.592285 288.899902 180.988281 C 288.829102 180.525879 288.758301 180.04248 288.675049 179.575684 C 288.079102 176.075684 287.074951 172.663574 286.225098 168.992676 C 285.62915 166.371582 285.258301 163.638184 285.145752 160.963379 C 284.80835 153.496582 285.516602 146.175781 286.295898 138.963379 C 286.408447 138.017578 286.791748 137.29248 287.1875 137.321777 L 288.43335 137.421875 C 288.804199 137.450684 289.05835 138.113281 289.05835 139.004883 C 288.970947 149.22168 289.12915 159.404785 291.858398 168.750977 C 292.68335 171.654785 293.55835 174.888184 294 178.171875"/>
            <path id="path20" fill="#5bbc57" stroke="none" d="M 292.5979 178.73877 C 291.889648 179.05127 291.239502 179.417969 290.631348 179.817871 C 290.4021 178.05957 290.077148 176.317871 289.6521 174.617676 C 288.643799 170.651367 287.5271 166.671875 287.002197 162.546875 C 286.635498 159.901367 286.506348 157.180176 286.59375 154.48877 C 286.747803 149.688965 287.2146 144.913574 287.752197 140.155273 C 287.793701 148.384766 288.039551 156.655273 289.764648 164.476074 C 290.456299 167.776367 291.40625 171.046875 292.043701 174.572266 C 292.2854 175.947266 292.46875 177.334473 292.5979 178.73877"/>
            <path id="path21" fill="none" stroke="#ccf4ff" stroke-width="2.5" d="M 160.076294 177.251465 C 171.717896 177.251465 171.717896 185.747559 183.376221 185.747559 C 185.259644 185.747559 186.834595 185.522461 188.205444 185.155762 C 188.884644 184.972656 189.522095 184.743164 190.105469 184.489258 C 190.86792 184.180664 191.580444 183.810059 192.230469 183.414063 C 192.755371 183.101563 193.263794 182.759766 193.74292 182.422363 C 196.451294 180.509766 198.830444 178.372559 203.067871 177.563965 C 203.322021 177.522461 203.588745 177.480957 203.859619 177.435059 C 204.409546 177.364258 204.99292 177.310059 205.61377 177.280762 L 205.68457 177.280762 C 205.99707 177.268555 206.334595 177.251465 206.663696 177.251465 C 206.905396 177.251465 207.130371 177.251465 207.355469 177.268555 L 207.43042 177.268555 C 208.009521 177.280762 208.572144 177.322266 209.084595 177.393555 C 209.36792 177.422363 209.634644 177.464355 209.892944 177.505859 C 211.534546 177.759766 212.909546 178.243164 214.11377 178.839355 C 214.834595 179.180664 215.501221 179.560059 216.138794 179.972656 C 216.49292 180.209961 216.847046 180.45166 217.201294 180.693359 C 217.642944 181.018555 218.080444 181.331055 218.517944 181.655762 C 221.36792 183.722656 224.267944 185.747559 229.963745 185.747559 C 230.37207 185.747559 230.772095 185.734863 231.155396 185.706055 C 231.817871 185.680664 232.442871 185.622559 233.022095 185.522461 C 233.759644 185.410156 234.422119 185.268555 235.05957 185.084961 C 235.61377 184.914063 236.138794 184.730957 236.634644 184.518555 C 242.272095 182.168457 244.397095 177.251465 253.24707 177.251465 C 255.24707 177.251465 256.888794 177.505859 258.322144 177.918457 C 259.072144 178.130859 259.763794 178.397461 260.401245 178.697266 C 261.222046 179.063965 261.959595 179.489258 262.667969 179.956055 C 263.192871 180.280762 263.688721 180.622559 264.172119 180.976563 C 266.592896 182.718262 268.830444 184.560059 272.542969 185.355957 C 273.05127 185.468262 273.605469 185.551758 274.18457 185.609863 C 274.651245 185.680664 275.147095 185.706055 275.672119 185.722656 C 275.955444 185.747559 276.251221 185.747559 276.547119 185.747559 C 276.959595 185.747559 277.342896 185.734863 277.726196 185.706055 C 283.205444 185.422363 285.942871 183.130859 288.901367 180.993164 C 289.455322 180.593262 290.021973 180.185059 290.630371 179.818359 C 291.23877 179.418457 291.888672 179.051758 292.597168 178.739258 C 293.034668 178.526855 293.505371 178.331055 294.001221 178.172363 C 295.601318 177.605957 297.484619 177.251465 299.851318 177.251465 C 300.347168 177.251465 300.813721 177.268555 301.267822 177.310059 C 302.005371 177.334961 302.667969 177.422363 303.30542 177.547363 C 303.759521 177.618164 304.197021 177.718262 304.609619 177.818359 C 305.063721 177.947266 305.484619 178.084961 305.884521 178.243164 C 311.98877 180.45166 313.93042 185.693359 323.021973 185.747559 L 323.151367 185.747559 C 323.817871 185.747559 324.438721 185.722656 325.034668 185.664063 C 325.884521 185.593262 326.646973 185.468262 327.37207 185.297363 C 327.909668 185.185059 328.43457 185.043457 328.917969 184.872559 C 335.259521 182.693359 337.11792 177.251465 346.451172 177.251465"/>
            <path id="path22" fill="#368900" stroke="none" d="M 242.952026 199.475098 C 243.672974 200.479004 244.422974 201.529297 245.1604 202.545898 C 243.2771 203.566895 241.760376 204.829102 240.077026 205.979004 L 239.922974 205.479004 C 239.881226 205.308105 239.822876 205.041504 239.764526 204.829102 C 239.4104 203.058105 239.210449 201.304199 239.210449 199.475098 C 239.268799 198.583496 239.268799 197.645996 239.539551 196.783203 L 239.693726 196.116699 C 239.622925 195.862305 239.78125 195.666504 239.806274 195.4375 L 240.21875 194.108398 L 240.318726 193.795898 L 240.443726 194.204102 C 240.768799 195.195801 241.039551 196.091797 241.547974 197.008301 C 241.747925 197.433105 241.960449 197.858398 242.172974 198.270996 C 242.397949 198.666504 242.697876 199.091797 242.952026 199.475098"/>
            <path id="path23" fill="#368900" stroke="none" d="M 259.354126 197.492676 C 261.4375 196.583984 263.474976 195.509277 265.487549 194.29248 C 264.708374 196.430176 263.775024 198.59668 262.637451 200.72168 C 262.329224 201.275879 262.016724 201.796875 261.662476 202.309082 L 261.4375 202.621582 C 261.112549 202.434082 260.758301 202.250977 260.400024 202.092285 C 259.762451 201.796875 259.070801 201.529785 258.320801 201.317383 C 256.93335 200.921875 255.345825 200.663574 253.43335 200.650879 C 253.658325 200.521484 253.900024 200.425781 254.125 200.325684 L 254.25415 200.28418 C 254.295776 200.238281 254.283325 200.309082 254.283325 200.325684 L 254.37085 200.271484 L 254.679199 200.055176 C 254.891724 199.930176 255.104126 199.788574 255.31665 199.646484 C 255.758301 199.375977 256.18335 199.109375 256.62085 198.867676 C 257.525024 198.359375 258.404175 197.888184 259.354126 197.492676"/>
            <path id="path24" fill="#368900" stroke="none" d="M 266.294556 174.092285 C 266.311279 175.384277 266.311279 176.671875 266.211304 177.91748 C 266.140381 178.726074 266.023804 179.500977 265.88623 180.267578 C 265.727905 181.021484 265.515381 181.488281 265.290405 182.09668 C 264.807129 183.226074 264.211304 184.305176 263.50293 185.28418 C 262.07373 187.238281 260.173706 188.767578 258.036255 189.629883 C 256.990356 190.055176 255.927856 190.450684 254.87793 190.809082 C 254.836304 192.321777 254.623779 193.851074 254.25293 195.351074 C 254.07373 196.117676 253.844604 196.867676 253.57373 197.60498 C 253.436279 197.97168 253.290405 198.342285 253.123779 198.696777 L 252.88208 199.234375 L 252.75293 199.500977 L 252.723755 199.546875 C 252.723755 199.546875 252.723755 199.559082 252.711304 199.575684 L 252.652954 199.671875 C 252.469604 200.000977 252.286255 200.338379 252.115356 200.680176 C 251.890381 200.692383 251.677856 200.708984 251.465454 200.72168 C 251.661255 200.28418 251.902954 199.859375 252.12793 199.434082 L 252.25708 199.192383 C 251.619629 198.300781 250.982056 197.463379 250.290405 196.65918 C 247.669556 193.496582 245.869629 190.325684 245.273804 186.950684 C 244.977905 185.238281 244.582031 183.513184 244.12793 181.726074 C 245.586304 182.575684 247.044556 183.455078 248.461304 184.375977 C 250.31543 185.580078 251.790405 187.22168 252.682129 189.205078 C 253.590454 191.175781 253.898804 193.496582 253.436279 195.809082 C 253.336304 196.246582 253.248779 196.684082 253.13623 197.109375 C 254.115356 194.333984 254.452881 191.413574 254.25293 188.609375 C 254.027954 185.384277 253.898804 182.180176 253.81543 179.03418 C 252.852905 178.567383 251.915405 178.142578 250.898804 177.788574 C 249.94873 177.450684 249.07373 177.080078 248.236206 176.713379 C 247.357056 176.34668 246.590454 175.976074 245.852905 175.609375 C 244.38208 174.871582 243.148804 174.163574 242.115356 173.142578 L 238.361206 169.617676 L 243.461304 169.476074 C 245.640381 169.41748 247.765381 169.884277 249.51123 170.934082 C 251.236206 171.967285 252.69873 173.650879 253.31958 175.750977 C 253.50293 176.275879 253.590454 176.813477 253.744629 177.351074 C 253.548706 174.263184 253.077881 171.146484 252.357056 168.000977 C 252.215454 167.351074 252.07373 166.684082 251.890381 166.03418 C 251.577881 165.550781 251.277954 165.04248 250.94043 164.575684 C 248.615356 161.175781 247.669556 156.896484 249.040405 153.200684 C 249.398804 152.263184 249.777954 151.371582 250.161255 150.509277 C 250.586304 149.646484 251.023804 148.809082 251.477905 148.013184 C 252.00293 149.275879 252.552856 150.538574 253.248779 151.796875 C 254.115356 153.438477 254.69458 155.338379 254.923706 157.504883 C 255.148804 159.646484 254.977905 162.009277 254.19873 164.205078 C 253.786255 165.351074 253.348755 166.500977 252.865356 167.60498 L 252.936279 167.888184 C 253.69043 171.34668 254.211304 174.771484 254.38208 178.200684 C 254.452881 181.642578 254.577881 185.071777 254.836304 188.567383 C 254.865356 189.050781 254.87793 189.53418 254.87793 190.013184 C 255.148804 189.150879 255.38623 188.271484 255.598755 187.375977 C 256.56543 183.213379 258.88623 179.859375 261.890381 176.217285 C 262.652954 175.325684 263.390381 174.388184 264.040405 173.384277 C 264.711304 172.375977 265.373779 171.317383 265.94043 170.213379 C 266.152954 171.488281 266.19458 172.800781 266.294556 174.092285"/>
            <path id="path25" fill="#1e806e" stroke="none" d="M 206.677124 194.80957 L 206.210449 197.555176 L 205.685425 200.688965 L 205.614624 200.688965 C 204.993774 200.717773 204.4104 200.771973 203.860474 200.842773 C 203.5896 200.888672 203.318726 200.930176 203.064575 200.972168 L 203.064575 194.80957 Z"/>
            <path id="path26" fill="#1e806e" stroke="none" d="M 211.040039 194.214844 L 210.910889 194.981445 L 209.894165 200.915039 C 209.635864 200.873535 209.369141 200.831543 209.085815 200.802734 C 208.573364 200.731445 208.006714 200.686035 207.42749 200.67334 L 207.42749 194.214844 Z"/>
            <path id="path27" fill="#fff8f0" stroke="none" d="M 230.692505 141.297363 C 230.550781 143.989258 231.384155 145.822266 232.359131 147.743164 C 233.196655 149.380859 233.425781 151.268555 232.996704 153.055664 L 232.750854 154.081055 L 230.60083 164.468262 C 229.72583 168.672363 228.10083 172.685059 225.800781 176.313965 L 223.092529 180.581055 L 221.559204 183.722656 C 219.259155 188.501465 215.521606 192.414063 210.91333 194.984863 L 211.03833 194.218262 L 207.425781 194.218262 L 207.425781 196.918457 L 206.709106 197.313965 C 206.53418 197.414063 206.384155 197.484863 206.213379 197.560059 L 206.684204 194.813965 L 203.067505 194.813965 L 203.067505 198.897461 C 200.171631 199.914063 197.075806 200.305664 193.984131 200.084961 L 187.384155 199.609863 C 185.696655 199.489258 184.005005 199.831055 182.500854 200.605957 L 180.47168 201.643555 C 178.142456 202.805664 175.446655 202.980957 172.996704 202.089355 L 182.492554 192.268555 C 182.700806 192.07666 183.03418 191.76416 183.242554 191.568359 L 194.775879 181.793457 C 197.35083 179.614258 200.171631 177.706055 203.16748 176.101563 L 214.009155 170.280762 L 217.771606 168.755859 C 220.434204 167.680664 222.509155 165.518555 223.484131 162.818359 L 227.209106 152.45166 C 227.796631 150.810059 227.584106 149.026855 226.79248 147.468262 C 225.750854 145.418457 225.171631 143.093262 225.171631 140.630859 C 225.171631 136.843262 226.559204 133.376465 228.834106 130.70166 C 229.700806 129.714355 230.088379 129.438965 231.155029 128.693359 C 231.871704 128.305664 232.613281 128.151855 233.059204 128.168457 C 237.896606 128.401855 241.263306 132.114258 241.263306 133.476563 C 241.263306 135.95166 235.838379 137.164063 233.338379 137.164063 C 231.196655 137.164063 230.775879 139.714355 230.692505 141.297363"/>
            <path id="path28" fill="#fff8f0" stroke="none" d="M 203.068359 194.8125 L 206.685059 194.8125 L 206.209961 197.558105 C 205.19751 198.104004 204.160034 198.549805 203.068359 198.895996 Z"/>
            <path id="path29" fill="#fff8f0" stroke="none" d="M 211.038696 194.218262 L 210.913696 194.984863 C 210.842896 195.035156 210.74292 195.084961 210.667969 195.134766 L 207.42627 196.914063 L 207.42627 194.218262 Z"/>
            <path id="path30" fill="#fdc676" stroke="none" d="M 251.20166 133.208496 C 251.418335 133.291504 251.405884 133.616699 251.180786 133.683105 C 248.751709 134.391602 246.160034 134.787598 243.489136 134.787598 C 241.593384 134.787598 239.747559 134.591797 237.964111 134.220703 C 236.44751 133.904297 236.580811 131.683105 238.118286 131.504395 C 239.147461 131.383301 240.19751 131.325195 241.26001 131.325195 C 244.772461 131.325195 248.114136 131.991699 251.20166 133.208496"/>
            <path id="path31" fill="#dcd7ce" stroke="none" d="M 212.817505 173.236816 L 201.575806 179.228516 C 200.696655 179.694824 199.871704 180.253418 199.109131 180.882324 L 184.184204 193.690918 C 183.530029 194.236816 183.238281 195.103516 183.434204 195.932617 L 184.009155 196.557617 C 184.259155 197.607422 185.22168 198.328125 186.296631 198.27832 L 196.209106 198.282715 C 199.959106 198.099121 202.459106 195.940918 205.771606 194.178223 L 208.47168 192.740723 C 212.880005 190.39502 216.500854 186.803223 218.875854 182.416016 L 221.688354 177.228516 C 222.79248 175.190918 221.492554 172.682617 219.188354 172.416016 L 217.946655 172.27002 C 216.175781 172.061523 214.388306 172.398926 212.817505 173.236816"/>
            <path id="path32" fill="#286fb7" stroke="none" d="M 234.796631 131.671387 C 234.796631 132.225586 234.34668 132.675293 233.79248 132.675293 C 233.238281 132.675293 232.78833 132.225586 232.78833 131.671387 C 232.78833 131.117188 233.238281 130.666992 233.79248 130.666992 C 234.34668 130.666992 234.796631 131.117188 234.796631 131.671387"/>
            <path id="path33" fill="#3e953b" stroke="none" d="M 209.212524 195.948242 C 209.229126 197.577637 209.18335 199.189941 209.083374 200.793945 C 208.545776 200.723145 207.966675 200.677734 207.358276 200.665039 C 207.12915 200.652344 206.904175 200.652344 206.662476 200.652344 C 206.30835 200.652344 205.954224 200.665039 205.616699 200.677734 C 204.991699 200.706543 204.408325 200.765137 203.858276 200.835938 C 203.87085 199.177734 203.829224 197.519043 203.729126 195.877441 C 203.55835 192.265137 203.020874 188.765137 202.44165 185.098145 C 202.045776 182.477539 201.74585 179.773438 201.733276 177.010742 C 201.720825 175.115234 201.845825 173.144043 202.05835 171.290039 C 202.270874 169.431641 202.554199 167.589844 202.854126 165.765137 C 203.462524 162.11084 204.170776 158.527344 204.820801 154.944336 C 205.00415 153.994141 205.429199 153.29834 205.829224 153.356445 L 207.05835 153.527344 C 207.429199 153.585938 207.641724 154.277344 207.570801 155.181641 C 207.170776 160.339844 206.62085 165.481445 206.491699 170.523438 C 206.408325 173.073242 206.520874 175.410645 206.833374 177.877441 C 207.145874 180.311035 207.612549 182.777344 208.091675 185.311035 C 208.404175 186.994141 208.704224 188.740234 208.900024 190.540039 C 209.112549 192.323242 209.195801 194.206543 209.212524 195.948242"/>
            <path id="path34" fill="#5bbc57" stroke="none" d="M 207.356689 200.665527 C 207.127441 200.648926 206.902466 200.648926 206.660889 200.648926 C 206.310791 200.648926 205.952515 200.665527 205.61499 200.682129 C 205.756714 197.465332 205.685791 194.219727 205.30249 191.019531 C 204.777466 186.923828 203.956665 182.861328 203.531616 178.711426 C 203.23584 176.019531 203.290039 173.215332 203.67334 170.536133 C 204.29834 165.723633 205.290039 160.990234 206.181641 156.244629 C 205.898315 160.382324 205.527466 164.532227 205.402466 168.652832 C 205.331665 170.707031 205.314941 172.773926 205.444214 174.757324 C 205.585815 176.757324 205.869141 178.75293 206.223389 180.748535 C 206.819214 184.161133 207.456665 187.648926 207.681641 191.273926 C 207.86499 194.50293 207.710815 197.590332 207.356689 200.665527"/>
            <path id="path35" fill="#3e953b" stroke="none" d="M 282.725464 194.899902 C 282.683716 195.920898 282.58374 196.966797 282.429565 198.004395 C 282.358765 198.524902 282.258789 199.033203 282.14624 199.558105 C 282.029541 200.095703 281.858765 200.737305 281.662964 201.304199 C 280.871216 203.583496 279.692139 205.308105 278.887939 206.712402 C 278.475464 207.433105 278.150391 207.987305 277.879639 208.708496 C 277.825439 208.837402 277.76709 208.979004 277.725464 209.108398 C 277.342041 209.137695 276.95874 209.149902 276.550415 209.149902 C 276.254639 209.149902 275.95459 209.149902 275.671265 209.120605 C 275.14624 209.108398 274.654541 209.079102 274.183716 209.008301 C 273.604614 208.950195 273.050415 208.866699 272.542114 208.754395 C 272.921265 207.366699 273.421265 205.962402 274.100464 204.645996 C 275.07959 202.704102 276.096191 201.0625 276.52124 199.416504 C 276.733765 198.654297 276.858765 197.691895 276.975464 196.787598 C 277.058716 195.862305 277.117065 194.929199 277.129639 194.008301 C 277.158691 192.137695 277.029541 190.241699 276.804565 188.354004 C 276.492065 185.649902 276.042114 182.875 275.729614 180.012695 C 275.51709 178.029297 275.32959 176.004395 275.275391 173.9375 C 275.217041 171.854004 275.358765 169.816895 275.51709 167.833496 C 275.854614 163.837402 276.421265 159.929199 276.858765 156.045898 C 276.975464 155.012695 277.358765 154.245605 277.754639 154.262695 L 279.000366 154.362305 C 279.367065 154.391602 279.637939 155.112305 279.608765 156.091797 C 279.508789 161.658203 279.154541 167.25 279.567139 172.533203 C 280.033691 177.745605 281.679565 183.004395 282.442139 188.879395 C 282.696289 190.820801 282.808716 192.845703 282.725464 194.899902"/>
            <path id="path36" fill="#5bbc57" stroke="none" d="M 281.393799 195.523926 C 281.293701 196.527832 281.139526 197.536133 280.9104 198.540527 C 280.7146 199.490234 280.372925 200.665527 279.922974 201.615234 C 279.014526 203.582031 277.810425 205.082031 276.918701 206.557129 C 276.435425 207.353027 276.0271 208.215332 275.672974 209.119629 C 275.147949 209.106934 274.6521 209.078125 274.185425 209.007324 C 274.197876 208.923828 274.227051 208.853027 274.252075 208.769531 C 274.922974 206.344727 276.377075 204.277832 277.497925 202.069824 C 278.672974 199.856934 278.985474 197.307129 279.0979 194.856934 C 279.252075 190.394531 278.489624 186.007324 277.685425 181.62793 C 277.172974 178.794434 276.747925 175.848633 276.760376 172.902832 C 276.8479 167.632324 277.668701 162.507324 278.289551 157.336426 C 278.235474 161.81543 278.064575 166.290527 278.289551 170.694824 C 278.489624 175.057129 279.581299 179.277832 280.514526 183.711426 C 281.335449 187.465332 281.802124 191.486328 281.393799 195.523926"/>
            <path id="path37" fill="#3e953b" stroke="none" d="M 307.257813 189.899902 C 307.22876 192.291504 307.074463 194.704102 306.73291 197.108398 C 306.537109 198.654297 306.224609 200.183105 305.882813 201.641602 C 305.487061 201.487305 305.062012 201.345703 304.60791 201.216797 C 304.199463 201.116699 303.761963 201.020996 303.303711 200.945801 C 302.66626 200.820801 302.003662 200.733398 301.266357 200.708496 L 301.349609 200.308105 C 301.774658 198.004395 302.003662 195.691895 302.074463 193.354004 C 302.187012 188.683105 301.816162 183.991699 301.212158 179.333496 C 300.091309 170.608398 298.687012 161.5 298.899658 152.633301 C 298.928711 151.487305 299.199463 150.679199 299.537109 150.666504 L 300.953857 150.608398 C 301.307861 150.595703 301.649658 151.404297 301.79126 152.5625 C 302.824463 160.354004 304.636963 168.016602 306.011963 175.962402 C 306.79126 180.424805 307.299561 185.112305 307.257813 189.899902"/>
            <path id="path38" fill="#5bbc57" stroke="none" d="M 305.96875 188.696289 C 305.985352 191.092285 305.868652 193.512695 305.572998 195.904785 C 305.360352 197.691895 305.006348 199.487793 304.610352 201.217285 C 304.197998 201.117188 303.760498 201.01709 303.306152 200.950195 C 303.364502 200.691895 303.40625 200.425293 303.447998 200.166992 C 303.960449 197.237793 304.15625 194.250488 304.127197 191.288086 C 304.072998 185.879395 303.418701 180.538086 302.568848 175.254395 C 301.452148 168.171387 300.372803 160.779785 300.360352 153.583984 C 301.435303 160.679688 303.110352 167.604492 304.452148 174.687988 C 305.331299 179.221191 305.927002 183.908691 305.96875 188.696289"/>
            <path id="path39" fill="none" stroke="#ccf4ff" stroke-width="2.5" d="M 346.450928 200.650879 C 337.117432 200.650879 335.259277 206.092285 328.91748 208.271484 C 328.434082 208.442383 327.90918 208.583984 327.371582 208.696777 C 326.646729 208.867676 325.884277 208.992676 325.03418 209.063477 C 324.438232 209.121582 323.817383 209.146484 323.150879 209.146484 L 323.021729 209.146484 C 313.929932 209.092285 311.988281 203.851074 305.884277 201.642578 C 305.488281 201.484375 305.063232 201.34668 304.609131 201.217285 C 304.196777 201.117676 303.759277 201.017578 303.304932 200.946777 C 302.66748 200.821777 302.004883 200.734375 301.267578 200.708984 C 300.813232 200.66748 300.34668 200.650879 299.85083 200.650879 C 297.484131 200.650879 295.60083 201.004883 294.000732 201.571777 C 293.504883 201.72998 293.03833 201.925781 292.59668 202.138184 C 291.892578 202.450684 291.238281 202.817383 290.629883 203.213379 C 290.021729 203.583984 289.455078 203.992676 288.900879 204.392578 C 285.942383 206.529785 283.204956 208.821777 277.72583 209.10498 C 277.342529 209.134277 276.959229 209.146484 276.550781 209.146484 C 276.255005 209.146484 275.954956 209.146484 275.671631 209.121582 C 275.146606 209.10498 274.650879 209.080078 274.184204 209.009277 C 273.60498 208.950684 273.050781 208.867676 272.54248 208.754883 C 268.829956 207.958984 266.592529 206.117676 264.171631 204.375977 C 263.688354 204.021484 263.192505 203.680176 262.66748 203.35498 C 262.271729 203.088379 261.859131 202.84668 261.434204 202.621582 C 261.109131 202.434082 260.755005 202.250977 260.405029 202.09668 C 259.767456 201.796875 259.071655 201.529785 258.321655 201.317383 C 256.934204 200.921875 255.34668 200.66748 253.434204 200.650879 L 253.246704 200.650879 C 252.85498 200.650879 252.484131 200.66748 252.117554 200.680176 C 251.892456 200.692383 251.680054 200.708984 251.467529 200.72168 C 248.829956 200.946777 246.859131 201.642578 245.15918 202.546875 C 243.280029 203.567383 241.763306 204.830078 240.075806 205.976074 C 239.030029 206.713379 237.921631 207.379883 236.634155 207.91748 C 236.138306 208.129883 235.617554 208.313477 235.063354 208.484375 C 234.425781 208.66748 233.759155 208.809082 233.021729 208.921875 C 232.442505 209.021484 231.817505 209.080078 231.155029 209.10498 C 230.771606 209.134277 230.371704 209.146484 229.963379 209.146484 C 224.267456 209.146484 221.367554 207.121582 218.517456 205.055176 C 218.079956 204.72998 217.642456 204.41748 217.200806 204.092285 C 216.84668 203.851074 216.492554 203.609375 216.138306 203.371582 C 215.500854 202.958984 214.834229 202.580078 214.113281 202.238281 C 212.90918 201.642578 211.53418 201.15918 209.892456 200.904785 C 209.638306 200.863281 209.367554 200.821777 209.084229 200.79248 C 208.575806 200.72168 208.009155 200.680176 207.430054 200.66748 L 207.35498 200.66748 C 207.130005 200.650879 206.905029 200.650879 206.66333 200.650879 C 206.334229 200.650879 205.996704 200.66748 205.684204 200.680176 L 205.617554 200.680176 C 204.992554 200.708984 204.40918 200.763184 203.859131 200.833984 C 203.588379 200.879883 203.321655 200.921875 203.067505 200.963379 C 198.829956 201.771484 196.450806 203.90918 193.746704 205.821777 C 193.263306 206.15918 192.755005 206.500977 192.22998 206.813477 C 191.579956 207.208984 190.871704 207.580078 190.10498 207.888184 C 189.521729 208.142578 188.884155 208.371582 188.204956 208.555176 C 186.834229 208.921875 185.259155 209.146484 183.375854 209.146484 C 171.717529 209.146484 171.717529 200.650879 160.075806 200.650879"/>
            <path id="path40" fill="none" stroke="#368900" stroke-width="2.5" stroke-linecap="round" stroke-linejoin="round" d="M 285.846191 339.275391 C 285.846191 356.908691 271.550415 371.20459 253.917114 371.20459 C 236.283691 371.20459 221.987915 356.908691 221.987915 339.275391 C 221.987915 321.64209 236.283691 307.346191 253.917114 307.346191 C 271.550415 307.346191 285.846191 321.64209 285.846191 339.275391 Z"/>
            <path id="path41" fill="none" stroke="#3abca9" stroke-width="2.5" stroke-linecap="round" stroke-linejoin="round" d="M 239.436646 338.477539 L 248.557495 347.598145 L 267.02002 329.140137"/>
        </g>
    </g>
</svg>
