<?xml version="1.0" encoding="UTF-8"?>
<!-- Generated by Pixelmator Pro 3.5.7 -->
<svg viewBox="0 0 1565 1468" xmlns="http://www.w3.org/2000/svg">
    <path id="Path" fill="#44bf00" stroke="none" d="M 1554.807495 818.453125 L 1554.407471 817.84082 C 1542.365845 799.453125 1541.253296 776.194336 1551.011719 756.874023 L 1554.39917 751.69043 C 1563.190796 738.244141 1566.074219 722.381836 1563.378296 707.419922 C 1561.386719 695.694336 1555.990845 684.494141 1547.299194 675.415039 L 1547.265869 675.381836 C 1540.078369 667.87793 1535.107544 658.848633 1532.482544 649.227539 C 1529.199219 636.585938 1529.978394 622.957031 1535.20752 610.398438 L 1535.21167 610.381836 C 1541.411621 595.490234 1541.299194 579.290039 1535.828369 565.032227 C 1531.71167 553.927734 1524.365845 543.960938 1514.203369 536.665039 L 1514.157471 536.631836 C 1504.511719 529.707031 1497.33667 520.298828 1493.103394 509.723633 C 1488.915894 498.898438 1487.803345 486.886719 1490.307495 475.052734 L 1490.315796 475.006836 C 1492.928345 462.640625 1491.574219 450.207031 1487.02417 439.148438 C 1481.415771 425.069336 1470.624146 413.157227 1456.115845 406.386719 L 1456.09082 406.374023 C 1442.565796 400.056641 1432.140869 389.173828 1426.249146 376.085938 C 1422.77417 368.107422 1420.974121 359.332031 1421.182495 350.282227 L 1421.182495 350.227539 C 1421.436646 339.381836 1418.799194 329.02832 1413.936646 319.96582 C 1406.111694 305.015625 1392.21582 293.515625 1374.986694 289.094727 L 1374.982544 289.094727 C 1361.882568 285.732422 1350.59082 278.223633 1342.478394 268.09082 C 1337.661621 261.919922 1334.045044 254.794922 1331.874146 247.069336 L 1330.857544 240.75293 C 1328.549194 226.365234 1321.282471 213.794922 1310.949219 204.669922 C 1300.994995 195.511719 1288.02002 189.636719 1273.753296 188.665039 L 1273.682495 188.661133 C 1263.136719 187.94043 1253.21582 184.52832 1244.694946 179.023438 C 1234.240845 171.898438 1226.011597 161.582031 1221.570068 149.169922 L 1221.561646 149.15332 C 1216.619995 135.352539 1207.08667 124.286133 1195.157471 117.223633 C 1183.719971 110.107422 1169.940796 106.756836 1155.790894 108.411133 L 1155.744995 108.419922 C 1144.003296 109.790039 1132.415771 107.694336 1122.194946 102.782227 C 1112.02002 97.585938 1103.290894 89.552734 1097.27002 79.282227 L 1097.244995 79.240234 C 1090.84082 68.306641 1081.440796 60.011719 1070.594971 54.898438 C 1068.969971 54.111328 1067.307495 53.407227 1065.624146 52.765625 C 1053.011719 47.811523 1038.77002 47.02832 1025.094971 51.298828 L 1025.078369 51.306641 C 1013.724121 54.848633 1001.869995 54.919922 990.857422 51.923828 C 988.295044 51.194336 985.790894 50.282227 983.344971 49.223633 C 975.378296 45.661133 968.119995 40.369141 962.170044 33.519531 L 962.136719 33.477539 C 955.007568 25.269531 946.069946 19.381836 936.349243 15.953125 C 932.953369 14.71582 929.453247 13.802734 925.90332 13.181641 C 924.953369 13.006836 923.994995 12.90332 923.040894 12.773438 C 922.549194 12.710938 922.061646 12.611328 921.569946 12.561523 C 909.661621 11.223633 897.315796 13.348633 886.132568 19.282227 L 886.119995 19.286133 C 875.599243 24.874023 863.944946 27.119141 852.557495 26.194336 C 851.244995 26.073242 849.932495 25.90332 848.628296 25.694336 C 838.71167 23.990234 829.170044 19.844727 820.96582 13.319336 L 820.932495 13.294922 C 811.040894 5.431641 799.319946 1.085938 787.390869 0.210938 C 783.994995 -0.072266 780.58252 -0.072266 777.186646 0.210938 C 765.261658 1.085938 753.540833 5.431641 743.64917 13.294922 L 743.619995 13.319336 C 735.407471 19.844727 725.861633 23.994141 715.936707 25.699219 C 714.644958 25.90332 713.344971 26.073242 712.036682 26.194336 C 700.64502 27.124023 688.986694 24.874023 678.46167 19.286133 L 678.453369 19.282227 C 667.27417 13.352539 654.932495 11.223633 643.02832 12.561523 C 641.665833 12.699219 640.311646 12.911133 638.96167 13.140625 C 638.878357 13.157227 638.790833 13.161133 638.70752 13.177734 C 635.124146 13.798828 631.599121 14.719727 628.178284 15.973633 C 618.478333 19.40332 609.561707 25.286133 602.449219 33.477539 L 602.411682 33.519531 C 596.474182 40.352539 589.236694 45.631836 581.294983 49.194336 C 578.811646 50.273438 576.274109 51.198242 573.674194 51.936523 C 562.678345 54.915039 550.84082 54.844727 539.503296 51.306641 L 539.486633 51.298828 C 525.83667 47.036133 511.611633 47.806641 499.015808 52.740234 C 497.282471 53.398438 495.574158 54.124023 493.907532 54.936523 C 483.095032 60.052734 473.728271 68.335938 467.336609 79.240234 L 467.311707 79.282227 C 461.295044 89.552734 452.561646 97.585938 442.386719 102.782227 C 432.165894 107.694336 420.58252 109.790039 408.840759 108.419922 L 408.790833 108.411133 C 394.64502 106.756836 380.861633 110.107422 369.424133 117.223633 C 357.494934 124.286133 347.96167 135.352539 343.019958 149.15332 L 343.015869 149.169922 C 338.570007 161.582031 330.34082 171.898438 319.886597 179.023438 C 311.365845 184.52832 301.444946 187.94043 290.90332 188.661133 L 290.832458 188.665039 C 276.561707 189.636719 263.58667 195.511719 253.632446 204.669922 C 243.299194 213.794922 236.036652 226.365234 233.724182 240.75293 L 232.740875 246.865234 C 230.557465 254.740234 226.878326 261.999023 221.957489 268.260742 C 213.857483 278.306641 202.628296 285.75293 189.603394 289.094727 L 189.595001 289.094727 C 173.924225 293.115234 161.02417 303.00293 152.932434 316.00293 C 146.590881 325.953125 143.09079 337.773438 143.378296 350.232422 L 143.378296 350.286133 C 143.619995 360.673828 141.199188 370.694336 136.644958 379.569336 C 130.549194 391.098633 120.803284 400.624023 108.490845 406.374023 L 108.46579 406.386719 C 95.394989 412.490234 85.357513 422.769531 79.394989 435.040039 C 73.369934 447.074219 71.307465 461.085938 74.249115 475.006836 L 74.261688 475.061523 C 77.036621 488.199219 75.34494 501.548828 69.953369 513.25293 C 65.607544 522.390625 58.986633 530.486328 50.424164 536.631836 L 50.382446 536.665039 C 40.257477 543.936523 32.924103 553.848633 28.794952 564.90332 C 23.278381 579.19043 23.140808 595.444336 29.361694 610.381836 L 29.369965 610.40332 C 34.811615 623.477539 35.3992 637.699219 31.640839 650.769531 C 28.915863 659.811523 24.115845 668.27832 17.319946 675.381836 L 17.286652 675.415039 C 8.594971 684.490234 3.199219 695.69043 1.207443 707.415039 C -1.492477 722.37793 1.390808 738.244141 10.182526 751.686523 L 13.565796 756.861328 C 23.328369 776.186523 22.21994 799.449219 10.174133 817.84082 L 9.774109 818.453125 C -5.534149 841.986328 -2.617554 872.96582 16.811707 893.232422 C 33.661621 910.806641 38.536682 936.677734 29.232483 959.173828 L 29.124146 959.44043 C 18.307465 985.594727 26.90744 1015.756836 49.886658 1032.27832 L 49.932434 1032.31543 C 69.478302 1046.365234 78.924133 1070.598633 74.053284 1094.173828 L 73.853394 1095.15332 C 68.140869 1122.794922 82.194977 1150.732422 107.799103 1162.619629 L 107.815765 1162.62793 C 129.724213 1172.798828 143.524139 1194.981934 142.974182 1219.12793 L 142.96579 1219.515625 C 142.315887 1247.865234 161.261719 1272.927734 188.711639 1280.040527 L 195.40744 1281.773926 C 199.353363 1282.794434 203.34494 1283.394531 207.332458 1283.615234 L 207.332458 1283.615234 C 209.674164 1283.744629 212.015869 1283.75293 214.345001 1283.615234 L 214.757507 1283.615234 C 275.778259 1283.615234 334.882446 1303.507324 384.432434 1339.119629 C 387.544983 1341.356934 390.686646 1343.561035 393.840881 1345.748535 C 394.570007 1346.256836 395.303284 1346.765625 396.036621 1347.269531 C 399.065857 1349.356934 402.111633 1351.419434 405.174194 1353.457031 C 405.874207 1353.923828 406.582458 1354.38623 407.282471 1354.848633 C 417.015808 1361.265625 426.915833 1367.44043 436.986633 1373.365234 C 437.782532 1373.832031 438.574158 1374.307129 439.370056 1374.773926 C 442.303284 1376.481934 445.257507 1378.161133 448.21582 1379.828125 C 449.465759 1380.532227 450.715881 1381.231934 451.969971 1381.927734 C 454.861694 1383.532227 457.757507 1385.119629 460.674133 1386.682129 C 461.861633 1387.319824 463.057556 1387.94043 464.249146 1388.569824 C 473.720032 1393.57373 483.324158 1398.356934 493.053345 1402.919434 C 494.703308 1403.694336 496.349182 1404.473633 498.007507 1405.236328 C 500.674133 1406.457031 503.349121 1407.661133 506.032532 1408.853027 C 507.890869 1409.677734 509.757507 1410.490234 511.624146 1411.298828 C 514.236694 1412.427734 516.853333 1413.561035 519.486633 1414.661133 C 521.503357 1415.50293 523.532532 1416.31543 525.557495 1417.140625 C 529.832458 1418.87793 534.128357 1420.578125 538.445007 1422.228027 C 540.845032 1423.148926 543.240845 1424.078125 545.65332 1424.969727 C 548.040833 1425.853027 550.440796 1426.703125 552.84082 1427.561035 C 555.199158 1428.402832 557.561646 1429.240234 559.936707 1430.057129 C 562.299194 1430.873535 564.670044 1431.677734 567.044983 1432.465332 C 569.578308 1433.307129 572.119995 1434.12793 574.665833 1434.94043 C 576.890869 1435.648926 579.111633 1436.369629 581.345032 1437.057129 C 585.161682 1438.231934 588.990784 1439.365234 592.83252 1440.473633 C 595.178284 1441.152832 597.528381 1441.802734 599.882446 1442.457031 C 603.119995 1443.353027 606.361694 1444.240234 609.619995 1445.090332 C 611.699219 1445.63623 613.790833 1446.152832 615.878296 1446.677734 C 618.824158 1447.415527 621.77417 1448.140625 624.736694 1448.840332 C 626.807495 1449.328125 628.882507 1449.81543 630.961609 1450.286133 C 634.240784 1451.032227 637.532532 1451.740234 640.828369 1452.436035 C 642.545044 1452.798828 644.257507 1453.177734 645.978333 1453.527832 C 650.853333 1454.515625 655.740845 1455.453125 660.65332 1456.340332 C 662.14502 1456.606934 663.64917 1456.848633 665.14917 1457.106934 C 668.77832 1457.736328 672.420044 1458.344727 676.070007 1458.915527 C 677.96582 1459.211426 679.865845 1459.494629 681.769958 1459.773926 C 685.165833 1460.277832 688.570007 1460.75293 691.982483 1461.203125 C 693.820007 1461.444336 695.65332 1461.694824 697.494995 1461.919434 C 701.611694 1462.432129 705.744995 1462.902832 709.890808 1463.340332 C 710.953369 1463.453125 712.011658 1463.582031 713.078308 1463.69043 C 718.244995 1464.211426 723.432495 1464.665527 728.632507 1465.069824 C 730.144958 1465.19043 731.665833 1465.282227 733.178345 1465.390625 C 736.982483 1465.661133 740.794983 1465.907227 744.619995 1466.115234 C 746.436646 1466.215332 748.261658 1466.302734 750.082458 1466.38623 C 753.811646 1466.561035 757.549194 1466.69873 761.295044 1466.811035 C 762.953369 1466.861328 764.607544 1466.923828 766.265808 1466.961426 C 771.595032 1467.086426 776.932495 1467.165527 782.290771 1467.165527 C 787.64917 1467.165527 792.990845 1467.086426 798.319946 1466.961426 C 799.978394 1466.923828 801.632568 1466.861328 803.286621 1466.811035 C 807.032471 1466.69873 810.77002 1466.561035 814.499146 1466.38623 C 816.324219 1466.302734 818.14502 1466.215332 819.96167 1466.115234 C 823.786621 1465.907227 827.599121 1465.661133 831.407471 1465.390625 C 832.919922 1465.282227 834.436646 1465.19043 835.949219 1465.069824 C 841.14917 1464.665527 846.33667 1464.211426 851.503296 1463.69043 C 852.569946 1463.582031 853.628296 1463.453125 854.695068 1463.340332 C 858.83667 1462.902832 862.969971 1462.432129 867.08667 1461.923828 C 868.928345 1461.694824 870.765869 1461.444336 872.603271 1461.203125 C 876.015869 1460.75293 879.415894 1460.277832 882.811646 1459.773926 C 884.71167 1459.494629 886.615845 1459.211426 888.511719 1458.915527 C 892.161621 1458.344727 895.799194 1457.736328 899.432495 1457.106934 C 900.928345 1456.848633 902.436646 1456.606934 903.932495 1456.340332 C 908.84082 1455.453125 913.732544 1454.515625 918.603394 1453.527832 C 920.324219 1453.177734 922.036621 1452.798828 923.753296 1452.436035 C 927.053345 1451.740234 930.34082 1451.032227 933.619995 1450.286133 C 935.699219 1449.81543 937.77417 1449.328125 939.849121 1448.836426 C 942.807495 1448.140625 945.757568 1447.419434 948.699097 1446.677734 C 950.790771 1446.152832 952.882446 1445.63623 954.969971 1445.090332 C 958.219971 1444.240234 961.453369 1443.356934 964.682495 1442.461426 C 967.053345 1441.802734 969.424194 1441.144531 971.786621 1440.465332 C 975.615845 1439.361328 979.432495 1438.231934 983.232544 1437.061035 C 985.469971 1436.369629 987.695068 1435.648926 989.924194 1434.94043 C 992.46582 1434.12793 995.003296 1433.307129 997.532471 1432.469727 C 999.915894 1431.677734 1002.290771 1430.869629 1004.661621 1430.052734 C 1007.02417 1429.240234 1009.374146 1428.407227 1011.724121 1427.56543 C 1014.128296 1426.707031 1016.536621 1425.853027 1018.928345 1424.969727 C 1021.324219 1424.082031 1023.703369 1423.161133 1026.08667 1422.248535 C 1030.432495 1420.586426 1034.753296 1418.87793 1039.053345 1417.12793 C 1041.070068 1416.311035 1043.08667 1415.498535 1045.094971 1414.661133 C 1047.736694 1413.557129 1050.361694 1412.423828 1052.982544 1411.286133 C 1054.83667 1410.486328 1056.686646 1409.677734 1058.52832 1408.861328 C 1061.219971 1407.665527 1063.907471 1406.461426 1066.58252 1405.231934 C 1068.232544 1404.473633 1069.874146 1403.69873 1071.515869 1402.927734 C 1081.261719 1398.356934 1090.874146 1393.56543 1100.361694 1388.557129 C 1101.540894 1387.932129 1102.728271 1387.31543 1103.90332 1386.686523 C 1106.824219 1385.124023 1109.728271 1383.527832 1112.619995 1381.923828 C 1113.869995 1381.231934 1115.115845 1380.536133 1116.357544 1379.836426 C 1119.324219 1378.165527 1122.27832 1376.481934 1125.219971 1374.769531 C 1126.007446 1374.311035 1126.790894 1373.840332 1127.578369 1373.373535 C 1137.657471 1367.444336 1147.574219 1361.26123 1157.315796 1354.836426 C 1158.011597 1354.37793 1158.70752 1353.923828 1159.39917 1353.465332 C 1162.469971 1351.423828 1165.52002 1349.353027 1168.557495 1347.265625 C 1169.282471 1346.765625 1170.007568 1346.26123 1170.732544 1345.757324 C 1173.886719 1343.56543 1177.036621 1341.361328 1180.15332 1339.115234 C 1229.703369 1303.507324 1288.803345 1283.615234 1349.824219 1283.615234 L 1350.240845 1283.615234 C 1352.565796 1283.75293 1354.907471 1283.744629 1357.249146 1283.615234 L 1358.828369 1283.615234 L 1358.828369 1283.498535 C 1362.290894 1283.215332 1365.753296 1282.661133 1369.174194 1281.773926 L 1375.869995 1280.040527 C 1403.319946 1272.927734 1422.265869 1247.865234 1421.619995 1219.515625 L 1421.607544 1219.12793 C 1421.057495 1194.981934 1434.861694 1172.798828 1456.765869 1162.62793 L 1456.786621 1162.619629 C 1482.52002 1150.669922 1496.574219 1122.515625 1490.65332 1094.769531 L 1490.607544 1094.556641 C 1485.557495 1070.874023 1494.990845 1046.449219 1514.64917 1032.31543 L 1514.699219 1032.27832 C 1537.678345 1015.756836 1546.27417 985.594727 1535.45752 959.44043 L 1535.349121 959.173828 C 1526.049194 936.677734 1530.920044 910.806641 1547.77002 893.232422 C 1567.203369 872.96582 1570.115845 841.986328 1554.807495 818.453125"/>
    <path id="path1" fill="#44bf00" stroke="none" d="M 782.29126 1385.195801 C 1108.678711 1385.195801 1373.262085 1120.608398 1373.262085 794.224609 C 1373.262085 467.837891 1108.678711 203.25 782.29126 203.25 C 455.907898 203.25 191.320435 467.837891 191.320435 794.224609 C 191.320435 1120.608398 455.907898 1385.195801 782.29126 1385.195801"/>
    <clipPath id="clipPath-XAOIx-1">
        <path d="M 191.320831 794.224609 C 191.320831 1120.608398 455.908325 1385.195801 782.291656 1385.195801 L 782.291656 1385.195801 C 1108.67923 1385.195801 1373.262604 1120.608398 1373.262604 794.224609 L 1373.262604 794.224609 C 1373.262604 467.837891 1108.67923 203.25 782.291656 203.25 L 782.291656 203.25 C 455.908325 203.25 191.320831 467.837891 191.320831 794.224609"/>
    </clipPath>
    <g id="Group" clip-path="url(#clipPath-XAOIx-1)">
        <path id="path2" fill="#d18a22" stroke="none" d="M 1144.331299 489.212891 C 1144.331299 472.133789 1130.71875 458.288086 1113.922974 458.288086 L 418.78125 458.288086 C 402.0354 458.288086 388.331238 472.216797 388.331238 489.25 L 388.331238 1402.271484 C 388.331238 1419.350586 401.947937 1433.191895 418.743713 1433.191895 L 1113.885376 1433.191895 C 1130.631226 1433.191895 1144.331299 1419.258789 1144.331299 1402.229492 Z"/>
        <path id="path3" fill="#fff9f0" stroke="none" d="M 1112.345825 494.544922 C 1112.345825 494.194336 1112.054199 493.907227 1111.695801 493.907227 L 420.716675 493.907227 C 420.354126 493.907227 420.0625 494.194336 420.0625 494.544922 L 420.0625 1396.936035 C 420.0625 1397.286133 420.354126 1397.57373 420.716675 1397.57373 L 1111.695801 1397.57373 C 1112.054199 1397.57373 1112.345825 1397.286133 1112.345825 1396.936035 Z"/>
        <path id="path4" fill="#d18a22" stroke="none" d="M 938.928711 542.953125 L 593.73291 542.953125 C 590.466248 542.953125 587.816284 540.303711 587.816284 537.037109 L 587.816284 440.328125 C 587.816284 439.103516 588.807922 438.111328 590.032898 438.111328 L 942.628784 438.111328 C 943.85376 438.111328 944.845459 439.103516 944.845459 440.328125 L 944.845459 537.037109 C 944.845459 540.303711 942.195435 542.953125 938.928711 542.953125"/>
        <path id="path5" fill="#002f54" stroke="none" d="M 766.099609 400.046875 C 758.520447 400.046875 752.241272 381.208984 752.241272 373.413086 C 752.241272 365.62207 758.520447 359.55957 766.099609 359.55957 C 773.891235 359.55957 780.17041 365.62207 780.17041 373.413086 C 780.17041 381.208984 773.891235 400.046875 766.099609 400.046875 M 886.487061 419.53418 L 840.803711 419.53418 C 819.145386 419.53418 801.395386 407.625977 801.395386 392.900391 L 801.395386 366.271484 C 801.395386 353.054688 785.370361 342.234375 765.66626 342.234375 C 745.741272 342.234375 729.716248 353.054688 729.716248 366.271484 L 729.716248 392.900391 C 729.716248 407.625977 711.966248 419.53418 690.312073 419.53418 L 645.924561 419.53418 C 635.312073 419.53418 626.649597 428.192383 626.649597 438.804688 L 626.649597 475.400391 L 905.757935 475.400391 L 905.757935 438.804688 C 905.757935 428.192383 897.099609 419.53418 886.487061 419.53418"/>
        <path id="path6" fill="none" stroke="#368900" stroke-width="4.7125" stroke-linecap="round" stroke-linejoin="round" d="M 657.105835 777.827148 C 657.105835 822.793945 620.651672 859.251953 575.684998 859.251953 C 530.718323 859.251953 494.26416 822.797852 494.26416 777.827148 C 494.26416 732.860352 530.718323 696.402344 575.684998 696.402344 C 620.651672 696.402344 657.105835 732.860352 657.105835 777.827148 Z"/>
        <path id="path7" fill="none" stroke="#3abca9" stroke-width="4.7125" stroke-linecap="round" stroke-linejoin="round" d="M 538.759155 775.792969 L 562.021667 799.054688 L 609.10083 751.980469"/>
        <path id="path8" fill="none" stroke="#5590cc" stroke-width="3.5375" stroke-linecap="round" stroke-linejoin="round" d="M 657.105835 1094.546875 C 657.105835 1139.513672 620.651672 1175.972168 575.684998 1175.972168 C 530.718323 1175.972168 494.26416 1139.517578 494.26416 1094.546875 C 494.26416 1049.580078 530.718323 1013.12207 575.684998 1013.12207 C 620.651672 1013.12207 657.105835 1049.580078 657.105835 1094.546875 Z"/>
        <path id="path9" fill="#00bdf2" stroke="none" d="M 1003.173706 773.121094 C 1003.51123 771.766602 1003.786255 770.396484 1003.998779 768.996094 C 1004.061279 768.604492 1004.13208 768.212891 1004.177856 767.825195 C 1004.402954 766.016602 1004.557129 764.1875 1004.561279 762.321289 L 1004.561279 762.279297 C 1004.561279 736.825195 983.919556 716.183594 958.469604 716.183594 C 954.94458 716.183594 951.527954 716.617188 948.227905 717.367188 C 942.494629 685.108398 914.369629 660.591797 880.465454 660.591797 C 849.452881 660.591797 823.236206 681.09668 814.598755 709.279297 C 811.277954 708.637695 807.857056 708.279297 804.344604 708.279297 C 774.523804 708.279297 750.348755 732.454102 750.348755 762.279297 L 750.344604 762.279297 C 750.344604 763.929688 750.452942 765.558594 750.62793 767.163086 C 750.844604 769.475586 751.165405 771.758789 751.657104 773.983398 L 751.952942 773.983398 C 757.102905 792.871094 774.332031 806.779297 794.852905 806.779297 L 960.052856 806.779297 C 980.577881 806.779297 997.807129 792.871094 1002.952881 773.983398 L 1003.00293 773.983398 C 1003.07373 773.700195 1003.102905 773.404297 1003.173706 773.121094"/>
        <path id="path10" fill="#368900" stroke="none" d="M 876.563721 872.93457 C 876.826294 872.476563 876.980469 871.952148 876.972046 871.393555 L 876.730469 827.74707 C 876.713745 826.05957 875.347046 824.702148 873.663696 824.709961 C 871.963745 824.726563 870.634644 826.118164 870.630371 827.772461 L 870.880371 871.422852 C 870.892944 873.110352 872.259644 874.463867 873.942871 874.456055 C 875.067871 874.447266 876.038696 873.834961 876.563721 872.93457"/>
        <path id="path11" fill="#368900" stroke="none" d="M 890.857056 856.867188 L 857.202881 857.054688 C 855.398804 857.071289 854.477905 859.22168 855.711304 860.53418 L 872.640381 878.538086 C 873.465454 879.40918 874.852905 879.400391 875.665405 878.517578 L 892.390381 860.326172 C 893.607056 858.99707 892.657104 856.859375 890.857056 856.867188"/>
        <path id="path12" fill="#368900" stroke="none" d="M 951.240356 872.93457 C 951.50293 872.476563 951.657104 871.952148 951.648804 871.393555 L 951.407104 827.74707 C 951.390381 826.05957 950.023804 824.702148 948.340454 824.709961 C 946.640381 824.726563 945.311279 826.118164 945.307129 827.772461 L 945.557129 871.422852 C 945.56958 873.110352 946.936279 874.463867 948.619629 874.456055 C 949.744629 874.447266 950.715454 873.834961 951.240356 872.93457"/>
        <path id="path13" fill="#368900" stroke="none" d="M 965.533691 856.867188 L 931.879639 857.054688 C 930.075439 857.071289 929.154541 859.22168 930.387939 860.53418 L 947.317139 878.538086 C 948.137939 879.40918 949.529541 879.400391 950.342041 878.517578 L 967.067139 860.326172 C 968.283691 858.99707 967.33374 856.859375 965.533691 856.867188"/>
        <path id="path14" fill="#368900" stroke="none" d="M 801.887085 872.93457 C 802.149536 872.476563 802.303711 871.952148 802.29541 871.393555 L 802.053711 827.74707 C 802.037109 826.05957 800.67041 824.702148 798.987061 824.709961 C 797.287109 824.726563 795.957886 826.118164 795.953735 827.772461 L 796.203735 871.422852 C 796.216309 873.110352 797.582886 874.463867 799.266235 874.456055 C 800.391235 874.447266 801.362061 873.834961 801.887085 872.93457"/>
        <path id="path15" fill="#368900" stroke="none" d="M 816.18042 856.867188 L 782.526245 857.054688 C 780.722046 857.071289 779.80127 859.22168 781.034546 860.53418 L 797.963745 878.538086 C 798.788696 879.40918 800.17627 879.400391 800.98877 878.517578 L 817.713745 860.326172 C 818.93042 858.99707 817.980469 856.859375 816.18042 856.867188"/>
    </g>
    <path id="Text" fill="#ffffff" stroke="none" d="M 923.639893 749.702942 L 928.639587 752.309875 C 929.675232 749.131531 931.853699 747.23877 934.174988 747.23877 C 936.71051 747.23877 938.496155 748.881531 938.496155 751.70282 C 938.496155 754.202637 936.424866 755.773987 933.24646 758.05957 C 929.318115 760.880798 924.354187 763.666321 924.068481 769.344543 L 924.068481 771.915833 L 945.210022 771.915833 L 945.210022 766.451904 L 931.246582 766.451904 C 932.067993 765.380493 933.996399 764.166321 935.63916 762.987793 C 939.35321 760.345093 944.710022 757.452454 944.710022 751.845642 C 944.710022 745.596008 939.996033 741.774841 934.103577 741.774841 C 929.53241 741.774841 925.211243 744.988953 923.639893 749.702942 Z M 893.106079 772.630066 C 907.498047 772.630066 918.175964 762.380737 918.175964 747.73877 C 918.175964 733.203918 907.498047 722.70459 893.106079 722.70459 C 878.821289 722.70459 868.071899 733.203918 868.071899 747.73877 C 868.071899 762.380737 878.821289 772.630066 893.106079 772.630066 Z M 875.928589 747.667358 C 875.928589 737.23938 882.85675 729.811279 893.106079 729.811279 C 903.498291 729.811279 910.319336 737.23938 910.319336 747.667358 C 910.319336 758.345215 903.498291 765.523376 893.106079 765.523376 C 882.85675 765.523376 875.928589 758.345215 875.928589 747.667358 Z M 816.646545 747.667358 C 816.646545 761.845032 827.68158 772.630066 841.752136 772.630066 C 850.644409 772.630066 858.501099 768.273193 863.072205 760.845093 L 857.465454 756.952454 C 853.679932 762.52356 848.180298 765.523376 841.752136 765.523376 C 831.752747 765.523376 824.503174 758.05957 824.503174 747.667358 C 824.503174 737.310852 831.609924 729.811279 841.573547 729.811279 C 847.966003 729.811279 853.179993 732.739685 857.072632 738.596497 L 862.893677 734.525269 C 858.215393 727.025757 850.39447 722.70459 841.573547 722.70459 C 827.538696 722.70459 816.646545 733.52533 816.646545 747.667358 Z"/>
    <clipPath id="clipPath-XAOIx-2">
        <path d="M 191.320831 794.224609 C 191.320831 1120.608398 455.908325 1385.195801 782.291656 1385.195801 L 782.291656 1385.195801 C 1108.67923 1385.195801 1373.262604 1120.608398 1373.262604 794.224609 L 1373.262604 794.224609 C 1373.262604 467.837891 1108.67923 203.25 782.291656 203.25 L 782.291656 203.25 C 455.908325 203.25 191.320831 467.837891 191.320831 794.224609"/>
    </clipPath>
    <g id="g1" clip-path="url(#clipPath-XAOIx-2)">
        <path id="path16" fill="#368900" stroke="none" d="M 913.983765 1098.714844 C 917.254639 1096.768555 919.07959 1092.90625 918.183716 1088.994141 C 917.296265 1085.106445 914.008789 1082.422852 910.237915 1082.064453 C 912.992065 1079.443359 913.908691 1075.272461 912.167114 1071.65625 C 910.437866 1068.060547 906.633789 1066.176758 902.879639 1066.668945 C 904.979614 1063.498047 904.946289 1059.227539 902.450439 1056.089844 C 899.95874 1052.96875 895.82959 1051.985352 892.279541 1053.293945 C 893.625366 1049.735352 892.64209 1045.577148 889.504639 1043.081055 C 886.383789 1040.589844 882.14209 1040.543945 878.971191 1042.619141 C 879.487915 1038.847656 877.604614 1035.014648 873.987915 1033.272461 C 870.39624 1031.540039 866.250366 1032.443359 863.617065 1035.168945 C 863.283691 1031.376953 860.596191 1028.056641 856.683716 1027.165039 C 852.796265 1026.277344 848.950439 1028.081055 846.992065 1031.318359 C 845.825439 1027.698242 842.467041 1025.064453 838.45459 1025.064453 C 834.462891 1025.064453 831.117065 1027.672852 829.933716 1031.264648 C 827.983765 1027.998047 824.121216 1026.176758 820.212891 1027.064453 C 816.317139 1027.956055 813.64209 1031.248047 813.283813 1035.014648 C 810.658691 1032.260742 806.483765 1031.34375 802.875366 1033.081055 C 799.275391 1034.814453 797.39624 1038.619141 797.887939 1042.373047 C 794.712891 1040.268555 790.442139 1040.301758 787.308716 1042.806641 C 784.187866 1045.293945 783.196289 1049.422852 784.512939 1052.96875 C 780.95459 1051.630859 776.796265 1052.610352 774.296265 1055.748047 C 771.808716 1058.869141 771.762939 1063.114258 773.83374 1066.28125 C 770.062927 1065.764648 766.233765 1067.643555 764.487915 1071.260742 C 762.758728 1074.856445 763.658752 1079.005859 766.383728 1081.630859 C 762.592102 1081.964844 759.275391 1084.65625 758.383728 1088.564453 C 757.492065 1092.459961 759.296265 1096.301758 762.537903 1098.255859 C 758.917114 1099.426758 756.275452 1102.790039 756.275452 1106.797852 C 756.275452 1106.998047 756.321228 1107.181641 756.337891 1107.376953 C 756.312927 1107.573242 756.275452 1107.760742 756.275452 1107.959961 C 756.275452 1112.540039 759.992065 1116.255859 764.571228 1116.255859 L 909.554565 1116.255859 L 909.554565 1116.014648 C 910.087891 1116.114258 910.612915 1116.255859 911.175415 1116.255859 C 916.150391 1116.255859 920.192139 1112.214844 920.192139 1107.239258 C 920.192139 1103.244141 917.575439 1099.897461 913.983765 1098.714844"/>
        <path id="path17" fill="#44bf00" stroke="none" d="M 1015.635376 1129.449219 C 1018.90625 1127.50293 1020.731201 1123.640625 1019.835449 1119.727539 C 1018.947876 1115.84082 1015.6604 1113.157227 1011.889526 1112.798828 C 1014.643799 1110.177734 1015.560425 1106.006836 1013.818726 1102.390625 C 1012.0896 1098.794922 1008.2854 1096.911133 1004.53125 1097.40332 C 1006.631226 1094.232422 1006.5979 1089.960938 1004.102051 1086.824219 C 1001.610474 1083.703125 997.481201 1082.719727 993.931274 1084.02832 C 995.2771 1080.469727 994.293701 1076.311523 991.15625 1073.81543 C 988.0354 1071.324219 983.793701 1071.27832 980.622925 1073.352539 C 981.139526 1069.582031 979.256226 1065.749023 975.639526 1064.006836 C 972.047974 1062.273438 967.9021 1063.177734 965.268799 1065.90332 C 964.935425 1062.107422 962.247925 1058.790039 958.335449 1057.898438 C 954.447876 1057.011719 950.602051 1058.81543 948.643799 1062.052734 C 947.477051 1058.431641 944.118774 1055.794922 940.106201 1055.794922 C 936.114624 1055.794922 932.768799 1058.407227 931.585449 1061.999023 C 929.635376 1058.732422 925.772949 1056.911133 921.864624 1057.798828 C 917.96875 1058.69043 915.293701 1061.982422 914.935425 1065.749023 C 912.310425 1062.994141 908.135376 1062.074219 904.5271 1063.81543 C 900.927124 1065.548828 899.047974 1069.352539 899.539551 1073.107422 C 896.364624 1071.00293 892.09375 1071.036133 888.960449 1073.540039 C 885.8396 1076.02832 884.8479 1080.157227 886.164551 1083.707031 C 882.606201 1082.365234 878.447876 1083.344727 875.947876 1086.482422 C 873.460449 1089.602539 873.414551 1093.848633 875.485352 1097.015625 C 871.7146 1096.499023 867.885376 1098.37793 866.139526 1101.994141 C 864.4104 1105.59082 865.310425 1109.740234 868.0354 1112.365234 C 864.243774 1112.699219 860.927124 1115.390625 860.0354 1119.298828 C 859.143799 1123.194336 860.947876 1127.036133 864.185425 1128.990234 C 860.568726 1130.161133 857.927124 1133.523438 857.927124 1137.532227 C 857.927124 1137.732422 857.9729 1137.915039 857.989624 1138.111328 C 857.9646 1138.306641 857.927124 1138.494141 857.927124 1138.694336 L 857.927124 1138.699219 C 857.927124 1143.273438 861.643799 1146.990234 866.2229 1146.990234 L 1011.202026 1146.990234 L 1011.202026 1146.749023 C 1011.739624 1146.848633 1012.264526 1146.990234 1012.827026 1146.990234 C 1017.802124 1146.990234 1021.84375 1142.949219 1021.84375 1137.973633 C 1021.84375 1133.977539 1019.227051 1130.631836 1015.635376 1129.449219"/>
        <path id="path18" fill="#44bf00" stroke="none" d="M 850.38208 1129.449219 C 853.652954 1127.50293 855.477905 1123.640625 854.582031 1119.727539 C 853.69458 1115.84082 850.407104 1113.157227 846.63623 1112.798828 C 849.390381 1110.177734 850.307129 1106.006836 848.56543 1102.390625 C 846.836304 1098.794922 843.032104 1096.911133 839.273804 1097.40332 C 841.37793 1094.232422 841.344604 1089.960938 838.848755 1086.824219 C 836.357056 1083.703125 832.227905 1082.719727 828.677856 1084.02832 C 830.023804 1080.469727 829.040405 1076.311523 825.902954 1073.81543 C 822.782104 1071.324219 818.540405 1071.27832 815.369629 1073.352539 C 815.88623 1069.582031 814.00293 1065.749023 810.38623 1064.006836 C 806.794556 1062.273438 802.648804 1063.177734 800.015381 1065.90332 C 799.682129 1062.107422 796.994629 1058.790039 793.082031 1057.898438 C 789.19458 1057.011719 785.348755 1058.81543 783.390381 1062.052734 C 782.223755 1058.431641 778.865479 1055.794922 774.852905 1055.794922 C 770.861267 1055.794922 767.515442 1058.407227 766.332092 1061.999023 C 764.38208 1058.732422 760.519592 1056.911133 756.611267 1057.798828 C 752.715393 1058.69043 750.040405 1061.982422 749.682068 1065.749023 C 747.057068 1062.994141 742.88208 1062.074219 739.273743 1063.81543 C 735.673767 1065.548828 733.794556 1069.352539 734.286255 1073.107422 C 731.111267 1071.00293 726.840393 1071.036133 723.707092 1073.540039 C 720.586243 1076.02832 719.594604 1080.157227 720.911255 1083.707031 C 717.352905 1082.365234 713.19458 1083.344727 710.69458 1086.482422 C 708.207092 1089.602539 708.161255 1093.848633 710.232056 1097.015625 C 706.461243 1096.499023 702.62793 1098.37793 700.88623 1101.994141 C 699.157104 1105.59082 700.057068 1109.740234 702.782104 1112.365234 C 698.990417 1112.699219 695.673767 1115.390625 694.782104 1119.298828 C 693.890442 1123.194336 695.69458 1127.036133 698.932068 1128.990234 C 695.31543 1130.161133 692.673767 1133.523438 692.673767 1137.532227 C 692.673767 1137.732422 692.719604 1137.915039 692.736267 1138.111328 C 692.711243 1138.306641 692.673767 1138.494141 692.673767 1138.694336 L 692.673767 1138.699219 C 692.673767 1143.273438 696.390442 1146.990234 700.969604 1146.990234 L 845.94873 1146.990234 L 845.94873 1146.749023 C 846.486206 1146.848633 847.01123 1146.990234 847.57373 1146.990234 C 852.548706 1146.990234 856.590454 1142.949219 856.590454 1137.973633 C 856.590454 1133.977539 853.973755 1130.631836 850.38208 1129.449219"/>
        <path id="path19" fill="#aded83" stroke="none" d="M 964.991699 1142.088867 C 968.262451 1140.143555 970.087524 1136.28125 969.19165 1132.368164 C 968.304199 1128.480469 965.016724 1125.797852 961.24585 1125.439453 C 964 1122.818359 964.916626 1118.647461 963.175049 1115.03125 C 961.445801 1111.43457 957.641724 1109.551758 953.883301 1110.042969 C 955.987549 1106.868164 955.954224 1102.597656 953.458374 1099.463867 C 950.966675 1096.34375 946.837524 1095.360352 943.287476 1096.667969 C 944.633301 1093.110352 943.650024 1088.952148 940.512451 1086.456055 C 937.391724 1083.963867 933.150024 1083.917969 929.979126 1085.993164 C 930.49585 1082.222656 928.612549 1078.389648 924.99585 1076.647461 C 921.404175 1074.914063 917.258301 1075.818359 914.625 1078.542969 C 914.291626 1074.74707 911.604126 1071.430664 907.69165 1070.539063 C 903.804199 1069.651367 899.958374 1071.452148 898 1074.693359 C 896.833374 1071.072266 893.474976 1068.43457 889.462524 1068.43457 C 885.470825 1068.43457 882.125 1071.047852 880.94165 1074.639648 C 878.991699 1071.37207 875.12915 1069.547852 871.220825 1070.439453 C 867.324951 1071.331055 864.650024 1074.62207 864.291626 1078.389648 C 861.662476 1075.634766 857.491699 1074.713867 853.883301 1076.456055 C 850.283325 1078.189453 848.404175 1081.993164 848.895874 1085.74707 C 845.720825 1083.643555 841.449951 1083.676758 838.31665 1086.180664 C 835.195801 1088.667969 834.204224 1092.797852 835.520874 1096.347656 C 831.962524 1095.005859 827.804199 1095.985352 825.304199 1099.12207 C 822.81665 1102.243164 822.770874 1106.489258 824.841675 1109.65625 C 821.070801 1109.139648 817.237549 1111.018555 815.49585 1114.634766 C 813.766724 1118.230469 814.666626 1122.380859 817.391724 1125.005859 C 813.599976 1125.338867 810.283325 1128.03125 809.391602 1131.939453 C 808.5 1135.834961 810.304199 1139.676758 813.541626 1141.630859 C 809.925049 1142.801758 807.283325 1146.164063 807.283325 1150.172852 C 807.283325 1150.37207 807.329224 1150.555664 807.345825 1150.751953 C 807.320801 1150.947266 807.283325 1151.134766 807.283325 1151.334961 L 807.283325 1151.338867 C 807.283325 1155.914063 811 1159.630859 815.579102 1159.630859 L 960.55835 1159.630859 L 960.55835 1159.38916 C 961.095825 1159.489258 961.62085 1159.630859 962.18335 1159.630859 C 967.158325 1159.630859 971.199951 1155.588867 971.199951 1150.614258 C 971.199951 1146.618164 968.583374 1143.272461 964.991699 1142.088867"/>
        <path id="path20" fill="none" stroke="#dcd7ce" stroke-width="4.7125" stroke-linecap="round" d="M 494.525024 929.881836 L 1038.137451 929.881836"/>
        <path id="path21" fill="none" stroke="#dcd7ce" stroke-width="4.7125" stroke-linecap="round" d="M 494.525024 1258.006348 L 1038.137451 1258.006348"/>
        <path id="path22" fill="none" stroke="#113053" stroke-width="4.7125" stroke-linecap="round" stroke-linejoin="round" d="M 657.658752 1111.139648 L 604.933777 1083.635742"/>
        <path id="path23" fill="#286fb7" stroke="none" d="M 741.394165 1113.330078 L 704.373352 1180.996582 L 689.652527 1173.163574 L 620.094177 1109.717773 L 635.744141 1080.280273 L 726.831665 1105.046875 Z"/>
        <path id="path24" fill="#286fb7" stroke="none" d="M 689.768738 1173.038574 L 1085.5354 1385.192871 L 1249.3479 1385.192871 L 726.956238 1105.155273 Z"/>
        <path id="path25" fill="none" stroke="#113053" stroke-width="2.358333" stroke-linecap="round" stroke-linejoin="round" d="M 709.817078 1141.087891 L 1373.571289 1496.908203"/>
        <path id="path26" fill="#0a5280" stroke="none" d="M 1256.075439 1376.163574 L 1272.558716 1385.196777 L 1310.762939 1385.196777 L 1264.900391 1360.063477 Z"/>
    </g>
    <path id="path27" fill="none" stroke="#aded83" stroke-width="20.833334" d="M 782.29126 1385.195801 C 1108.678711 1385.195801 1373.262085 1120.608398 1373.262085 794.224609 C 1373.262085 467.837891 1108.678711 203.25 782.29126 203.25 C 455.907898 203.25 191.320435 467.837891 191.320435 794.224609 C 191.320435 1120.608398 455.907898 1385.195801 782.29126 1385.195801 Z"/>
</svg>
